<svg width="19" height="20" viewBox="0 0 19 20" fill="none" xmlns="http://www.w3.org/2000/svg">
<path fill-rule="evenodd" clip-rule="evenodd" d="M13.5 1H5.5C2.73858 1 0.5 3.23858 0.5 6V14C0.5 16.7614 2.73858 19 5.5 19H13.5C16.2614 19 18.5 16.7614 18.5 14V6C18.5 3.23858 16.2614 1 13.5 1ZM16.75 14C16.7445 15.7926 15.2926 17.2445 13.5 17.25H5.5C3.70735 17.2445 2.25549 15.7926 2.25 14V6C2.25549 4.20735 3.70735 2.75549 5.5 2.75H13.5C15.2926 2.75549 16.7445 4.20735 16.75 6V14ZM14.25 6.25C14.8023 6.25 15.25 5.80228 15.25 5.25C15.25 4.69772 14.8023 4.25 14.25 4.25C13.6977 4.25 13.25 4.69772 13.25 5.25C13.25 5.80228 13.6977 6.25 14.25 6.25ZM9.5 5.5C7.01472 5.5 5 7.51472 5 10C5 12.4853 7.01472 14.5 9.5 14.5C11.9853 14.5 14 12.4853 14 10C14.0027 8.8057 13.5294 7.65957 12.6849 6.81508C11.8404 5.97059 10.6943 5.49734 9.5 5.5ZM6.75 10C6.75 11.5188 7.9812 12.75 9.5 12.75C11.0188 12.75 12.25 11.5188 12.25 10C12.25 8.4812 11.0188 7.25 9.5 7.25C7.9812 7.25 6.75 8.4812 6.75 10Z" fill="#F8F2EA"/>
<path d="M12.8959 1.49492C12.5406 1.50794 12.0747 1.49401 11.7207 1.4749C11.6098 1.46897 11.6659 1.44246 11.5894 1.43718C11.4396 1.42687 11.3 1.43987 11.152 1.42759C11.1029 1.4234 11.164 1.38141 11.1125 1.37797C10.8306 1.35942 10.564 1.37011 10.2784 1.36119C8.87182 1.31716 7.48919 1.3014 6.0654 1.28227C5.88802 1.2799 5.69619 1.27299 5.5 1.2662C5.19382 1.25444 4.87345 1.27578 4.59416 1.34087C4.54196 1.35312 4.58053 1.38313 4.57115 1.38807C4.42541 1.46603 4.46146 1.38258 4.35734 1.39719C3.94423 1.45703 3.50338 1.63061 3.1614 1.84212C3.01648 1.93286 3.2009 1.90938 3.0334 1.96173C3.02175 1.96561 3.03835 1.90953 2.99613 1.93054C2.89978 1.97761 2.73638 2.09758 2.66868 2.14481C2.53736 2.23522 2.5169 2.25223 2.40093 2.34869C2.24311 2.4808 2.05224 2.63868 1.91156 2.81103C1.88179 2.84778 1.95293 2.82751 1.90883 2.88831C1.86408 2.94861 1.73775 3.10028 1.69088 3.14883C1.64339 3.19675 1.63501 3.15536 1.62211 3.16061C1.51275 3.20377 1.45435 3.4459 1.44217 3.47172C1.18965 3.94758 0.969071 4.35879 0.845092 4.85396C0.752951 5.22582 0.72197 5.636 0.721223 6C0.721208 6.00315 0.721191 6.0063 0.721173 6.00945C0.718422 6.46582 0.696685 6.85261 0.700421 7.29596C0.70077 7.34275 0.747935 7.28792 0.748456 7.34507C0.753944 7.95223 0.748803 8.55516 0.716962 9.1597C0.713727 9.22033 0.672316 9.14219 0.666608 9.20276C0.632576 9.57361 0.550821 10.1604 0.731122 10.3807C0.724082 10.6319 0.716807 10.9368 0.680463 11.1616C0.657071 11.3065 0.611958 11.1657 0.631208 11.3437C0.635497 11.3839 0.675005 11.3317 0.678449 11.3919C0.692912 11.6453 0.68007 11.9223 0.700482 12.173C0.704727 12.224 0.740128 12.2101 0.746503 12.2246C0.798129 12.346 0.712787 12.5482 0.706586 12.5923C0.660342 12.9279 0.67854 13.173 0.677411 13.4857C0.677129 13.5582 0.72468 13.4725 0.726117 13.5423C0.728961 13.6934 0.729907 13.8468 0.728509 14C0.726537 14.2052 0.73307 14.4082 0.745765 14.6067C0.750753 14.6823 0.70155 14.6186 0.701999 14.6552C0.706132 14.8173 0.787914 14.8401 0.8019 14.9923C0.805287 15.0247 0.767614 15.0141 0.76512 15.0207C0.72631 15.1251 0.828806 15.1842 0.836408 15.2061C0.937663 15.4881 0.918189 15.6994 1.047 15.9653C1.0627 15.9966 1.07064 15.9072 1.11236 15.9956C1.39146 16.5839 1.79418 17.1508 2.25495 17.6098C2.32675 17.681 2.25113 17.6578 2.25309 17.665C2.28982 17.7823 2.39797 17.7607 2.42508 17.7787C2.63966 17.9245 2.80469 18.1207 3.00875 18.1254C3.74704 18.6061 4.62737 18.8178 5.5 18.8492C5.72226 18.8575 5.94436 18.8697 6.16629 18.8876C6.18057 18.8886 6.15498 18.9305 6.18346 18.9325C6.52651 18.956 6.46063 18.8909 6.68762 18.8112C6.7448 18.7912 6.91874 18.8874 6.93413 18.8944C6.9902 18.9204 6.93205 18.9827 6.95083 18.9877C7.1062 19.0272 7.08088 18.8211 7.29048 18.8211C7.29704 18.8214 7.2695 18.8593 7.28709 18.8631C7.34174 18.875 7.39594 18.8599 7.44942 18.8729C7.57182 18.9032 7.61542 19.0033 7.80238 18.945C7.82604 18.9375 7.7899 18.8205 7.97704 18.8261C8.05164 18.8284 8.38187 18.8264 8.47442 18.8339C8.56686 18.8415 8.50339 18.8792 8.50999 18.8808C8.75905 18.9306 8.66461 18.9513 8.7894 19.025C8.91417 19.0985 8.87957 18.9233 8.93044 18.9037C8.98139 18.8842 9.16401 18.9253 9.20889 18.9396C9.25374 18.9539 9.1978 18.9778 9.23767 18.9859C9.50213 19.0388 9.35375 18.8989 9.44088 18.8711C9.64632 18.8052 9.80632 18.9352 9.99439 18.948C10.0453 18.9514 10.0038 18.9218 10.0491 18.919C10.2285 18.9085 10.3365 18.949 10.5406 18.9118C10.574 18.9058 10.7391 18.8276 10.8459 18.885C10.8611 18.8932 10.8181 18.9256 10.8946 18.9329C11.0088 18.9438 11.2147 18.9508 11.3375 18.94C11.4282 18.932 11.3243 18.8786 11.4384 18.8952C11.4891 18.9026 11.3951 18.9338 11.4904 18.9451C11.5852 18.9564 11.8276 18.9551 11.9198 18.954C12.0119 18.9529 11.9615 18.9124 11.9689 18.9097C12.0139 18.8941 12.1906 18.8745 12.2062 18.8746C12.6509 18.8718 13.0761 18.8923 13.5 18.9067C13.8208 18.9177 14.1441 18.8944 14.4642 18.8208C14.5217 18.8074 14.4746 18.7734 14.4833 18.7709C14.6761 18.7109 14.545 18.8563 14.6933 18.8606C14.6527 18.781 14.7384 18.7781 14.8733 18.7293C14.938 18.7055 14.8924 18.6839 14.8974 18.6788C14.979 18.6013 15.0655 18.641 15.0875 18.6478C15.1677 18.6728 15.217 18.5922 15.2716 18.6066C15.3267 18.6203 15.2443 18.7052 15.3738 18.6533C15.398 18.6101 15.2736 18.5731 15.3644 18.5219C15.7096 18.3409 16.3584 18.013 16.6019 17.8068C16.8479 17.6109 16.914 17.5324 17.0505 17.4095C17.2913 17.1802 17.1639 17.2283 17.2734 17.0554C17.3782 16.8793 17.4335 17.0465 17.4771 17.0428C17.5204 17.0385 17.5139 16.9928 17.5498 16.9735C17.5857 16.954 17.5558 17.0317 17.6126 16.9649C17.6709 16.8981 17.7547 16.6672 17.741 16.6238C17.714 16.5319 17.5989 16.5837 17.7332 16.4051C17.7409 16.3947 17.7541 16.4503 17.7819 16.4093C18.0016 16.0814 18.1615 15.7003 18.2919 15.3254C18.3098 15.2737 18.3388 15.3323 18.3497 15.302C18.4577 14.9849 18.357 15.0815 18.3128 14.8914C18.4102 14.9513 18.4995 14.8643 18.532 14.6101C18.5497 14.4566 18.4993 14.4788 18.4743 14.3784C18.4668 14.3487 18.5053 14.2427 18.4837 14.2226C18.4131 14.156 18.3322 14.253 18.3673 14C18.3674 13.9999 18.3674 13.9998 18.3674 13.9997C18.3679 13.9957 18.3732 13.9976 18.3799 14C18.3887 14.0031 18.4001 14.0072 18.4063 14C18.4088 13.9971 18.4105 13.9924 18.411 13.9852C18.4267 13.7301 18.3509 13.6996 18.3418 13.4239C18.3346 13.2078 18.3807 12.8235 18.3883 12.5774C18.5095 12.5826 18.4818 12.3502 18.3982 12.2559C18.4016 12.0962 18.3968 11.9238 18.4084 11.7694C18.4123 11.7163 18.4475 11.7512 18.4513 11.7445C18.5108 11.6418 18.4294 11.5724 18.4262 11.5379C18.3952 11.1644 18.4569 10.86 18.3966 10.5035C18.3945 10.4908 18.3102 10.4703 18.3717 10.375C18.376 10.3689 18.4143 10.4866 18.4173 10.3189C18.4202 10.1512 18.4654 9.83496 18.4263 9.6021C18.417 9.54574 18.3486 9.40321 18.402 9.28881C18.4093 9.27357 18.4334 9.29025 18.4469 9.26825C18.4897 9.19713 18.4045 9.1583 18.4769 9.07472C18.5492 8.99112 18.6034 8.81726 18.5535 8.58241C18.552 8.57493 18.4845 8.51934 18.4856 8.44549C18.4874 8.32759 18.5014 8.16023 18.501 8.03713C18.5008 7.97819 18.4589 8.01591 18.4581 8.00568C18.4346 7.60938 18.472 7.32733 18.4882 6.90278C18.4912 6.82495 18.4341 6.6013 18.4793 6.45063C18.5287 6.28519 18.7345 6.4552 18.6854 6.07494C18.6824 6.051 18.6734 6.02607 18.6611 6C18.5936 5.85118 18.4214 5.6902 18.5102 5.44829C18.418 4.92049 18.3519 4.41383 18.0866 3.9372C18.0747 3.91561 17.9769 3.87737 17.9531 3.82684C17.9178 3.75135 17.9267 3.69506 17.9004 3.64106C17.7898 3.41428 17.6411 3.23559 17.5015 3.03913C17.4477 2.9648 17.4955 2.96881 17.4289 2.88085C17.3613 2.79339 17.2796 2.76703 17.1969 2.64204C17.1343 2.54805 17.1237 2.39975 17.0201 2.28599C16.9512 2.35001 16.879 2.27585 16.7238 2.17672C16.6939 2.15786 16.7017 2.20688 16.6865 2.19929C16.6247 2.16928 16.5935 2.10953 16.532 2.08495C16.5171 2.07897 16.4971 2.10381 16.4839 2.10048C16.3722 2.07294 16.2709 1.91525 16.2516 1.88796C16.181 1.78387 16.1117 1.78991 16.045 1.728C15.9775 1.66632 16.1051 1.71441 16.0201 1.65132C15.8429 1.52003 15.5858 1.39991 15.3792 1.31657C15.2967 1.2834 15.3376 1.34546 15.3254 1.34162C15.1526 1.2849 14.9885 1.18574 14.8683 1.23992C14.8051 0.995316 14.7579 1.2275 14.5165 1.12976C14.4975 1.12225 14.4915 1.01483 14.5736 1.01655C14.6561 1.0185 14.7662 1.07808 14.88 1.08552C14.9065 1.08651 15.0808 1.03763 15.1034 1.03937C15.2762 1.0477 15.2448 1.20364 15.2497 1.21403C15.3087 1.33244 15.5155 1.30478 15.5643 1.31921C15.7826 1.37964 15.9421 1.48849 16.1156 1.56324C16.2286 1.61297 16.2931 1.53403 16.3746 1.5903C16.6441 1.78336 16.6421 1.96143 16.9537 2.06687C17.0196 2.09129 17.048 1.96312 17.1626 2.1911C17.1705 2.20569 17.2385 2.38478 17.3435 2.42473C17.3569 2.42974 17.3803 2.40745 17.3938 2.4181C17.4838 2.49031 17.5144 2.56449 17.6024 2.65227C17.6904 2.7402 17.7962 2.84878 17.8683 2.97204C17.9122 3.04642 17.921 3.17089 17.9298 3.21279C17.9544 3.33118 18.0754 3.40154 18.0645 3.48881C18.0525 3.57523 17.9199 3.49387 17.9752 3.66871C18.0528 3.63568 18.1366 3.60984 18.217 3.58128C18.4039 3.95216 18.5217 4.3453 18.6233 4.74554C18.6358 4.79529 18.6676 4.73354 18.682 4.78709C18.7419 5.01481 18.744 5.22081 18.7816 5.46047C18.8082 5.62985 18.8592 5.81562 18.8751 6C18.8765 6.01527 18.8777 6.0305 18.8787 6.04566C18.7825 6.15847 18.8152 6.43251 18.8064 6.63159C18.8034 6.70132 18.7777 6.69666 18.7693 6.74626C18.7383 6.93336 18.8233 6.84568 18.8367 6.89697C18.8938 7.11704 18.7014 7.13587 18.7061 7.39532C18.7063 7.40907 18.8089 7.57708 18.8153 7.60023C18.8569 7.74727 18.7796 7.62457 18.772 7.71659C18.7581 7.88461 18.7336 8.00136 18.7637 8.19849C18.7726 8.25597 18.8365 8.39386 18.7871 8.50548C18.7806 8.52017 18.7467 8.51205 18.7447 8.52387C18.7116 8.73782 18.8181 8.74344 18.8542 8.8657C18.8903 8.98798 18.8167 9.17684 18.7955 9.21527C18.7407 9.31582 18.7721 9.13822 18.7667 9.13278C18.7027 9.06881 18.7137 9.20655 18.7083 9.31179C18.6039 9.32703 18.6102 9.47421 18.7031 9.4209C18.7133 9.41483 18.7036 9.33293 18.7083 9.31179C18.8108 9.40418 18.8239 9.56593 18.7282 9.74459C18.6833 9.82821 18.631 9.74915 18.6501 10.0032C18.6587 10.1185 18.7307 10.0739 18.7503 10.1757C18.795 10.4081 18.7279 10.7102 18.7385 10.9498C18.7423 11.0368 18.7817 10.9521 18.7857 11.0115C18.7963 11.1693 18.7668 11.3084 18.7819 11.4668C18.7834 11.4811 18.8246 11.4461 18.8251 11.4953C18.8299 11.8688 18.8035 12.194 18.8028 12.584C18.8024 12.7724 18.8251 13.1092 18.8206 13.3044C18.8156 13.5222 18.789 13.7723 18.7746 14C18.7666 14.1337 18.7573 14.2569 18.755 14.3662C18.749 14.5648 18.7923 14.5249 18.8112 14.6141C18.8485 14.788 18.6981 15.0635 18.674 15.0967C18.674 15.0975 18.697 14.9282 18.6589 15.0135C18.6056 15.0564 18.6742 15.0946 18.674 15.0967C18.6617 15.121 18.5704 15.4502 18.5555 15.5166C18.549 15.5531 18.5923 15.5447 18.5881 15.5636C18.4862 16.0151 18.2988 16.4506 18.0332 16.8391C18.0282 16.8457 17.9978 16.8119 17.9864 16.8276C17.8253 17.0438 17.7659 17.2127 17.6479 17.4078C17.5292 17.602 17.395 17.7268 17.2488 17.7667C17.1367 17.8932 16.9335 18.029 16.8135 18.0988C16.6939 18.169 16.7293 18.2471 16.7206 18.2561C16.4444 18.528 16.2256 18.608 15.8698 18.7806C15.7007 18.8639 15.3587 19.0186 15.1655 19.0882C15.0132 19.1453 14.9138 19.1524 14.7722 19.2006C14.753 19.207 14.7818 19.239 14.7761 19.2419C14.6226 19.3245 14.6807 19.2154 14.6437 19.207C14.5089 19.174 14.4315 19.1584 14.228 19.2163C14.1822 19.2295 14.0548 19.379 13.9645 19.394C13.8477 19.4131 13.8888 19.3626 13.7666 19.3809C13.7562 19.3823 13.7599 19.412 13.6838 19.4135C13.6236 19.4145 13.5622 19.4143 13.5 19.4128C13.2217 19.4056 12.9285 19.3942 12.6468 19.3967C12.6004 19.397 12.6599 19.4437 12.5928 19.4449C12.2783 19.4504 11.9335 19.4487 11.6271 19.4268C11.5517 19.4213 11.599 19.3886 11.5826 19.3789C11.4821 19.3201 11.3395 19.4055 11.316 19.4071C10.7549 19.4482 10.3255 19.3709 9.75368 19.4077C9.72256 19.4098 9.48295 19.5014 9.37605 19.4229C9.36873 19.4176 9.26297 19.3373 9.16945 19.3922C9.16364 19.3957 9.22955 19.437 9.11454 19.4328C8.99953 19.4286 8.81444 19.4562 8.65635 19.4108C8.60629 19.3965 8.488 19.3163 8.33871 19.3802C8.32898 19.3847 8.0985 19.5291 8.01623 19.4295C8.00289 19.4131 8.01686 19.3076 7.83866 19.3616C7.80462 19.3721 7.86642 19.3957 7.77673 19.4104C7.63931 19.433 7.45723 19.4047 7.2883 19.4517C7.25884 19.4601 7.13343 19.5317 7.03284 19.4773C7.01708 19.4688 7.04701 19.4336 6.99389 19.4296C6.74126 19.4107 6.47674 19.4343 6.22023 19.4099C6.12938 19.4014 6.17583 19.3444 6.08113 19.3292C5.98641 19.3139 5.79559 19.2993 5.69648 19.3253C5.59735 19.3513 5.70564 19.442 5.55714 19.4493C5.53809 19.4502 5.51904 19.4511 5.5 19.4519C4.81516 19.4779 4.1425 19.3004 3.51662 19.0453C3.42082 19.0055 3.48826 19.0689 3.34639 19.0097C2.81647 18.8082 1.98033 18.261 1.69373 17.8524C1.46083 17.5359 1.83063 17.8559 1.64287 17.6288C1.55446 17.5199 1.37546 17.4715 1.35038 17.4461C1.10837 17.2049 1.01199 16.9819 0.844502 16.7282C0.810184 16.6753 0.80433 16.7504 0.775532 16.7046C0.676794 16.5477 0.60619 16.3655 0.531685 16.2061C0.498317 16.1344 0.474024 16.1604 0.448091 16.092C0.38645 15.928 0.346767 15.7772 0.325556 15.6061C0.323732 15.5907 0.392962 15.6772 0.356922 15.5551C0.298891 15.3566 0.268864 15.1024 0.200481 14.8742C0.180356 14.8062 0.104702 14.8142 0.136642 14.6562C0.14397 14.623 0.235795 14.6537 0.141846 14.4867C0.124886 14.4604 0.000822468 14.1656 0.0701374 14.0163C0.0722349 14.0117 0.0751252 14.0062 0.0785778 14C0.104103 13.9578 0.159794 13.879 0.149642 13.8096C0.147803 13.7989 0.107715 13.8417 0.103805 13.7765C0.0907213 13.5465 0.0949984 13.3055 0.0824424 13.0693C0.0790102 13.0063 0.0375272 13.1002 0.0337365 13.0062C0.0232513 12.7477 0.0338136 12.4249 0.046798 12.1721C0.0516638 12.0789 0.0860271 12.1433 0.0897666 12.1365C0.150591 12.0274 0.0684918 11.9629 0.0637047 11.9268C0.0350395 11.7016 0.073605 11.5302 0.0633995 11.3227C0.0606871 11.2654 0.0215411 11.306 0.0180505 11.2946C-0.0160547 11.1764 0.0542465 11.2645 0.0619957 11.1896C0.083938 10.98 0.0807919 10.7463 0.0757896 10.5343C0.0738947 10.4564 0.0285039 10.5439 0.0273278 10.474C0.0195062 10.0604 0.0238496 9.63039 0.0488732 9.22671C0.0536672 9.1507 0.0886194 9.19852 0.0966025 9.18268C0.152455 9.0735 0.0762717 8.91348 0.0690147 8.87665C0.0358794 8.70924 0.0667883 8.64421 0.0610191 8.49636C0.0322951 7.77411 0.0527665 6.88232 0.0654136 6.20056C0.0666589 6.1326 0.0680034 6.0658 0.069421 6C0.0943195 5.13774 0.281552 4.44463 0.630336 3.67818C0.655078 3.62559 0.587629 3.65831 0.608774 3.61241C0.88627 3.02034 1.28718 2.50548 1.75127 2.04652C1.78971 2.0089 1.70272 2.03001 1.76405 1.96844C1.88977 1.8419 2.06558 1.69838 2.21859 1.60239C2.29296 1.55569 2.22126 1.65572 2.29541 1.60861C2.46822 1.49967 2.65253 1.38406 2.83093 1.27515C2.90721 1.22883 2.7673 1.25527 2.869 1.19817C3.56162 0.812248 4.33753 0.577748 5.13743 0.583633C5.19271 0.584199 5.24446 0.672427 5.35746 0.651628C5.3654 0.625986 5.36422 0.596099 5.36737 0.568834C5.41146 0.567213 5.45568 0.566187 5.5 0.565757C6.51499 0.555008 7.52089 0.584556 8.53949 0.589278C8.58416 0.589475 8.50697 0.540927 8.59344 0.541061C9.09393 0.541778 9.57994 0.528329 10.0919 0.576583C10.1427 0.581302 10.1166 0.666709 10.2663 0.653792C10.2927 0.651435 10.5182 0.640045 10.5764 0.621505C10.5844 0.618708 10.5432 0.578844 10.6159 0.577682C11.038 0.571628 11.4805 0.580729 11.9019 0.605086C11.9699 0.609094 11.8975 0.651546 11.9459 0.654769C12.2896 0.677304 12.6634 0.645033 12.9917 0.683577C13.2115 0.70953 13.1302 0.782913 13.247 0.855147C13.2635 0.865338 13.3996 0.866953 13.4066 0.908979C13.4247 1.01466 13.3588 1.13038 13.3858 1.24302C13.3915 1.26729 13.5738 1.24115 13.4659 1.29979C13.4584 1.30371 13.3262 1.32317 13.2937 1.34306C13.271 1.35681 13.3118 1.39955 13.2656 1.41716C13.2194 1.43474 13.1686 1.39892 13.0919 1.4196C13.0153 1.44054 13.049 1.48916 12.8959 1.49492ZM16.2617 18.3838C16.1343 18.415 16.1949 18.553 16.2936 18.4499C16.2982 18.4448 16.2683 18.382 16.2617 18.3838ZM18.3979 4.38195C18.3858 4.55626 18.5071 4.63686 18.5243 4.51113C18.5396 4.38369 18.4008 4.32785 18.3979 4.38195ZM17.5763 2.92C17.646 3.10135 17.8374 3.00489 17.6798 2.86261C17.6705 2.85434 17.572 2.90934 17.5763 2.92ZM12.7053 0.875715C12.707 0.877701 12.8048 0.879637 12.8072 0.877669C12.8593 0.830173 12.6636 0.826335 12.7053 0.875715ZM16.3478 1.82132C16.3801 1.87709 16.5347 1.94912 16.4972 1.87761C16.4667 1.81892 16.3073 1.75051 16.3478 1.82132ZM9.99947 19.021C9.99756 19.0187 9.92742 19.0167 9.92883 19.0293C9.9336 19.0699 10.0312 19.0584 9.99947 19.021ZM13.7274 0.951113C14.1436 0.9825 14.3559 1.19775 13.9267 1.12783C13.848 1.11689 14.1019 1.08856 14.0029 1.06299C13.8189 1.01643 13.6914 1.11995 13.5035 1.0601C13.4682 1.04838 13.7031 0.947773 13.7281 0.950901C13.7279 0.950972 13.7276 0.951042 13.7274 0.951113ZM16.1066 18.2687C16.1036 18.2685 16.0194 18.3167 16.0183 18.3193C15.9967 18.3875 16.1681 18.2897 16.1066 18.2687ZM5.90647 18.9285C5.90111 18.9243 5.67577 18.9203 5.66842 18.9242C5.55087 19.0018 6.00644 19.01 5.90647 18.9285ZM18.3915 12.5736C18.3437 12.4676 18.3381 12.3409 18.3981 12.2564C18.3949 12.3617 18.3944 12.4677 18.3915 12.5736ZM17.1998 14.5736C17.1643 14.9116 17.0151 15.3381 16.847 15.6288C16.7948 15.7203 16.795 15.6607 16.7571 15.722C16.6822 15.8408 16.6255 15.9596 16.5373 16.0672C16.5079 16.1025 16.5055 16.032 16.4756 16.0691C16.3118 16.2709 16.1591 16.4636 15.9614 16.6367C15.2794 17.2344 14.3917 17.5634 13.5009 17.5493C13.1546 17.5434 12.8075 17.538 12.4575 17.5323C12.0696 17.526 11.598 17.4879 11.1973 17.5046C11.1505 17.5065 11.1784 17.5434 11.1695 17.5464C11.0299 17.5929 11.0763 17.5185 10.9852 17.5086C10.6235 17.4696 10.2212 17.4662 9.87311 17.4805C9.72501 17.4866 9.87351 17.5598 9.72438 17.5187C9.71403 17.5159 9.75161 17.4768 9.71099 17.4726C9.61888 17.4633 9.44414 17.4702 9.37275 17.4671C9.23517 17.461 9.21241 17.4614 9.08229 17.4609C8.9044 17.46 8.69282 17.4405 8.50196 17.4494C8.46122 17.4514 8.51515 17.4915 8.45018 17.4983C8.38516 17.5051 8.21312 17.5017 8.15512 17.4923C8.09711 17.4828 8.12181 17.4513 8.11154 17.4441C8.02708 17.3831 7.82808 17.4676 7.80249 17.4696C7.33565 17.5052 6.93532 17.4571 6.4971 17.4573C6.16717 17.4575 5.81457 17.4731 5.5 17.4712C5.49652 17.4712 5.49373 17.4712 5.49093 17.4711C5.0876 17.464 4.75218 17.3836 4.3832 17.2628C4.34426 17.2496 4.37438 17.3101 4.32638 17.2937C3.81588 17.1173 3.35286 16.8088 3.00623 16.4026C2.97173 16.3618 3.04887 16.3827 3.01668 16.3406C2.80953 16.0835 2.61745 15.629 2.37712 15.5321C2.28376 15.3304 2.19755 15.0721 2.18389 14.8728C2.17573 14.7447 2.24786 14.8529 2.19496 14.7079C2.18357 14.6748 2.15416 14.7273 2.14018 14.6767C2.08143 14.4623 2.07002 14.2196 2.04952 14.0006C2.04952 14 2.04952 14 2.04952 14C2.04527 13.9578 2.00987 13.9693 2.0035 13.9574C1.95187 13.857 2.03721 13.69 2.04341 13.6535C2.08966 13.3762 2.07146 13.1737 2.07259 12.9153C2.07287 12.8553 2.02532 12.9262 2.02388 12.8685C2.01707 12.5693 2.02115 12.2593 2.04225 11.9663C2.04706 11.9012 2.08757 11.9611 2.09194 11.93C2.11071 11.7926 2.03421 11.7622 2.05074 11.6305C2.05412 11.6027 2.0888 11.6184 2.09261 11.6133C2.15239 11.534 2.06768 11.4652 2.06581 11.4448C2.04026 11.1869 2.12869 11.022 2.11617 10.7729C2.11458 10.7431 2.07071 10.8103 2.06893 10.7265C2.05681 10.1684 2.06887 9.57802 2.10396 9.02552C2.10936 8.93962 2.14232 9.00094 2.14638 8.99554C2.20986 8.90743 2.1248 8.85043 2.1216 8.82242C2.09854 8.60144 2.16987 8.39503 2.06856 8.24489C2.09677 7.49398 2.06572 6.74583 2.09923 6C2.10805 5.80733 2.13687 5.6167 2.18682 5.4328C2.18994 5.42099 2.22748 5.44952 2.23352 5.42614C2.31291 5.14719 2.23995 5.19011 2.21863 4.97712C2.21401 4.92174 2.35559 4.81185 2.36724 4.80331C2.4087 4.76824 2.44893 4.8368 2.45936 4.82385C2.544 4.72011 2.344 4.6587 2.4232 4.49242C2.42601 4.48749 2.44955 4.52562 2.45964 4.51362C2.49099 4.47668 2.49905 4.42835 2.53249 4.39418C2.6106 4.31595 2.7124 4.33708 2.74899 4.17471C2.75437 4.15415 2.63726 4.11387 2.73702 3.98414C2.77467 3.9312 2.95634 3.70816 3.01957 3.65716C3.08046 3.60439 3.06947 3.67042 3.07466 3.66732C3.25963 3.55148 3.21777 3.62411 3.34314 3.60792C3.46776 3.59538 3.33189 3.48226 3.35231 3.43906C3.37263 3.39521 3.52097 3.3317 3.55996 3.32222C3.59884 3.31177 3.57491 3.35854 3.60657 3.34573C3.8164 3.26482 3.63755 3.2189 3.68425 3.15447C3.80005 3.00278 3.98699 3.05012 4.1333 2.99676C4.17365 2.98225 4.12959 2.9696 4.16352 2.95147C4.29964 2.88115 4.39794 2.88685 4.55198 2.80092C4.57609 2.7868 4.69437 2.67301 4.79737 2.71037C4.81167 2.71583 4.78296 2.7548 4.84762 2.74884C4.94398 2.73946 5.11583 2.72144 5.2177 2.70271C5.29323 2.68862 5.20125 2.64189 5.29966 2.65169C5.3432 2.65657 5.26567 2.69217 5.34641 2.69911C5.38103 2.7023 5.4388 2.70271 5.49986 2.70376C5.57799 2.70531 5.66082 2.70461 5.70394 2.704C5.78001 2.7029 5.73837 2.66241 5.74452 2.65969C5.78172 2.64406 5.92772 2.62454 5.94063 2.62459C6.5914 2.61965 7.19152 2.68789 7.82514 2.6653C7.87486 2.66359 7.84174 2.6209 7.84933 2.6202C8.01956 2.60231 7.88534 2.71581 8.00426 2.7538C7.98707 2.66717 8.05727 2.68286 8.17717 2.67336C8.23496 2.66871 8.20349 2.63517 8.20876 2.63173C8.29445 2.58078 8.35411 2.64659 8.36948 2.66005C8.42623 2.70957 8.48799 2.65106 8.52661 2.68416C8.5652 2.71701 8.47638 2.76572 8.59138 2.76509C8.62363 2.73408 8.53825 2.65304 8.62556 2.63991C8.95499 2.59023 9.56992 2.65381 9.83479 2.66042C10.0991 2.66702 10.1845 2.6613 10.3386 2.6725C10.6168 2.69277 10.5148 2.63264 10.6876 2.60512C10.8609 2.5776 10.7766 2.72554 10.8015 2.75734C10.826 2.78913 10.8527 2.75641 10.8831 2.77388C10.9134 2.79135 10.8478 2.81298 10.9191 2.81954C10.9904 2.82609 11.1855 2.76954 11.2107 2.73628C11.2642 2.66584 11.1763 2.5919 11.3651 2.61788C11.3759 2.61942 11.3407 2.65832 11.3823 2.66225C11.7124 2.6922 12.0554 2.69405 12.3852 2.72054C12.4305 2.72424 12.39 2.76751 12.4164 2.77016C12.6912 2.79784 12.593 2.72487 12.7436 2.64382C12.7098 2.75168 12.7931 2.81768 13.0017 2.81832C13.1271 2.81874 13.1055 2.77162 13.1866 2.73842C13.2109 2.72841 13.2997 2.76076 13.3158 2.7386C13.3688 2.66621 13.2853 2.58517 13.5 2.61735C13.5005 2.61736 13.5006 2.61738 13.5007 2.61739C13.5042 2.61794 13.5025 2.62322 13.5004 2.62992C13.4974 2.63875 13.494 2.65006 13.5 2.65634C13.5028 2.65884 13.5068 2.66055 13.5129 2.66103C13.7283 2.68171 13.7586 2.60677 13.9977 2.62923C14.186 2.64656 14.4982 2.77302 14.6896 2.85795C14.644 2.9693 14.8295 3.01406 14.9379 2.97509C15.0593 3.03664 15.1902 3.10444 15.2945 3.18516C15.3303 3.21292 15.2862 3.2263 15.289 3.23257C15.3279 3.32883 15.4205 3.29556 15.4465 3.31041C15.7218 3.47441 15.865 3.69707 16.1022 3.89118C16.1103 3.89801 16.1884 3.85928 16.1897 3.96224C16.1892 3.96881 16.0988 3.91253 16.1819 4.02785C16.2663 4.14415 16.3694 4.39104 16.4881 4.55063C16.5172 4.58813 16.6314 4.67276 16.6171 4.78404C16.6151 4.79875 16.5875 4.79441 16.5817 4.81653C16.5628 4.88708 16.6542 4.88925 16.6079 4.97897C16.5613 5.06909 16.551 5.21335 16.6366 5.3898C16.6391 5.39526 16.7144 5.42736 16.7231 5.48869C16.7373 5.58556 16.7383 5.72473 16.7439 5.82644C16.7467 5.87495 16.7869 5.84188 16.7881 5.85028C16.7943 5.90175 16.7976 5.95143 16.7988 5.99985C16.8042 6.25567 16.7755 6.4678 16.7618 6.7637C16.7588 6.82801 16.8159 7.01282 16.7707 7.13733C16.7213 7.27403 16.5155 7.13355 16.5646 7.44778C16.5842 7.57452 16.8452 7.73497 16.7099 7.96274C16.7435 8.40446 16.6742 8.81297 16.7221 9.25593C16.7242 9.27585 16.7971 9.33884 16.7961 9.38567C16.7945 9.45519 16.7604 9.49335 16.7582 9.54299C16.7479 9.751 16.777 9.94136 16.7725 10.1419C16.7709 10.2181 16.7357 10.1914 16.7337 10.2822C16.7318 10.373 16.7781 10.4335 16.7557 10.5565C16.7387 10.6494 16.6439 10.7423 16.6329 10.8656C16.7263 10.8703 16.7244 10.955 16.7491 11.1055C16.7539 11.1344 16.7864 11.1034 16.7903 11.1171C16.8071 11.1727 16.7801 11.2243 16.7984 11.2772C16.8028 11.29 16.8347 11.2906 16.8401 11.3012C16.8871 11.3906 16.8153 11.5379 16.8028 11.5632C16.7553 11.6602 16.7968 11.7056 16.7781 11.7799C16.7594 11.8542 16.7361 11.7432 16.7247 11.8299C16.7013 12.0097 16.7064 12.2408 16.7049 12.4234C16.7046 12.4963 16.7472 12.4466 16.7481 12.457C16.7589 12.6077 16.7136 12.7601 16.7984 12.8436C16.579 12.9481 16.8197 12.9345 16.7758 13.1499C16.7722 13.1669 16.6685 13.1884 16.6532 13.1233C16.638 13.0582 16.6705 12.9594 16.6467 12.869C16.6411 12.8476 16.5439 12.725 16.538 12.7083C16.492 12.5773 16.647 12.5587 16.6556 12.5518C16.7475 12.4732 16.6427 12.3234 16.6355 12.2839C16.6023 12.1034 16.6241 11.9501 16.6004 11.7991C16.5851 11.7004 16.4836 11.6907 16.4867 11.6132C16.497 11.3555 16.6387 11.2655 16.5158 11.0227C16.4896 10.9706 16.3786 11.0224 16.4659 10.8358C16.4714 10.8241 16.5512 10.6855 16.5007 10.6055C16.4943 10.5954 16.462 10.5958 16.4593 10.5825C16.4417 10.4937 16.4675 10.4344 16.4551 10.3376C16.4428 10.2408 16.4244 10.1245 16.4353 10.014C16.4419 9.94738 16.5022 9.86194 16.517 9.83006C16.5595 9.74005 16.4898 9.64353 16.5412 9.58777C16.593 9.53154 16.6716 9.64147 16.705 9.49402C16.6209 9.48856 16.5347 9.47601 16.4501 9.46723C16.4531 9.14407 16.4803 8.82612 16.4765 8.50188C16.476 8.46169 16.4308 8.50279 16.4291 8.4597C16.4219 8.27789 16.4541 8.1191 16.4413 7.93055C16.4312 7.78461 16.3833 7.62458 16.3713 7.47197C16.4675 7.37875 16.4348 7.1523 16.4436 6.9878C16.4466 6.93017 16.4723 6.93402 16.4807 6.89304C16.5117 6.73843 16.4267 6.81088 16.4133 6.7685C16.3562 6.58665 16.5486 6.57109 16.5439 6.35669C16.5437 6.34533 16.4411 6.2065 16.4347 6.18737C16.3931 6.06587 16.4704 6.16726 16.478 6.09122C16.4812 6.05898 16.485 6.02903 16.4886 6C16.4998 5.91205 16.5061 5.83118 16.4723 5.71866C16.4595 5.67508 16.3841 5.58226 16.4179 5.49165C16.4224 5.47962 16.4568 5.47972 16.4572 5.47049C16.4588 5.30289 16.3512 5.32191 16.294 5.24465C16.2368 5.16822 16.2616 5.01471 16.2705 4.97943C16.2952 4.8889 16.3128 5.02604 16.3186 5.02823C16.3949 5.05375 16.3511 4.95694 16.3254 4.8794C16.4187 4.82979 16.3665 4.72349 16.2979 4.79947C16.2906 4.8078 16.324 4.86231 16.3254 4.8794C16.2036 4.8504 16.1469 4.75097 16.167 4.58538C16.1751 4.50793 16.2539 4.53412 16.1341 4.37205C16.0782 4.29981 16.0367 4.36818 15.9772 4.31462C15.8425 4.19448 15.7477 3.97593 15.6068 3.85386C15.5564 3.81025 15.5755 3.88348 15.5403 3.85518C15.447 3.78142 15.3857 3.69069 15.2807 3.6302C15.2712 3.62488 15.2674 3.67345 15.2377 3.65193C15.0118 3.49181 14.8108 3.34951 14.5376 3.24357C14.4059 3.19074 14.1572 3.14501 14.0151 3.11729C13.8568 3.08327 13.6724 3.03913 13.4992 3.02459C13.396 3.01661 13.2976 3.01235 13.2126 3.01753C13.0569 3.02685 13.091 3.06807 13.0243 3.09615C12.8955 3.15058 12.6676 3.05308 12.6369 3.03798C12.6359 3.03748 12.77 3.02776 12.6984 3.00661C12.6569 2.96253 12.6384 3.03779 12.6369 3.03798C12.6167 3.02823 12.349 3.01887 12.2958 3.02675C12.2669 3.03106 12.2831 3.0701 12.268 3.07161C11.9101 3.10656 11.5514 3.11648 11.1884 3.09822C11.182 3.09743 11.1916 3.05376 11.1766 3.05245C10.9664 3.03303 10.8318 3.08646 10.6584 3.11818C10.4851 3.14989 10.3476 3.13927 10.245 3.06429C10.1142 3.07373 9.92658 3.04058 9.8186 3.02046C9.71063 3.00035 9.69556 3.08537 9.68606 3.08705C9.38974 3.14085 9.21845 3.09218 8.91103 3.08461C8.76487 3.08086 8.47496 3.0932 8.31671 3.10249C8.19164 3.10998 8.1163 3.09006 8.00106 3.1028C7.98547 3.1045 8.00122 3.14236 7.99646 3.14381C7.86785 3.18911 7.92966 3.09656 7.9031 3.08003C7.80683 3.01993 7.74735 2.98792 7.58265 3.01619C7.54467 3.02267 7.434 3.15592 7.36476 3.16371C7.27472 3.1736 7.3087 3.12584 7.21443 3.13741C7.20636 3.13835 7.20804 3.16782 7.14986 3.16652C6.87978 3.16088 6.58532 3.14373 6.30466 3.14668C6.26632 3.14697 6.31547 3.19371 6.26008 3.1949C6.01307 3.20017 5.7435 3.19887 5.5 3.17995C5.49017 3.17899 5.47909 3.17805 5.46808 3.17712C5.41354 3.17263 5.44687 3.13928 5.43475 3.12981C5.35867 3.07244 5.25835 3.16603 5.24283 3.16944C4.8491 3.25128 4.5233 3.26699 4.16875 3.49195C4.14781 3.50437 4.04812 3.66701 3.94283 3.64454C3.93618 3.64257 3.8255 3.61991 3.80296 3.70535C3.8018 3.71061 3.86406 3.71542 3.79568 3.76163C3.72673 3.80851 3.64421 3.91336 3.5313 3.9599C3.49614 3.97392 3.37499 3.98033 3.34973 4.10558C3.34601 4.11511 3.35341 4.33103 3.24068 4.31784C3.22237 4.31578 3.14137 4.2441 3.11062 4.38353C3.10544 4.41004 3.14973 4.38595 3.12607 4.44809C3.0907 4.54258 2.99935 4.6428 2.9883 4.77246C2.98594 4.79568 3.0137 4.9038 2.93711 4.94776C2.92501 4.95485 2.90048 4.9216 2.88253 4.95538C2.79695 5.11732 2.76594 5.30671 2.70844 5.48325C2.68842 5.54634 2.63789 5.50331 2.61189 5.57039C2.58557 5.63709 2.55634 5.77896 2.5793 5.85459C2.60214 5.92883 2.69532 5.85387 2.69971 5.96036C2.70041 5.97402 2.70112 5.9877 2.70187 6.00138C2.72773 6.51745 2.67737 7.03045 2.66982 7.54742C2.66865 7.62643 2.70112 7.56093 2.70174 7.67736C2.70415 8.10662 2.73459 8.84775 2.6656 9.22023C2.61035 9.51868 2.56828 9.1431 2.54579 9.37116C2.53507 9.48121 2.64055 9.60027 2.64388 9.62684C2.67761 9.88637 2.63088 10.0667 2.64522 10.3003C2.64819 10.3486 2.69095 10.3012 2.69301 10.3423C2.70042 10.4825 2.68134 10.6299 2.68483 10.7639C2.68649 10.824 2.71915 10.8129 2.71663 10.8683C2.71098 11.0006 2.69725 11.1177 2.66664 11.2467C2.66385 11.2584 2.62323 11.1791 2.62172 11.2771C2.61939 11.4355 2.5892 11.6323 2.62038 11.8146C2.62976 11.8687 2.70439 11.8708 2.65285 11.9871C2.64208 12.0115 2.55247 11.9804 2.6299 12.1159C2.64277 12.1387 2.74721 12.3662 2.67989 12.4779C2.66217 12.5074 2.58883 12.5826 2.60036 12.6476C2.6022 12.6564 2.64229 12.6211 2.6462 12.675C2.65928 12.865 2.655 13.0641 2.66756 13.2593C2.67099 13.3115 2.71247 13.2338 2.71626 13.3115C2.72674 13.5249 2.71621 13.7912 2.70325 14C2.70323 13.9988 2.70322 13.9991 2.7032 13.9993C2.69893 14.0662 2.66415 14.0205 2.66043 14.0253C2.60072 14.1064 2.68592 14.1501 2.69226 14.1753C2.73177 14.333 2.71166 14.4593 2.75323 14.603C2.76487 14.6423 2.79666 14.6053 2.80185 14.6124C2.85416 14.6853 2.7713 14.6415 2.77669 14.6951C2.79246 14.846 2.85126 15.0057 2.91804 15.1424C2.94273 15.1925 2.95824 15.1169 2.97991 15.1614C3.10951 15.4234 3.27629 15.6772 3.45442 15.9043C3.48804 15.947 3.43937 15.9463 3.44138 15.96C3.45592 16.0572 3.59489 16.0829 3.61885 16.0941C3.73034 16.1487 3.74647 16.2009 3.83495 16.2601C4.26185 16.5526 4.86561 16.7823 5.35738 16.8114C5.40575 16.8152 5.45371 16.8179 5.50132 16.8194C6.15631 16.8365 6.6916 16.8643 7.33811 16.8563C7.3826 16.8558 7.33774 16.8093 7.37609 16.8083C7.87129 16.7971 8.3588 16.8152 8.85499 16.8018C8.89571 16.8008 8.83702 16.7567 8.90237 16.7536C9.03642 16.7469 9.20623 16.7493 9.34176 16.7634C9.40787 16.7701 9.3192 16.808 9.38574 16.814C9.54068 16.8282 9.70677 16.8313 9.86592 16.8243C9.93365 16.8212 9.83146 16.7761 9.91949 16.7756C10.5191 16.7711 11.1081 16.7633 11.714 16.8217C11.7556 16.8257 11.792 16.9173 11.8804 16.8998C11.887 16.8743 11.8867 16.8444 11.8896 16.8172C12.4282 16.8082 12.9634 16.8168 13.5 16.8259C13.7897 16.8308 14.0813 16.7915 14.3607 16.7039C14.3913 16.6942 14.324 16.6652 14.3823 16.646C14.7202 16.5323 15.0146 16.3527 15.3256 16.1526C15.3562 16.1322 15.3987 16.2103 15.472 16.1258C15.4856 16.1116 15.5959 15.9863 15.61 15.9416C15.6118 15.9355 15.5626 15.9304 15.5969 15.8909C15.7965 15.6616 15.9772 15.3986 16.1206 15.1273C16.1438 15.0833 16.1621 15.1486 16.1789 15.1171C16.2994 14.8903 16.3395 14.6137 16.4083 14.3777C16.4533 14.2172 16.5188 14.2856 16.5982 14.1995C16.6098 14.187 16.6161 14.0798 16.6579 14.075C16.764 14.0623 16.878 14.1217 16.9913 14.1022C17.0165 14.0982 16.9917 13.9342 17.0496 14.0318C17.0539 14.0386 17.07 14.1584 17.0876 14.1892C17.1002 14.2108 17.1451 14.1753 17.1601 14.2194C17.1749 14.2639 17.1359 14.3081 17.1491 14.3808C17.1616 14.4543 17.2152 14.4289 17.1998 14.5736ZM9.33243 2.93056C9.23245 2.88973 9.2177 3.03928 9.32583 3.0035C9.33107 3.00159 9.33759 2.93256 9.33243 2.93056ZM16.5931 8.82793C16.659 8.69723 16.562 8.60778 16.5111 8.69999C16.4602 8.79218 16.5731 8.86775 16.5931 8.82793ZM16.6412 10.1833C16.6932 10.0305 16.4812 10.0065 16.524 10.1701C16.5265 10.1796 16.6382 10.1922 16.6412 10.1833ZM16.561 14.6271C16.5634 14.6263 16.58 14.5503 16.5782 14.5481C16.5391 14.4997 16.5066 14.6491 16.561 14.6271ZM16.6936 11.5283C16.7223 11.4806 16.6892 11.3433 16.6535 11.4025C16.6249 11.4502 16.658 11.5876 16.6936 11.5283ZM4.16747 3.0614C4.16507 3.05991 4.112 3.08251 4.11856 3.09346C4.13949 3.12816 4.20637 3.08477 4.16747 3.0614ZM16.6961 13.8142C16.7041 13.4764 16.8792 13.2717 16.8595 13.6395C16.8559 13.7061 16.8036 13.4959 16.7878 13.5807C16.7591 13.7358 16.869 13.8388 16.8101 13.9971C16.7993 14.0257 16.6952 13.8334 16.6958 13.8136C16.6959 13.8138 16.696 13.814 16.6961 13.8142ZM9.27486 2.75093C9.27286 2.74896 9.19262 2.74708 9.1907 2.74904C9.14724 2.79652 9.30889 2.80032 9.27486 2.75093ZM2.19695 5.65719C2.19102 5.66074 2.17271 5.85115 2.17764 5.8573C2.24807 5.95754 2.28355 5.58341 2.19695 5.65719ZM14.6916 2.86216C14.7932 2.8495 14.8987 2.88952 14.9376 2.97486C14.858 2.93332 14.775 2.89715 14.6916 2.86216ZM14.2807 5.75418C14.2978 5.74019 14.321 5.7515 14.3427 5.76703C14.3494 5.77184 14.3513 5.79844 14.3565 5.80285C14.3666 5.8114 14.3716 5.79705 14.3824 5.80712C14.3861 5.81055 14.3923 5.85223 14.3962 5.85485C14.4175 5.86878 14.431 5.85387 14.4506 5.85678C14.5493 5.87061 14.6448 5.83544 14.7321 5.78173C14.7606 5.76459 14.8181 5.75949 14.8283 5.72042C14.8294 5.71592 14.7992 5.69467 14.7973 5.69215C14.7683 5.65401 14.824 5.70347 14.8369 5.70305C14.8876 5.70143 14.9128 5.66999 14.9164 5.63516C14.9178 5.62028 14.8475 5.59585 14.8897 5.60463C14.8926 5.60515 14.9252 5.6272 14.9306 5.62593C14.9431 5.62293 14.9445 5.6051 14.9502 5.60054C14.9615 5.59171 14.9621 5.58953 14.9677 5.57859C14.9755 5.5639 15.0014 5.55253 14.9996 5.53206C14.999 5.52774 14.9597 5.51834 14.9554 5.51044C14.9511 5.50261 14.9593 5.48941 14.9699 5.48731C14.9805 5.48525 15.0098 5.49707 15.017 5.49839C15.0778 5.50883 15.0026 5.4652 15.001 5.46292C14.9782 5.41259 15.032 5.38744 15.0371 5.34487C15.0407 5.31341 15.027 5.27944 15.0288 5.25C15.0288 5.24975 15.0288 5.24951 15.0288 5.24926C15.0315 5.21404 15.0512 5.1821 15.0431 5.1473C15.0422 5.1437 14.996 5.15394 14.9949 5.14976C14.9835 5.1055 14.9792 5.06287 14.9952 5.0087C14.9968 5.00319 15.0381 4.9963 15.042 4.98983C15.0661 4.9522 15.1191 4.86645 14.9479 4.9267C14.9462 4.9063 14.9422 4.88264 14.9649 4.84898C14.9794 4.82713 15.0244 4.81483 15.0001 4.81124C14.9946 4.81047 14.9628 4.83425 14.9573 4.83177C14.9345 4.82163 14.9331 4.79579 14.9048 4.79103C14.899 4.79016 14.8707 4.81154 14.8649 4.81434C14.8179 4.8373 14.8778 4.77492 14.8803 4.76795C14.9005 4.71845 14.8726 4.71362 14.8566 4.69436C14.8528 4.68985 14.8225 4.72708 14.8177 4.72408C14.7938 4.70828 14.7767 4.68607 14.7696 4.65189C14.768 4.64417 14.7989 4.61731 14.7994 4.61199C14.8008 4.5885 14.7496 4.64541 14.7504 4.62479C14.7504 4.62048 14.7732 4.59432 14.7752 4.59104C14.8059 4.53906 14.748 4.60136 14.7455 4.60181C14.7107 4.60745 14.7483 4.5258 14.719 4.52166C14.7156 4.52136 14.6975 4.56184 14.6896 4.55889C14.6368 4.53964 14.5935 4.50424 14.5531 4.45136C14.5468 4.4432 14.5642 4.41454 14.5652 4.41056C14.5782 4.34764 14.543 4.42544 14.5395 4.42758C14.5112 4.44201 14.5098 4.36716 14.4679 4.4607C14.4023 4.41355 14.3243 4.43416 14.25 4.40077C14.2311 4.39252 14.2121 4.38094 14.1913 4.36432C14.1899 4.36335 14.1895 4.32139 14.1868 4.31966C14.1533 4.29857 14.1639 4.3632 14.1545 4.44431C14.1527 4.46461 14.1259 4.37118 14.1231 4.36449C14.1145 4.33949 14.1109 4.27705 14.1084 4.27232C14.0873 4.23553 14.121 4.43883 14.1048 4.4417C14.1042 4.44146 14.0999 4.4037 14.0977 4.40025C14.091 4.38942 14.0892 4.40509 14.0822 4.39314C14.0665 4.36545 14.0407 4.26844 14.0361 4.32926C14.0358 4.33713 14.065 4.45028 14.0491 4.44849C14.0426 4.44762 14.017 4.45671 14.0076 4.45178C13.9981 4.44677 13.992 4.40924 13.9911 4.40782C13.9551 4.36688 13.9567 4.34476 13.9217 4.27867C13.8857 4.21332 13.9463 4.37782 13.9486 4.39774C13.951 4.41755 13.9216 4.38459 13.9123 4.37288C13.9033 4.36107 13.8996 4.33682 13.8931 4.33067C13.8493 4.29116 13.915 4.41555 13.9184 4.44419C13.9282 4.51141 13.864 4.39774 13.8416 4.39425C13.8358 4.39322 13.8522 4.41822 13.8496 4.42251C13.8399 4.43903 13.8121 4.40769 13.8133 4.44933C13.8132 4.4563 13.8395 4.53104 13.8029 4.48609C13.7975 4.47966 13.7845 4.44971 13.7748 4.44705C13.7602 4.44299 13.7398 4.44736 13.7361 4.46273C13.7335 4.47404 13.7708 4.51337 13.7532 4.50516C13.7453 4.50156 13.7351 4.4708 13.7214 4.46637C13.7077 4.46192 13.6896 4.47639 13.6833 4.48248C13.677 4.48856 13.705 4.51813 13.7061 4.52075C13.7121 4.53573 13.7118 4.56059 13.7108 4.56137C13.6618 4.60596 13.5663 4.6043 13.5385 4.6742C13.5364 4.67952 13.5719 4.70347 13.5719 4.70456C13.5748 4.72966 13.4949 4.64774 13.4563 4.63537C13.5259 4.68695 13.5086 4.68355 13.5083 4.69993C13.5082 4.70784 13.5373 4.72492 13.5397 4.72744C13.5756 4.76468 13.5187 4.73108 13.5067 4.72485C13.4625 4.7015 13.5066 4.7406 13.4769 4.72539C13.4472 4.71067 13.4129 4.67449 13.4056 4.68642C13.4294 4.70669 13.5019 4.74391 13.5076 4.75904C13.5299 4.81423 13.4445 4.83744 13.4258 4.86262C13.4077 4.88607 13.4095 4.89705 13.3927 4.90854C13.3626 4.93001 13.4229 4.94111 13.4428 4.96697C13.4631 4.99246 13.3257 4.93721 13.2947 4.92962C13.2636 4.92238 13.2936 4.93579 13.2759 4.93388C13.2581 4.93212 13.2401 4.91752 13.231 4.9242C13.2218 4.93129 13.269 4.97106 13.3004 4.98255C13.3666 5.00741 13.4403 5.01795 13.4102 5.0301C13.4084 5.03084 13.3717 5.01731 13.3668 5.02072C13.3287 5.04844 13.3192 5.08643 13.288 5.12054C13.2837 5.12531 13.2414 5.11495 13.2383 5.11777C13.2068 5.14795 13.2807 5.14507 13.3598 5.16887C13.2528 5.15521 13.1859 5.15902 13.1836 5.18623C13.1822 5.20235 13.2295 5.20187 13.2623 5.2128C13.2721 5.21594 13.2395 5.22562 13.2616 5.22808C13.3339 5.23568 13.415 5.22794 13.3827 5.25C13.3826 5.25001 13.3826 5.25002 13.3826 5.25003C13.3821 5.25038 13.3768 5.25021 13.3701 5.25C13.3613 5.24972 13.3499 5.24934 13.3437 5.25C13.3412 5.25026 13.3395 5.25069 13.339 5.25135C13.3235 5.27495 13.3993 5.27603 13.4096 5.29819C13.4176 5.31538 13.3747 5.35194 13.3704 5.37498C13.2502 5.39089 13.2812 5.4109 13.3651 5.40463C13.3642 5.4193 13.3718 5.43325 13.3635 5.4493C13.3607 5.45484 13.3258 5.45953 13.3222 5.46095C13.2664 5.48393 13.3472 5.47182 13.351 5.47385C13.389 5.49828 13.3386 5.54391 13.4064 5.55453C13.4089 5.55498 13.4885 5.52747 13.4336 5.55648C13.4299 5.55859 13.3902 5.56196 13.3928 5.57726C13.3952 5.59203 13.3652 5.63768 13.41 5.64105C13.4208 5.64212 13.4875 5.62311 13.4443 5.65593C13.4384 5.66043 13.4162 5.66996 13.4051 5.67787C13.3701 5.70351 13.4472 5.66732 13.3869 5.70808C13.3266 5.74873 13.2889 5.79285 13.3446 5.78882C13.3462 5.78882 13.407 5.75892 13.4098 5.76549C13.4142 5.77618 13.4113 5.79768 13.4186 5.80761C13.422 5.81233 13.4547 5.78575 13.4559 5.78615C13.4962 5.80363 13.4815 5.84632 13.4962 5.889C13.4991 5.89718 13.5556 5.875 13.5321 5.91605C13.5073 5.96174 13.3449 6.09011 13.4116 6.08806C13.4398 6.0885 13.6318 5.9112 13.5612 6.02927C13.623 6.03927 13.6228 6.12572 13.6963 6.11616C13.6996 6.11578 13.7448 6.05822 13.7487 6.06178C13.7546 6.0673 13.7408 6.09873 13.7448 6.1037C13.7611 6.12529 13.795 6.11055 13.8137 6.12497C13.821 6.13041 13.8026 6.16063 13.8117 6.16722C13.8211 6.1738 13.8468 6.13465 13.8509 6.16096C13.854 6.18092 13.8282 6.27291 13.8398 6.28941C13.8748 6.20271 13.8839 6.2085 13.9095 6.19151C13.9143 6.18818 13.9219 6.15633 13.9247 6.15316C13.9363 6.13952 13.933 6.16692 13.9447 6.1516C13.9475 6.14792 13.9577 6.11769 13.9605 6.11295C13.9843 6.07138 13.9775 6.14442 13.9771 6.15732C13.9742 6.20602 13.991 6.16762 13.9942 6.18788C13.9978 6.20822 13.9789 6.22731 13.9862 6.24101C14.0016 6.26945 14.0316 6.27101 14.0536 6.27663C14.0625 6.27869 14.0642 6.23565 14.0656 6.23498C14.0848 6.2276 14.097 6.27527 14.1184 6.19253C14.1015 6.41164 14.1318 6.17303 14.1508 6.21922C14.1523 6.22293 14.1452 6.32652 14.135 6.34079C14.1247 6.35503 14.1157 6.32134 14.1009 6.34329C14.0977 6.34851 14.0669 6.44231 14.0633 6.44766C14.0366 6.49007 14.0602 6.33664 14.0609 6.32815C14.0671 6.23598 14.0297 6.33539 14.0223 6.34123C13.9915 6.36867 13.9761 6.3425 13.9501 6.36002C13.9331 6.37125 13.9039 6.46852 13.8934 6.46222C13.8575 6.44066 13.8935 6.30322 13.8186 6.40664C13.8023 6.42849 13.7696 6.53502 13.7742 6.44303C13.7742 6.43711 13.7859 6.35568 13.7553 6.39742C13.7513 6.40267 13.7385 6.43238 13.7356 6.43405C13.7158 6.4446 13.7179 6.41731 13.6992 6.42216C13.6805 6.427 13.6555 6.43523 13.645 6.41742C13.6385 6.40667 13.6555 6.34734 13.6586 6.3322C13.6677 6.28873 13.621 6.34226 13.6397 6.29357C13.6593 6.24504 13.7113 6.18456 13.7124 6.14628C13.6685 6.21799 13.6225 6.29099 13.5775 6.36259C13.5356 6.33372 13.5109 6.28371 13.4698 6.25656C13.4646 6.25321 13.4419 6.29278 13.4355 6.28997C13.4082 6.27764 13.4097 6.237 13.3794 6.22716C13.3558 6.21967 13.3042 6.23694 13.2777 6.22754C13.3347 6.14871 13.2875 6.14684 13.2766 6.12133C13.2728 6.11257 13.2925 6.09599 13.2947 6.08579C13.3028 6.04786 13.2455 6.11149 13.231 6.11507C13.168 6.1289 13.3152 6.00502 13.2931 5.98427C13.2921 5.98343 13.1976 6.02845 13.1905 6.02943C13.1455 6.03848 13.2174 6.00579 13.2167 5.99192C13.2155 5.96649 13.2279 5.94138 13.1894 5.93729C13.1782 5.93641 13.1143 5.95502 13.149 5.91684C13.1536 5.91189 13.1831 5.89521 13.184 5.89294C13.1991 5.85366 13.1069 5.90673 13.0673 5.90991C13.0275 5.91274 13.0804 5.85542 13.0972 5.84173C13.1402 5.80542 13.1225 5.83962 13.1276 5.83775C13.188 5.81488 13.1704 5.80526 13.1696 5.79154C13.262 5.74297 13.2494 5.73145 13.1684 5.77754C13.1596 5.78266 13.1727 5.78716 13.1696 5.79154C13.0731 5.82792 13.0509 5.81218 13.1292 5.75284C13.1661 5.72527 13.2176 5.71282 13.1887 5.69378C13.1757 5.68496 13.1111 5.71704 13.0882 5.71266C13.0356 5.7016 13.0859 5.64282 13.0674 5.61862C13.0605 5.60952 13.026 5.63115 13.02 5.62514C13.0039 5.60881 13.0276 5.58384 13.0079 5.56826C13.0061 5.56682 12.9673 5.58145 12.9652 5.57532C12.9486 5.52855 12.9662 5.48146 12.9599 5.43188C12.9567 5.40805 12.9295 5.36669 12.9325 5.34071C12.9355 5.31162 12.9609 5.2787 12.9754 5.25C12.9834 5.23407 12.9879 5.21943 12.9832 5.20641C12.9748 5.18254 12.9335 5.18576 12.906 5.17352C12.8527 5.14875 12.9533 5.11955 12.9688 5.11726C12.9693 5.11725 12.977 5.13848 12.9991 5.12967C13.0436 5.1278 12.969 5.1176 12.9688 5.11726C12.9787 5.11498 12.9928 5.07563 12.9864 5.06657C12.9827 5.06159 12.9437 5.05839 12.9426 5.05583C12.9163 4.9945 12.9193 4.93282 12.953 4.88113C12.954 4.88036 12.9956 4.89377 12.9975 4.89186C13.0251 4.86605 12.9806 4.83042 12.9602 4.7927C12.9398 4.75524 12.9589 4.73609 13.0343 4.74977C13.0335 4.7269 13.076 4.71298 13.1012 4.70699C13.1263 4.70103 13.0511 4.66153 13.0502 4.65935C13.0236 4.59219 13.0808 4.58923 13.1124 4.55185C13.1276 4.53384 13.1429 4.48853 13.1505 4.46226C13.1563 4.44134 13.1796 4.44357 13.1808 4.42109C13.181 4.41805 13.1496 4.39684 13.1489 4.39534C13.1266 4.35035 13.1929 4.41587 13.2085 4.42278C13.2651 4.44819 13.2947 4.46233 13.2894 4.42505C13.2879 4.41681 13.1994 4.31557 13.2019 4.30125C13.2049 4.28329 13.2362 4.31985 13.2383 4.30055C13.2386 4.29893 13.2169 4.27895 13.2246 4.27267C13.2604 4.24325 13.3079 4.22178 13.3415 4.18916C13.3462 4.18475 13.3095 4.15465 13.316 4.14755C13.3466 4.11424 13.3876 4.08497 13.4357 4.07823C13.4476 4.0767 13.4607 4.10744 13.4681 4.11414C13.5124 4.15499 13.4807 4.07357 13.4829 4.0702C13.5282 3.99227 13.6182 4.03098 13.6738 3.96538C13.6762 3.96184 13.6726 3.86356 13.7167 3.93058C13.7199 3.93492 13.7626 4.00434 13.7547 3.94855C13.7543 3.94504 13.7308 3.90971 13.7476 3.90786C13.7642 3.90611 13.7805 3.871 13.8159 3.90737C13.8275 3.91869 13.8656 3.99062 13.867 3.92374C13.866 3.91928 13.8608 3.77079 13.8975 3.86443C13.9035 3.87988 13.9271 3.98255 13.9375 3.92446C13.9396 3.9132 13.9259 3.89223 13.9348 3.87509C13.9489 3.84863 13.9792 3.87117 13.9945 3.82075C13.9969 3.81185 14.0039 3.73799 14.027 3.78947C14.0306 3.79755 14.0316 3.83299 14.0396 3.83578C14.0773 3.8493 14.1121 3.82182 14.1498 3.84359C14.163 3.85128 14.1604 3.90849 14.1738 3.92298C14.1873 3.93744 14.2118 3.95118 14.2242 3.92497C14.237 3.89875 14.2207 3.80818 14.2418 3.80073C14.2445 3.79978 14.2473 3.79892 14.25 3.79813C14.3409 3.77229 14.4277 3.83085 14.5116 3.8543C14.5246 3.85796 14.5196 3.82389 14.5396 3.82724C14.6124 3.83793 14.7503 3.84901 14.7833 3.93842C14.808 4.00854 14.7351 4.02364 14.7598 4.05844C14.7708 4.07479 14.8318 3.98669 14.8375 3.98574C14.8918 3.97392 14.8978 4.02975 14.9383 4.03619C14.9468 4.03762 14.9611 3.99651 14.9682 3.99824C14.9931 4.00397 15.005 4.03357 15.0261 4.04305C15.0357 4.04725 15.0519 4.01887 15.0587 4.02634C15.0749 4.04387 15.0842 4.06704 15.0839 4.10467C15.0837 4.10804 15.0493 4.1332 15.0614 4.14392C15.0813 4.16141 15.0874 4.20436 15.13 4.19948C15.1427 4.19791 15.1917 4.14155 15.1729 4.19344C15.169 4.20434 15.1056 4.26786 15.1737 4.22483C15.1845 4.21709 15.2853 4.16802 15.2523 4.23017C15.2436 4.24648 15.2005 4.30701 15.2159 4.30632C15.2182 4.30609 15.2428 4.27384 15.2519 4.27756C15.2835 4.29133 15.3029 4.31905 15.3337 4.33617C15.3421 4.34079 15.3652 4.30379 15.3768 4.31178C15.409 4.33388 15.4296 4.37817 15.4397 4.41535C15.4434 4.42912 15.4099 4.44115 15.4074 4.44412C15.366 4.49106 15.4386 4.45202 15.4456 4.45386C15.4874 4.46499 15.4679 4.50665 15.4914 4.5266C15.4978 4.53229 15.5288 4.50764 15.5326 4.5073C15.5709 4.50539 15.5035 4.52921 15.502 4.54234C15.4977 4.57912 15.5154 4.60618 15.533 4.63113C15.5395 4.64026 15.575 4.60934 15.5804 4.61798C15.6135 4.66908 15.6334 4.73081 15.6279 4.79389C15.6267 4.8058 15.5914 4.81009 15.5845 4.81472C15.536 4.84608 15.615 4.84429 15.6235 4.84771C15.662 4.86152 15.6347 4.87912 15.6455 4.89794C15.6996 4.99161 15.696 5.12581 15.6843 5.22156C15.6833 5.23121 15.682 5.24068 15.6806 5.25C15.6629 5.36248 15.6254 5.44757 15.6103 5.55443C15.6091 5.56184 15.6561 5.56463 15.6557 5.57131C15.6474 5.65808 15.604 5.73321 15.5828 5.81725C15.5809 5.82422 15.6255 5.83197 15.6238 5.84399C15.6204 5.86883 15.6052 5.89582 15.5817 5.91126C15.5704 5.91872 15.5436 5.88787 15.533 5.89549C15.5083 5.91297 15.4923 5.93602 15.4848 5.96313C15.4816 5.97478 15.5295 5.98206 15.5222 5.9957C15.4729 6.08869 15.4136 6.18126 15.2998 6.21849C15.2919 6.22111 15.221 6.16285 15.224 6.18512C15.2416 6.20351 15.2632 6.22421 15.2824 6.24341C15.1882 6.3624 15.0479 6.42883 14.9161 6.49376C14.9105 6.49656 14.9431 6.53418 14.9321 6.53992C14.8683 6.57288 14.8067 6.61455 14.7217 6.59329C14.7133 6.59118 14.6887 6.50942 14.674 6.52797C14.6715 6.53138 14.6461 6.55139 14.6437 6.57135C14.6434 6.57435 14.6604 6.61091 14.6509 6.61493C14.5952 6.63763 14.531 6.64267 14.4695 6.62768C14.4596 6.62518 14.4629 6.5817 14.4559 6.57952C14.4081 6.56417 14.3615 6.60118 14.316 6.56479C14.2865 6.54012 14.2942 6.46629 14.2787 6.3945C14.2766 6.38438 14.2612 6.38302 14.2601 6.34097C14.2576 6.23532 14.2623 6.11954 14.2587 6.00693C14.2579 5.9827 14.2447 6.00886 14.2524 5.95021C14.253 5.9463 14.262 5.92675 14.2636 5.9068C14.2648 5.89302 14.2614 5.85035 14.2638 5.83269C14.266 5.81504 14.27 5.85078 14.2738 5.82993C14.2773 5.80882 14.2733 5.76036 14.2807 5.75418ZM13.2137 4.68412C13.2561 4.69173 13.1269 4.61646 13.1502 4.64824C13.1515 4.64987 13.2116 4.6838 13.2137 4.68412ZM13.5775 6.19152C13.6019 6.12783 13.5342 6.19819 13.5145 6.24702C13.4957 6.29643 13.5706 6.21115 13.5775 6.19152ZM13.76 6.24486C13.7657 6.18962 13.6651 6.37634 13.7064 6.34909C13.7087 6.34757 13.7597 6.24811 13.76 6.24486ZM14.3384 6.37086C14.338 6.3689 14.3271 6.36776 14.3269 6.36973C14.3241 6.41755 14.347 6.41974 14.3384 6.37086ZM13.9414 6.26056C13.9442 6.23146 13.9177 6.25771 13.9139 6.29396C13.9113 6.32331 13.9385 6.29697 13.9414 6.26056ZM13.8097 4.32862C13.8108 4.33054 13.8181 4.32933 13.8126 4.31799C13.7949 4.28146 13.7905 4.29625 13.8097 4.32862ZM14.2265 6.30365C14.1821 6.29439 14.1738 6.11772 14.2114 6.1397C14.2186 6.14361 14.193 6.19475 14.2016 6.21098C14.2189 6.24059 14.2327 6.13092 14.2497 6.1899C14.2535 6.20073 14.2295 6.30463 14.2264 6.3039C14.2264 6.30382 14.2264 6.30373 14.2265 6.30365ZM13.3746 4.76427C13.3765 4.765 13.3828 4.75756 13.3812 4.75639C13.3426 4.72815 13.3293 4.74399 13.3746 4.76427ZM14.2125 4.32226C14.2132 4.32639 14.2339 4.32975 14.2345 4.32592C14.2449 4.24797 14.1993 4.24101 14.2125 4.32226ZM13.3673 5.37577C13.4159 5.37836 13.423 5.38691 13.3651 5.40458C13.3667 5.39481 13.3657 5.3854 13.3673 5.37577ZM9.25977 6.00199C9.11939 6.02271 8.93588 6.03021 8.79307 6.03669C8.74848 6.03869 8.76575 6.00862 8.73454 6.00909C8.67358 6.01024 8.6209 6.03477 8.56021 6.03647C8.53997 6.03696 8.55433 5.99038 8.53316 5.9919C8.41687 6.00084 8.31439 6.04104 8.20053 6.06919C7.63867 6.20869 7.11965 6.4905 6.66639 6.87587C6.51689 7.00203 6.32255 7.15084 6.2066 7.32074C6.19312 7.34047 6.23072 7.35264 6.23023 7.35805C6.22258 7.44189 6.17908 7.37725 6.14268 7.40783C5.99881 7.52936 5.87951 7.70147 5.80296 7.86287C5.77064 7.9317 5.87171 7.90189 5.79881 7.94771C5.79381 7.95099 5.76896 7.91515 5.7552 7.93133C5.72381 7.96814 5.68839 8.0508 5.66938 8.08229C5.63236 8.14289 5.62769 8.15366 5.59919 8.21414C5.56014 8.29672 5.49995 8.38991 5.47358 8.48549C5.4681 8.50586 5.51532 8.494 5.51016 8.5275C5.50484 8.56087 5.47294 8.64216 5.45489 8.6675C5.43668 8.69272 5.41062 8.67105 5.40211 8.67383C5.33004 8.69725 5.38163 8.82066 5.38049 8.83341C5.35049 9.07235 5.26457 9.26339 5.23742 9.48828C5.21738 9.65708 5.22282 9.83817 5.22123 10C5.22122 10.0017 5.2212 10.0033 5.22118 10.005C5.21907 10.199 5.20815 10.3644 5.23552 10.5522C5.23843 10.5718 5.28219 10.5428 5.28585 10.5666C5.32513 10.8196 5.37577 11.067 5.42436 11.3206C5.42927 11.3461 5.37955 11.3272 5.38219 11.3537C5.39677 11.514 5.42184 11.7881 5.62639 11.7966C5.66454 11.896 5.71716 12.0137 5.7329 12.1153C5.74328 12.1808 5.67395 12.1508 5.72927 12.2078C5.74176 12.2206 5.7644 12.1812 5.78049 12.2016C5.84808 12.2874 5.90172 12.3939 5.98017 12.4698C5.99617 12.4851 6.02163 12.4598 6.03036 12.4611C6.10155 12.4726 6.08377 12.591 6.09076 12.6101C6.14161 12.7518 6.22446 12.8216 6.3136 12.9209C6.33442 12.944 6.34459 12.8849 6.36576 12.9056C6.47505 13.0136 6.58583 13.1263 6.68587 13.2411C6.70812 13.2667 6.65824 13.2771 6.66761 13.291C6.71 13.352 6.77109 13.3032 6.81333 13.3585C6.8224 13.3701 6.79447 13.3922 6.79414 13.3968C6.78945 13.4695 6.87031 13.4248 6.8796 13.4295C7.00055 13.4894 7.01978 13.6108 7.13668 13.6719C7.1506 13.679 7.14499 13.6233 7.18251 13.6452C7.43264 13.7906 7.69863 13.9376 7.95606 14.0723C7.9962 14.0932 7.95465 14.1128 7.95582 14.1176C7.97759 14.1935 8.03512 14.1236 8.04978 14.1253C8.16554 14.1417 8.24993 14.2414 8.35266 14.1645C8.72198 14.2951 9.1127 14.316 9.5 14.3491C9.59729 14.3573 9.69299 14.3664 9.79175 14.378C9.79805 14.3787 9.7896 14.4212 9.80223 14.4223C9.95447 14.4344 9.92056 14.3712 10.0086 14.2816C10.0302 14.2591 10.1167 14.3445 10.1247 14.3504C10.1526 14.3726 10.1363 14.4379 10.1452 14.4417C10.2193 14.4706 10.1773 14.2689 10.2651 14.2536C10.2679 14.2534 10.2629 14.2928 10.271 14.2952C10.2964 14.3027 10.3167 14.2836 10.3418 14.292C10.399 14.3115 10.44 14.4056 10.5077 14.3303C10.516 14.3205 10.4747 14.2106 10.5535 14.1969C10.5851 14.192 10.7214 14.1525 10.7612 14.1476C10.8013 14.1433 10.7864 14.1872 10.7896 14.188C10.908 14.203 10.8752 14.2348 10.9513 14.2873C11.0283 14.3386 10.9562 14.178 10.9705 14.1522C10.9848 14.1267 11.0737 14.1376 11.0974 14.1436C11.121 14.1497 11.1066 14.181 11.126 14.1821C11.2551 14.1878 11.1414 14.0824 11.1661 14.0424C11.222 13.948 11.3371 14.0388 11.4182 14.0143C11.4398 14.0077 11.4106 13.9889 11.4273 13.9778C11.493 13.9339 11.5542 13.9482 11.6151 13.8727C11.6255 13.8603 11.6491 13.7577 11.7176 13.7837C11.7275 13.7875 11.7277 13.825 11.7603 13.8142C11.8089 13.7982 11.8901 13.756 11.9293 13.7171C11.9581 13.6885 11.8908 13.6691 11.9413 13.6554C11.9639 13.6492 11.947 13.6982 11.9881 13.6841C12.0293 13.6703 12.1159 13.6072 12.1478 13.5819C12.1797 13.5568 12.1376 13.5376 12.1386 13.5335C12.1452 13.5093 12.1941 13.447 12.1993 13.4428C12.4627 13.2291 12.7383 13.0522 12.9338 12.7759C12.949 12.7543 12.9047 12.7412 12.9067 12.7376C12.9483 12.6566 12.9933 12.7827 13.0626 12.7557C12.9885 12.7098 13.0241 12.6901 13.0545 12.6333C13.069 12.6059 13.032 12.5995 13.0309 12.5952C13.0164 12.529 13.0876 12.5421 13.1035 12.543C13.1614 12.5469 13.132 12.4865 13.1708 12.4883C13.2095 12.4895 13.2231 12.5566 13.2573 12.5046C13.241 12.4731 13.1486 12.4658 13.1631 12.4201C13.2193 12.2509 13.4295 12.0014 13.4934 11.8745C13.5583 11.7504 13.5697 11.7059 13.6106 11.6346C13.683 11.5042 13.6073 11.5329 13.6118 11.4389C13.6152 11.3447 13.741 11.4333 13.7755 11.431C13.8098 11.4285 13.7833 11.4044 13.805 11.3941C13.8267 11.3838 13.8363 11.4246 13.8545 11.3894C13.8731 11.3537 13.8489 11.2357 13.8201 11.2139C13.7598 11.1674 13.6767 11.1927 13.7273 11.1038C13.7302 11.0986 13.7631 11.1265 13.7725 11.1061C13.8452 10.9445 13.8822 10.7646 13.9315 10.5934C13.9383 10.5698 13.9784 10.597 13.9829 10.5832C14.0283 10.4383 13.9492 10.482 13.8763 10.3956C13.9818 10.4232 14.0528 10.3849 14.0605 10.27C14.0647 10.2011 14.0168 10.2109 13.9854 10.166C13.9759 10.1527 14.0096 10.1058 13.9876 10.0966C13.9162 10.067 13.8359 10.1091 13.8666 10C13.8668 9.99873 13.8671 9.99774 13.8674 9.99674C13.8689 9.99177 13.9086 10.0077 13.911 9.99046C13.926 9.87855 13.8501 9.86671 13.8351 9.74909C13.8234 9.65718 13.8539 9.48782 13.8456 9.38031C13.9664 9.36617 13.9234 9.26637 13.8337 9.24053C13.8252 9.17126 13.8059 9.09856 13.8025 9.03034C13.8012 9.00682 13.8388 9.01395 13.8419 9.01026C13.8898 8.95253 13.8032 8.94125 13.7966 8.92761C13.7271 8.77748 13.7466 8.63078 13.6372 8.50363C13.6332 8.49906 13.5512 8.51976 13.5945 8.45984C13.5975 8.45573 13.6516 8.49062 13.6285 8.42088C13.6057 8.35163 13.5938 8.20459 13.5147 8.12807C13.4956 8.10923 13.4077 8.08352 13.4331 8.01534C13.4366 8.00613 13.4614 8.00179 13.4691 7.98708C13.493 7.9395 13.4096 7.96361 13.4564 7.89729C13.5031 7.8311 13.5126 7.73386 13.4152 7.66776C13.4122 7.66552 13.3416 7.67876 13.3254 7.65036C13.2996 7.60476 13.2713 7.53439 13.2402 7.48901C13.2253 7.46733 13.2 7.50474 13.1968 7.50138C13.0791 7.37033 13.035 7.24921 12.9256 7.09382C12.9054 7.06491 12.7978 7.02863 12.7856 6.94949C12.771 6.86219 12.9744 6.77586 12.8161 6.68385C12.816 6.68376 12.8158 6.68367 12.8157 6.68358C12.7496 6.64552 12.5096 6.7759 12.5086 6.5944C12.3076 6.46195 12.1703 6.27192 11.9403 6.18138C11.9299 6.17726 11.8624 6.22076 11.8418 6.20692C11.811 6.18613 11.811 6.14647 11.7891 6.13088C11.6975 6.06497 11.5933 6.04172 11.4992 5.98981C11.4633 5.97024 11.4917 5.94485 11.4482 5.92178C11.4044 5.8989 11.3557 5.92735 11.3042 5.88031C11.2655 5.8448 11.2552 5.73761 11.1953 5.70216C11.1586 5.78825 11.1165 5.76913 11.0316 5.7647C11.0153 5.76393 11.0201 5.80019 11.0118 5.80142C10.9782 5.80719 10.9611 5.77269 10.9284 5.78093C10.9205 5.78289 10.91 5.81305 10.903 5.8164C10.8438 5.84596 10.7914 5.75471 10.7816 5.73886C10.7453 5.67855 10.7102 5.71186 10.6769 5.68339C10.6432 5.65497 10.7071 5.64791 10.6647 5.62483C10.5763 5.57691 10.4517 5.5539 10.3543 5.53419C10.3153 5.5265 10.3342 5.57338 10.3284 5.57325C10.247 5.56903 10.1716 5.51185 10.1155 5.58989C10.0887 5.36508 10.0643 5.60371 9.95545 5.54805C9.94688 5.54364 9.94493 5.43911 9.98227 5.42759C10.0198 5.41614 10.0699 5.45454 10.1223 5.43768C10.1344 5.43355 10.2161 5.34712 10.2267 5.34292C10.3076 5.30901 10.2917 5.46413 10.2939 5.47305C10.3203 5.57071 10.4195 5.48332 10.443 5.48096C10.5479 5.46886 10.6259 5.51029 10.713 5.50911C10.77 5.5087 10.803 5.41258 10.8448 5.42792C10.9844 5.48041 10.9843 5.62996 11.1548 5.56136C11.1914 5.54726 11.2039 5.4325 11.2723 5.55303C11.277 5.56068 11.3193 5.66394 11.3807 5.63552C11.3884 5.63193 11.4011 5.60214 11.4092 5.60267C11.4631 5.60694 11.4837 5.64441 11.5392 5.6567C11.5948 5.66905 11.6635 5.68221 11.7153 5.72132C11.7466 5.74484 11.7614 5.82118 11.77 5.84276C11.7942 5.90428 11.876 5.87075 11.8776 5.9313C11.8784 5.99183 11.7868 6.02889 11.8391 6.09875C11.8848 6.02813 11.9352 5.95776 11.9832 5.88798C12.1413 5.98683 12.2765 6.11237 12.4253 6.22278C12.4438 6.23648 12.4529 6.18628 12.4736 6.2002C12.5609 6.25958 12.6108 6.34298 12.7003 6.40533C12.7698 6.45356 12.8703 6.48223 12.9423 6.53688C12.9399 6.54551 12.9385 6.55389 12.9379 6.56205C12.9313 6.65441 13.0313 6.71976 13.0834 6.7906C13.1033 6.81743 13.0826 6.83281 13.0917 6.85595C13.1261 6.94288 13.1635 6.85637 13.1896 6.86629C13.3016 6.91099 13.1587 7.03977 13.2361 7.13163C13.24 7.13619 13.3696 7.13779 13.3814 7.14338C13.4565 7.17561 13.3595 7.17379 13.3789 7.21355C13.4139 7.28642 13.4245 7.34484 13.5003 7.40634C13.5224 7.42393 13.612 7.4458 13.5972 7.51708C13.5953 7.52639 13.5643 7.54063 13.5654 7.54641C13.5884 7.64943 13.6812 7.59837 13.7417 7.63218C13.8023 7.66634 13.7797 7.78167 13.7688 7.80724C13.7416 7.87455 13.7314 7.78554 13.7252 7.78577C13.6546 7.78892 13.6945 7.84081 13.7115 7.8872C13.6215 7.94034 13.6565 7.99772 13.7294 7.93512C13.7373 7.92811 13.7117 7.89811 13.7115 7.8872C13.8223 7.87957 13.8692 7.94576 13.8161 8.06157C13.7908 8.11565 13.7289 8.1027 13.7922 8.20286C13.8205 8.24865 13.8792 8.20234 13.9152 8.23948C13.9978 8.32537 13.9825 8.48297 14.0254 8.5865C14.0411 8.62444 14.067 8.57473 14.0791 8.60047C14.1111 8.66917 14.1004 8.74058 14.1336 8.80934C14.1367 8.81561 14.1725 8.78918 14.1788 8.8119C14.2269 8.98435 14.2312 9.14217 14.2565 9.32568C14.2692 9.41427 14.3085 9.57183 14.3096 9.66552C14.3119 9.77087 14.2889 9.89221 14.2742 10.0006C14.2665 10.0587 14.2614 10.1136 14.2649 10.1614C14.2708 10.2504 14.3125 10.2327 14.3386 10.273C14.3892 10.3521 14.2801 10.4764 14.2631 10.4914C14.2626 10.4918 14.2601 10.4148 14.2353 10.4534C14.1892 10.4726 14.263 10.4904 14.2631 10.4914C14.2527 10.5022 14.2253 10.6533 14.2281 10.6843C14.23 10.7012 14.2699 10.6977 14.2702 10.7065C14.2746 10.9167 14.2403 11.1256 14.1651 11.3241C14.1633 11.3275 14.1228 11.3102 14.1192 11.3182C14.0673 11.4286 14.0941 11.5182 14.0905 11.6245C14.0866 11.7304 14.0462 11.8034 13.9544 11.8295C13.9346 11.9031 13.86 11.9892 13.8153 12.036C13.7708 12.0829 13.843 12.128 13.8421 12.1338C13.8132 12.3122 13.7215 12.3784 13.6229 12.5261C13.576 12.5967 13.4937 12.7435 13.4469 12.8235C13.4104 12.887 13.3682 12.9101 13.3374 12.9709C13.3332 12.9791 13.3687 12.9951 13.3682 12.9981C13.3572 13.0857 13.3069 12.9997 13.2844 13.0016C13.2025 13.0077 13.1574 13.0132 13.1178 13.103C13.109 13.1234 13.1669 13.2596 13.1449 13.2954C13.1165 13.3413 13.0949 13.2943 13.0657 13.3425C13.0632 13.3466 13.0854 13.3661 13.0608 13.3901C12.9469 13.5017 12.8099 13.6086 12.6868 13.7179C12.6699 13.7327 12.7223 13.7494 12.6981 13.7716C12.5844 13.8756 12.4485 13.9779 12.3131 14.0453C12.2797 14.0617 12.28 14.0216 12.268 14.0182C12.195 13.9973 12.1855 14.1058 12.1764 14.1136C11.9676 14.2971 11.7465 14.3304 11.5105 14.4782C11.4984 14.4863 11.4257 14.6178 11.3472 14.5644C11.3417 14.5611 11.265 14.5054 11.2425 14.5727C11.241 14.5769 11.286 14.6042 11.2318 14.6201C11.1778 14.636 11.1012 14.6926 11.0134 14.673C10.9853 14.6671 10.9081 14.6077 10.8571 14.6889C10.8549 14.6945 10.783 14.8645 10.7185 14.7776C10.708 14.7632 10.6892 14.6598 10.6188 14.7322C10.6052 14.7462 10.6398 14.7623 10.6006 14.7864C10.54 14.8236 10.4478 14.814 10.3749 14.8746C10.3625 14.8853 10.3126 14.9666 10.2548 14.9204C10.2459 14.9131 10.255 14.8761 10.2289 14.8761C10.1049 14.8754 9.97846 14.913 9.85217 14.8975C9.80746 14.8919 9.82619 14.8337 9.7799 14.8212C9.73332 14.8088 9.64321 14.7976 9.59624 14.8243C9.54905 14.8511 9.60306 14.9412 9.53025 14.9492C9.52018 14.9503 9.51009 14.9512 9.5 14.952C9.19244 14.9775 8.89099 14.8995 8.59442 14.8366C8.54888 14.8267 8.58075 14.8661 8.51298 14.8533C8.26254 14.8101 7.82687 14.7068 7.64994 14.5555C7.50975 14.4373 7.72787 14.483 7.61498 14.4111C7.56138 14.3766 7.45513 14.4438 7.43925 14.44C7.28636 14.4057 7.21325 14.3148 7.0872 14.2602C7.06109 14.2487 7.06411 14.2997 7.04199 14.2894C6.96608 14.2544 6.90136 14.1926 6.83292 14.1527C6.80217 14.1348 6.78981 14.1657 6.76368 14.1455C6.70118 14.0973 6.65149 14.046 6.60802 13.9766C6.60414 13.9703 6.66546 13.9647 6.62015 13.9298C6.54656 13.873 6.4753 13.7793 6.37405 13.735C6.344 13.7219 6.29414 13.7779 6.27614 13.694C6.2724 13.6763 6.3453 13.6216 6.23491 13.6267C6.21684 13.6283 6.0458 13.6126 6.04564 13.5173C6.04547 13.4923 6.06616 13.4095 6.03167 13.3907C6.02675 13.3883 6.01256 13.4311 5.98768 13.4112C5.90047 13.3403 5.82488 13.2506 5.74116 13.1709C5.7187 13.1495 5.71656 13.2115 5.68398 13.1785C5.59418 13.0877 5.5055 12.9544 5.44514 12.8454C5.42291 12.8051 5.46924 12.8114 5.47037 12.8065C5.49015 12.7285 5.40513 12.7489 5.39116 12.7366C5.30615 12.6606 5.29421 12.5682 5.23436 12.4863C5.21792 12.4634 5.19406 12.5003 5.18823 12.4972C5.1295 12.4636 5.2121 12.4662 5.20068 12.4305C5.16907 12.3304 5.11377 12.2317 5.06415 12.1404C5.04596 12.1069 5.02357 12.1652 5.00769 12.1347C4.91291 11.9543 4.83729 11.7535 4.79901 11.5577C4.79188 11.5207 4.83246 11.5322 4.83762 11.5223C4.87418 11.4549 4.77921 11.4037 4.76716 11.388C4.71252 11.3185 4.73394 11.2789 4.71053 11.2104C4.59332 10.8742 4.55754 10.4316 4.56639 10.0993C4.56699 10.0657 4.56803 10.0326 4.56947 10C4.58848 9.6124 4.6507 9.30266 4.7235 8.93098C4.72874 8.90533 4.67757 8.92094 4.68157 8.89854C4.73611 8.60914 4.84275 8.33857 4.94547 8.06289C4.95408 8.04018 4.8997 8.05511 4.91233 8.01786C4.93803 7.94121 4.98311 7.84978 5.03202 7.7833C5.05573 7.75099 5.06593 7.81515 5.08904 7.78254C5.14296 7.70695 5.19205 7.62255 5.23306 7.53759C5.25051 7.50136 5.181 7.53115 5.20698 7.4856C5.38372 7.17561 5.5909 6.88317 5.87713 6.65887C5.89687 6.64345 5.97813 6.69043 6.00078 6.64138C5.98512 6.62098 5.96342 6.60039 5.94502 6.58032C6.29342 6.19733 6.72593 5.90882 7.18153 5.67004C7.20083 5.65995 7.14459 5.63491 7.18212 5.61509C7.39946 5.50092 7.61563 5.3913 7.86821 5.35356C7.89321 5.34991 7.90915 5.4344 7.97309 5.39934C7.98425 5.39284 8.08428 5.34912 8.10606 5.32366C8.10897 5.31989 8.07835 5.28735 8.11199 5.27621C8.30839 5.2121 8.5222 5.17345 8.72831 5.16563C8.7616 5.16446 8.73343 5.21183 8.75705 5.21142C8.92236 5.2085 9.09808 5.15868 9.25772 5.18957C9.36306 5.21087 9.32733 5.28602 9.38327 5.35659C9.3911 5.36648 9.4538 5.36708 9.45734 5.40917C9.46619 5.51477 9.43848 5.63078 9.45157 5.74329C9.45425 5.76738 9.53106 5.74109 9.48571 5.79981C9.48249 5.80366 9.4275 5.82366 9.41457 5.84392C9.40556 5.85786 9.42309 5.90024 9.40468 5.91825C9.38645 5.93626 9.36476 5.901 9.33452 5.92289C9.30444 5.94516 9.3205 5.99284 9.25977 6.00199ZM13.6103 12.2408C13.5476 12.27 13.6738 12.3506 13.6725 12.2791C13.6723 12.2755 13.6134 12.2392 13.6103 12.2408ZM12.2078 6.20632C12.2282 6.30194 12.3257 6.25424 12.3143 6.18225C12.3017 6.10982 12.201 6.17701 12.2078 6.20632ZM11.5372 5.86212C11.5889 5.94591 11.6982 5.76362 11.5956 5.76023C11.5896 5.75999 11.5341 5.85723 11.5372 5.86212ZM9.13601 5.38984C9.13692 5.39171 9.18176 5.39038 9.18271 5.38839C9.20355 5.33927 9.11291 5.34198 9.13601 5.38984ZM10.8312 5.63983C10.8476 5.67463 10.9289 5.66595 10.909 5.6221C10.8926 5.58653 10.8102 5.59617 10.8312 5.63983ZM11.4517 14.0791C11.45 14.0775 11.4208 14.0891 11.4268 14.1002C11.446 14.1361 11.4809 14.1067 11.4517 14.0791ZM9.60137 5.44699C9.78769 5.45985 9.8817 5.6437 9.69004 5.61317C9.65487 5.60802 9.76859 5.56085 9.72438 5.54297C9.64196 5.51039 9.58515 5.61905 9.50168 5.5601C9.48585 5.54914 9.5903 5.44561 9.6017 5.44676C9.60159 5.44684 9.60148 5.44692 9.60137 5.44699ZM13.4376 12.182C13.4354 12.182 13.4126 12.2188 13.4137 12.2206C13.4434 12.2648 13.4899 12.1898 13.4376 12.182ZM9.68051 14.4249C9.67803 14.421 9.57928 14.4199 9.57606 14.4236C9.52496 14.5027 9.72838 14.5052 9.68051 14.4249ZM13.8486 9.37819C13.7949 9.33918 13.7809 9.28723 13.8337 9.24074C13.8384 9.28645 13.8451 9.33218 13.8486 9.37819ZM7.2489 10.1354C7.26626 10.2142 7.26435 10.3175 7.25982 10.3998C7.25841 10.4254 7.23008 10.4177 7.22811 10.4359C7.22441 10.4715 7.24384 10.5003 7.23966 10.536C7.23819 10.548 7.19406 10.5439 7.19351 10.5564C7.19101 10.6253 7.21856 10.6832 7.23118 10.75C7.29398 11.0802 7.45243 11.3874 7.67192 11.6577C7.74355 11.7467 7.82049 11.8726 7.92495 11.9357C7.93707 11.943 7.95378 11.9091 7.95775 11.9084C8.01873 11.8977 7.96168 11.9473 7.97718 11.9719C8.03873 12.0692 8.14049 12.1415 8.23858 12.1816C8.28043 12.1985 8.27775 12.1128 8.29626 12.1703C8.29765 12.1743 8.2687 12.2029 8.27742 12.2126C8.29732 12.2345 8.34756 12.2529 8.36558 12.2653C8.40029 12.2894 8.40677 12.2921 8.44247 12.3091C8.49109 12.3325 8.54336 12.3756 8.60138 12.3879C8.61372 12.3904 8.6125 12.3471 8.63319 12.3475C8.65379 12.348 8.70103 12.3681 8.71475 12.3824C8.72838 12.3968 8.71163 12.4245 8.71236 12.4323C8.71884 12.4988 8.80237 12.4354 8.80988 12.4352C8.9545 12.4388 9.06257 12.5087 9.19628 12.5248C9.29656 12.5367 9.40426 12.527 9.5 12.5288C9.5008 12.5288 9.50159 12.5288 9.50239 12.5288C9.61701 12.5312 9.71567 12.5466 9.82694 12.5288C9.83858 12.527 9.81892 12.482 9.83291 12.4796C9.98154 12.4543 10.1265 12.4269 10.2804 12.4106C10.296 12.409 10.2899 12.4545 10.3064 12.4551C10.4053 12.4599 10.5853 12.4739 10.5594 12.286C10.6193 12.2661 10.69 12.2378 10.7576 12.2413C10.8013 12.2434 10.7925 12.3005 10.8227 12.2607C10.8295 12.2518 10.7979 12.2245 10.8094 12.2137C10.8574 12.1686 10.9235 12.141 10.9639 12.0877C10.972 12.0768 10.9486 12.0499 10.9479 12.0426C10.9421 11.9836 11.0325 12.0224 11.0455 12.0201C11.1411 12.0049 11.1785 11.9495 11.2378 11.897C11.2516 11.8847 11.2034 11.8644 11.2153 11.8514C11.2772 11.7849 11.3446 11.721 11.4191 11.6674C11.4358 11.6555 11.4544 11.6959 11.464 11.6914C11.5063 11.671 11.4534 11.6148 11.4914 11.5941C11.4994 11.5896 11.5235 11.6149 11.5274 11.6161C11.5898 11.6338 11.5363 11.5644 11.5384 11.5585C11.5655 11.4807 11.6671 11.4899 11.6997 11.4168C11.7034 11.4082 11.6553 11.4019 11.6677 11.3792C11.7501 11.2278 11.8413 11.0732 11.9352 10.9243C11.9497 10.9011 11.9738 10.9306 11.9782 10.9305C12.0477 10.9261 11.9738 10.8797 11.9736 10.8706C11.9746 10.7986 12.0619 10.7558 11.9767 10.6834C12.0657 10.4657 12.0659 10.2311 12.0992 10C12.1075 9.94221 12.1178 9.88516 12.1319 9.82573C12.1327 9.82191 12.175 9.82593 12.1764 9.81824C12.193 9.72538 12.1291 9.74767 12.0437 9.6989C12.0224 9.6872 12.1118 9.63058 12.1181 9.6252C12.1417 9.60694 12.2056 9.61327 12.2098 9.60763C12.2427 9.56003 12.0402 9.59782 12.0311 9.54584C12.0312 9.54412 12.0697 9.54446 12.0727 9.53933C12.0818 9.52327 12.0644 9.51224 12.0746 9.49619C12.0982 9.45973 12.1938 9.42639 12.1258 9.39022C12.1169 9.38589 12.0054 9.42108 11.9995 9.37375C11.9975 9.35473 11.9732 9.27378 11.9732 9.24917C11.9735 9.22437 12.0143 9.22877 12.0154 9.22672C12.0434 9.14954 12.0703 9.16679 12.1297 9.1112C12.188 9.05469 12.0254 9.12106 12.0026 9.11503C11.9799 9.10907 12.0019 9.04995 12.0107 9.03345C12.0197 9.01711 12.0475 9.02249 12.0511 9.00952C12.0738 8.92308 11.9588 9.01277 11.9245 9.00214C11.8437 8.97904 11.946 8.88942 11.9355 8.83771C11.9327 8.82398 11.9108 8.84677 11.9031 8.83717C11.8729 8.79941 11.8958 8.75492 11.8372 8.72508C11.8275 8.71981 11.7389 8.72118 11.7744 8.66859C11.7795 8.66096 11.8132 8.6544 11.8091 8.63321C11.8032 8.60159 11.7799 8.55077 11.7528 8.52938C11.7329 8.51364 11.7035 8.56594 11.7008 8.53186C11.6995 8.51663 11.7393 8.51995 11.7345 8.49259C11.7299 8.46515 11.6911 8.41276 11.6754 8.3937C11.6598 8.37456 11.6354 8.40965 11.6321 8.40967C11.6125 8.40934 11.5689 8.38476 11.5664 8.38164C11.4374 8.22543 11.3498 8.03981 11.1768 7.9281C11.1633 7.91944 11.1448 7.95934 11.1425 7.95836C11.0894 7.93897 11.1934 7.87655 11.1861 7.8226C11.1374 7.89448 11.1293 7.86801 11.0927 7.85264C11.075 7.84536 11.0633 7.87838 11.0599 7.88013C11.0081 7.9053 11.0315 7.84127 11.0351 7.82731C11.0487 7.77628 10.999 7.81303 11.0075 7.77879C11.0155 7.74455 11.0671 7.72062 11.0352 7.69986C11.0093 7.71986 10.9869 7.80238 10.9566 7.79793C10.8444 7.78093 10.7081 7.63307 10.6321 7.59175C10.5584 7.55017 10.5306 7.54541 10.4892 7.51653C10.4133 7.46525 10.4221 7.53325 10.3622 7.5409C10.3024 7.54936 10.3743 7.41777 10.377 7.38504C10.3793 7.35231 10.3606 7.38058 10.3564 7.36085C10.3521 7.34111 10.3799 7.32732 10.3589 7.31369C10.3375 7.29974 10.2586 7.33546 10.242 7.3655C10.2063 7.42877 10.2136 7.50716 10.1631 7.46681C10.1602 7.46444 10.1809 7.42964 10.169 7.42249C10.0744 7.367 9.96543 7.34375 9.86282 7.30344C9.84863 7.29783 9.86741 7.25666 9.85911 7.25291C9.77164 7.2144 9.79485 7.29089 9.73972 7.3669C9.76041 7.26062 9.73937 7.19164 9.66835 7.18663C9.62579 7.18385 9.63097 7.23139 9.60305 7.26348C9.59482 7.27315 9.56655 7.23998 9.5607 7.26206C9.54196 7.33421 9.56732 7.41522 9.5 7.38265C9.49997 7.38264 9.49994 7.38262 9.49992 7.38261C9.49886 7.38207 9.49936 7.37679 9.5 7.37008C9.50084 7.36125 9.50194 7.34994 9.5 7.34366C9.49923 7.34117 9.49799 7.33947 9.49606 7.33904C9.42803 7.32384 9.42179 7.39972 9.35192 7.4124C9.29714 7.4223 9.19432 7.3856 9.12906 7.3876C9.11406 7.2671 9.05417 7.30408 9.04432 7.39089C9.00234 7.39467 8.95919 7.40808 8.91692 7.40572C8.90239 7.40495 8.90361 7.36869 8.90105 7.36537C8.86069 7.3135 8.86115 7.39719 8.85333 7.40241C8.76602 7.45618 8.66986 7.42125 8.6011 7.5099C8.59859 7.51314 8.62277 7.59387 8.57824 7.54486C8.57513 7.54151 8.5909 7.4946 8.54835 7.50749C8.50633 7.52008 8.41002 7.51113 8.37014 7.57311C8.36022 7.58806 8.35691 7.66541 8.30638 7.63113C8.29952 7.62647 8.29257 7.60291 8.28126 7.59357C8.24463 7.56415 8.27484 7.64437 8.22129 7.59089C8.16789 7.53737 8.09711 7.51388 8.06619 7.59041C8.06507 7.59277 8.08671 7.65841 8.06921 7.66792C8.04107 7.68308 7.99515 7.69586 7.96754 7.71502C7.95435 7.72419 7.98635 7.75316 7.98448 7.75535C7.91023 7.8345 7.82837 7.8492 7.72936 7.91127C7.71083 7.92282 7.70381 8.00483 7.64368 7.99923C7.57716 7.99413 7.46975 7.81102 7.42475 7.9239C7.40554 7.97098 7.55928 8.18703 7.40951 8.15217C7.33819 8.28354 7.19989 8.35185 7.1592 8.50354C7.15732 8.51039 7.20779 8.56681 7.19907 8.57906C7.18587 8.59735 7.15033 8.59041 7.14004 8.60334C7.09621 8.65722 7.09186 8.72622 7.0586 8.78257C7.04606 8.80415 7.01828 8.78077 7.00341 8.80707C6.98865 8.83357 7.02241 8.87077 6.98568 8.89859C6.9579 8.9195 6.85832 8.91159 6.8323 8.94731C6.91867 8.98322 6.90617 9.00884 6.91238 9.06406C6.91365 9.07463 6.94771 9.07609 6.9499 9.08163C6.95959 9.1042 6.92864 9.1111 6.94039 9.13327C6.94321 9.13863 6.9734 9.149 6.97744 9.15389C7.01296 9.19541 6.93077 9.2182 6.91641 9.22283C6.86189 9.23947 6.89774 9.26541 6.87334 9.28371C6.84894 9.3024 6.83591 9.26088 6.81748 9.28578C6.77929 9.33761 6.76691 9.41505 6.75425 9.4746C6.74936 9.4985 6.79432 9.48994 6.79459 9.49354C6.79615 9.54381 6.74368 9.58779 6.82406 9.62637C6.6021 9.63126 6.84072 9.65861 6.78974 9.72272C6.78567 9.7277 6.68161 9.72511 6.66873 9.70134C6.6559 9.67737 6.69198 9.64774 6.67259 9.61418C6.66791 9.60651 6.57781 9.55042 6.57304 9.54323C6.53493 9.48934 6.68919 9.50914 6.6979 9.50843C6.79283 9.49832 6.69944 9.43015 6.69535 9.41469C6.67566 9.3466 6.70942 9.30023 6.70015 9.24352C6.69437 9.2065 6.59769 9.17534 6.60853 9.14919C6.6456 9.06157 6.78915 9.07954 6.70324 8.95688C6.6853 8.93042 6.57467 8.9077 6.68098 8.8759C6.68779 8.87352 6.78011 8.8584 6.74512 8.81232C6.74071 8.80648 6.71097 8.79372 6.71041 8.7882C6.70733 8.75131 6.73973 8.74214 6.74349 8.70505C6.74725 8.66799 6.74985 8.62099 6.77834 8.58996C6.7955 8.57106 6.86332 8.57232 6.88171 8.56953C6.93424 8.56204 6.89078 8.4977 6.9454 8.50637C6.99993 8.51579 7.04863 8.58765 7.10272 8.56214C7.0316 8.51729 6.95996 8.469 6.88932 8.42246C6.95334 8.32251 7.04119 8.24275 7.11004 8.14792C7.11857 8.13607 7.07369 8.12013 7.08207 8.10657C7.11797 8.04929 7.17997 8.02525 7.2161 7.96533C7.24395 7.91886 7.24969 7.84284 7.28169 7.79361C7.37422 7.83668 7.41026 7.75639 7.46159 7.72255C7.47937 7.71076 7.49535 7.73095 7.51202 7.72747C7.57445 7.71433 7.49935 7.66704 7.50252 7.64668C7.51794 7.55921 7.64425 7.70424 7.70053 7.65447C7.70322 7.65204 7.68148 7.54001 7.68376 7.53053C7.69529 7.47052 7.71079 7.55492 7.73758 7.54488C7.7867 7.52677 7.8285 7.52763 7.8612 7.47044C7.87042 7.45379 7.87199 7.37702 7.92674 7.40171C7.93387 7.40496 7.94935 7.43522 7.95337 7.4351C8.02446 7.43113 7.97236 7.33863 7.98764 7.28855C8.00332 7.2383 8.08957 7.27605 8.10922 7.2899C8.16105 7.32493 8.09945 7.32125 8.10051 7.32688C8.11358 7.39237 8.14427 7.3636 8.17434 7.35464C8.22525 7.44586 8.25971 7.42198 8.20531 7.34509C8.19923 7.33673 8.18198 7.35611 8.17434 7.35464C8.15229 7.25101 8.1932 7.2164 8.2808 7.28207C8.32165 7.31313 8.32143 7.36983 8.38103 7.32368C8.40829 7.30302 8.36907 7.24138 8.3898 7.21191C8.43834 7.14423 8.54636 7.17701 8.61039 7.14623C8.63387 7.13496 8.59823 7.10474 8.61407 7.09572C8.65651 7.07166 8.70475 7.08882 8.74699 7.06237C8.75084 7.05993 8.73033 7.02262 8.74472 7.01843C8.85421 6.98607 8.95677 6.99267 9.07328 6.97687C9.12939 6.96896 9.2289 6.9357 9.28866 6.9366C9.35573 6.93693 9.43149 6.96091 9.5 6.97541C9.53788 6.98339 9.57318 6.98836 9.604 6.98423C9.66045 6.97705 9.65 6.93557 9.6763 6.9088C9.72822 6.85687 9.8049 6.96173 9.81356 6.97803C9.81374 6.97847 9.76465 6.98356 9.78834 7.00706C9.79885 7.05235 9.8129 6.97816 9.81356 6.97803C9.82013 6.98813 9.91533 7.00899 9.93532 7.00436C9.94629 7.0016 9.94614 6.96212 9.95182 6.96143C10.0876 6.94611 10.2228 6.9648 10.3479 7.01933C10.35 7.02073 10.3346 7.06178 10.3396 7.06454C10.4077 7.10437 10.4703 7.06869 10.5423 7.06036C10.6139 7.05214 10.66 7.08188 10.6662 7.16551C10.7144 7.17498 10.7644 7.2336 10.7908 7.26851C10.8172 7.30334 10.8595 7.22965 10.8635 7.22968C10.9863 7.23086 11.0208 7.30533 11.1133 7.37044C11.1576 7.40156 11.2536 7.45036 11.3067 7.47758C11.3489 7.49875 11.3593 7.53147 11.401 7.54754C11.4066 7.54976 11.4252 7.51626 11.4275 7.5162C11.4937 7.51053 11.418 7.56882 11.4154 7.58786C11.4058 7.65714 11.4014 7.69452 11.465 7.71164C11.4793 7.71533 11.598 7.64213 11.6231 7.6544C11.655 7.67013 11.6132 7.69654 11.647 7.71221C11.6498 7.71361 11.6696 7.69165 11.6847 7.70782C11.7552 7.78269 11.8193 7.87497 11.8902 7.9533C11.8998 7.96413 11.9232 7.91955 11.9379 7.93492C12.0065 8.00708 12.0722 8.09558 12.1092 8.18735C12.1182 8.21001 12.0828 8.21636 12.0777 8.22609C12.0468 8.2847 12.1418 8.27365 12.1474 8.27931C12.278 8.40636 12.2753 8.56192 12.3819 8.70774C12.3877 8.71498 12.5026 8.74955 12.4424 8.81081C12.4385 8.81517 12.376 8.87488 12.4375 8.88223C12.4414 8.88277 12.4727 8.84851 12.4816 8.88403C12.4904 8.9193 12.5362 8.96579 12.5082 9.02737C12.4995 9.04719 12.4339 9.10484 12.5079 9.13104C12.5129 9.13166 12.6721 9.16504 12.5819 9.21562C12.5669 9.22386 12.4639 9.245 12.5291 9.28544C12.5417 9.29333 12.5603 9.26915 12.5809 9.2932C12.6127 9.33056 12.5966 9.39178 12.6521 9.43592C12.6619 9.44331 12.7395 9.47176 12.6906 9.51222C12.683 9.51843 12.6467 9.51439 12.6453 9.53147C12.6382 9.61228 12.6707 9.69288 12.652 9.77489C12.6454 9.80385 12.5877 9.79316 12.5742 9.82299C12.5607 9.85301 12.5482 9.91033 12.5747 9.94004C12.6012 9.97001 12.6915 9.93488 12.6992 9.98185C12.7002 9.98789 12.7011 9.99394 12.7019 10C12.7277 10.1996 12.6593 10.394 12.616 10.5845C12.6092 10.6138 12.6459 10.5954 12.6378 10.6393C12.6108 10.8009 12.5536 11.0876 12.4332 11.1926C12.339 11.275 12.3543 11.1295 12.301 11.1983C12.2755 11.2306 12.3532 11.3141 12.3518 11.325C12.3405 11.4285 12.2671 11.468 12.2366 11.5513C12.2301 11.5686 12.2762 11.5743 12.2702 11.5889C12.2498 11.6393 12.2041 11.6776 12.1793 11.7223C12.1683 11.7425 12.1979 11.7568 12.1841 11.7732C12.1512 11.8126 12.114 11.842 12.0604 11.8636C12.0556 11.8655 12.0403 11.8176 12.0174 11.8463C11.9803 11.8931 11.912 11.9317 11.8922 12.0036C11.8865 12.025 11.9426 12.0744 11.8747 12.074C11.8604 12.0739 11.8013 12.0058 11.8254 12.095C11.83 12.1094 11.8467 12.2453 11.768 12.2289C11.7474 12.2246 11.6757 12.1927 11.6666 12.2177C11.6655 12.2213 11.7031 12.2407 11.6913 12.2576C11.6489 12.317 11.5902 12.3645 11.5418 12.4218C11.5288 12.4372 11.5783 12.4498 11.5578 12.4719C11.5013 12.5329 11.4125 12.5875 11.3394 12.6227C11.3124 12.6357 11.3095 12.5957 11.3056 12.5939C11.2431 12.5633 11.2728 12.6421 11.2658 12.6526C11.2222 12.716 11.1552 12.7122 11.1042 12.7539C11.09 12.7653 11.1207 12.7927 11.1193 12.7976C11.1035 12.846 11.0929 12.771 11.0685 12.776C11 12.7896 10.9372 12.8261 10.879 12.8597C10.8577 12.872 10.9023 12.901 10.8828 12.9117C10.767 12.9755 10.6357 13.0233 10.5063 13.0396C10.4819 13.0426 10.4854 13.0047 10.4782 12.9986C10.4288 12.9561 10.4041 13.0431 10.3945 13.0534C10.3529 13.0999 10.3243 13.0756 10.2806 13.0926C10.0657 13.1782 9.77734 13.1943 9.56334 13.184C9.54189 13.1831 9.5208 13.182 9.5 13.1806C9.24974 13.1622 9.05224 13.1123 8.81283 13.0683C8.79631 13.0651 8.80271 13.1142 8.78817 13.112C8.60011 13.0805 8.42729 13.0055 8.24745 12.9435C8.23261 12.9383 8.2362 12.9878 8.21157 12.9806C8.16083 12.966 8.10163 12.9359 8.06068 12.8997C8.0408 12.8822 8.08829 12.8637 8.06819 12.8468C8.02166 12.8075 7.96795 12.775 7.91192 12.7507C7.88799 12.7404 7.89923 12.7991 7.86964 12.7824C7.66819 12.6694 7.47571 12.5362 7.34498 12.3362C7.33596 12.3223 7.38859 12.2463 7.35293 12.2364C7.33353 12.2531 7.31289 12.2747 7.29325 12.2935C7.04231 12.0722 6.86488 11.7858 6.71306 11.4922C6.70661 11.4797 6.67528 11.5241 6.6625 11.4998C6.58895 11.3593 6.51332 11.2204 6.5051 11.0516C6.50432 11.0349 6.58745 11.0147 6.56065 10.9754C6.55569 10.9685 6.52384 10.9058 6.50112 10.8937C6.49774 10.8921 6.46319 10.9159 6.45561 10.8943C6.41221 10.7683 6.39038 10.6293 6.39397 10.4956C6.39464 10.474 6.44006 10.4897 6.44094 10.4744C6.44716 10.3678 6.40375 10.2567 6.43739 10.1541C6.46037 10.0867 6.53487 10.1084 6.60604 10.0727C6.61605 10.0677 6.61703 10.0287 6.6591 10.0264C6.76473 10.0207 6.88062 10.0369 6.99318 10.0285C7.01734 10.0268 6.99112 9.98181 7.0498 10.0083C7.05368 10.0102 7.07346 10.0422 7.09356 10.0495C7.10742 10.0546 7.14995 10.0442 7.16778 10.0545C7.18561 10.0647 7.15011 10.0776 7.17148 10.0946C7.19317 10.1114 7.24124 10.1014 7.2489 10.1354ZM10.9045 7.42735C10.9153 7.47991 10.9933 7.35218 10.9416 7.3645C10.939 7.36526 10.9039 7.42472 10.9045 7.42735ZM7.1342 8.31045C7.21386 8.31252 7.15488 8.22994 7.09448 8.22569C7.03357 8.2225 7.10972 8.31038 7.1342 8.31045ZM6.93484 8.73661C7.00442 8.71369 6.82002 8.60859 6.83184 8.68053C6.83247 8.68471 6.93077 8.73804 6.93484 8.73661ZM6.63449 10.2262C6.6364 10.2255 6.63631 10.1976 6.63433 10.1971C6.58585 10.1853 6.58611 10.242 6.63449 10.2262ZM6.8153 9.18019C6.84722 9.17346 6.82986 9.11942 6.78978 9.12751C6.75729 9.13444 6.77526 9.18917 6.8153 9.18019ZM12.0007 8.80497C11.999 8.8064 12.0054 8.8246 12.0166 8.81891C12.0528 8.80046 12.0307 8.78081 12.0007 8.80497ZM6.69678 9.93735C6.70798 9.82235 6.88829 9.77093 6.86191 9.88569C6.85735 9.90683 6.80827 9.83729 6.79119 9.86363C6.76005 9.91329 6.86916 9.9487 6.8101 9.99906C6.79919 10.0089 6.69559 9.94436 6.69654 9.93714C6.69662 9.93721 6.6967 9.93728 6.69678 9.93735ZM10.835 7.59412C10.8346 7.59615 10.8567 7.61075 10.8582 7.60938C10.8944 7.57528 10.849 7.54533 10.835 7.59412ZM12.1763 9.89196C12.1723 9.89355 12.1701 9.95325 12.1738 9.95518C12.2524 9.98594 12.2572 9.86146 12.1763 9.89196ZM9.1276 7.38453C9.10693 7.43566 9.07655 7.44621 9.04446 7.39093C9.07222 7.38935 9.0999 7.38547 9.1276 7.38453Z" fill="#F8F2EA"/>
</svg>
