<svg width="1450" height="3" viewBox="0 0 1450 3" fill="none" xmlns="http://www.w3.org/2000/svg">
<path d="M1329.59 2.70998C1332.87 2.84526 1321.93 2.75658 1329.2 2.95862C1327.68 2.97227 1326.16 2.98635 1324.64 3C1324.26 2.92517 1323.87 2.85053 1323.48 2.77571C1325.52 2.75367 1327.55 2.73164 1329.59 2.70961C1329.59 2.70973 1329.59 2.70985 1329.59 2.70998ZM1332.37 1.77289C1330.51 1.98631 1324.59 2.04321 1330.98 2.24015C1331.49 2.16691 1332.01 2.09368 1332.52 2.02043C1334.74 2.07724 1336.98 2.13403 1339.2 2.19053C1340 2.16261 1340.79 2.13465 1341.59 2.10704C1342.61 2.23432 1343.62 2.36194 1344.63 2.48953C1343.73 2.4709 1342.82 2.45195 1341.91 2.43332C1338.34 2.53667 1335.17 2.56494 1330.32 2.58419C1330.74 2.6143 1331.17 2.64416 1331.6 2.67427C1329.14 2.62305 1326.68 2.57169 1324.23 2.52047C1326.36 2.47019 1328.73 2.41427 1330.71 2.3674C1327.55 2.16784 1321.99 2.27891 1319.09 2.32053C1315.15 2.37734 1316.04 2.28245 1313.11 2.32218C1312.64 2.32839 1312.59 2.40276 1311.67 2.40402C1307.01 2.40992 1297.96 2.3705 1303.25 2.19694C1310.92 2.21929 1317.46 2.07992 1324.99 2.13084C1323 1.93016 1326.96 1.86187 1332.37 1.77289ZM1191.46 2.41189C1193.78 2.31443 1198.51 2.35376 1201.72 2.42142C1201.73 2.42142 1201.73 2.42142 1201.73 2.42142C1202.44 2.43632 1204.04 2.56585 1201.73 2.56057C1197.98 2.55152 1196.16 2.34763 1194.19 2.48605C1193.31 2.46028 1192.38 2.43735 1191.46 2.41189ZM1183.29 2.42398C1180.99 2.37399 1182.03 2.22036 1184.92 2.26194C1184.92 2.26182 1184.92 2.26169 1184.92 2.26157C1186.12 2.27896 1183.76 2.4004 1188.08 2.27714C1188.96 2.37303 1189.83 2.46027 1190.7 2.55306C1189.64 2.55461 1188.68 2.55713 1187.57 2.55837C1188.31 2.40075 1185.6 2.47357 1183.29 2.42398ZM1299.36 2.28373C1298.99 2.42553 1300.51 2.42463 1303.09 2.52303C1300.66 2.51838 1298.22 2.51341 1295.79 2.50875C1296.98 2.43365 1298.16 2.35883 1299.36 2.28373ZM1356.65 2.3057C1356.66 2.3057 1356.66 2.3057 1356.66 2.3057C1357.46 2.28335 1358.27 2.26091 1359.05 2.23887C1359.53 2.28948 1360 2.33986 1360.48 2.39047C1363.3 2.34297 1366.14 2.29547 1368.97 2.24766C1368.62 2.40225 1363.56 2.37709 1360.76 2.48513C1356.61 2.43856 1354.61 2.34883 1354.34 2.21781C1355.11 2.24698 1355.88 2.27653 1356.65 2.3057ZM677.664 1.6894C676.72 1.73223 675.788 1.7751 674.843 1.81793C676.099 1.83748 677.344 1.8524 678.61 1.87506C681.921 1.68879 682.232 1.85356 686.57 1.8421C699.866 1.80671 696.338 1.51741 708.346 1.94115C698.705 1.921 702.41 2.12011 696.598 2.27347C695.394 2.15673 701.154 1.89345 697.251 1.8388C690.526 1.96235 684.059 2.07742 676.597 2.15721C676.815 2.17739 677.032 2.19763 677.249 2.21781C678.433 2.20508 679.606 2.19227 680.789 2.17955C679.513 2.23357 678.265 2.28712 676.967 2.34177C678.607 2.21914 674.428 2.28766 674.987 2.14677C675.236 2.08405 677.083 1.99705 678.173 1.93713C675.361 1.90453 672.476 1.87468 669.633 1.84301C671.106 1.79305 672.578 1.74302 674.041 1.69306C675.245 1.69151 676.439 1.6904 677.642 1.68885C677.65 1.68903 677.657 1.68921 677.664 1.6894ZM72.3407 2.3414C75.9114 2.19548 82.4 2.17133 85.815 2.33371C81.3206 2.3362 76.8352 2.33892 72.3407 2.3414ZM1354.07 2.10979C1354.47 2.13459 1354.87 2.15913 1355.27 2.18394C1353.49 2.22988 1351.69 2.2755 1349.91 2.32144C1349.56 2.24976 1349.21 2.17805 1348.86 2.10667C1350.59 2.1076 1352.34 2.10885 1354.07 2.10979ZM1239.87 2.18962C1241.18 2.18528 1241.29 2.18763 1242.92 2.19785C1242.92 2.19779 1242.92 2.19773 1242.91 2.19767C1243.56 2.20149 1248.95 2.24336 1248.35 2.29856C1245.67 2.29949 1242.82 2.29856 1240.08 2.29856C1239.99 2.26225 1239.98 2.22623 1239.87 2.18962ZM1271.39 2.22184C1271.4 2.22196 1271.4 2.22208 1271.41 2.22221C1272.38 2.23059 1273.3 2.24766 1274.31 2.25077C1270.69 2.33764 1270.12 2.18179 1266.83 2.22587C1263.54 2.27026 1261.5 2.35626 1258.71 2.14274C1259.75 2.11076 1260.87 2.06501 1261.94 2.02776C1266.61 2.11313 1267.86 2.03279 1271.61 1.94866C1271.54 2.03993 1271.47 2.13057 1271.39 2.22184ZM736.86 2.12132C737.753 2.01577 738.748 2.11934 738.852 2.12059C738.85 2.12071 738.848 2.12083 738.846 2.12095C746.752 2.0232 737.817 2.17938 745.279 2.19584C744.169 2.22222 743.077 2.25008 741.977 2.27677C740.275 2.22587 738.521 2.16819 736.86 2.12132ZM993.751 2.13121C993.823 2.16194 993.91 2.19275 993.983 2.22349C989.499 2.21635 988.355 2.33735 984.629 2.22715C987.67 2.19487 990.71 2.16281 993.751 2.13084C993.751 2.13096 993.751 2.13109 993.751 2.13121ZM1217.27 1.96605C1222.24 1.90737 1225.92 1.88152 1230.69 1.97466C1230.7 1.97478 1230.7 1.9749 1230.71 1.97503C1230.98 1.98076 1229.65 2.04507 1230.01 2.06126C1230.99 2.05165 1232.01 2.03686 1233.01 2.02538C1233.14 2.07687 1233.27 2.12836 1233.41 2.17955C1230.6 2.16495 1227.8 2.15038 1224.99 2.13579C1225.4 2.1659 1225.83 2.19575 1226.24 2.22587C1223.86 2.24139 1221.48 2.25685 1219.09 2.27237C1219.92 2.18796 1220.75 2.10352 1221.57 2.01879C1220.14 2.0011 1218.7 1.98405 1217.27 1.96605ZM919.1 1.79486C919.889 1.82839 918.428 1.88463 919.653 1.91351C920.878 1.94201 923.136 1.87944 922.607 1.97411C920.958 1.98683 919.226 2.00142 917.546 2.01476C922.953 2.18547 928.348 2.031 928.431 2.2418C923.242 2.18716 918.974 2.21254 913.951 2.27091C914.158 2.10358 919.183 1.9589 916.019 1.80182C917.036 1.79964 918.104 1.79647 919.089 1.79523C919.093 1.7951 919.096 1.79498 919.1 1.79486ZM1426.71 0.0115008C1429.78 0.0242304 1436.82 -0.0440601 1440.7 0.0534299C1441.66 0.077455 1444.84 0.38867 1444.82 0.429693C1444.73 0.567852 1440.84 0.586657 1445.01 0.67669C1443.61 0.677625 1442.25 0.682812 1440.86 0.685296C1441.11 0.778128 1441.35 0.870714 1441.59 0.963236C1443.28 0.949264 1444.98 0.935223 1446.67 0.920941C1446.75 0.951678 1446.84 0.982484 1446.92 1.01322C1440.84 1.01384 1444.43 1.13248 1441.27 1.24301C1444.18 1.29888 1447.1 1.35448 1450 1.41036C1448.33 1.40353 1446.36 1.39847 1444.88 1.3904C1444.69 1.5478 1448.2 1.51027 1448.81 1.53944C1452.2 1.70429 1434.92 1.62109 1433.51 1.85015C1436.27 1.87561 1439.16 1.90045 1441.99 1.92559C1441.18 1.95384 1440.36 1.98211 1439.55 2.01036C1433.14 1.85237 1425.96 1.7964 1418.5 1.698C1417.82 1.70452 1417.15 1.7112 1416.49 1.71741C1416.68 1.78848 1416.87 1.85928 1417.07 1.93035C1416.05 1.93873 1415.02 1.94705 1414 1.95544C1417 1.72136 1412.85 1.72455 1407.83 1.58174C1410.5 1.49947 1413.79 1.54935 1413.57 1.39608C1404.41 1.514 1393.69 1.34735 1384.79 1.48048C1382.58 1.51339 1382.58 1.71111 1377.39 1.69287C1377.56 1.67114 1377.59 1.6319 1377.71 1.60334C1368.72 1.69804 1363.26 1.75465 1353.92 1.65809C1354.46 1.72915 1354.99 1.80051 1355.53 1.87158C1357.51 1.83618 1359.5 1.80023 1361.47 1.76483C1362.82 1.88218 1360.83 1.93397 1366.74 1.93273C1371.59 1.9318 1368.7 1.87998 1370.02 1.84521C1371.81 1.79774 1373.37 1.89113 1375.29 1.83807C1376.78 1.7974 1375.17 1.70057 1379.04 1.7251C1377.49 1.85053 1375.9 1.98005 1374.33 2.10704C1373.39 2.07879 1372.45 2.0501 1371.51 2.02153C1372.46 1.988 1373.4 1.95491 1374.35 1.92138C1370.99 1.98161 1367.81 2.03841 1364.34 2.10081C1365.47 1.91949 1361.87 1.98748 1359.92 2.0089C1356.88 2.04239 1359.49 1.91761 1357.49 1.93841C1355.5 1.95953 1353.35 2.09894 1349.75 2.06914C1351.68 1.98843 1349.06 1.91605 1349.56 1.84155C1350.07 1.76705 1353.88 1.75055 1350.22 1.66926C1343.18 1.73104 1350.82 2.01475 1346.07 2.06072C1340.36 2.11598 1339 1.6535 1340.7 1.55409C1342.04 1.47585 1346.65 1.49158 1348 1.41365C1339.75 1.27301 1339.67 1.55066 1338.26 1.60499C1333.13 1.80275 1336.58 1.27492 1330.51 1.46584C1330.62 1.36713 1330.71 1.27835 1330.83 1.18368C1329.78 1.20169 1329.08 1.22562 1327.82 1.23989C1331.55 1.43222 1328.5 1.42397 1326.93 1.42427C1324.46 1.42489 1328.27 1.5187 1327.62 1.54292C1325.86 1.60772 1323.06 1.5783 1324.78 1.66303C1324.01 1.6236 1323.18 1.58405 1322.39 1.54493C1319.5 1.59406 1312.72 2.00604 1319.17 1.92284C1318.57 2.07591 1316.48 2.00234 1314.85 1.97905C1313.22 1.95579 1313.25 2.05327 1311.82 2.03527C1306.12 1.96323 1309.85 1.79648 1310.76 1.66578C1303.23 1.75581 1310.6 1.81538 1299.75 1.87561C1298.7 1.9821 1303.72 2.09573 1299.54 2.15721C1298.77 1.9722 1295.7 1.8393 1289.71 1.77783C1289.13 1.82037 1288.55 1.86328 1287.97 1.90582C1284.7 1.73505 1286.37 1.55748 1280.32 1.76923C1283.57 1.37959 1281.34 1.62886 1275.92 1.47023C1274.82 1.43825 1277.36 1.35741 1275.82 1.31643C1275.13 1.29795 1273.44 1.35897 1271.74 1.31185C1270.91 1.28857 1267.02 1.13833 1264.34 1.20968C1266.31 1.39845 1261.2 1.55904 1265.58 1.71521C1257.48 1.67671 1251.82 1.76735 1260.89 1.50996C1258.84 1.45283 1256.78 1.39595 1254.72 1.33913C1253.29 1.38415 1251.85 1.42882 1250.4 1.47353C1250.19 1.31838 1250.4 1.27486 1244.76 1.30215C1247.21 1.26553 1249.65 1.2283 1252.11 1.19137C1252.19 1.16004 1252.53 1.12748 1252.45 1.09708C1249.44 1.15667 1240.96 1.18231 1238.9 1.2236C1236.85 1.26489 1240.82 1.27619 1240.23 1.31625C1235.3 1.64652 1235.69 1.40293 1232.15 1.45961C1230.07 1.49314 1235.03 1.52955 1233.92 1.54383C1229.8 1.59618 1227.89 1.42065 1224.24 1.41841C1225.54 1.51805 1226.82 1.61923 1228.09 1.71979C1224.26 1.71451 1219.99 1.71363 1216.43 1.74561C1215.03 1.75809 1216.09 1.83219 1215.86 1.83715C1214.73 1.86261 1210.12 1.90294 1209.63 1.90325C1205.96 1.90384 1205.85 1.80121 1202.29 1.79559C1203.69 1.7869 1205 1.77907 1206.37 1.77069C1207 1.6043 1207.63 1.43791 1208.25 1.2712C1204.76 1.2591 1201.26 1.24724 1197.75 1.23513C1200.31 1.2907 1202.89 1.346 1205.45 1.40157C1201.44 1.536 1197.44 1.67074 1193.43 1.80548C1191.34 1.7229 1189.27 1.64033 1187.18 1.55775C1181.51 1.57953 1182.66 1.91476 1179.97 1.6211C1178.3 1.64593 1176.63 1.67074 1174.96 1.69526C1175.19 1.65335 1175.43 1.61137 1175.67 1.56947C1173.66 1.59524 1171.64 1.62084 1169.63 1.64692C1171.75 1.79531 1173.82 1.95146 1175.92 2.0955C1171.96 2.12775 1171.88 2.00186 1171.29 1.97045C1169.72 1.88724 1166.61 1.99948 1165.36 1.92248C1164.94 1.89604 1168.83 1.81317 1167.49 1.71759C1167.23 1.69907 1162.03 1.34773 1158.71 1.42885C1158.77 1.4925 1159.03 1.57054 1159.16 1.63978C1154.7 1.67844 1152.43 1.3462 1153.02 1.25308C1150.64 1.31827 1147.17 1.32372 1146.68 1.42555C1145.47 1.42804 1144.26 1.43039 1143.05 1.43288C1144.31 1.18486 1139.25 1.23021 1138.91 1.4435C1141 1.44878 1143.09 1.45433 1145.18 1.45961C1143.6 1.72103 1149.94 1.87882 1136.75 1.63666C1134.22 1.50067 1141.23 1.65519 1139.17 1.55336C1135.6 1.49408 1132.25 1.54368 1128.86 1.44899C1124.64 1.33071 1129.83 1.21694 1119.99 1.36751C1141.7 1.74473 1117.01 1.62234 1106.82 1.73938C1104.02 1.36681 1095.41 1.2488 1083.56 1.35964C1084.79 1.46333 1088.52 1.40991 1090.67 1.44405C1092.82 1.47819 1090.49 1.53971 1093.17 1.58814C1095.85 1.63656 1101.53 1.70239 1104.24 1.77563C1101.95 1.83432 1090.62 1.97307 1098.11 1.80639C1092.52 1.70365 1089.89 1.59807 1082.96 1.57881C1080.88 1.74056 1081.04 1.84128 1074.28 1.84594C1078.28 1.62118 1070.6 1.46496 1072.29 1.23275C1077.08 1.28684 1074.4 1.51253 1077.17 1.62055C1077.46 1.63135 1081.92 1.57477 1082.96 1.57881C1078.45 1.37607 1076.9 1.3006 1079.67 1.05936C1076.48 1.08047 1074.5 1.05019 1074.21 1.16537C1073.54 1.1154 1072.88 1.06539 1072.22 1.01542C1071.19 1.01666 1070.25 1.02129 1069.15 1.02036C1070.67 1.19412 1067.73 1.08715 1065.65 1.16592C1063.56 1.24478 1066.36 1.38195 1060.63 1.38381C1062.54 1.42448 1064.29 1.45938 1066.13 1.49788C1062.44 1.54258 1058.73 1.58757 1055.04 1.63227C1057.63 1.73844 1063.26 1.89613 1063.1 2.03581C1061.4 1.98308 1055.57 2.07576 1054.93 2.07957C1052.46 2.09386 1053.81 2.00576 1053.62 2.00359C1049.74 1.96078 1046.54 1.99077 1045.07 1.8573C1042.15 1.91752 1039.95 1.88318 1036.86 1.88659C1035.16 1.88845 1035.49 1.98649 1034.49 1.96789C1027.87 1.8437 1034.18 1.71701 1021.41 1.95818C1022.95 2.02648 1024.48 2.09635 1026.03 2.16526C1024.58 2.19103 1023.15 2.21694 1021.71 2.24271C1020.74 2.23029 1019.78 2.21778 1018.82 2.20536C1018.84 2.05728 1018.86 1.90889 1018.88 1.7608C1017.83 1.75273 1016.76 1.74489 1015.7 1.73682C1017.52 1.72223 1019.34 1.70765 1021.16 1.69306C1021.32 1.667 1021.48 1.64093 1021.64 1.61488C1018.95 1.57451 1016.26 1.53379 1013.56 1.49312C1013.51 1.54463 1013.46 1.5965 1013.4 1.64802C1007.32 1.5763 1007.18 1.53269 1001.39 1.67457C996.942 1.67301 993.316 1.8884 990.742 1.97905C989.818 1.95019 988.893 1.92095 987.959 1.89208C987.368 1.93493 986.77 1.97759 986.178 2.02043C985.005 1.96083 983.816 1.90121 982.644 1.84192C981.99 1.97721 981.651 2.01945 986.228 2.06694C984.66 2.23521 976.603 2.16098 973.323 2.10448C970.835 2.0616 973.596 1.92124 973.285 1.90417C972.246 1.84617 968.145 1.89621 967.283 1.88659C963.64 1.84654 961.087 1.85355 957.797 1.82251C957.156 1.81629 955.366 1.72734 955.214 1.72455C954.031 1.70934 951.11 1.6661 950.778 1.66486C933.645 1.59846 951.952 1.98438 936.02 1.94372C936.498 1.99461 936.936 2.04516 937.403 2.09605C936.2 2.09916 934.984 2.10211 933.78 2.10521C932.254 2.06267 934.1 1.98532 931.07 2.04772C931.267 1.985 931.465 1.92226 931.673 1.85986C930.355 1.8937 929.084 1.92727 927.734 1.96111C925.617 1.74348 917.887 1.69405 918.436 1.43855C918.623 1.35162 924.104 1.26242 921.208 1.16959C918.854 1.15131 920.447 1.25514 919.487 1.26058C912.554 1.29846 912.956 1.15293 910.123 1.19174C909.677 1.25411 909.208 1.3177 908.751 1.3807C907.683 1.36239 906.611 1.34408 905.532 1.32577C905.283 1.36768 905.023 1.40964 904.774 1.45155C905.781 1.45435 906.915 1.45718 907.838 1.45998C906.55 1.62232 894.72 1.69524 899.232 1.55683C901.069 1.50065 904.433 1.52452 902.307 1.33272C899.141 1.36036 895.55 1.38859 892.218 1.41622C892.114 1.37492 892.017 1.33355 891.914 1.29226C887.424 1.31899 891.507 1.48409 891.499 1.57258C890.472 1.57506 889.434 1.57724 888.407 1.57972C887.972 1.53971 887.558 1.49783 887.102 1.45906C887.06 1.52273 886.485 1.67073 883.423 1.61579C881.455 1.58003 884.555 1.41939 880.801 1.44167C881.082 1.541 882.438 1.66198 878.257 1.69397C877.842 1.5903 877.268 1.49532 876.946 1.38637C871.747 1.48597 869.381 1.32587 863.278 1.44167C859.407 1.51494 854.103 1.77505 851.602 1.37429C848.77 1.36374 849.669 1.46354 848.83 1.48598C844.876 1.59216 841.934 1.40213 841.197 1.39095C836.497 1.3193 834.39 1.38508 830.561 1.29537C830.768 1.36958 830.881 1.43982 831.047 1.51216C834.556 1.40101 836.332 1.40622 841.253 1.43013C839.603 1.44503 837.952 1.46027 836.302 1.47517C836.572 1.53539 836.839 1.59562 837.099 1.65552C852.315 1.41832 848.766 1.79309 836.009 1.87506C834.909 1.76362 833.769 1.65247 832.679 1.54072C825.31 1.70961 821.842 1.563 813.508 1.52791C812.517 1.52389 808.908 1.58809 807.357 1.59126C807.382 1.59168 807.409 1.59211 807.434 1.59254C806.469 1.69777 807.776 1.74621 807.932 1.84027C807.091 1.85206 806.25 1.86381 805.41 1.87561C803.532 1.80391 804.193 1.74501 800.498 1.76209C800.996 1.83349 801.488 1.90491 801.986 1.97631C797.938 1.97879 795.288 1.90121 791.521 1.93475C792.154 1.90773 792.779 1.88065 793.412 1.85363C785.212 1.78471 791.738 1.36491 785.541 1.57386C785.147 1.53724 784.763 1.50026 784.369 1.46364C786.922 1.45464 789.476 1.44591 792.018 1.43691C792.07 1.38508 792.126 1.33347 792.168 1.28164C789.438 1.29716 786.695 1.31317 783.965 1.3287C785.958 1.29392 787.963 1.2591 789.955 1.22433C786.79 1.1995 783.623 1.17465 780.458 1.14981C783.82 1.3404 779.461 1.36371 780.281 1.55244C774.676 1.39534 770.273 1.18825 761.585 1.32082C759.863 1.34723 760.799 1.47912 755.91 1.31863C757.093 1.52848 750.969 1.62695 751.756 1.82654C753.458 1.81691 755.223 1.81086 756.873 1.79907C754.994 1.72984 754.682 1.53938 757.536 1.48286C761.179 1.41084 766.493 1.54283 766.276 1.33144C767.728 1.34137 769.08 1.34723 770.491 1.35561C769.91 1.40805 769.341 1.46082 768.77 1.51326C772.786 1.43104 775.309 1.45778 777.239 1.58997C772.455 1.6204 767.68 1.6505 762.896 1.68061C763.601 1.6896 764.315 1.69866 765.02 1.70734C761.398 1.8424 765.134 1.97032 758.377 1.9992C758.419 1.93743 758.452 1.87561 758.493 1.81354C756.033 1.97871 749.298 1.97781 751.446 2.16783C749.412 2.10946 748.998 2.07255 747.845 2.17497C742.479 2.0306 739.032 1.84803 740.942 1.63007C738.95 1.66515 736.956 1.70028 734.974 1.73535C736.126 1.79495 737.279 1.85427 738.431 1.91387C734.964 1.91015 731.472 1.90648 728.016 1.90307C727.684 1.72674 734.689 1.84958 732.668 1.69196C732.263 1.66032 730.398 1.72809 729.907 1.71027C724.739 1.51748 732.853 1.65677 731.329 1.50905C723.627 1.46341 729.79 1.21589 719.182 1.42391C718.902 1.373 718.601 1.32107 718.342 1.27047C714.659 1.26742 714.958 1.3824 711.792 1.40413C709.81 1.41765 707.322 1.21573 705.133 1.35323C704.742 1.37858 708.425 1.62537 700.686 1.61451C694.679 1.60609 697.179 1.43169 693.932 1.36989C690.683 1.30811 683.251 1.54993 681.06 1.27578C682.762 1.31209 684.93 1.33168 686.819 1.36147C687.586 1.30808 688.334 1.25526 689.092 1.20218C684.774 1.2711 680.311 1.18987 677.404 1.31716C671.644 1.12249 665.201 1.30314 666.945 1.52296C668.841 1.49127 666.778 1.39542 669.412 1.4565C669.681 1.50773 669.966 1.5587 670.236 1.60993C665.752 1.60372 662.637 1.60516 664.682 1.44899C663.987 1.44526 663.298 1.44155 662.603 1.43782C662.478 1.55084 662.368 1.66427 662.243 1.77728C661.413 1.79001 660.579 1.80264 659.748 1.81537C658.825 1.79054 657.9 1.76543 656.966 1.7403C658.222 1.56146 660.361 1.55556 653.282 1.45558C653.262 1.51737 653.231 1.57891 653.21 1.64069C647.284 1.56215 647.127 1.41248 639.686 1.41805C645.395 1.20353 648.518 1.58379 648.498 1.15347C649.93 1.18173 651.374 1.21036 652.807 1.23861C653.025 1.17621 653.241 1.11371 653.448 1.05131C645.758 1.08422 632.982 1.49464 627.833 1.2225C627.21 1.25571 626.585 1.28458 625.952 1.32027C620.907 1.15603 618.729 1.52477 613.612 1.3124C613.084 1.29011 614.189 0.943681 607.527 0.956095C607.693 1.00112 607.78 1.0769 607.915 1.1337C606.472 1.10608 605.038 1.07717 603.606 1.04892C603.346 1.09051 603.074 1.13208 602.815 1.17398C605.275 1.19012 607.728 1.20654 610.188 1.22268C608.144 1.23696 606.087 1.25125 604.043 1.26553C606.709 1.3335 607.912 1.33422 606.305 1.44313C603.99 1.44965 601.672 1.45657 599.358 1.46309C599.119 1.49099 598.882 1.51922 598.644 1.54713C599.765 1.63033 600.897 1.7117 602.018 1.79614C595.988 1.72815 590.745 1.72446 586.116 1.56086C585.327 1.53323 588.117 1.42484 582.742 1.5226C582.658 1.46519 582.514 1.41857 582.421 1.3655C575.84 1.52633 573.678 1.47832 566.817 1.3622C571.26 1.47056 567.296 1.40009 566.164 1.45815C565.389 1.49815 568.415 1.49224 568.073 1.53413C567.73 1.57573 563.798 1.74371 567.16 1.76392C575.402 1.4196 577.647 1.83126 588.234 1.66578C586.605 1.71017 584.963 1.75467 583.333 1.79907C584.101 1.82916 584.788 1.85646 585.618 1.88842C579.713 1.82106 582.585 1.86482 580.159 1.9179C577.73 1.97099 573.315 2.0161 570.357 2.03069C569.425 2.03527 570.408 1.95805 568.305 1.95086C566.873 1.94589 562.958 2.06038 562.055 1.92541C561.463 1.83755 567.751 1.59562 559.057 1.5962C557.42 1.51007 561.589 1.53682 561.678 1.52644C562.436 1.42398 557.091 1.34695 554.62 1.42519C554.42 1.43194 556.371 1.51178 554.25 1.5431C549.216 1.61793 546.308 1.52636 543.049 1.40248C542.696 1.54779 538.46 1.72132 533.187 1.66761C532.917 1.70919 532.66 1.75114 532.39 1.79303C533.209 1.77102 534.027 1.74931 534.846 1.7273C535.739 1.75338 536.684 1.77236 537.556 1.8031C532.254 1.83883 531.504 2.03908 528.961 2.11235C520.259 2.36263 525.533 1.8332 527.102 1.74194C528.234 1.77889 529.328 1.82013 530.449 1.85894C530.324 1.80834 530.198 1.75734 530.084 1.70642C517.057 1.70797 528.1 1.37791 521.488 1.28384C519.786 1.53282 514.93 1.55682 508.744 1.39882C508.059 1.40006 507.371 1.40038 506.686 1.40193C506.572 1.43824 506.574 1.49373 506.388 1.51765C498.935 1.55988 497.607 1.17643 496.901 1.14011C493.767 0.978996 491.326 1.20191 490.402 1.20382C486.51 1.21159 485.379 1.11261 481.674 1.15512C477.689 1.20106 480.414 1.27701 479.201 1.34499C478.229 1.39898 475.085 1.40859 473.786 1.46455C474.302 1.41879 474.876 1.3739 475.39 1.32796C471.26 1.26557 467.884 1.20475 463.194 1.18954C457.9 1.52443 453.397 0.959521 455.223 1.41768C459.666 1.44904 462.15 1.50125 464.527 1.61799C461.611 1.63289 458.692 1.6474 455.776 1.6623C454.925 1.61201 454.321 1.56301 453.315 1.51179C451.135 1.61858 446.083 1.57275 444.1 1.60407C434.81 1.75093 437.684 1.93307 429.204 1.62696C435.316 1.59713 435.306 1.44846 441.367 1.46895C440.059 1.36277 436.979 1.38477 438.972 1.25747C433.108 1.28883 435.004 1.40248 432.722 1.50337C430.753 1.59035 426.789 1.59522 427.013 1.70825C426.608 1.64611 426.295 1.58594 425.891 1.52388C422.092 1.5245 418.294 1.52454 414.496 1.52516C416.115 1.46028 417.733 1.39528 419.352 1.33071C418.129 1.30621 416.903 1.28179 415.68 1.25729C406.338 1.4591 390.229 1.08924 392.802 1.5962C388.298 1.61234 387.734 1.54876 385.285 1.45284C385.015 1.49132 384.753 1.52334 384.483 1.56617C381.578 1.52588 379.347 1.67038 376.784 1.63282C374.22 1.59555 373.584 1.45906 373.21 1.68848C371.55 1.62267 369.899 1.568 368.249 1.50685C367.253 1.55897 366.258 1.61049 365.273 1.6623C363.716 1.63498 362.156 1.60777 360.599 1.58045C359.767 1.68997 353.645 1.64276 350.947 1.71631C348.385 1.59826 348.455 1.22657 342.429 1.29318C342.584 1.38536 342.738 1.47728 342.893 1.56947C341.513 1.55022 340.13 1.53104 338.739 1.51179C338.656 1.4817 338.584 1.45161 338.501 1.42153C339.207 1.43084 339.903 1.4401 340.609 1.44972C339.997 1.3988 339.397 1.34812 338.795 1.2972C336.688 1.37264 334.578 1.44808 332.461 1.52351C335.315 1.58062 338.17 1.63778 341.024 1.69489C337.443 1.76257 334.95 1.69506 331.836 1.77051C329.128 1.64323 330.128 1.5699 331.228 1.43178C330.221 1.44357 329.203 1.45496 328.197 1.46675C328.861 1.32861 327.158 1.24631 333.042 1.25747C332.638 1.21807 332.225 1.18051 331.831 1.13956C330.866 1.14577 330.24 1.11246 329.181 1.12766C326.296 1.16926 324.083 1.41189 324.28 1.49696C324.387 1.54152 327.232 1.4563 327.118 1.5193C326.836 1.67292 320.31 1.60395 329.723 1.75824C326.599 1.85604 325.901 1.78228 322.455 1.75403C322.725 1.80522 322.987 1.85609 323.246 1.90728C321.648 1.88369 320.048 1.86019 318.45 1.83661C320.672 1.57364 308.89 1.47488 319.496 1.24484C316.362 1.23304 313.238 1.22118 310.115 1.20877C310.758 1.18176 311.402 1.15503 312.045 1.12802C313.457 1.1423 314.86 1.15635 316.271 1.17032C314.611 1.12097 312.948 1.07191 311.287 1.02256C307.364 1.08372 305.826 1.17779 304.03 1.29391C308.596 1.37864 307.105 1.2629 310.662 1.23989C310.538 1.31343 310.702 1.38107 310.391 1.45833C308.553 1.30601 302.556 1.41682 301.165 1.42427C296.933 1.4469 300.252 1.29724 297.42 1.29409C294.587 1.29099 291.245 1.38006 288.93 1.23166C288.971 1.31484 289.157 1.4009 289.323 1.47664C284.911 1.50396 285.791 1.40569 285.335 1.39296C278.048 1.18371 274.094 1.36037 265.759 1.38179C266.818 1.40756 267.887 1.43082 268.956 1.45503C262.668 1.63164 266.904 1.57757 272.364 1.63593C267.246 1.61823 264.316 1.76864 260.704 1.81335C257.092 1.85798 250.898 1.78074 248.634 1.72052C253.814 1.62365 259.4 1.68753 265.151 1.66083C264.497 1.5761 263.862 1.50438 263.187 1.41127C259.69 1.58912 257.663 1.4702 256.511 1.44661C253.128 1.37741 253.234 1.53006 251.19 1.36586C251.273 1.42235 251.334 1.46984 251.417 1.5226C244.431 1.499 236.897 1.39914 232.35 1.60774C231.935 1.47207 231.622 1.34137 231.144 1.20291C228.187 1.30503 225.654 1.20045 223.163 1.22433C220.682 1.24824 221.626 1.35788 218.71 1.4001C218.17 1.40787 217.046 1.33924 215.718 1.38985C214.376 1.44073 209.428 1.819 208.837 1.48854C206.335 1.48699 203.968 1.4749 201.519 1.46931C203.906 1.45069 206.294 1.43265 208.671 1.41402C206.637 1.33393 204.615 1.25407 202.581 1.17398C202.321 1.24539 202.061 1.31809 201.812 1.38857C196.331 1.4755 192.354 1.35875 186.822 1.38637C185.898 1.39103 188.078 1.53221 183.979 1.49623C179.879 1.46022 176.837 1.1967 169.852 1.29849C169.499 1.30376 167.431 1.50558 164.929 1.36586C164.36 1.3342 166.756 1.28734 165.449 1.24575C164.141 1.20415 158.306 1.16994 157.849 1.0709C157.911 1.10597 158.276 1.14231 158.452 1.17801C157.456 1.19477 156.45 1.21154 155.443 1.22799C155.35 1.16622 155.249 1.10435 155.155 1.04288C149.426 1.18663 146.465 1.42111 137.975 1.34353C140.362 1.43325 142.75 1.52333 145.127 1.61304C145.781 1.55002 146.436 1.48657 147.08 1.42354C150.992 1.44868 154.916 1.47365 158.828 1.49879C159.472 1.42707 160.104 1.35556 160.748 1.28384C161.785 1.29315 162.813 1.30217 163.851 1.31149C163.591 1.36333 163.33 1.4149 163.06 1.46675C165.114 1.45402 167.172 1.44103 169.216 1.4283C165.054 1.73434 157.593 1.40227 158.131 1.65827C157.208 1.61855 156.283 1.57855 155.36 1.53852C154.955 1.66266 153.078 1.62693 149.768 1.60737C150.526 1.66853 151.362 1.72886 152.058 1.79065C148.84 1.70435 143.132 1.71273 139.8 1.67951C138.337 1.66492 139.799 1.57492 139.364 1.56434C137.132 1.50908 132.866 1.66611 131.974 1.65369C126.639 1.57979 123.172 1.28207 117.349 1.47829C123.359 1.52672 120.089 1.50626 122.228 1.61524C122.897 1.64941 130.661 1.72069 120.939 1.68903C119.799 1.68507 102.158 1.47937 107.957 1.32174C105.102 1.37204 102.867 1.43019 100.252 1.4836C93.8577 1.06818 96.0706 1.45843 97.9285 1.67328C96.8802 1.67421 95.8829 1.6764 94.8034 1.6764C97.0973 1.45068 85.4104 1.43666 81.4453 1.55061C80.1168 1.58849 83.8316 1.66074 80.7594 1.69489C79.2965 1.67906 77.6368 1.65856 76.091 1.64088C78.3329 1.78368 73.933 1.83872 73.9946 1.984C71.1819 1.85454 69.0305 1.58014 70.5763 1.43141C68.2516 1.49163 65.9148 1.55178 63.5902 1.61231C64.6697 1.64677 65.7632 1.68093 66.8426 1.7154C59.2446 1.62412 49.475 1.83182 47.8869 1.52662C46.88 1.5288 45.8625 1.53068 44.8557 1.53285C44.5443 1.58439 44.2434 1.63603 43.932 1.68757C39.3763 1.64287 34.8309 1.59787 30.2752 1.55317C34.3316 1.52119 35.2972 1.44783 39.5512 1.5074C37.9119 1.44812 36.242 1.38852 34.6339 1.32925C28.2296 1.48883 27.356 1.59371 17.7136 1.54621C17.2777 1.54404 9.99212 1.41021 9.743 1.39717C8.6017 1.33757 10.3342 1.25097 9.82597 1.22085C8.41431 1.1364 -0.163698 0.924357 0.00237957 0.892378C2.09914 0.499934 30.9601 0.494733 38.7657 0.474552C119.728 0.265301 198.907 0.545252 279.361 0.497439C280.188 0.496699 279.827 0.438766 280.179 0.436284C282.369 0.421734 284.52 0.512023 285.329 0.515748C287.059 0.523425 286.106 0.440006 287.37 0.439946C300.428 0.440878 312.75 0.489931 325.818 0.47565C326.669 0.474719 325.8 0.541462 327.295 0.529664C328.067 0.523204 330.482 0.420807 332.223 0.419256C338.306 0.413981 343.415 0.446809 349.83 0.445256C353.338 0.444329 358.601 0.453033 362.524 0.451481C364.256 0.450822 366.061 0.403977 367.773 0.402412C370.202 0.400238 369.706 0.495201 370.08 0.501101C371.72 0.526864 371.947 0.422635 373.504 0.425116C376.399 0.430083 376.555 0.499673 380.23 0.493777C382.856 0.48943 388.866 0.434486 392.177 0.418341C399.921 0.499057 409.678 0.467013 416.902 0.440313C421.178 0.424485 421.575 0.521918 423.318 0.521607C429.462 0.51972 434.125 0.395279 439.896 0.391243C447.554 0.385985 454.341 0.46827 461.761 0.474185C462.964 0.475116 462.688 0.385843 463.868 0.383553C468.238 0.37517 473.826 0.358922 477.719 0.371651C482.057 0.385641 483.657 0.515222 487.902 0.488833C489.146 0.480998 489.511 0.36738 491.597 0.352792C494.928 0.329853 498.581 0.430045 500.906 0.441228C504.093 0.456131 501.321 0.340381 505.619 0.355905C505.795 0.356575 506.438 0.439317 507.361 0.435369C510.049 0.424192 509.783 0.359033 513.716 0.365243C514.094 0.366101 519.31 0.44494 519.829 0.445256C522.88 0.446498 529.024 0.4741 530.83 0.457341C537.287 0.397729 532.204 0.27328 537.695 0.543396C540.112 0.477282 542.51 0.41027 545.073 0.346018C543.363 0.405939 550.305 0.492407 550.793 0.486819C554.828 0.441789 552.424 0.33669 557.541 0.354074C550.784 0.596868 564.142 0.385368 567.121 0.379158C581.465 0.349051 594.504 0.40964 608.921 0.408088C613.748 0.407452 620.215 0.356128 625.322 0.35737C626.512 0.357444 625.612 0.414903 626.66 0.416144C627.705 0.416995 626.546 0.352492 627.739 0.355905C635.16 0.378267 640.975 0.499976 647.773 0.347849C648.104 0.369844 648.094 0.387224 648.642 0.411383C654.205 0.275097 664.92 0.458375 668.947 0.483523C675.246 0.52262 676.855 0.430499 681.431 0.449101C687.482 0.473939 696.568 0.653907 692.51 0.356821C696.662 0.34751 700.658 0.344939 704.851 0.372567C705.317 0.375699 704.996 0.451211 705.182 0.452763C706.366 0.463604 706.751 0.395995 707.55 0.392891C709.717 0.38454 706.181 0.465492 709.27 0.442876C710.9 0.430768 711.825 0.371799 716.35 0.370553C743.628 0.364033 773.243 0.385152 801.206 0.395088C803.126 0.395709 801.862 0.322685 804.27 0.327342C812.636 0.343502 827.611 0.466395 834.825 0.44965C842.039 0.432886 840.411 0.326099 844.925 0.281385C845.797 0.272692 845.082 0.333551 845.871 0.334483C851.175 0.340076 857.499 0.435003 861.796 0.449284C864.638 0.458854 864.41 0.36311 866.381 0.356271C869.319 0.346336 872.342 0.443067 873.909 0.446172C881.278 0.459811 886.344 0.3819 893.225 0.421637C892.955 0.400566 892.778 0.38106 892.55 0.360299C900.697 0.363714 908.834 0.367138 916.982 0.370553C916.597 0.351303 916.226 0.331888 915.842 0.312328C925.401 0.322892 924.311 0.531524 923.47 0.0909646C924.165 0.0754442 924.902 0.0574541 925.566 0.0431765C925.296 0.27012 931.079 0.4362 938.438 0.49396C938.977 0.498307 942.599 0.27703 942.204 0.538452C943.149 0.474496 943.712 0.430409 944.511 0.374215C946.067 0.453362 947.645 0.531573 949.201 0.610409C950.042 0.598614 950.894 0.587232 951.735 0.575438C951.86 0.524209 951.763 0.471019 952.034 0.420721C955.936 0.41296 963.94 0.476292 967.023 0.469791C974.684 0.453336 982.482 0.314831 988.441 0.464481C991.343 0.449224 988.461 0.348677 992.777 0.361398C993.265 0.412304 993.723 0.461095 994.232 0.513551C997.759 0.286104 998.497 0.424466 1003.33 0.471988C1006.6 0.504275 1008.74 0.448685 1011.85 0.459538C1012.64 0.462332 1012.53 0.52909 1013.07 0.526917C1014.88 0.520033 1020.04 0.428148 1021.31 0.425665C1032.88 0.401453 1042.81 0.411759 1053.82 0.436284C1055 0.438768 1053.47 0.372885 1054.69 0.37568C1056.66 0.380066 1055.51 0.481303 1056.65 0.48627C1059.83 0.499554 1059.86 0.392802 1064.3 0.387215C1078.92 0.368908 1095.74 0.449101 1111.01 0.456242C1111.49 0.456242 1111.46 0.393695 1111.98 0.393074C1115.37 0.390015 1118.79 0.474564 1121.86 0.473636C1126.96 0.472394 1130.79 0.384524 1135.82 0.384834C1145.66 0.385145 1154.45 0.430137 1164.57 0.432623C1172.86 0.434796 1180.05 0.426453 1189.13 0.426763C1228.8 0.428005 1269.29 0.22947 1309.23 0.335032C1310.24 0.337824 1309.83 0.393087 1310.14 0.390693C1313.09 0.366788 1313.35 0.292224 1314.4 0.448369C1318.16 0.417595 1319.34 0.300285 1323.88 0.308666C1326.29 0.31306 1324.49 0.494882 1328.58 0.40113C1332.27 0.316378 1328.19 0.216732 1339.17 0.318553C1339.47 0.321352 1340.9 0.43218 1343.18 0.403327C1345.47 0.374763 1342.82 0.295404 1348.34 0.271498C1361.3 0.215618 1377.71 0.311418 1392.78 0.281934C1393.73 0.280071 1402.83 0.220821 1404.62 0.193499C1408.1 0.140409 1407.37 0.058051 1411.88 0.0378667C1415.37 0.0223428 1418.25 0.115635 1422.35 0.0970068C1422.83 0.0947427 1423.63 -0.00121992 1426.71 0.0115008ZM662.614 1.87542C661.762 1.96958 660.226 2.31614 655.08 2.21067C654.592 2.20074 657.226 1.96241 654.383 1.92449C657.165 1.89934 659.873 1.8912 662.614 1.87506C662.614 1.87518 662.614 1.8753 662.614 1.87542ZM1449.02 2.22129C1445.16 2.2039 1441.3 2.18668 1437.45 2.16929C1440.11 2.12738 1442.77 2.08555 1445.41 2.04332C1446.62 2.10261 1447.81 2.162 1449.02 2.22129ZM969.64 2.05669C969.643 2.05669 969.647 2.05669 969.651 2.05669C965.603 2.1014 961.552 2.14619 957.504 2.1909C957.93 2.15799 958.356 2.12494 958.782 2.09203C961.978 2.04019 965.176 1.98842 968.362 1.93658C968.787 1.97662 969.214 2.01665 969.64 2.05669ZM1001.62 1.70825C1004.21 1.74738 1003.57 1.81335 1005 1.87762C1005 1.8775 1005 1.87738 1005 1.87725C1005.37 1.89398 1007.12 1.90862 1007.79 1.91113C1007.55 1.86983 1007.22 1.82907 1006.95 1.78809C1012.98 1.68811 1024.78 2.04337 1009.51 2.1865C1009.74 2.13435 1009.96 2.08247 1010.18 2.03032C1002.6 2.04491 994.138 1.9318 1001.62 1.70825ZM601.603 2.02556C595.126 2.19632 593.049 2.23233 585.192 2.11528C586.302 2.06688 587.412 2.01848 588.522 1.97008C589.819 2.01945 591.107 2.06848 592.405 2.11784C592.409 2.11784 592.412 2.11784 592.416 2.11784C592.676 2.06599 592.935 2.01406 593.185 1.96221C595.987 1.98332 598.801 2.00445 601.603 2.02556ZM1249.56 1.83166C1251.36 2.17271 1250.84 1.97447 1245.68 2.05138C1243.9 2.07808 1245.64 2.13775 1244.53 2.14769C1238.53 2.20195 1238.05 1.97345 1239.39 1.85455C1242.78 1.84648 1246.21 1.83911 1249.55 1.83166C1249.55 1.83166 1249.55 1.83166 1249.56 1.83166ZM1405.17 1.7608C1405.17 1.7608 1405.18 1.7608 1405.18 1.7608C1405.34 1.84399 1402.92 1.86637 1405.64 1.94518C1403.57 1.94487 1401.5 1.94421 1399.41 1.9439C1400.02 1.93615 1400.65 1.92876 1401.26 1.92101C1400.72 1.89245 1400.18 1.86352 1399.64 1.83496C1398.9 1.93058 1398.22 1.87499 1396.04 1.84301C1396.64 1.94516 1397.24 2.04737 1397.84 2.14952C1395.31 2.1191 1392.77 2.08857 1390.23 2.05815C1390.2 2.03241 1390.17 2.00663 1390.14 1.98089C1389.19 2.01378 1388.24 2.04704 1387.29 2.07994C1387.03 2.04921 1386.78 2.01876 1386.52 1.98803C1385.37 2.0113 1384.21 2.03456 1383.06 2.05815C1382.71 1.98371 1385.25 1.95154 1380.75 1.97045C1382.13 1.89408 1383.51 1.81795 1384.9 1.74158C1391.65 1.74779 1398.41 1.75428 1405.17 1.7608ZM1202.65 1.93658C1210.09 1.9223 1207.99 1.97625 1206.27 2.14512C1205.07 2.0756 1203.85 2.0061 1202.65 1.93658ZM819.227 1.78625C817.068 1.90144 814.9 2.01548 812.689 2.12663C808.288 2.1909 803.885 1.98095 807.196 1.89868C811.182 1.79995 815.345 1.91044 819.227 1.78625ZM718.989 1.83752C724.373 1.89093 719.307 2.0278 718.093 2.10759C716.603 1.97936 714.526 1.99067 711.19 1.97576C714.322 1.96745 718.098 1.82845 718.989 1.83715C718.989 1.83728 718.989 1.8374 718.989 1.83752ZM905.88 1.9157C908.038 1.91226 910.185 1.88009 912.114 1.91918C911.532 2.02933 907.672 1.92912 910.433 2.09239C909.052 2.09518 907.67 2.09789 906.301 2.101C907.172 2.03335 906 1.98279 905.886 1.91607C905.884 1.91595 905.882 1.91583 905.88 1.9157ZM1130.54 2.06639C1126.3 1.93599 1125.5 1.99179 1121.24 2.08214C1120.63 1.97597 1125.72 1.79812 1128.91 1.75897C1129.45 1.86142 1129.99 1.96394 1130.54 2.06639ZM128.837 2.01201C129.854 1.87668 137.356 1.85903 141.084 1.89904C140.64 1.91911 140.195 1.93945 139.751 1.95983C136.118 1.97722 132.47 1.99463 128.837 2.01201ZM709.602 1.9666C710.16 1.97057 710.69 1.97353 711.19 1.97576C710.634 1.97723 710.098 1.97493 709.602 1.9666ZM484.124 1.37923C485.898 1.25164 480.624 1.20877 487.028 1.25875C487.028 1.25863 487.028 1.25851 487.028 1.25839C491.263 1.2913 492.198 1.30009 496.121 1.31002C494.709 1.47393 486.749 1.53252 497.72 1.56636C497.864 1.56651 497.577 1.46897 499.33 1.48231C499.871 1.48646 501.602 1.56651 504.236 1.58979C505.087 1.59724 511.483 1.62193 502.765 1.62348C503.024 1.73774 502.556 1.85338 502.576 1.96422C499.173 1.99644 496.558 1.77271 492.958 1.7782C487.612 1.78689 484.892 2.01313 483.864 1.71631C488.359 1.64339 496.077 1.64163 497.084 1.82013C501.432 1.8223 502.681 1.67606 499.175 1.60371C484.155 1.69561 495.052 1.38663 481.9 1.50337C481.745 1.54465 481.204 1.58908 481.286 1.62788C477.272 1.48261 483.491 1.42487 484.124 1.37923ZM515.531 1.69489C512.936 1.78213 510.349 1.87008 507.765 1.95763C507.765 1.81544 509.19 1.68784 513.28 1.60774C514.026 1.6369 514.784 1.66604 515.531 1.69489ZM297.243 1.73224C296.87 1.80955 295.874 1.88039 295.147 1.95397C294.358 1.88877 275.674 1.82622 285.18 1.76227C286.56 1.75295 294.981 1.88965 297.243 1.73224ZM1159.94 1.94994C1157.74 1.89809 1155.55 1.84616 1153.36 1.79431C1156.73 1.76142 1160.11 1.72767 1163.48 1.69416C1162.3 1.7794 1161.13 1.8647 1159.94 1.94994ZM783.406 1.65058C784.336 1.65348 781.249 1.7598 784.911 1.74304C782.181 1.81104 779.624 1.86859 776.957 1.93255C776.157 1.88225 775.35 1.83216 774.551 1.78186C773.928 1.81415 773.293 1.84624 772.67 1.87853C773.044 1.80526 773.376 1.7337 773.771 1.65919C778.265 1.81629 779.296 1.63816 783.406 1.65058ZM917.048 1.36403C917.856 1.52328 911.348 1.61798 917.75 1.64344C916.536 1.74806 914.583 1.80294 910.836 1.81225C910.235 1.77224 909.635 1.73252 909.033 1.69251C908.95 1.79958 907.986 1.83938 905.88 1.9157C905.878 1.91558 905.877 1.91546 905.875 1.91534C900.178 1.92309 900.519 1.88739 899.149 1.71137C905.179 1.81072 905.36 1.6499 909.47 1.55427C912.293 1.48851 915.979 1.51829 917.048 1.36403ZM317.151 1.73041C312.886 1.86483 316.713 1.99022 309.147 1.84741C309.635 1.81326 310.125 1.77939 310.613 1.74524C312.792 1.73996 314.971 1.73507 317.151 1.73041ZM938.095 1.90984C937.607 1.66334 933.592 1.47146 932.906 1.87249C936.819 1.95415 934.908 1.72698 938.095 1.90984ZM720.825 1.45155C728.35 1.46306 726.927 1.74128 723.834 1.88037C723.357 1.82976 722.88 1.77906 722.413 1.72876C721.094 1.75174 719.776 1.77476 718.458 1.79742C719.247 1.68224 720.036 1.56674 720.825 1.45155ZM1070.75 1.63904C1065 1.81509 1076.96 1.73695 1072.94 1.84686C1069.73 1.93471 1065.51 1.75733 1067.11 1.64619C1068.22 1.64308 1069.45 1.64091 1070.74 1.63904C1070.74 1.63904 1070.75 1.63904 1070.75 1.63904ZM1037.48 1.6894C1038.42 1.87748 1037.06 1.82266 1041.6 1.78882C1042.9 1.77919 1053.21 1.84983 1048.88 1.69397C1045.2 1.69397 1041.3 1.69126 1037.48 1.6894ZM633.845 1.72675C633.776 1.64484 641.715 1.46498 642.734 1.50996C642.734 1.50984 642.734 1.50972 642.734 1.5096C645.485 1.63223 637.11 1.64966 640.743 1.81793C632.699 1.66986 630.292 2.02802 630.853 1.5561C635.591 1.5354 633.348 1.63268 633.845 1.72675ZM30.336 1.62641C30.3324 1.62641 30.3287 1.62641 30.325 1.62641C30.8581 1.63026 35.251 1.75047 34.7168 1.79211C29.4341 1.75641 30.3755 1.67728 25.4574 1.80731C25.1878 1.76543 24.9568 1.72481 24.6665 1.68262C26.6179 1.65778 27.6996 1.60747 30.336 1.62641ZM277.043 1.56709C278.984 1.54566 282.526 1.63444 284.737 1.62916C277.7 1.97006 269.29 1.65217 277.043 1.56709ZM1332.39 1.77252C1332.38 1.77264 1332.38 1.77277 1332.37 1.77289C1332.37 1.7727 1332.37 1.77252 1332.38 1.77234C1332.38 1.7724 1332.38 1.77246 1332.39 1.77252ZM427.456 1.77161C427.206 1.74948 427.064 1.73025 427.013 1.71338C427.013 1.71179 427.013 1.71021 427.013 1.70862C427.148 1.72934 427.293 1.7503 427.456 1.77161ZM617.345 1.75147C614.039 1.63723 625.056 1.45563 628.618 1.49898C628.369 1.55111 628.33 1.59838 627.75 1.65827C624.874 1.52325 617.895 1.77071 617.345 1.75147ZM868.522 1.70954C859.813 1.70643 871.147 1.2554 871.614 1.61524C871.596 1.62221 868.747 1.70892 868.522 1.70954ZM686.022 1.70423C688.241 1.56767 683.782 1.53141 690.912 1.555C691.327 1.59037 691.741 1.62583 692.156 1.6612C690.112 1.67548 688.066 1.68995 686.022 1.70423ZM811.472 1.1174C800.511 1.19347 790.029 1.32766 797.168 1.70423C797.998 1.69213 798.839 1.68044 799.668 1.66834C799.793 1.48462 802.854 1.58491 807.335 1.59089C807.973 1.51795 810.458 1.50109 810.924 1.4391C811.826 1.31929 808.971 1.23505 811.472 1.1174ZM1274.22 1.4164C1274.04 1.44776 1273.87 1.47928 1273.69 1.51033C1271.96 1.54572 1270.22 1.58095 1268.48 1.61634C1268.76 1.55616 1269.05 1.49599 1269.33 1.43581C1270.95 1.42929 1272.58 1.42273 1274.2 1.41622C1274.21 1.41628 1274.21 1.41634 1274.22 1.4164ZM526.212 1.30727C525.216 1.65243 528.695 1.58886 535.753 1.41439C532.577 1.37868 529.388 1.34298 526.212 1.30727ZM987.6 1.25729C987.828 1.35535 988.052 1.4531 988.291 1.55116C992.038 1.44901 991.342 1.33672 989.547 1.20694C988.893 1.22369 988.253 1.24054 987.6 1.25729ZM1041.57 1.21554C1040.02 1.19509 1040.81 1.27426 1040.65 1.27267C1036.72 1.23106 1036.16 1.19475 1031.34 1.25436C1030.74 1.27516 1030.16 1.29703 1029.57 1.31844C1031.8 1.52391 1033.42 1.41193 1038.14 1.53267C1037.29 1.46219 1036.45 1.39161 1035.59 1.32082C1038.22 1.33572 1040.84 1.35042 1043.46 1.36532C1043.77 1.34358 1044.08 1.32205 1044.4 1.30032C1043.46 1.27238 1042.5 1.24099 1041.57 1.21554ZM1294.26 1.50557C1296.81 1.51364 1299.38 1.52203 1301.93 1.5301C1302.03 1.4795 1302.12 1.42855 1302.21 1.37795C1299.56 1.42047 1296.91 1.46304 1294.26 1.50557ZM473.786 1.46455C473.584 1.4825 473.386 1.50057 473.211 1.51893C473.228 1.49655 473.449 1.47907 473.786 1.46455ZM23.5989 1.34884C20.7034 1.31345 16.531 1.33668 13.3549 1.32925C13.6046 1.4562 21.677 1.4211 24.5116 1.49806C24.9671 1.47528 24.8228 1.36373 23.5989 1.34884ZM731.235 1.46272C731.962 1.39939 732.687 1.33636 733.403 1.27303C735.157 1.27987 736.915 1.28708 738.68 1.29391C738.732 1.24206 738.783 1.18976 738.835 1.13791C731.062 1.20527 732.854 1.05576 729.006 0.908307C729.753 1.09301 730.488 1.27771 731.235 1.46272ZM1375.5 1.17673C1369.89 1.21181 1367.9 1.27734 1371.06 1.43288C1373.04 1.39719 1375.04 1.36146 1377.02 1.32577C1376.51 1.2761 1376 1.22639 1375.5 1.17673ZM371.518 1.34737C366.819 1.40549 366.741 1.19674 362.148 1.31332C364.607 1.35181 367.066 1.39073 369.515 1.42922C370.177 1.402 370.856 1.37459 371.518 1.34737ZM601.985 0.774097C600.003 0.701479 596.297 1.04667 590.723 0.791858C589.395 0.867909 588.563 0.940552 587.421 1.01505C586.757 0.934017 586.002 0.851948 585.369 0.771534C585.365 0.771534 585.362 0.771534 585.358 0.771534C580.303 0.798856 583.581 0.900487 583.466 0.986489C583.413 1.02214 579.661 0.962544 580.833 1.04014C582.858 1.17333 590.42 1.09674 590.441 1.25912C587.784 1.20605 582.595 1.2504 584.13 1.35872C585.811 1.47763 590.701 1.27836 593.815 1.37703C589.353 1.11751 598.569 1.19767 599.618 1.39699C605.025 1.24393 600.055 1.18149 594.512 1.18863C597.896 1.03588 592.915 1.1184 592.095 0.991433C595.584 0.914787 607.558 0.978678 601.985 0.774097ZM857.122 1.05552C853.384 1.06537 847.545 0.978057 844.986 1.10697C843.496 1.18207 849.349 1.24023 845.313 1.35817C848.954 1.34668 849.785 1.3006 849.162 1.19723C849.992 1.18482 850.833 1.17272 851.662 1.16061C852.046 1.18078 852.44 1.20068 852.824 1.22085C853.26 1.17832 853.699 1.13613 854.124 1.0936C855.005 1.10198 855.898 1.11036 856.779 1.11905C856.883 1.09767 857.059 1.07905 857.122 1.05552ZM236.593 1.35378C237.63 1.35254 238.658 1.3513 239.696 1.34975C239.581 1.32458 239.445 1.29836 239.314 1.27249C239.22 1.25204 239.126 1.23159 239.032 1.21115C239.633 1.2842 244.577 1.40561 246.66 1.3276C247.707 1.28846 245.324 1.14953 249.763 1.12528C246.546 1.13242 243.566 1.15138 240.443 1.16318C240.723 1.12188 240.992 1.08015 241.272 1.03885C241.27 1.03879 241.269 1.03873 241.267 1.03867C240.229 1.02936 239.179 1.0196 238.142 1.01029C237.623 1.12486 237.112 1.23921 236.593 1.35378ZM984.558 1.06339C981.018 1.14442 979.833 1.18651 981.504 1.31753C981.508 1.31759 981.512 1.31765 981.515 1.31771C982.833 1.25966 984.152 1.20163 985.47 1.14359C985.169 1.11688 984.869 1.09009 984.558 1.06339ZM443.298 1.03208C435.772 1.52976 452.719 1.22467 449.493 1.05515C449.347 1.04739 444.003 1.08703 443.298 1.03208ZM719.442 1.29849C721.508 1.29445 723.578 1.2908 725.654 1.28677C725.176 1.2256 724.688 1.16465 724.21 1.10349C722.622 1.16838 721.03 1.2336 719.442 1.29849ZM1351.06 0.950785C1348.88 0.814174 1343.3 0.764679 1340.57 0.913251C1342.01 0.930637 1343.44 0.948046 1344.87 0.965433C1342.16 0.982502 1339.49 1.00129 1336.76 1.01743C1336.61 1.20776 1339.76 1.09734 1344.49 1.14981C1345.22 1.15827 1349.91 1.39452 1351.53 1.21646C1351.85 1.17986 1346.87 1.15497 1350.33 1.04856C1348.82 1.04018 1347.51 1.04204 1346.08 1.03739C1345.97 0.99206 1345.87 0.946679 1345.76 0.901349C1347.53 0.917762 1349.29 0.934373 1351.06 0.950785ZM835.362 1.07035C830.228 1.05984 829.594 1.13589 828.525 1.27029C830.912 1.25508 833.301 1.24009 835.688 1.22488C835.574 1.17348 835.476 1.12206 835.362 1.07035ZM1305.17 0.907208C1302.36 0.885225 1303.56 0.994621 1302.43 1.01542C1298.15 1.09365 1295.24 1.01546 1291.01 1.06449C1291.29 1.04338 1291.55 1.02364 1291.82 1.00315C1291.82 1.00315 1291.81 1.00315 1291.81 1.00315C1271.81 0.91095 1282.31 1.15905 1294.28 1.11868C1294.56 1.15936 1294.83 1.20008 1295.11 1.24044C1300.47 1.16935 1305.41 1.10094 1305.17 0.907208ZM510.154 1.01505C509.926 0.989594 511.867 0.827805 508.224 0.903546C505.339 1.13977 510.07 1.02252 511.255 1.11337C510.269 1.13604 509.26 1.15809 508.285 1.18075C514.181 1.24751 515.041 1.19134 512.892 1.01871C512.739 1.00711 510.383 1.04043 510.154 1.01505ZM471.408 0.898603C470.598 1.24665 478.038 1.09014 477.769 0.982095C476.741 0.977787 475.943 1.03672 474.854 1.01066C473.754 0.984582 473.472 0.903285 471.408 0.898603ZM684.578 0.983743C684.36 0.98219 682.171 0.835912 682.388 0.950419C685.097 1.22147 690.556 1.047 689.601 0.952616C687.795 0.957285 686.591 0.997956 684.578 0.983376C684.578 0.983499 684.578 0.983621 684.578 0.983743ZM1384.92 0.868758C1384.81 0.859047 1379.35 0.800252 1378.65 0.854843C1378.07 0.916306 1377.78 0.982178 1377.34 1.04581C1380.35 0.986822 1386.44 1.03176 1384.91 0.868758C1384.91 0.868758 1384.91 0.868758 1384.92 0.868758Z" fill="#482812"/>
</svg>
