<svg width="312" height="3" viewBox="0 0 312 3" fill="none" xmlns="http://www.w3.org/2000/svg">
<path d="M286.092 0.290025C286.797 0.154737 284.444 0.243421 286.006 0.0413798C285.681 0.0277291 285.353 0.0136505 285.027 -2.92081e-09C284.944 0.0748251 284.86 0.149468 284.777 0.224293C285.215 0.246327 285.652 0.268357 286.092 0.290391C286.092 0.290269 286.092 0.290147 286.092 0.290025ZM286.69 1.22711C286.289 1.01369 285.014 0.956793 286.391 0.75985C286.5 0.833094 286.612 0.906322 286.722 0.979566C287.2 0.922759 287.68 0.865966 288.158 0.809469C288.33 0.837393 288.502 0.865347 288.674 0.892961C288.892 0.765683 289.109 0.638061 289.328 0.510473C289.134 0.529101 288.937 0.548055 288.743 0.566683C287.974 0.463326 287.291 0.435059 286.248 0.415812C286.34 0.385696 286.431 0.355845 286.523 0.325728C285.994 0.376953 285.465 0.428305 284.938 0.479529C285.395 0.529813 285.907 0.585733 286.331 0.632598C285.652 0.832163 284.455 0.721095 283.832 0.679471C282.983 0.622656 283.175 0.717548 282.545 0.677823C282.445 0.671614 282.433 0.597235 282.235 0.595979C281.232 0.59008 279.284 0.629504 280.423 0.803061C282.074 0.780706 283.481 0.920077 285.101 0.869159C284.672 1.06984 285.525 1.13813 286.69 1.22711ZM256.368 0.588106C256.869 0.685572 257.887 0.646239 258.577 0.578585C258.578 0.578585 258.579 0.578585 258.58 0.578585C258.732 0.563682 259.076 0.434153 258.58 0.439431C257.771 0.448476 257.381 0.652371 256.956 0.513952C256.767 0.53972 256.567 0.562648 256.368 0.588106ZM254.612 0.576021C254.116 0.626005 254.341 0.779642 254.962 0.738062C254.962 0.738184 254.962 0.738306 254.962 0.738428C255.221 0.721041 254.712 0.599605 255.641 0.722865C255.831 0.62697 256.018 0.539728 256.205 0.446938C255.978 0.445386 255.77 0.44287 255.532 0.441628C255.692 0.59925 255.107 0.526428 254.612 0.576021ZM279.585 0.716273C279.507 0.574472 279.834 0.575368 280.39 0.476966C279.865 0.481623 279.34 0.486591 278.818 0.491248C279.074 0.566351 279.329 0.64117 279.585 0.716273ZM291.914 0.694302C291.915 0.694302 291.916 0.694302 291.917 0.694302C292.089 0.716654 292.261 0.739089 292.431 0.761132C292.534 0.710524 292.635 0.660136 292.738 0.609528C293.346 0.657031 293.956 0.70453 294.564 0.752343C294.49 0.597754 293.4 0.622907 292.799 0.514867C291.905 0.561441 291.475 0.651174 291.417 0.782188C291.582 0.753015 291.747 0.723474 291.914 0.694302ZM145.815 1.3106C145.611 1.26777 145.411 1.2249 145.208 1.18207C145.478 1.16252 145.746 1.1476 146.018 1.12494C146.731 1.31121 146.798 1.14644 147.731 1.1579C150.592 1.19329 149.833 1.48259 152.417 1.05885C150.342 1.079 151.139 0.879895 149.889 0.726526C149.63 0.843266 150.869 1.10655 150.029 1.1612C148.582 1.03765 147.191 0.922577 145.585 0.842793C145.632 0.822615 145.678 0.802366 145.725 0.782188C145.98 0.794917 146.232 0.807725 146.487 0.820455C146.212 0.766432 145.944 0.712876 145.665 0.658232C146.018 0.780856 145.118 0.712338 145.239 0.853229C145.292 0.915946 145.69 1.00295 145.924 1.06287C145.319 1.09547 144.698 1.12532 144.087 1.15699C144.404 1.20695 144.72 1.25698 145.035 1.30694C145.294 1.30849 145.551 1.3096 145.81 1.31115C145.811 1.31097 145.813 1.31079 145.815 1.3106ZM15.5657 0.658598C16.334 0.804522 17.7302 0.828668 18.465 0.666288C17.4979 0.663804 16.5328 0.661081 15.5657 0.658598ZM291.359 0.890215C291.446 0.865407 291.53 0.840868 291.617 0.816061C291.233 0.77012 290.847 0.724496 290.462 0.678555C290.389 0.750245 290.313 0.821948 290.237 0.893327C290.61 0.892396 290.986 0.891146 291.359 0.890215ZM266.786 0.810385C267.067 0.814723 267.092 0.812372 267.442 0.802145C267.442 0.802206 267.441 0.802267 267.441 0.802328C267.579 0.798509 268.74 0.756636 268.611 0.701442C268.034 0.700511 267.42 0.701442 266.83 0.701442C266.812 0.737749 266.808 0.773769 266.786 0.810385ZM273.569 0.77816C273.57 0.778038 273.571 0.777916 273.571 0.777793C273.781 0.769408 273.98 0.752342 274.196 0.74923C273.417 0.662362 273.294 0.818214 272.586 0.774132C271.878 0.729736 271.441 0.643745 270.84 0.857257C271.063 0.889236 271.304 0.934985 271.534 0.972242C272.539 0.886871 272.809 0.967211 273.615 1.05134C273.6 0.960073 273.585 0.869426 273.569 0.77816ZM158.552 0.87868C158.744 0.984231 158.958 0.88066 158.98 0.879412C158.98 0.87929 158.98 0.879168 158.979 0.879046C160.68 0.976798 158.758 0.820618 160.363 0.804159C160.125 0.777778 159.89 0.749922 159.653 0.723231C159.287 0.774134 158.909 0.831814 158.552 0.87868ZM213.828 0.868792C213.843 0.838055 213.862 0.807249 213.878 0.776512C212.913 0.783653 212.667 0.662651 211.865 0.77285C212.519 0.805133 213.173 0.837186 213.828 0.869159C213.828 0.869036 213.828 0.868914 213.828 0.868792ZM261.923 1.03395C262.993 1.09263 263.784 1.11848 264.812 1.02534C264.812 1.02522 264.813 1.0251 264.814 1.02497C264.873 1.01924 264.587 0.954934 264.664 0.938735C264.876 0.948353 265.095 0.96314 265.309 0.974622C265.338 0.923126 265.366 0.871641 265.395 0.820455C264.792 0.835045 264.189 0.849624 263.583 0.864215C263.673 0.8341 263.764 0.804247 263.854 0.774132C263.34 0.758611 262.828 0.743146 262.315 0.727625C262.493 0.812044 262.671 0.896484 262.848 0.981214C262.54 0.998903 262.231 1.01595 261.923 1.03395ZM197.765 1.20514C197.935 1.17161 197.62 1.11537 197.884 1.08649C198.148 1.05799 198.633 1.12056 198.52 1.02589C198.165 1.01317 197.792 0.998582 197.431 0.985242C198.594 0.814528 199.755 0.969004 199.773 0.758202C198.656 0.812844 197.738 0.787459 196.657 0.72909C196.702 0.896421 197.783 1.0411 197.102 1.19818C197.321 1.20036 197.551 1.20353 197.763 1.20477C197.763 1.2049 197.764 1.20502 197.765 1.20514ZM306.988 2.9885C307.649 2.97577 309.164 3.04406 309.999 2.94657C310.205 2.92255 310.889 2.61133 310.886 2.57031C310.866 2.43215 310.03 2.41334 310.925 2.32331C310.624 2.32238 310.332 2.31719 310.033 2.3147C310.086 2.22187 310.14 2.12929 310.191 2.03676C310.555 2.05074 310.919 2.06478 311.284 2.07906C311.301 2.04832 311.319 2.01752 311.337 1.98678C310.028 1.98616 310.801 1.86752 310.122 1.75699C310.747 1.70112 311.377 1.64552 312 1.58964C311.64 1.59647 311.216 1.60153 310.899 1.6096C310.857 1.4522 311.613 1.48973 311.743 1.46056C312.473 1.29571 308.755 1.37891 308.451 1.14985C309.045 1.12439 309.668 1.09955 310.275 1.07441C310.101 1.04616 309.925 1.01789 309.751 0.989636C308.373 1.14763 306.828 1.2036 305.222 1.302C305.077 1.29548 304.931 1.2888 304.789 1.28259C304.831 1.21152 304.871 1.14072 304.914 1.06965C304.695 1.06127 304.473 1.05295 304.254 1.04456C304.9 1.27864 304.006 1.27545 302.927 1.41826C303.501 1.50053 304.209 1.45065 304.16 1.60392C302.191 1.486 299.884 1.65265 297.968 1.51952C297.492 1.48661 297.494 1.28889 296.375 1.30713C296.413 1.32886 296.42 1.3681 296.444 1.39666C294.51 1.30196 293.337 1.24535 291.327 1.34191C291.443 1.27085 291.557 1.19949 291.673 1.12842C292.099 1.16382 292.527 1.19977 292.951 1.23517C293.241 1.11782 292.812 1.06603 294.085 1.06727C295.128 1.0682 294.507 1.12002 294.791 1.15479C295.175 1.20226 295.512 1.10887 295.925 1.16193C296.245 1.2026 295.899 1.29943 296.732 1.2749C296.397 1.14947 296.056 1.01995 295.718 0.892961C295.515 0.921215 295.313 0.949903 295.11 0.978467C295.316 1.012 295.518 1.04509 295.723 1.07862C294.999 1.01839 294.316 0.961586 293.568 0.899186C293.811 1.08051 293.038 1.01252 292.618 0.991101C291.964 0.957605 292.524 1.08239 292.095 1.06159C291.667 1.04047 291.204 0.901058 290.429 0.930862C290.844 1.01157 290.279 1.08395 290.389 1.15845C290.498 1.23295 291.318 1.24945 290.53 1.33074C289.016 1.26896 290.659 0.985248 289.636 0.939284C288.408 0.884025 288.116 1.3465 288.482 1.44591C288.77 1.52415 289.761 1.50842 290.052 1.58635C288.276 1.72699 288.261 1.44934 287.957 1.39501C286.854 1.19725 287.595 1.72508 286.288 1.53416C286.313 1.63287 286.333 1.72165 286.357 1.81632C286.132 1.79831 285.982 1.77438 285.71 1.76011C286.513 1.56778 285.856 1.57603 285.518 1.57573C284.987 1.57511 285.808 1.4813 285.667 1.45708C285.288 1.39228 284.687 1.4217 285.055 1.33697C284.89 1.3764 284.711 1.41595 284.541 1.45507C283.92 1.40594 282.461 0.993957 283.85 1.07716C283.72 0.924091 283.271 0.99766 282.92 1.02095C282.57 1.04421 282.576 0.946729 282.268 0.964735C281.042 1.03677 281.844 1.20352 282.038 1.33422C280.419 1.24419 282.004 1.18462 279.671 1.12439C279.445 1.0179 280.524 0.904268 279.626 0.842793C279.46 1.0278 278.799 1.1607 277.511 1.22217C277.386 1.17963 277.261 1.13672 277.136 1.09418C276.432 1.26495 276.792 1.44252 275.49 1.23077C276.189 1.62041 275.708 1.37114 274.543 1.52977C274.306 1.56175 274.853 1.64259 274.522 1.68357C274.372 1.70205 274.009 1.64103 273.643 1.68815C273.464 1.71143 272.629 1.86167 272.05 1.79032C272.475 1.60155 271.376 1.44096 272.318 1.28479C270.576 1.32329 269.357 1.23265 271.309 1.49004C270.867 1.54717 270.424 1.60405 269.982 1.66087C269.674 1.61585 269.363 1.57118 269.052 1.52647C269.005 1.68162 269.052 1.72514 267.838 1.69785C268.365 1.73447 268.89 1.7717 269.419 1.80863C269.437 1.83996 269.51 1.87252 269.493 1.90292C268.845 1.84333 267.02 1.81769 266.578 1.7764C266.136 1.73511 266.99 1.72381 266.862 1.68375C265.802 1.35348 265.886 1.59707 265.125 1.54039C264.678 1.50686 265.744 1.47045 265.505 1.45617C264.619 1.40382 264.208 1.57935 263.423 1.58159C263.702 1.48195 263.979 1.38077 264.251 1.28021C263.427 1.28549 262.508 1.28637 261.742 1.25439C261.441 1.24191 261.669 1.16781 261.62 1.16285C261.376 1.13739 260.384 1.09706 260.279 1.09675C259.489 1.09616 259.467 1.19879 258.699 1.20441C259 1.2131 259.284 1.22093 259.578 1.22931C259.712 1.3957 259.849 1.56209 259.983 1.7288C259.231 1.7409 258.478 1.75276 257.723 1.76487C258.274 1.7093 258.828 1.654 259.38 1.59843C258.518 1.464 257.655 1.32926 256.793 1.19452C256.344 1.2771 255.897 1.35967 255.448 1.44225C254.229 1.42047 254.475 1.08524 253.896 1.3789C253.537 1.35407 253.178 1.32926 252.818 1.30474C252.869 1.34665 252.92 1.38863 252.972 1.43053C252.538 1.40476 252.105 1.37916 251.672 1.35308C252.128 1.20469 252.574 1.04854 253.025 0.904496C252.173 0.87225 252.156 0.998135 252.029 1.02955C251.692 1.11276 251.022 1.00052 250.754 1.07752C250.664 1.10396 251.499 1.18683 251.211 1.28241C251.155 1.30093 250.036 1.65227 249.323 1.57115C249.336 1.5075 249.391 1.42946 249.42 1.36022C248.46 1.32156 247.971 1.6538 248.098 1.74692C247.586 1.68173 246.839 1.67628 246.734 1.57445C246.473 1.57196 246.213 1.56961 245.952 1.56712C246.224 1.81514 245.134 1.76979 245.063 1.5565C245.512 1.55122 245.961 1.54567 246.41 1.54039C246.071 1.27897 247.435 1.12118 244.596 1.36334C244.054 1.49933 245.561 1.34481 245.119 1.44664C244.351 1.50592 243.629 1.45632 242.899 1.55101C241.99 1.66929 243.108 1.78306 240.991 1.63249C245.661 1.25527 240.351 1.37766 238.157 1.26062C237.554 1.63319 235.702 1.7512 233.152 1.64036C233.417 1.53667 234.22 1.59009 234.682 1.55595C235.144 1.52181 234.644 1.46029 235.22 1.41186C235.796 1.36344 237.02 1.29761 237.603 1.22437C237.109 1.16568 234.671 1.02693 236.283 1.19361C235.08 1.29635 234.514 1.40193 233.023 1.42119C232.576 1.25944 232.609 1.15872 231.156 1.15406C232.015 1.37882 230.363 1.53504 230.727 1.76725C231.758 1.71316 231.182 1.48747 231.778 1.37945C231.839 1.36865 232.8 1.42523 233.023 1.42119C232.054 1.62393 231.718 1.6994 232.315 1.94064C231.629 1.91953 231.203 1.94981 231.14 1.83463C230.997 1.8846 230.853 1.93461 230.713 1.98458C230.49 1.98334 230.289 1.97871 230.052 1.97964C230.378 1.80588 229.747 1.91285 229.298 1.83408C228.849 1.75522 229.451 1.61805 228.218 1.61619C228.629 1.57552 229.005 1.54062 229.402 1.50212C228.607 1.45742 227.81 1.41243 227.015 1.36773C227.573 1.26156 228.783 1.10387 228.75 0.964186C228.384 1.01692 227.13 0.924239 226.992 0.920426C226.461 0.906143 226.75 0.994237 226.71 0.996411C225.875 1.03922 225.187 1.00923 224.87 1.1427C224.243 1.08248 223.769 1.11682 223.104 1.11341C222.738 1.11155 222.809 1.01351 222.595 1.03211C221.17 1.1563 222.527 1.28299 219.779 1.04182C220.111 0.973522 220.44 0.903654 220.772 0.834736C220.462 0.808967 220.153 0.783056 219.843 0.757287C219.635 0.769706 219.429 0.782219 219.222 0.794638C219.226 0.942721 219.231 1.09111 219.236 1.2392C219.008 1.24727 218.779 1.25511 218.552 1.26318C218.942 1.27777 219.334 1.29235 219.725 1.30694C219.761 1.333 219.794 1.35907 219.83 1.38512C219.249 1.42549 218.67 1.46621 218.09 1.50688C218.079 1.45537 218.068 1.4035 218.056 1.35198C216.748 1.4237 216.717 1.46731 215.473 1.32543C214.514 1.32699 213.734 1.1116 213.18 1.02095C212.982 1.04981 212.783 1.07905 212.582 1.10792C212.454 1.06507 212.326 1.02241 212.198 0.979566C211.946 1.03917 211.69 1.09879 211.438 1.15808C211.297 1.02279 211.224 0.980551 212.209 0.933059C211.872 0.764787 210.138 0.839018 209.432 0.895524C208.897 0.938404 209.491 1.07876 209.424 1.09583C209.2 1.15383 208.318 1.10379 208.133 1.11341C207.349 1.15346 206.799 1.14645 206.092 1.17749C205.954 1.18371 205.568 1.27266 205.536 1.27545C205.281 1.29066 204.653 1.3339 204.581 1.33514C200.895 1.40154 204.834 1.01562 201.406 1.05628C201.508 1.00539 201.603 0.954839 201.703 0.903947C201.444 0.900844 201.183 0.897895 200.924 0.894792C200.595 0.937326 200.993 1.01468 200.341 0.952284C200.383 1.015 200.426 1.07774 200.47 1.14014C200.187 1.1063 199.913 1.07273 199.623 1.03889C199.167 1.25652 197.504 1.30595 197.622 1.56145C197.662 1.64838 198.842 1.73758 198.218 1.83041C197.712 1.84869 198.055 1.74486 197.848 1.73942C196.356 1.70154 196.443 1.84707 195.833 1.80826C195.737 1.74589 195.636 1.6823 195.538 1.6193C195.308 1.63761 195.078 1.65592 194.845 1.67423C194.792 1.63232 194.736 1.59036 194.682 1.54845C194.899 1.54565 195.143 1.54282 195.342 1.54002C195.065 1.37768 192.519 1.30476 193.49 1.44317C193.885 1.49935 194.609 1.47548 194.152 1.66728C193.47 1.63964 192.698 1.61141 191.981 1.58378C191.958 1.62508 191.938 1.66645 191.915 1.70774C190.949 1.68101 191.828 1.51591 191.826 1.42742C191.605 1.42494 191.382 1.42276 191.161 1.42028C191.067 1.46029 190.978 1.50217 190.88 1.54094C190.871 1.47727 190.747 1.32927 190.088 1.38421C189.665 1.41997 190.332 1.58061 189.524 1.55833C189.585 1.459 189.876 1.33802 188.977 1.30603C188.887 1.4097 188.764 1.50468 188.695 1.61363C187.576 1.51403 187.067 1.67413 185.754 1.55833C184.921 1.48506 183.779 1.22495 183.241 1.62571C182.632 1.63626 182.825 1.53646 182.645 1.51402C181.794 1.40784 181.161 1.59787 181.002 1.60905C179.991 1.6807 179.538 1.61492 178.714 1.70463C178.758 1.63042 178.783 1.56018 178.818 1.48784C179.573 1.59899 179.956 1.59378 181.014 1.56987C180.659 1.55497 180.304 1.53973 179.949 1.52483C180.007 1.46461 180.065 1.40438 180.121 1.34448C183.395 1.58168 182.631 1.20691 179.886 1.12494C179.649 1.23638 179.404 1.34753 179.17 1.45928C177.584 1.29039 176.838 1.437 175.044 1.47209C174.831 1.47611 174.055 1.41191 173.721 1.40874C173.726 1.40832 173.732 1.40789 173.738 1.40746C173.53 1.30223 173.811 1.25379 173.845 1.15973C173.664 1.14794 173.483 1.13619 173.302 1.12439C172.898 1.19609 173.04 1.25499 172.245 1.23791C172.352 1.16651 172.458 1.09509 172.565 1.02369C171.694 1.02121 171.124 1.09879 170.313 1.06525C170.45 1.09227 170.584 1.11935 170.72 1.14637C168.956 1.21529 170.36 1.63509 169.027 1.42614C168.942 1.46276 168.859 1.49974 168.775 1.53636C169.324 1.54536 169.873 1.55409 170.421 1.56309C170.432 1.61492 170.444 1.66653 170.453 1.71836C169.865 1.70284 169.275 1.68683 168.688 1.6713C169.116 1.70608 169.548 1.7409 169.977 1.77567C169.295 1.8005 168.614 1.82535 167.933 1.85019C168.656 1.6596 167.719 1.63629 167.895 1.44756C166.689 1.60466 165.742 1.81175 163.872 1.67918C163.502 1.65277 163.703 1.52088 162.651 1.68137C162.906 1.47152 161.588 1.37305 161.757 1.17346C162.123 1.18309 162.503 1.18914 162.858 1.20093C162.454 1.27016 162.387 1.46062 163.001 1.51714C163.785 1.58916 164.928 1.45717 164.881 1.66856C165.194 1.65863 165.485 1.65277 165.788 1.64439C165.663 1.59195 165.541 1.53918 165.418 1.48674C166.282 1.56896 166.825 1.54222 167.24 1.41003C166.211 1.3796 165.184 1.3495 164.154 1.31939C164.306 1.3104 164.46 1.30134 164.611 1.29266C163.832 1.1576 164.636 1.02968 163.182 1.0008C163.191 1.06257 163.198 1.12439 163.207 1.18646C162.677 1.02129 161.228 1.02219 161.691 0.832173C161.253 0.890537 161.164 0.927452 160.916 0.825032C159.761 0.969405 159.019 1.15197 159.43 1.36993C159.002 1.33485 158.573 1.29972 158.146 1.26465C158.394 1.20505 158.642 1.14573 158.89 1.08613C158.144 1.08985 157.393 1.09352 156.649 1.09693C156.577 1.27326 158.085 1.15042 157.65 1.30804C157.563 1.33968 157.161 1.27191 157.056 1.28973C155.944 1.48252 157.69 1.34323 157.362 1.49095C155.705 1.53659 157.031 1.78411 154.748 1.57609C154.688 1.627 154.623 1.67893 154.567 1.72953C153.775 1.73258 153.839 1.6176 153.158 1.59587C152.732 1.58235 152.196 1.78427 151.725 1.64677C151.641 1.62142 152.434 1.37463 150.768 1.38549C149.476 1.39391 150.014 1.56831 149.315 1.63011C148.616 1.69189 147.017 1.45007 146.545 1.72422C146.912 1.68791 147.378 1.66832 147.784 1.63853C147.95 1.69192 148.111 1.74474 148.274 1.79782C147.344 1.7289 146.384 1.81013 145.759 1.68284C144.519 1.87751 143.133 1.69686 143.508 1.47704C143.916 1.50873 143.472 1.60458 144.039 1.5435C144.097 1.49227 144.158 1.4413 144.216 1.39007C143.251 1.39628 142.581 1.39484 143.021 1.55101C142.872 1.55474 142.723 1.55845 142.574 1.56218C142.547 1.44916 142.523 1.33573 142.496 1.22272C142.318 1.20999 142.138 1.19736 141.96 1.18463C141.761 1.20946 141.562 1.23457 141.361 1.2597C141.631 1.43854 142.092 1.44444 140.568 1.54442C140.564 1.48263 140.557 1.42109 140.553 1.35931C139.278 1.43785 139.244 1.58752 137.643 1.58195C138.871 1.79647 139.543 1.41621 139.539 1.84653C139.847 1.81827 140.158 1.78964 140.466 1.76139C140.513 1.82379 140.559 1.88629 140.604 1.94869C138.949 1.91578 136.2 1.50536 135.092 1.7775C134.958 1.74429 134.824 1.71542 134.688 1.67973C133.602 1.84397 133.133 1.47523 132.032 1.6876C131.919 1.70989 132.156 2.05632 130.723 2.0439C130.759 1.99888 130.777 1.9231 130.806 1.8663C130.496 1.89392 130.187 1.92283 129.879 1.95108C129.823 1.90949 129.765 1.86792 129.709 1.82602C130.238 1.80988 130.766 1.79346 131.296 1.77732C130.856 1.76304 130.413 1.74875 129.973 1.73447C130.547 1.6665 130.806 1.66578 130.46 1.55687C129.962 1.55035 129.463 1.54343 128.965 1.53691C128.914 1.50901 128.863 1.48078 128.812 1.45287C129.053 1.36967 129.297 1.2883 129.538 1.20386C128.24 1.27185 127.112 1.27554 126.116 1.43914C125.946 1.46677 126.546 1.57516 125.39 1.4774C125.372 1.53481 125.341 1.58143 125.321 1.6345C123.905 1.47367 123.44 1.52168 121.963 1.6378C122.919 1.52944 122.066 1.59991 121.823 1.54185C121.656 1.50185 122.307 1.50776 122.234 1.46587C122.16 1.42427 121.314 1.25629 122.037 1.23608C123.811 1.5804 124.294 1.16874 126.572 1.33422C126.221 1.28983 125.868 1.24533 125.517 1.20093C125.682 1.17084 125.83 1.14354 126.009 1.11158C124.738 1.17894 125.356 1.13518 124.834 1.0821C124.311 1.02901 123.362 0.983905 122.725 0.969312C122.525 0.964728 122.736 1.04195 122.284 1.04914C121.975 1.05411 121.133 0.939625 120.939 1.07459C120.811 1.16245 122.164 1.40438 120.294 1.4038C119.941 1.48993 120.838 1.46318 120.858 1.47356C121.021 1.57602 119.871 1.65305 119.339 1.57481C119.296 1.56806 119.716 1.48822 119.259 1.4569C118.176 1.38207 117.55 1.47364 116.849 1.59752C116.773 1.45221 115.862 1.27868 114.727 1.33239C114.669 1.29081 114.614 1.24886 114.556 1.20697C114.732 1.22898 114.908 1.25069 115.084 1.2727C115.276 1.24662 115.48 1.22764 115.667 1.1969C114.526 1.16117 114.365 0.960917 113.818 0.887651C111.945 0.637368 113.08 1.1668 113.418 1.25806C113.661 1.22111 113.897 1.17987 114.138 1.14106C114.111 1.19166 114.084 1.24266 114.059 1.29358C111.256 1.29203 113.633 1.62209 112.21 1.71616C111.844 1.46718 110.799 1.44318 109.468 1.60118C109.32 1.59994 109.172 1.59962 109.025 1.59807C109 1.56176 109.001 1.50627 108.961 1.48235C107.357 1.44012 107.071 1.82357 106.919 1.85989C106.245 2.021 105.72 1.79809 105.521 1.79618C104.683 1.78841 104.44 1.88739 103.643 1.84488C102.785 1.79894 103.372 1.72299 103.111 1.65501C102.902 1.60102 102.225 1.59141 101.946 1.53545C102.057 1.58121 102.18 1.6261 102.291 1.67204C101.402 1.73443 100.676 1.79525 99.6665 1.81046C98.5275 1.47557 97.5585 2.04048 97.9514 1.58232C98.9074 1.55096 99.4418 1.49875 99.9533 1.38201C99.3259 1.36711 98.6979 1.3526 98.0705 1.3377C97.8874 1.38799 97.7574 1.43699 97.5408 1.48821C97.0719 1.38142 95.9847 1.42725 95.558 1.39593C93.559 1.24907 94.1774 1.06693 92.3528 1.37304C93.6679 1.40287 93.6658 1.55154 94.97 1.53105C94.6886 1.63723 94.0259 1.61523 94.4547 1.74253C93.1929 1.71117 93.6008 1.59752 93.1098 1.49663C92.6862 1.40965 91.8333 1.40478 91.8815 1.29175C91.7943 1.35389 91.7268 1.41406 91.6399 1.47612C90.8226 1.4755 90.0054 1.47546 89.1881 1.47484C89.5365 1.53972 89.8847 1.60472 90.2331 1.66929C89.9698 1.69379 89.7061 1.71821 89.4428 1.74271C87.4327 1.5409 83.9665 1.91076 84.5202 1.4038C83.551 1.38766 83.4297 1.45124 82.9027 1.54716C82.8447 1.50868 82.7882 1.47666 82.7302 1.43383C82.105 1.47412 81.625 1.32962 81.0734 1.36718C80.5219 1.40445 80.385 1.54094 80.3046 1.31152C79.9473 1.37733 79.5921 1.432 79.237 1.49315C79.0227 1.44103 78.8087 1.38951 78.5967 1.3377C78.2617 1.36502 77.9259 1.39223 77.591 1.41955C77.4119 1.31003 76.0947 1.35724 75.5141 1.28369C74.9629 1.40174 74.978 1.77343 73.6812 1.70682C73.7147 1.61464 73.7477 1.52272 73.7812 1.43053C73.4842 1.44978 73.1866 1.46896 72.8874 1.48821C72.8695 1.5183 72.854 1.54839 72.8362 1.57847C72.988 1.56916 73.1378 1.5599 73.2896 1.55028C73.1579 1.6012 73.0288 1.65188 72.8993 1.7028C72.4459 1.62736 71.992 1.55192 71.5365 1.47649C72.1505 1.41938 72.7648 1.36222 73.3789 1.30511C72.6083 1.23743 72.072 1.30494 71.402 1.22949C70.8192 1.35677 71.0344 1.4301 71.2711 1.56822C71.0545 1.55643 70.8354 1.54504 70.6189 1.53325C70.7617 1.67139 70.3954 1.75369 71.6615 1.74253C71.5744 1.78193 71.4856 1.81949 71.4008 1.86044C71.1931 1.85423 71.0584 1.88754 70.8307 1.87234C70.2098 1.83074 69.7338 1.58811 69.7762 1.50304C69.7991 1.45848 70.4113 1.5437 70.3868 1.4807C70.3262 1.32708 68.9218 1.39605 70.9474 1.24176C70.2751 1.14396 70.1249 1.21772 69.3835 1.24597C69.4415 1.19478 69.4979 1.14391 69.5536 1.09272C69.2099 1.11631 68.8656 1.13981 68.5218 1.16339C68.9997 1.42636 66.4647 1.52512 68.7467 1.75516C68.0723 1.76696 67.4003 1.77882 66.7281 1.79123C66.8666 1.81824 67.0051 1.84497 67.1435 1.87198C67.4472 1.8577 67.7491 1.84365 68.0528 1.82968C67.6956 1.87903 67.3377 1.92809 66.9805 1.97744C66.1363 1.91628 65.8053 1.82221 65.419 1.70609C66.4014 1.62136 66.0804 1.7371 66.846 1.76011C66.8193 1.68657 66.8546 1.61893 66.7877 1.54167C66.3921 1.69399 65.1017 1.58318 64.8024 1.57573C63.8917 1.5531 64.6059 1.70276 63.9967 1.70591C63.387 1.70901 62.6678 1.61994 62.1698 1.76834C62.1787 1.68516 62.2185 1.5991 62.2543 1.52336C61.305 1.49604 61.4944 1.59431 61.3961 1.60704C59.8283 1.81629 58.9775 1.63963 57.1841 1.61821C57.4118 1.59244 57.642 1.56918 57.872 1.54497C56.519 1.36836 57.4304 1.42243 58.6052 1.36407C57.5041 1.38177 56.8735 1.23136 56.0962 1.18665C55.3191 1.14202 53.9863 1.21926 53.4993 1.27948C54.6138 1.37635 55.8158 1.31247 57.0531 1.33917C56.9125 1.4239 56.7758 1.49562 56.6306 1.58873C55.8781 1.41088 55.442 1.5298 55.1941 1.55339C54.4662 1.62259 54.489 1.46994 54.0491 1.63414C54.067 1.57765 54.0801 1.53016 54.0979 1.4774C52.5949 1.501 50.9736 1.60086 49.9954 1.39226C49.906 1.52793 49.8386 1.65863 49.7359 1.79709C49.0995 1.69497 48.5544 1.79955 48.0185 1.77567C47.4847 1.75176 47.6879 1.64212 47.0604 1.5999C46.9442 1.59213 46.7024 1.66076 46.4165 1.61015C46.1278 1.55927 45.0632 1.181 44.9359 1.51146C44.3977 1.51301 43.8883 1.5251 43.3613 1.53069C43.8749 1.54931 44.3888 1.56735 44.9002 1.58598C44.4625 1.66607 44.0275 1.74593 43.5898 1.82602C43.534 1.75461 43.478 1.68191 43.4244 1.61143C42.2451 1.5245 41.3894 1.64125 40.199 1.61363C40.0002 1.60897 40.4691 1.46779 39.5872 1.50377C38.705 1.53978 38.0504 1.8033 36.5475 1.70151C36.4715 1.69624 36.0265 1.49442 35.4882 1.63414C35.3657 1.6658 35.8813 1.71266 35.6001 1.75425C35.3187 1.79585 34.0631 1.83006 33.9648 1.9291C33.9782 1.89403 34.0565 1.85769 34.0945 1.82199C33.8802 1.80523 33.6636 1.78846 33.447 1.77201C33.427 1.83378 33.4053 1.89565 33.3852 1.95712C32.1523 1.81337 31.5152 1.57889 29.6885 1.65647C30.2021 1.56675 30.7159 1.47667 31.2274 1.38696C31.3681 1.44998 31.509 1.51343 31.6475 1.57646C32.4894 1.55132 33.3336 1.52635 34.1754 1.50121C34.3139 1.57293 34.45 1.64444 34.5884 1.71616C34.8117 1.70685 35.0328 1.69783 35.2561 1.68851C35.2003 1.63667 35.144 1.5851 35.0859 1.53325C35.528 1.54598 35.9707 1.55897 36.4106 1.5717C35.515 1.26566 33.9097 1.59773 34.0255 1.34173C33.8268 1.38145 33.6279 1.42145 33.4292 1.46148C33.3421 1.33734 32.9381 1.37307 32.2259 1.39263C32.389 1.33147 32.569 1.27114 32.7187 1.20935C32.0263 1.29565 30.7981 1.28727 30.0812 1.32049C29.7663 1.33508 30.0808 1.42508 29.9872 1.43566C29.507 1.49092 28.5892 1.33389 28.3971 1.34631C27.2492 1.42021 26.5032 1.71793 25.2503 1.52171C26.5434 1.47328 25.8399 1.49374 26.3 1.38476C26.444 1.35059 28.1147 1.27931 26.0227 1.31097C25.7774 1.31493 21.9816 1.52063 23.2293 1.67826C22.6151 1.62796 22.1342 1.56981 21.5714 1.5164C20.1956 1.93182 20.6717 1.54157 21.0715 1.32672C20.8459 1.32579 20.6313 1.3236 20.3991 1.3236C20.8927 1.54932 18.378 1.56334 17.5248 1.44939C17.2389 1.41151 18.0382 1.33926 17.3772 1.30511C17.0624 1.32094 16.7053 1.34144 16.3727 1.35912C16.8551 1.21632 15.9083 1.16128 15.9216 1.016C15.3164 1.14546 14.8535 1.41986 15.1861 1.56859C14.6859 1.50837 14.1831 1.44822 13.6829 1.38769C13.9151 1.35323 14.1504 1.31907 14.3827 1.2846C12.7478 1.37588 10.6457 1.16818 10.3039 1.47338C10.0873 1.4712 9.86835 1.46932 9.65171 1.46715C9.58471 1.41561 9.51995 1.36397 9.45295 1.31243C8.47269 1.35713 7.49464 1.40213 6.51439 1.44683C7.38722 1.47881 7.59499 1.55217 8.51032 1.4926C8.15759 1.55188 7.79829 1.61148 7.45225 1.67075C6.07423 1.51117 5.88625 1.40629 3.81148 1.45379C3.71767 1.45596 2.15003 1.58979 2.09643 1.60283C1.85085 1.66243 2.22363 1.74903 2.11428 1.77915C1.81053 1.8636 -0.0352234 2.07564 0.000512017 2.10762C0.451676 2.50007 6.66176 2.50527 8.34132 2.52545C25.7621 2.7347 42.7993 2.45475 60.1107 2.50256C60.2887 2.5033 60.211 2.56123 60.2869 2.56372C60.758 2.57827 61.2208 2.48798 61.3949 2.48425C61.7671 2.47657 61.5622 2.55999 61.8341 2.56005C64.6438 2.55912 67.2952 2.51007 70.1071 2.52435C70.2902 2.52528 70.1032 2.45854 70.4249 2.47034C70.5909 2.4768 71.1106 2.57919 71.4853 2.58074C72.7941 2.58602 73.8934 2.55319 75.2737 2.55474C76.0286 2.55567 77.1611 2.54697 78.0051 2.54852C78.3779 2.54918 78.7663 2.59602 79.1346 2.59759C79.6573 2.59976 79.5505 2.5048 79.6309 2.4989C79.9838 2.47314 80.0327 2.57736 80.3677 2.57488C80.9908 2.56992 81.0243 2.50033 81.8149 2.50622C82.38 2.51057 83.6732 2.56551 84.3857 2.58166C86.0519 2.50094 88.1514 2.53299 89.7058 2.55969C90.626 2.57552 90.7112 2.47808 91.0865 2.47839C92.4085 2.48028 93.4117 2.60472 94.6534 2.60876C96.3013 2.61402 97.7617 2.53173 99.3582 2.52581C99.6171 2.52488 99.5577 2.61416 99.8117 2.61645C100.752 2.62483 101.954 2.64108 102.792 2.62835C103.725 2.61436 104.07 2.48478 104.983 2.51117C105.251 2.519 105.329 2.63262 105.778 2.64721C106.495 2.67015 107.281 2.56995 107.781 2.55877C108.467 2.54387 107.871 2.65962 108.795 2.64409C108.833 2.64342 108.972 2.56068 109.17 2.56463C109.749 2.57581 109.691 2.64097 110.538 2.63476C110.619 2.6339 111.741 2.55506 111.853 2.55474C112.509 2.5535 113.831 2.5259 114.22 2.54266C115.609 2.60227 114.516 2.72672 115.697 2.4566C116.217 2.52272 116.733 2.58973 117.285 2.65398C116.917 2.59406 118.41 2.50759 118.515 2.51318C119.384 2.55821 118.866 2.66331 119.967 2.64593C118.513 2.40313 121.388 2.61463 122.029 2.62084C125.115 2.65095 127.921 2.59036 131.023 2.59191C132.062 2.59255 133.453 2.64387 134.552 2.64263C134.808 2.64256 134.615 2.5851 134.84 2.58386C135.065 2.583 134.815 2.64751 135.072 2.64409C136.669 2.62173 137.92 2.50002 139.383 2.65215C139.454 2.63016 139.452 2.61278 139.57 2.58862C140.767 2.7249 143.072 2.54162 143.939 2.51648C145.294 2.47738 145.641 2.5695 146.625 2.5509C147.927 2.52606 149.882 2.34609 149.009 2.64318C149.902 2.65249 150.762 2.65506 151.664 2.62743C151.765 2.6243 151.696 2.54879 151.736 2.54724C151.99 2.5364 152.073 2.60401 152.245 2.60711C152.711 2.61546 151.951 2.53451 152.615 2.55712C152.966 2.56923 153.165 2.6282 154.139 2.62945C160.008 2.63597 166.38 2.61485 172.397 2.60491C172.811 2.60429 172.539 2.67732 173.057 2.67266C174.857 2.6565 178.079 2.5336 179.631 2.55035C181.184 2.56711 180.833 2.6739 181.805 2.71862C181.992 2.72731 181.838 2.66645 182.008 2.66552C183.149 2.65992 184.51 2.565 185.435 2.55072C186.046 2.54115 185.997 2.63689 186.421 2.64373C187.053 2.65366 187.704 2.55693 188.041 2.55383C189.627 2.54019 190.717 2.6181 192.197 2.57836C192.139 2.59943 192.101 2.61894 192.052 2.6397C193.805 2.63629 195.556 2.63286 197.309 2.62945C197.227 2.6487 197.147 2.66811 197.064 2.68767C199.121 2.67711 198.886 2.46848 198.705 2.90904C198.855 2.92456 199.013 2.94255 199.156 2.95682C199.098 2.72988 200.343 2.5638 201.926 2.50604C202.042 2.50169 202.821 2.72297 202.736 2.46155C202.94 2.5255 203.061 2.56959 203.233 2.62579C203.568 2.54664 203.907 2.46843 204.242 2.38959C204.423 2.40139 204.606 2.41277 204.787 2.42456C204.814 2.47579 204.793 2.52898 204.851 2.57928C205.691 2.58704 207.413 2.52371 208.077 2.53021C209.725 2.54666 211.403 2.68517 212.685 2.53552C213.31 2.55078 212.689 2.65132 213.618 2.6386C213.723 2.5877 213.822 2.5389 213.931 2.48645C214.69 2.7139 214.849 2.57553 215.889 2.52801C216.593 2.49573 217.053 2.55131 217.723 2.54046C217.893 2.53767 217.869 2.47091 217.985 2.47308C218.374 2.47997 219.484 2.57185 219.758 2.57434C222.246 2.59855 224.384 2.58824 226.753 2.56372C227.008 2.56123 226.678 2.62711 226.941 2.62432C227.365 2.61993 227.116 2.5187 227.361 2.51373C228.046 2.50045 228.052 2.6072 229.007 2.61279C232.154 2.63109 235.772 2.5509 239.06 2.54376C239.162 2.54376 239.156 2.60631 239.268 2.60693C239.996 2.60998 240.733 2.52544 241.394 2.52636C242.49 2.52761 243.314 2.61548 244.398 2.61517C246.515 2.61486 248.407 2.56986 250.584 2.56738C252.366 2.5652 253.914 2.57355 255.869 2.57324C264.405 2.57199 273.115 2.77053 281.71 2.66497C281.929 2.66218 281.84 2.60691 281.906 2.60931C282.54 2.63321 282.597 2.70778 282.823 2.55163C283.631 2.5824 283.886 2.69971 284.861 2.69133C285.382 2.68694 284.993 2.50512 285.873 2.59887C286.668 2.68362 285.791 2.78327 288.153 2.68145C288.216 2.67865 288.524 2.56782 289.015 2.59667C289.509 2.62524 288.937 2.7046 290.126 2.7285C292.915 2.78438 296.446 2.68858 299.689 2.71807C299.892 2.71993 301.849 2.77918 302.236 2.8065C302.983 2.85959 302.827 2.94195 303.798 2.96213C304.549 2.97766 305.168 2.88436 306.05 2.90299C306.153 2.90526 306.325 3.00122 306.988 2.9885ZM142.576 1.12458C142.393 1.03042 142.063 0.683863 140.955 0.789329C140.85 0.799263 141.417 1.03759 140.805 1.07551C141.404 1.10066 141.987 1.1088 142.576 1.12494C142.576 1.12482 142.576 1.1247 142.576 1.12458ZM311.788 0.778709C310.96 0.796096 310.128 0.813321 309.299 0.830708C309.871 0.872622 310.444 0.914455 311.013 0.956679C311.272 0.897389 311.529 0.837999 311.788 0.778709ZM208.64 0.943313C208.64 0.943313 208.641 0.943313 208.642 0.943313C207.771 0.898604 206.899 0.853812 206.028 0.809103C206.12 0.842014 206.212 0.875064 206.303 0.907975C206.991 0.959814 207.679 1.01158 208.365 1.06342C208.456 1.02338 208.548 0.983355 208.64 0.943313ZM215.521 1.29175C216.077 1.25262 215.941 1.18665 216.247 1.12238C216.247 1.1225 216.247 1.12262 216.247 1.12275C216.328 1.10602 216.704 1.09138 216.85 1.08887C216.796 1.13017 216.727 1.17093 216.669 1.21191C217.966 1.31189 220.504 0.956627 217.219 0.813497C217.268 0.865646 217.315 0.91753 217.364 0.969678C215.731 0.955088 213.911 1.0682 215.521 1.29175ZM129.448 0.974439C128.055 0.803677 127.608 0.767673 125.917 0.884722C126.156 0.933122 126.395 0.981516 126.634 1.02992C126.913 0.980552 127.19 0.931524 127.469 0.882158C127.47 0.882158 127.471 0.882158 127.472 0.882158C127.527 0.934005 127.583 0.985944 127.637 1.03779C128.24 1.01668 128.845 0.995549 129.448 0.974439ZM268.87 1.16834C269.259 0.827289 269.147 1.02553 268.037 0.948622C267.653 0.921921 268.027 0.862249 267.788 0.852314C266.498 0.798045 266.395 1.02655 266.683 1.14545C267.413 1.15352 268.151 1.16089 268.868 1.16834C268.869 1.16834 268.869 1.16834 268.87 1.16834ZM302.354 1.2392C302.354 1.2392 302.355 1.2392 302.356 1.2392C302.389 1.15601 301.869 1.13363 302.456 1.05482C302.009 1.05513 301.563 1.05579 301.115 1.0561C301.246 1.06385 301.381 1.07124 301.512 1.07899C301.396 1.10755 301.279 1.13648 301.163 1.16504C301.005 1.06942 300.857 1.12501 300.389 1.15699C300.518 1.05484 300.647 0.952626 300.777 0.850483C300.232 0.880902 299.685 0.911428 299.14 0.941848C299.133 0.967589 299.127 0.993373 299.12 1.01911C298.914 0.986217 298.711 0.952958 298.506 0.920059C298.45 0.95079 298.396 0.981243 298.34 1.01197C298.092 0.988696 297.844 0.965436 297.596 0.941848C297.521 1.01629 298.067 1.04846 297.099 1.02955C297.396 1.10592 297.692 1.18205 297.992 1.25842C299.445 1.25221 300.9 1.24572 302.354 1.2392ZM258.776 1.06342C260.378 1.0777 259.926 1.02375 259.556 0.854877C259.297 0.924403 259.035 0.993898 258.776 1.06342ZM176.275 1.21375C175.81 1.09856 175.344 0.984521 174.868 0.87337C173.921 0.809101 172.974 1.01905 173.686 1.10132C174.544 1.20005 175.44 1.08956 176.275 1.21375ZM154.707 1.16248C155.865 1.10907 154.775 0.972197 154.514 0.892412C154.193 1.02064 153.746 1.00933 153.028 1.02424C153.702 1.03255 154.515 1.17155 154.707 1.16285C154.707 1.16272 154.707 1.1626 154.707 1.16248ZM194.92 1.0843C195.385 1.08774 195.847 1.11991 196.262 1.08082C196.137 0.970675 195.306 1.07088 195.9 0.907609C195.603 0.904815 195.306 0.902107 195.011 0.899003C195.198 0.966652 194.946 1.01721 194.922 1.08393C194.921 1.08405 194.921 1.08417 194.92 1.0843ZM243.261 0.933608C242.35 1.06401 242.177 1.00821 241.259 0.917862C241.13 1.02403 242.224 1.20188 242.91 1.24103C243.026 1.13858 243.143 1.03606 243.261 0.933608ZM27.7223 0.987988C27.9411 1.12332 29.5553 1.14097 30.3573 1.10096C30.2618 1.08089 30.166 1.06055 30.0705 1.04017C29.2888 1.02278 28.504 1.00537 27.7223 0.987988ZM152.687 1.0334C152.807 1.02943 152.921 1.02647 153.028 1.02424C152.909 1.02277 152.793 1.02507 152.687 1.0334ZM104.17 1.62077C104.552 1.74836 103.417 1.79123 104.795 1.74125C104.795 1.74137 104.795 1.74149 104.795 1.74161C105.706 1.7087 105.907 1.69991 106.752 1.68998C106.448 1.52607 104.735 1.46748 107.096 1.43364C107.127 1.43349 107.065 1.53103 107.442 1.51769C107.558 1.51354 107.931 1.43349 108.498 1.41021C108.681 1.40276 110.057 1.37807 108.181 1.37652C108.237 1.26226 108.136 1.14662 108.141 1.03578C107.408 1.00356 106.846 1.22729 106.071 1.2218C104.921 1.21311 104.335 0.986872 104.114 1.28369C105.081 1.35661 106.742 1.35837 106.959 1.17987C107.894 1.1777 108.163 1.32394 107.409 1.39629C104.177 1.30439 106.521 1.61337 103.692 1.49663C103.658 1.45535 103.542 1.41092 103.56 1.37212C102.696 1.51739 104.034 1.57513 104.17 1.62077ZM110.928 1.30511C110.37 1.21787 109.813 1.12992 109.257 1.04237C109.257 1.18456 109.564 1.31216 110.444 1.39226C110.604 1.3631 110.767 1.33396 110.928 1.30511ZM63.9586 1.26776C63.8782 1.19045 63.6639 1.11961 63.5075 1.04603C63.3378 1.11123 59.3175 1.17378 61.3628 1.23773C61.6599 1.24705 63.4717 1.11035 63.9586 1.26776ZM249.588 1.05006C249.114 1.10191 248.643 1.15384 248.172 1.20569C248.897 1.23858 249.623 1.27233 250.349 1.30584C250.094 1.2206 249.842 1.1353 249.588 1.05006ZM168.567 1.34942C168.767 1.34652 168.103 1.2402 168.891 1.25696C168.304 1.18896 167.754 1.13141 167.18 1.06745C167.008 1.11775 166.834 1.16784 166.662 1.21814C166.528 1.18585 166.391 1.15376 166.257 1.12147C166.338 1.19474 166.409 1.2663 166.494 1.34081C167.461 1.18371 167.683 1.36184 168.567 1.34942ZM197.323 1.63597C197.497 1.47672 196.097 1.38202 197.475 1.35656C197.213 1.25194 196.793 1.19706 195.987 1.18775C195.857 1.22776 195.728 1.26748 195.599 1.30749C195.581 1.20042 195.374 1.16062 194.92 1.0843C194.92 1.08442 194.92 1.08454 194.919 1.08466C193.694 1.07691 193.767 1.11261 193.472 1.28863C194.77 1.18928 194.808 1.3501 195.693 1.44573C196.3 1.51149 197.093 1.48171 197.323 1.63597ZM68.2421 1.26959C67.3245 1.13517 68.1479 1.00978 66.5199 1.15259C66.6249 1.18674 66.7303 1.22061 66.8353 1.25476C67.3042 1.26004 67.7732 1.26493 68.2421 1.26959ZM201.852 1.09016C201.747 1.33666 200.883 1.52854 200.736 1.12751C201.578 1.04585 201.166 1.27302 201.852 1.09016ZM155.102 1.54845C156.721 1.53694 156.415 1.25872 155.749 1.11963C155.646 1.17024 155.544 1.22094 155.443 1.27124C155.16 1.24826 154.876 1.22524 154.592 1.20258C154.762 1.31776 154.932 1.43326 155.102 1.54845ZM230.396 1.36096C229.159 1.18491 231.732 1.26305 230.868 1.15314C230.177 1.06529 229.268 1.24267 229.612 1.35381C229.851 1.35692 230.117 1.35909 230.394 1.36096C230.395 1.36096 230.395 1.36096 230.396 1.36096ZM223.236 1.3106C223.439 1.12252 223.146 1.17734 224.124 1.21118C224.403 1.22081 226.622 1.15017 225.69 1.30603C224.898 1.30603 224.06 1.30874 223.236 1.3106ZM136.386 1.27325C136.371 1.35516 138.079 1.53502 138.299 1.49004C138.299 1.49016 138.299 1.49028 138.299 1.4904C138.891 1.36777 137.089 1.35034 137.87 1.18207C136.139 1.33014 135.622 0.971983 135.742 1.4439C136.762 1.4646 136.279 1.36732 136.386 1.27325ZM6.52748 1.37359C6.52669 1.37359 6.52589 1.37359 6.5251 1.37359C6.63981 1.36974 7.58505 1.24953 7.4701 1.20789C6.3334 1.24359 6.53598 1.32272 5.47774 1.19269C5.41972 1.23457 5.37002 1.27519 5.30754 1.31738C5.72743 1.34222 5.96018 1.39253 6.52748 1.37359ZM59.612 1.43291C60.0297 1.45434 60.7919 1.36556 61.2676 1.37084C59.7533 1.02994 57.9438 1.34783 59.612 1.43291ZM286.693 1.22748C286.692 1.22736 286.691 1.22723 286.69 1.22711C286.69 1.2273 286.69 1.22748 286.691 1.22766C286.692 1.2276 286.692 1.22754 286.693 1.22748ZM91.9767 1.22839C91.9228 1.25052 91.8924 1.26975 91.8815 1.28662C91.8815 1.28821 91.8815 1.28979 91.8815 1.29138C91.9106 1.27066 91.9416 1.2497 91.9767 1.22839ZM132.836 1.24853C132.124 1.36277 134.495 1.54437 135.261 1.50102C135.208 1.44889 135.199 1.40162 135.074 1.34173C134.456 1.47675 132.954 1.22929 132.836 1.24853ZM186.882 1.29046C185.008 1.29357 187.447 1.7446 187.547 1.38476C187.544 1.37779 186.93 1.29108 186.882 1.29046ZM147.613 1.29577C148.09 1.43233 147.131 1.46859 148.665 1.445C148.754 1.40963 148.844 1.37417 148.933 1.3388C148.493 1.32452 148.053 1.31005 147.613 1.29577ZM174.606 1.8826C172.248 1.80653 169.992 1.67234 171.529 1.29577C171.707 1.30787 171.888 1.31956 172.067 1.33166C172.093 1.51538 172.752 1.41509 173.716 1.40911C173.854 1.48205 174.388 1.49891 174.489 1.5609C174.683 1.68071 174.068 1.76495 174.606 1.8826ZM274.176 1.5836C274.138 1.55224 274.101 1.52072 274.063 1.48967C273.69 1.45428 273.316 1.41905 272.943 1.38366C273.003 1.44384 273.064 1.50401 273.124 1.56419C273.474 1.57071 273.823 1.57727 274.174 1.58378C274.174 1.58372 274.175 1.58366 274.176 1.5836ZM113.226 1.69273C113.012 1.34757 113.761 1.41114 115.279 1.58561C114.596 1.62132 113.91 1.65702 113.226 1.69273ZM212.504 1.74271C212.553 1.64465 212.602 1.5469 212.653 1.44884C213.459 1.55099 213.31 1.66328 212.923 1.79306C212.783 1.77631 212.645 1.75946 212.504 1.74271ZM224.118 1.78446C223.784 1.80491 223.954 1.72574 223.919 1.72733C223.073 1.76894 222.954 1.80525 221.915 1.74564C221.788 1.72484 221.663 1.70297 221.535 1.68156C222.015 1.47609 222.364 1.58807 223.38 1.46733C223.197 1.53781 223.015 1.60839 222.831 1.67918C223.396 1.66428 223.959 1.64958 224.524 1.63468C224.591 1.65642 224.658 1.67795 224.725 1.69968C224.524 1.72762 224.317 1.75901 224.118 1.78446ZM278.489 1.49443C279.039 1.48636 279.591 1.47797 280.14 1.4699C280.16 1.5205 280.179 1.57145 280.199 1.62205C279.63 1.57953 279.059 1.53696 278.489 1.49443ZM101.946 1.53545C101.902 1.5175 101.86 1.49943 101.822 1.48107C101.826 1.50345 101.873 1.52093 101.946 1.53545ZM5.07783 1.65116C4.45481 1.68655 3.55701 1.66332 2.87361 1.67075C2.92734 1.5438 4.66429 1.5789 5.27422 1.50194C5.37222 1.52472 5.34119 1.63627 5.07783 1.65116ZM157.342 1.53728C157.498 1.60061 157.654 1.66364 157.808 1.72697C158.186 1.72013 158.564 1.71292 158.944 1.70609C158.955 1.75794 158.966 1.81024 158.977 1.86209C157.304 1.79473 157.69 1.94424 156.862 2.09169C157.023 1.90699 157.181 1.72229 157.342 1.53728ZM295.971 1.82327C294.762 1.78819 294.334 1.72266 295.015 1.56712C295.441 1.60281 295.87 1.63854 296.297 1.67423C296.187 1.7239 296.078 1.77361 295.971 1.82327ZM79.9404 1.65263C78.9293 1.59451 78.9125 1.80326 77.9242 1.68668C78.4534 1.64819 78.9826 1.60927 79.5095 1.57078C79.6519 1.598 79.798 1.62541 79.9404 1.65263ZM129.531 2.2259C129.104 2.29852 128.307 1.95333 127.107 2.20814C126.822 2.13209 126.642 2.05945 126.397 1.98495C126.254 2.06598 126.092 2.14805 125.955 2.22847C125.954 2.22847 125.954 2.22847 125.953 2.22847C124.865 2.20114 125.57 2.09951 125.546 2.01351C125.534 1.97786 124.727 2.03746 124.979 1.95986C125.415 1.82667 127.042 1.90326 127.047 1.74088C126.475 1.79395 125.358 1.7496 125.689 1.64128C126.05 1.52237 127.103 1.72164 127.773 1.62297C126.813 1.88249 128.796 1.80233 129.021 1.60301C130.185 1.75607 129.115 1.81851 127.923 1.81137C128.651 1.96412 127.579 1.8816 127.403 2.00857C128.153 2.08521 130.73 2.02132 129.531 2.2259ZM184.429 1.94448C183.625 1.93463 182.368 2.02194 181.818 1.89303C181.497 1.81793 182.756 1.75977 181.888 1.64183C182.672 1.65332 182.85 1.6994 182.716 1.80277C182.895 1.81518 183.076 1.82728 183.254 1.83939C183.337 1.81922 183.422 1.79932 183.504 1.77915C183.598 1.82168 183.692 1.86387 183.784 1.9064C183.974 1.89802 184.166 1.88964 184.355 1.88095C184.377 1.90233 184.416 1.92095 184.429 1.94448ZM50.9082 1.64622C51.1315 1.64746 51.3526 1.6487 51.5759 1.65025C51.5513 1.67542 51.522 1.70164 51.4938 1.72751C51.4736 1.74796 51.4533 1.76841 51.4331 1.78885C51.5625 1.7158 52.6263 1.59439 53.0744 1.6724C53.2997 1.71154 52.787 1.85047 53.7421 1.87472C53.0499 1.86758 52.4087 1.84862 51.7366 1.83682C51.7969 1.87812 51.8548 1.91985 51.9151 1.96115C51.9147 1.96121 51.9143 1.96127 51.9139 1.96133C51.6907 1.97064 51.4648 1.9804 51.2415 1.98971C51.1298 1.87514 51.0199 1.76079 50.9082 1.64622ZM211.85 1.93661C211.088 1.85558 210.833 1.81349 211.193 1.68247C211.193 1.68241 211.194 1.68235 211.195 1.68229C211.479 1.74034 211.762 1.79837 212.046 1.85641C211.981 1.88312 211.917 1.90991 211.85 1.93661ZM95.3854 1.96792C93.7662 1.47024 97.4127 1.77533 96.7184 1.94485C96.6871 1.95261 95.5373 1.91297 95.3854 1.96792ZM154.804 1.70151C155.249 1.70555 155.694 1.7092 156.141 1.71323C156.038 1.7744 155.933 1.83535 155.83 1.89651C155.488 1.83162 155.146 1.7664 154.804 1.70151ZM290.71 2.04921C290.242 2.18583 289.041 2.23532 288.455 2.08675C288.763 2.06936 289.071 2.05195 289.379 2.03457C288.797 2.0175 288.221 1.99871 287.633 1.98257C287.602 1.79224 288.279 1.90266 289.297 1.85019C289.455 1.84173 290.463 1.60548 290.811 1.78354C290.881 1.82014 289.809 1.84503 290.554 1.95144C290.228 1.95982 289.947 1.95796 289.639 1.96261C289.616 2.00794 289.594 2.05332 289.57 2.09865C289.951 2.08224 290.329 2.06563 290.71 2.04921ZM179.747 1.92965C178.642 1.94016 178.506 1.86411 178.276 1.72971C178.789 1.74492 179.303 1.75991 179.817 1.77512C179.793 1.82652 179.771 1.87794 179.747 1.92965ZM280.836 2.09279C280.232 2.11477 280.49 2.00538 280.247 1.98458C279.327 1.90635 278.699 1.98454 277.791 1.93551C277.851 1.95662 277.906 1.97636 277.964 1.99685C277.963 1.99685 277.963 1.99685 277.962 1.99685C273.658 2.08905 275.919 1.84095 278.494 1.88132C278.554 1.84064 278.612 1.79992 278.672 1.75956C279.825 1.83065 280.888 1.89906 280.836 2.09279ZM109.771 1.98495C109.722 2.01041 110.14 2.1722 109.356 2.09645C108.735 1.86023 109.753 1.97748 110.008 1.88663C109.796 1.86396 109.579 1.84191 109.369 1.81925C110.637 1.75249 110.823 1.80866 110.36 1.98129C110.327 1.99289 109.82 1.95957 109.771 1.98495ZM101.434 2.1014C101.26 1.75335 102.861 1.90986 102.803 2.01791C102.582 2.02221 102.41 1.96328 102.175 1.98934C101.939 2.01542 101.878 2.09672 101.434 2.1014ZM147.302 2.01626C147.255 2.01781 146.784 2.16409 146.831 2.04958C147.414 1.77853 148.589 1.953 148.383 2.04738C147.995 2.04272 147.736 2.00204 147.302 2.01662C147.302 2.0165 147.302 2.01638 147.302 2.01626ZM297.996 2.13124C297.974 2.14095 296.798 2.19975 296.647 2.14516C296.522 2.08369 296.459 2.01782 296.366 1.95419C297.013 2.01318 298.324 1.96824 297.994 2.13124C297.995 2.13124 297.995 2.13124 297.996 2.13124Z" fill="#361F0F"/>
</svg>
