<svg width="1604" height="1" viewBox="0 0 1604 1" fill="none" xmlns="http://www.w3.org/2000/svg">
<path d="M1470.81 0.903325C1474.43 0.948421 1462.33 0.91886 1470.37 0.986207C1468.69 0.990757 1467.01 0.99545 1465.33 1C1464.91 0.975058 1464.47 0.950177 1464.05 0.925236C1466.29 0.917891 1468.55 0.910548 1470.81 0.903203C1470.81 0.903244 1470.81 0.903284 1470.81 0.903325ZM1473.88 0.590963C1471.82 0.662102 1465.27 0.681069 1472.34 0.746717C1472.9 0.722302 1473.48 0.697893 1474.04 0.673478C1476.5 0.692414 1478.97 0.711345 1481.43 0.730177C1482.31 0.720869 1483.19 0.711551 1484.08 0.702346C1485.2 0.744772 1486.32 0.787313 1487.44 0.829842C1486.44 0.823633 1485.43 0.817315 1484.43 0.811106C1480.48 0.845558 1476.97 0.85498 1471.61 0.861396C1472.08 0.871435 1472.55 0.881385 1473.02 0.891424C1470.3 0.874349 1467.58 0.857232 1464.87 0.840157C1467.22 0.823396 1469.86 0.804756 1472.04 0.789134C1468.55 0.722612 1462.39 0.759635 1459.19 0.77351C1454.82 0.792448 1455.81 0.760817 1452.57 0.774059C1452.06 0.776129 1452 0.800922 1450.98 0.80134C1445.82 0.803307 1435.81 0.790165 1441.66 0.732313C1450.15 0.739765 1457.39 0.693308 1465.71 0.71028C1463.51 0.643387 1467.89 0.620624 1473.88 0.590963ZM1318 0.803965C1320.57 0.771476 1325.81 0.784587 1329.35 0.807138C1329.36 0.807138 1329.36 0.807138 1329.37 0.807138C1330.15 0.812106 1331.91 0.855282 1329.37 0.853523C1325.21 0.850508 1323.2 0.782543 1321.02 0.828683C1320.04 0.820093 1319.02 0.812451 1318 0.803965ZM1308.97 0.807993C1306.42 0.791332 1307.57 0.740119 1310.76 0.753979C1310.76 0.753939 1310.76 0.753898 1310.76 0.753857C1312.1 0.759653 1309.48 0.800132 1314.26 0.759045C1315.23 0.79101 1316.19 0.820091 1317.16 0.851021C1315.99 0.851538 1314.92 0.852377 1313.7 0.852791C1314.52 0.80025 1311.51 0.824524 1308.97 0.807993ZM1437.36 0.761242C1436.95 0.808509 1438.63 0.808211 1441.49 0.841011C1438.79 0.839459 1436.1 0.837803 1433.41 0.836251C1434.73 0.811216 1436.04 0.786277 1437.36 0.761242ZM1500.74 0.768566C1500.74 0.768566 1500.75 0.768566 1500.75 0.768566C1501.64 0.761115 1502.52 0.753637 1503.4 0.746289C1503.92 0.763159 1504.45 0.779955 1504.97 0.796824C1508.1 0.78099 1511.24 0.765157 1514.36 0.749219C1513.98 0.800749 1508.37 0.792364 1505.29 0.828378C1500.69 0.812853 1498.48 0.782942 1498.18 0.739271C1499.03 0.748995 1499.88 0.758842 1500.74 0.768566ZM749.637 0.563132C748.592 0.57741 747.561 0.591699 746.516 0.605977C747.905 0.612493 749.283 0.617467 750.683 0.625019C754.346 0.562931 754.69 0.617852 759.488 0.614033C774.197 0.602235 770.294 0.505803 783.578 0.647051C772.913 0.640332 777.011 0.706702 770.581 0.757825C769.25 0.718911 775.621 0.631149 771.303 0.612934C763.864 0.654117 756.71 0.692474 748.456 0.719069C748.697 0.725795 748.937 0.732545 749.178 0.739271C750.487 0.735028 751.785 0.730758 753.094 0.726515C751.682 0.744523 750.301 0.762375 748.866 0.780589C750.68 0.739715 746.057 0.762554 746.675 0.71559C746.951 0.694685 748.994 0.665683 750.2 0.645708C747.089 0.634844 743.898 0.624892 740.752 0.614338C742.382 0.597682 744.011 0.581008 745.629 0.564353C746.96 0.563835 748.281 0.563466 749.612 0.562949C749.62 0.56301 749.629 0.563071 749.637 0.563132ZM80.0238 0.780467C83.9737 0.731826 91.1515 0.723777 94.9291 0.777904C89.9574 0.778732 84.9956 0.77964 80.0238 0.780467ZM1497.88 0.703262C1498.33 0.711531 1498.76 0.719711 1499.21 0.72798C1497.24 0.743293 1495.25 0.758501 1493.27 0.773815C1492.9 0.749918 1492.51 0.726017 1492.12 0.702224C1494.04 0.702535 1495.97 0.702951 1497.88 0.703262ZM1371.55 0.729872C1373 0.728426 1373.13 0.729209 1374.93 0.732618C1374.92 0.732598 1374.92 0.732578 1374.92 0.732557C1375.63 0.73383 1381.6 0.747788 1380.93 0.766186C1377.97 0.766496 1374.81 0.766186 1371.78 0.766186C1371.69 0.754084 1371.67 0.742077 1371.55 0.729872ZM1406.43 0.740613C1406.43 0.740654 1406.43 0.740695 1406.44 0.740736C1407.52 0.743531 1408.54 0.749219 1409.65 0.750257C1405.64 0.779213 1405.01 0.727262 1401.37 0.741956C1397.73 0.756755 1395.48 0.785418 1392.39 0.714248C1393.54 0.703588 1394.78 0.688338 1395.96 0.675919C1401.13 0.704376 1402.52 0.677596 1406.66 0.649554C1406.58 0.679976 1406.51 0.710191 1406.43 0.740613ZM815.12 0.707107C816.107 0.671923 817.208 0.706447 817.323 0.706863C817.32 0.706903 817.319 0.706944 817.317 0.706985C826.062 0.674401 816.178 0.726461 824.433 0.731947C823.205 0.740741 821.996 0.750026 820.78 0.758923C818.897 0.741955 816.956 0.722729 815.12 0.707107ZM1099.29 0.710403C1099.37 0.720648 1099.47 0.730917 1099.55 0.741163C1094.59 0.738782 1093.33 0.779116 1089.2 0.742383C1092.57 0.731622 1095.93 0.720938 1099.29 0.71028C1099.29 0.710321 1099.29 0.710362 1099.29 0.710403ZM1346.55 0.655352C1352.05 0.635792 1356.12 0.627173 1361.4 0.65822C1361.41 0.658261 1361.41 0.658301 1361.42 0.658342C1361.72 0.660253 1360.25 0.681689 1360.64 0.687088C1361.73 0.683882 1362.86 0.678953 1363.96 0.675126C1364.11 0.692291 1364.25 0.709453 1364.4 0.726515C1361.3 0.721652 1358.2 0.716792 1355.09 0.711928C1355.55 0.721967 1356.02 0.731918 1356.48 0.741956C1353.84 0.74713 1351.21 0.752285 1348.57 0.757458C1349.48 0.729319 1350.4 0.701172 1351.31 0.672929C1349.72 0.667032 1348.14 0.661352 1346.55 0.655352ZM1016.71 0.598287C1017.59 0.609464 1015.97 0.628211 1017.33 0.637835C1018.68 0.647338 1021.18 0.62648 1020.59 0.658037C1018.77 0.662277 1016.85 0.667139 1015 0.671586C1020.98 0.728491 1026.95 0.676999 1027.04 0.747266C1021.3 0.729052 1016.58 0.737514 1011.02 0.75697C1011.25 0.701193 1016.81 0.652967 1013.31 0.600606C1014.43 0.599882 1015.61 0.598823 1016.7 0.598409C1016.71 0.598368 1016.71 0.598327 1016.71 0.598287ZM1578.23 0.0038336C1581.63 0.0080768 1589.42 -0.0146867 1593.71 0.01781C1594.77 0.0258183 1598.29 0.129557 1598.27 0.143231C1598.17 0.189284 1593.87 0.195552 1598.47 0.225563C1596.93 0.225875 1595.42 0.227604 1593.89 0.228432C1594.16 0.259376 1594.44 0.290238 1594.7 0.321079C1596.57 0.316421 1598.44 0.311741 1600.32 0.30698C1600.41 0.317226 1600.5 0.327495 1600.59 0.33774C1593.86 0.337947 1597.84 0.377492 1594.34 0.414336C1597.56 0.43296 1600.8 0.451495 1604 0.470119C1602.15 0.467843 1599.97 0.466156 1598.34 0.463467C1598.12 0.515932 1602.01 0.503424 1602.68 0.513147C1606.43 0.568097 1587.32 0.540363 1585.75 0.616718C1588.81 0.625203 1592.01 0.633483 1595.13 0.641863C1594.24 0.651281 1593.33 0.660704 1592.44 0.670121C1585.35 0.617458 1577.41 0.598802 1569.15 0.566001C1568.41 0.568172 1567.66 0.570402 1566.93 0.57247C1567.14 0.59616 1567.35 0.61976 1567.57 0.64345C1566.44 0.646245 1565.3 0.649017 1564.18 0.651812C1567.5 0.573786 1562.9 0.57485 1557.36 0.527245C1560.31 0.499825 1563.95 0.516449 1563.7 0.465359C1553.57 0.504666 1541.71 0.449115 1531.86 0.493494C1529.41 0.504463 1529.42 0.57037 1523.67 0.564292C1523.87 0.557047 1523.9 0.543968 1524.03 0.534447C1514.08 0.566012 1508.05 0.584882 1497.72 0.552696C1498.31 0.576384 1498.9 0.600171 1499.5 0.623859C1501.69 0.612061 1503.89 0.600075 1506.07 0.588277C1507.56 0.627394 1505.36 0.644657 1511.9 0.644244C1517.26 0.643933 1514.07 0.626662 1515.53 0.61507C1517.5 0.599246 1519.24 0.630376 1521.36 0.61269C1523 0.599133 1521.23 0.566857 1525.51 0.575033C1523.79 0.616844 1522.03 0.660018 1520.3 0.702346C1519.25 0.692928 1518.21 0.683366 1517.17 0.673844C1518.23 0.662667 1519.26 0.651637 1520.32 0.64046C1516.6 0.660536 1513.08 0.679471 1509.24 0.700271C1510.49 0.639832 1506.51 0.662492 1504.36 0.669633C1500.99 0.680798 1503.87 0.639202 1501.67 0.646136C1499.47 0.653176 1497.09 0.699647 1493.1 0.689713C1495.24 0.662809 1492.33 0.638683 1492.9 0.61385C1493.46 0.589017 1497.67 0.583518 1493.62 0.556418C1485.84 0.577013 1494.29 0.671584 1489.03 0.686905C1482.71 0.705325 1481.21 0.551168 1483.09 0.518029C1484.57 0.491949 1489.67 0.497194 1491.16 0.471218C1482.04 0.424338 1481.96 0.516885 1480.39 0.534996C1474.72 0.600915 1478.53 0.424973 1471.82 0.488612C1471.94 0.45571 1472.04 0.426118 1472.17 0.394561C1471.01 0.400563 1470.24 0.408539 1468.84 0.413298C1472.97 0.477405 1469.59 0.474657 1467.86 0.474758C1465.12 0.474965 1469.35 0.506234 1468.62 0.514306C1466.67 0.535908 1463.58 0.526099 1465.48 0.554343C1464.63 0.5412 1463.71 0.528018 1462.83 0.514978C1459.64 0.531355 1452.14 0.668681 1459.28 0.640948C1458.61 0.69197 1456.3 0.667447 1454.5 0.659685C1452.7 0.65193 1452.73 0.684424 1451.15 0.678422C1444.84 0.65441 1448.97 0.598828 1449.97 0.555259C1441.64 0.58527 1449.79 0.605125 1437.8 0.625202C1436.64 0.660699 1442.18 0.698577 1437.56 0.719069C1436.71 0.6574 1433.31 0.613099 1426.69 0.592611C1426.05 0.606789 1425.41 0.621094 1424.76 0.635272C1421.15 0.578351 1422.99 0.519161 1416.3 0.589742C1419.89 0.459862 1417.42 0.542953 1411.43 0.490077C1410.21 0.479417 1413.03 0.452471 1411.33 0.43881C1410.56 0.432649 1408.69 0.452989 1406.8 0.437284C1405.89 0.429523 1401.59 0.379443 1398.62 0.403228C1400.8 0.466151 1395.15 0.519681 1399.99 0.571738C1391.04 0.558904 1384.77 0.589116 1394.81 0.503321C1392.53 0.484278 1390.26 0.465317 1387.98 0.446378C1386.4 0.461384 1384.8 0.476272 1383.2 0.491175C1382.96 0.43946 1383.21 0.424952 1376.96 0.434049C1379.67 0.421843 1382.37 0.409434 1385.09 0.397125C1385.18 0.386682 1385.56 0.375827 1385.47 0.365693C1382.14 0.385556 1372.76 0.394105 1370.48 0.407866C1368.21 0.421631 1372.6 0.425398 1371.95 0.438749C1366.49 0.548838 1366.93 0.467643 1363.01 0.486537C1360.72 0.497714 1366.2 0.509851 1364.97 0.514611C1360.42 0.53206 1358.3 0.473551 1354.26 0.472804C1355.7 0.506015 1357.12 0.539742 1358.52 0.573263C1354.28 0.571504 1349.56 0.571209 1345.62 0.581869C1344.08 0.58603 1345.25 0.61073 1344.99 0.612385C1343.74 0.620872 1338.64 0.634314 1338.1 0.634418C1334.04 0.634615 1333.92 0.600404 1329.98 0.598531C1331.53 0.595634 1332.98 0.593024 1334.5 0.59023C1335.19 0.534765 1335.89 0.479303 1336.58 0.423735C1332.71 0.419699 1328.84 0.415747 1324.96 0.411711C1327.8 0.430233 1330.64 0.448667 1333.48 0.46719C1329.05 0.512 1324.61 0.556913 1320.18 0.601826C1317.87 0.574299 1315.57 0.546777 1313.27 0.51925C1307 0.526512 1308.26 0.638255 1305.29 0.540367C1303.44 0.548642 1301.59 0.556913 1299.74 0.565085C1300.01 0.551118 1300.27 0.537123 1300.53 0.523156C1298.31 0.531746 1296.08 0.540279 1293.85 0.548973C1296.19 0.598436 1298.49 0.650487 1300.81 0.698501C1296.43 0.70925 1296.34 0.667288 1295.69 0.656816C1293.95 0.62908 1290.51 0.666492 1289.13 0.640826C1288.67 0.632014 1292.96 0.60439 1291.48 0.572531C1291.2 0.566356 1285.44 0.449242 1281.77 0.476283C1281.84 0.497499 1282.13 0.523513 1282.28 0.546592C1277.34 0.559479 1274.82 0.448734 1275.48 0.417692C1272.85 0.439424 1269.01 0.44124 1268.47 0.475185C1267.12 0.476013 1265.79 0.476798 1264.45 0.477626C1265.85 0.394955 1260.24 0.410071 1259.87 0.481166C1262.18 0.482925 1264.49 0.484777 1266.8 0.486537C1265.06 0.573676 1272.07 0.626273 1257.48 0.545555C1254.69 0.500225 1262.44 0.551731 1260.16 0.517785C1256.21 0.498028 1252.5 0.514559 1248.75 0.482997C1244.08 0.443569 1249.83 0.405647 1238.94 0.455838C1262.95 0.581578 1235.65 0.540781 1224.37 0.579794C1221.27 0.455603 1211.75 0.416266 1198.64 0.453213C1200 0.487777 1204.13 0.46997 1206.51 0.481349C1208.88 0.492732 1206.31 0.513237 1209.27 0.529381C1212.23 0.545521 1218.52 0.567463 1221.52 0.591878C1218.98 0.611441 1206.45 0.65769 1214.74 0.602132C1208.55 0.567883 1205.64 0.532689 1197.98 0.526269C1195.68 0.580186 1195.85 0.613759 1188.38 0.615314C1192.8 0.540392 1184.3 0.48832 1186.17 0.410918C1191.47 0.428946 1188.51 0.504176 1191.58 0.540184C1191.89 0.543783 1196.83 0.524924 1197.98 0.526269C1192.99 0.458688 1191.27 0.433534 1194.34 0.35312C1190.81 0.360158 1188.62 0.350062 1188.3 0.388458C1187.56 0.371801 1186.82 0.35513 1186.1 0.338473C1184.95 0.338888 1183.92 0.34043 1182.7 0.340121C1184.38 0.398038 1181.13 0.362384 1178.83 0.388641C1176.52 0.414928 1179.61 0.460648 1173.28 0.461269C1175.39 0.474827 1177.32 0.486459 1179.36 0.499292C1175.28 0.514193 1171.18 0.529189 1167.09 0.54409C1169.96 0.579479 1176.18 0.632044 1176.01 0.678605C1174.13 0.661026 1167.68 0.69192 1166.97 0.693191C1164.24 0.697952 1165.73 0.668588 1165.52 0.667863C1161.23 0.653593 1157.69 0.663592 1156.06 0.619098C1152.84 0.639174 1150.4 0.627728 1146.98 0.628864C1145.1 0.629485 1145.47 0.662165 1144.36 0.655962C1137.04 0.614568 1144.02 0.572337 1129.89 0.652727C1131.6 0.675493 1133.29 0.698782 1135 0.721755C1133.4 0.730344 1131.81 0.738981 1130.22 0.747571C1129.15 0.743431 1128.09 0.73926 1127.02 0.735121C1127.05 0.68576 1127.07 0.636295 1127.1 0.586935C1125.93 0.584244 1124.75 0.58163 1123.58 0.578939C1125.59 0.574075 1127.6 0.569217 1129.61 0.564353C1129.8 0.555667 1129.97 0.546978 1130.15 0.538292C1127.17 0.524838 1124.19 0.511263 1121.21 0.497706C1121.15 0.514876 1121.09 0.532168 1121.03 0.549339C1114.31 0.525433 1114.15 0.510897 1107.75 0.558188C1102.82 0.557671 1098.81 0.629465 1095.97 0.659685C1094.94 0.650062 1093.92 0.640317 1092.89 0.630695C1092.23 0.644977 1091.57 0.659196 1090.92 0.673478C1089.62 0.65361 1088.3 0.633737 1087.01 0.613972C1086.28 0.65907 1085.91 0.67315 1090.97 0.68898C1089.24 0.745071 1080.33 0.720327 1076.7 0.701492C1073.94 0.687199 1077 0.640414 1076.65 0.634723C1075.51 0.615389 1070.97 0.632071 1070.02 0.628864C1065.99 0.615514 1063.16 0.617851 1059.52 0.607502C1058.81 0.605431 1056.83 0.575781 1056.66 0.57485C1055.36 0.569779 1052.12 0.555368 1051.76 0.554954C1032.8 0.53282 1053.06 0.661459 1035.43 0.647906C1035.96 0.66487 1036.45 0.68172 1036.96 0.698684C1035.63 0.699719 1034.29 0.700702 1032.95 0.701736C1031.27 0.687558 1033.31 0.661774 1029.96 0.682572C1030.17 0.661668 1030.39 0.640754 1030.62 0.619953C1029.16 0.631234 1027.76 0.642423 1026.27 0.653704C1023.92 0.581158 1015.37 0.564683 1015.98 0.479518C1016.19 0.45054 1022.25 0.420806 1019.05 0.389862C1016.44 0.38377 1018.21 0.418379 1017.14 0.420195C1009.47 0.432821 1009.92 0.384311 1006.78 0.397247C1006.29 0.418037 1005.77 0.439235 1005.27 0.460232C1004.08 0.454129 1002.9 0.448025 1001.71 0.441922C1001.43 0.455894 1001.14 0.46988 1000.87 0.483851C1001.98 0.484783 1003.24 0.485727 1004.26 0.486659C1002.83 0.540773 989.746 0.56508 994.736 0.518945C996.768 0.500215 1000.49 0.508173 998.138 0.444241C994.636 0.453452 990.663 0.462862 986.978 0.472072C986.863 0.458308 986.756 0.444518 986.641 0.430753C981.674 0.439663 986.191 0.494697 986.182 0.524194C985.046 0.525021 983.898 0.525746 982.762 0.526574C982.28 0.513237 981.822 0.499277 981.318 0.486354C981.272 0.507578 980.635 0.556911 977.249 0.538597C975.072 0.526677 978.5 0.47313 974.349 0.480556C974.659 0.513666 976.159 0.553994 971.534 0.564658C971.075 0.5301 970.44 0.498442 970.084 0.462124C964.332 0.495323 961.715 0.441957 954.964 0.480556C950.681 0.504981 944.815 0.591683 942.048 0.458096C938.915 0.454579 939.909 0.487846 938.982 0.495325C934.607 0.53072 931.353 0.467375 930.538 0.46365C925.339 0.439767 923.008 0.461694 918.772 0.431791C919.001 0.456526 919.127 0.479939 919.31 0.504053C923.191 0.467003 925.157 0.468742 930.599 0.476711C928.774 0.481677 926.948 0.486758 925.123 0.491724C925.422 0.511796 925.717 0.531873 926.004 0.551841C942.837 0.472773 938.911 0.597697 924.799 0.625019C923.582 0.587872 922.321 0.550824 921.115 0.513574C912.963 0.569871 909.127 0.520999 899.908 0.509302C898.812 0.507964 894.819 0.529362 893.104 0.530419C893.132 0.530561 893.161 0.530704 893.189 0.530846C892.122 0.565924 893.568 0.582069 893.74 0.613422C892.81 0.617354 891.88 0.62127 890.95 0.625202C888.873 0.601302 889.603 0.581671 885.516 0.587362C886.067 0.611162 886.611 0.634969 887.162 0.658769C882.684 0.659597 879.754 0.633738 875.586 0.644915C876.286 0.635911 876.978 0.626882 877.678 0.617878C868.607 0.594902 875.826 0.45497 868.971 0.524621C868.535 0.512413 868.11 0.500087 867.674 0.487879C870.498 0.484879 873.323 0.481969 876.136 0.478969C876.194 0.461692 876.256 0.44449 876.302 0.427213C873.282 0.432388 870.247 0.437724 867.227 0.442899C869.432 0.431308 871.649 0.419702 873.854 0.40811C870.352 0.399832 866.85 0.391549 863.348 0.38327C867.067 0.446799 862.246 0.454568 863.152 0.51748C856.952 0.465113 852.082 0.396083 842.471 0.440274C840.566 0.449078 841.601 0.493041 836.193 0.439542C837.502 0.509493 830.727 0.542318 831.598 0.608845C833.48 0.605638 835.433 0.60362 837.258 0.59969C835.18 0.576613 834.835 0.513128 837.992 0.494288C842.022 0.470279 847.9 0.514277 847.66 0.443814C849.266 0.447125 850.761 0.449078 852.322 0.45187C851.679 0.46935 851.05 0.48694 850.419 0.504419C854.861 0.477015 857.652 0.485927 859.787 0.529992C854.495 0.540132 849.213 0.550165 843.921 0.560202C844.701 0.563199 845.491 0.566219 846.271 0.569113C842.263 0.614132 846.397 0.656774 838.922 0.666398C838.968 0.645809 839.004 0.625205 839.051 0.604512C836.329 0.65957 828.879 0.659272 831.255 0.722609C829.005 0.703154 828.546 0.690849 827.272 0.724989C821.335 0.676865 817.523 0.616009 819.636 0.543358C817.432 0.55505 815.226 0.566759 813.033 0.578451C814.308 0.598317 815.583 0.618091 816.858 0.637957C813.023 0.636715 809.16 0.635495 805.336 0.634357C804.969 0.575581 812.718 0.616525 810.482 0.563986C810.035 0.553441 807.971 0.57603 807.429 0.57009C801.711 0.505827 810.687 0.552255 809.001 0.503015C800.481 0.487802 807.299 0.405295 795.564 0.474635C795.254 0.457666 794.921 0.440356 794.634 0.423491C790.561 0.422472 790.891 0.460801 787.39 0.468044C785.197 0.47255 782.445 0.405245 780.023 0.451077C779.591 0.459527 783.665 0.54179 775.103 0.53817C768.458 0.535364 771.224 0.477229 767.632 0.456631C764.038 0.436036 755.817 0.516644 753.394 0.42526C755.276 0.437364 757.674 0.443894 759.763 0.453824C760.613 0.436026 761.44 0.41842 762.278 0.400726C757.502 0.423699 752.564 0.396622 749.349 0.439054C742.977 0.374164 735.85 0.434381 737.779 0.507654C739.876 0.49709 737.594 0.465139 740.508 0.485499C740.806 0.502575 741.121 0.519568 741.419 0.536644C736.459 0.534574 733.014 0.535054 735.276 0.482997C734.507 0.481755 733.745 0.480516 732.976 0.479274C732.838 0.516945 732.716 0.554756 732.578 0.592427C731.659 0.59667 730.737 0.600879 729.818 0.605122C728.797 0.596848 727.773 0.588477 726.74 0.580099C728.13 0.520487 730.496 0.518519 722.665 0.485194C722.642 0.505789 722.609 0.526302 722.586 0.546897C716.03 0.520715 715.857 0.470826 707.626 0.472682C713.941 0.401178 717.395 0.527929 717.373 0.384491C718.957 0.393909 720.555 0.403453 722.139 0.412871C722.38 0.392069 722.619 0.371237 722.849 0.350435C714.341 0.361408 700.209 0.498212 694.513 0.4075C693.824 0.41857 693.133 0.428193 692.433 0.440091C686.852 0.385344 684.442 0.508256 678.782 0.437467C678.198 0.430038 679.42 0.31456 672.051 0.318698C672.235 0.333707 672.33 0.358968 672.479 0.3779C670.884 0.368692 669.297 0.359056 667.713 0.349642C667.426 0.363504 667.125 0.377361 666.838 0.391327C669.559 0.396708 672.273 0.40218 674.994 0.407561C672.733 0.41232 670.457 0.417084 668.196 0.421843C671.146 0.444499 672.477 0.44474 670.699 0.481044C668.138 0.483217 665.574 0.485523 663.014 0.487696C662.75 0.496998 662.488 0.506408 662.224 0.51571C663.464 0.543444 664.717 0.570566 665.957 0.598714C659.286 0.57605 653.486 0.574819 648.365 0.520287C647.493 0.511077 650.579 0.474945 644.633 0.507532C644.541 0.488396 644.381 0.472857 644.278 0.455166C636.998 0.508775 634.607 0.492774 627.017 0.454068C631.931 0.490187 627.546 0.466695 626.295 0.486048C625.437 0.499382 628.784 0.497412 628.406 0.511377C628.027 0.525244 623.678 0.581237 627.396 0.587972C636.513 0.473199 638.997 0.61042 650.709 0.555259C648.906 0.570058 647.09 0.584891 645.287 0.59969C646.137 0.609721 646.896 0.618821 647.815 0.629474C641.282 0.60702 644.459 0.621608 641.775 0.6393C639.089 0.656997 634.205 0.672032 630.933 0.676896C629.902 0.678424 630.989 0.652682 628.663 0.650286C627.078 0.64863 622.748 0.686792 621.749 0.641802C621.094 0.612517 628.05 0.531874 618.432 0.532067C616.622 0.503356 621.233 0.512273 621.333 0.508813C622.171 0.474661 616.258 0.448983 613.525 0.475063C613.304 0.477312 615.462 0.503925 613.115 0.514367C607.546 0.539309 604.33 0.508788 600.725 0.467495C600.334 0.515929 595.648 0.573773 589.815 0.555869C589.516 0.56973 589.232 0.583712 588.934 0.597676C589.839 0.59034 590.745 0.583102 591.65 0.575766C592.638 0.584459 593.684 0.590787 594.649 0.601033C588.783 0.612944 587.953 0.679694 585.14 0.704116C575.514 0.787544 581.348 0.611067 583.084 0.580648C584.336 0.592964 585.546 0.606711 586.786 0.619648C586.648 0.602778 586.508 0.585781 586.382 0.568808C571.972 0.569324 584.188 0.459304 576.874 0.427946C574.991 0.510942 569.619 0.518941 562.776 0.466274C562.018 0.466688 561.258 0.466794 560.5 0.467312C560.374 0.479413 560.376 0.49791 560.169 0.505884C551.925 0.519959 550.457 0.392144 549.676 0.380036C546.209 0.326332 543.508 0.400638 542.486 0.401275C538.181 0.403862 536.929 0.370868 532.831 0.38504C528.422 0.400354 531.437 0.42567 530.096 0.448331C529.02 0.466326 525.542 0.469532 524.105 0.488185C524.676 0.472928 525.311 0.457968 525.88 0.442655C521.311 0.421857 517.577 0.401585 512.388 0.396514C506.532 0.508142 501.551 0.31984 503.571 0.47256C508.485 0.483013 511.233 0.500416 513.863 0.539329C510.637 0.544296 507.408 0.549133 504.183 0.554099C503.242 0.537338 502.573 0.521003 501.46 0.503931C499.049 0.539525 493.46 0.524251 491.266 0.534691C480.99 0.583642 484.168 0.644356 474.788 0.54232C481.549 0.532378 481.538 0.48282 488.243 0.489649C486.796 0.454256 483.389 0.461589 485.594 0.419157C479.107 0.429609 481.204 0.467492 478.68 0.501123C476.502 0.530117 472.117 0.53174 472.365 0.569418C471.917 0.548703 471.57 0.528648 471.123 0.507959C466.922 0.508166 462.72 0.508179 458.518 0.508386C460.309 0.48676 462.1 0.465093 463.891 0.44357C462.537 0.435402 461.181 0.427265 459.828 0.419096C449.494 0.486365 431.674 0.363078 434.521 0.532067C429.538 0.537448 428.914 0.516253 426.205 0.484279C425.907 0.497108 425.616 0.507779 425.318 0.522057C422.104 0.508627 419.636 0.556793 416.801 0.544273C413.965 0.531849 413.261 0.486353 412.848 0.562827C411.011 0.540891 409.185 0.522668 407.359 0.502283C406.258 0.519656 405.157 0.536829 404.067 0.554099C402.345 0.544993 400.619 0.535924 398.897 0.526818C397.977 0.563323 391.205 0.547588 388.22 0.572104C385.386 0.532753 385.464 0.408857 378.797 0.431059C378.969 0.461787 379.139 0.492427 379.311 0.523156C377.784 0.516741 376.254 0.510346 374.716 0.503931C374.624 0.493901 374.544 0.483871 374.453 0.473842C375.233 0.476946 376.003 0.480034 376.784 0.483241C376.106 0.466268 375.443 0.449374 374.777 0.432401C372.446 0.457546 370.113 0.482693 367.771 0.507837C370.928 0.526875 374.086 0.545925 377.243 0.564963C373.281 0.587524 370.524 0.565021 367.08 0.590169C364.083 0.547745 365.19 0.523299 366.406 0.47726C365.293 0.481191 364.167 0.484986 363.053 0.488917C363.788 0.442871 361.905 0.415435 368.413 0.419157C367.966 0.406024 367.509 0.393502 367.073 0.379853C366.006 0.381922 365.313 0.370821 364.143 0.375885C360.95 0.389753 358.503 0.47063 358.721 0.498987C358.839 0.513841 361.986 0.485434 361.86 0.506433C361.549 0.557641 354.329 0.53465 364.742 0.58608C361.286 0.61868 360.514 0.594095 356.702 0.584676C357 0.60174 357.29 0.618696 357.577 0.63576C355.81 0.627898 354.04 0.620064 352.272 0.612202C354.729 0.524548 341.697 0.491626 353.429 0.414946C349.962 0.411014 346.507 0.407061 343.051 0.402923C343.763 0.393921 344.475 0.385009 345.187 0.376008C346.748 0.380768 348.3 0.385449 349.861 0.390106C348.025 0.373656 346.185 0.357303 344.348 0.340853C340.008 0.361241 338.307 0.392597 336.32 0.431303C341.371 0.459548 339.721 0.420966 343.657 0.413298C343.519 0.43781 343.701 0.460356 343.357 0.486109C341.323 0.435337 334.689 0.472274 333.151 0.474758C328.469 0.482299 332.14 0.432413 329.009 0.431364C325.874 0.430329 322.177 0.460021 319.616 0.410552C319.662 0.438279 319.867 0.466966 320.051 0.492213C315.171 0.50132 316.144 0.468564 315.639 0.464321C307.579 0.39457 303.205 0.453457 293.985 0.460598C295.156 0.469186 296.339 0.47694 297.521 0.485011C290.566 0.543881 295.251 0.525856 301.291 0.545311C295.63 0.539412 292.388 0.589548 288.392 0.604451C284.397 0.619328 277.545 0.593578 275.041 0.573507C280.771 0.541218 286.951 0.562511 293.312 0.553611C292.589 0.525365 291.886 0.50146 291.14 0.470424C287.271 0.529708 285.029 0.490068 283.754 0.482203C280.012 0.459136 280.129 0.510019 277.868 0.455288C277.96 0.474116 278.027 0.489947 278.119 0.507532C270.392 0.499667 262.057 0.466381 257.027 0.535912C256.568 0.49069 256.222 0.447122 255.694 0.40097C252.422 0.435011 249.62 0.400151 246.864 0.40811C244.12 0.416079 245.165 0.452625 241.939 0.466701C241.342 0.469289 240.098 0.446414 238.628 0.463283C237.144 0.480242 231.671 0.606334 231.017 0.49618C228.25 0.495662 225.631 0.491634 222.921 0.489771C225.562 0.483562 228.204 0.477549 230.833 0.47134C228.583 0.444642 226.346 0.418024 224.096 0.391327C223.809 0.41513 223.521 0.439363 223.246 0.462856C217.183 0.491833 212.784 0.452916 206.664 0.462124C205.642 0.463676 208.053 0.510737 203.519 0.498743C198.984 0.486739 195.618 0.398901 187.892 0.432828C187.501 0.434588 185.213 0.50186 182.446 0.455288C181.816 0.444733 184.466 0.429115 183.021 0.415251C181.574 0.401383 175.119 0.38998 174.614 0.356966C174.683 0.368657 175.085 0.380771 175.281 0.392669C174.179 0.398256 173.066 0.403848 171.952 0.409331C171.849 0.388739 171.737 0.368116 171.634 0.347628C165.296 0.395542 162.021 0.473705 152.629 0.447842C155.27 0.477749 157.911 0.507775 160.541 0.537682C161.264 0.516673 161.989 0.495522 162.701 0.474513C167.029 0.482895 171.369 0.491216 175.697 0.499598C176.409 0.475691 177.108 0.451853 177.82 0.427946C178.968 0.43105 180.105 0.434058 181.253 0.437162C180.966 0.454444 180.676 0.471635 180.378 0.488917C182.651 0.484675 184.926 0.480342 187.188 0.4761C182.584 0.578113 174.331 0.467423 174.926 0.552757C173.905 0.539517 172.882 0.526185 171.86 0.512842C171.412 0.554219 169.335 0.54231 165.674 0.53579C166.512 0.556178 167.438 0.576288 168.207 0.596883C164.648 0.568115 158.334 0.570909 154.648 0.559836C153.03 0.554973 154.646 0.524974 154.165 0.521447C151.696 0.503025 146.978 0.55537 145.99 0.551231C140.089 0.526596 136.254 0.427357 129.812 0.492762C136.46 0.508907 132.844 0.502088 135.209 0.538414C135.949 0.549803 144.538 0.573562 133.783 0.56301C132.522 0.56169 113.008 0.493123 119.423 0.44058C116.265 0.457345 113.793 0.476731 110.899 0.494532C103.826 0.356059 106.274 0.486144 108.329 0.557761C107.17 0.558072 106.066 0.558799 104.872 0.558799C107.41 0.48356 94.4816 0.478888 90.0953 0.51687C88.6257 0.529496 92.7351 0.553579 89.3366 0.564963C87.7183 0.559687 85.8824 0.552855 84.1724 0.546959C86.6523 0.594562 81.7852 0.612906 81.8533 0.661333C78.7419 0.61818 76.362 0.526714 78.0719 0.477138C75.5004 0.497211 72.9155 0.51726 70.3439 0.537437C71.538 0.548925 72.7477 0.560311 73.9418 0.571799C65.5368 0.541372 54.7296 0.610608 52.9728 0.508874C51.859 0.509599 50.7334 0.510225 49.6197 0.51095C49.2752 0.528129 48.9423 0.545342 48.5979 0.562522C43.5583 0.547622 38.5302 0.532624 33.4906 0.517724C37.9779 0.507063 39.046 0.48261 43.7518 0.502466C41.9384 0.482708 40.0912 0.46284 38.3122 0.443082C31.2278 0.496276 30.2614 0.531237 19.5949 0.515405C19.1127 0.51468 11.0534 0.470071 10.7778 0.465725C9.51525 0.445856 11.4317 0.416991 10.8696 0.406951C9.30797 0.378801 -0.181084 0.308119 0.00263229 0.297459C2.32208 0.166645 34.2483 0.164911 42.8829 0.158184C132.444 0.0884338 220.033 0.181751 309.031 0.165813C309.946 0.165566 309.546 0.146255 309.936 0.145428C312.359 0.140578 314.738 0.170674 315.633 0.171916C317.546 0.174475 316.493 0.146669 317.891 0.146649C332.335 0.146959 345.966 0.16331 360.422 0.15855C361.364 0.15824 360.403 0.180487 362.056 0.176555C362.909 0.174401 365.581 0.140269 367.508 0.139752C374.236 0.137994 379.888 0.148936 386.984 0.148419C390.865 0.14811 396.687 0.151011 401.026 0.150494C402.943 0.150274 404.94 0.134659 406.833 0.134137C409.52 0.133413 408.971 0.165067 409.385 0.167034C411.199 0.175621 411.45 0.140878 413.172 0.141705C416.376 0.143361 416.548 0.166558 420.613 0.164592C423.518 0.163143 430.166 0.144829 433.829 0.139447C442.395 0.166352 453.188 0.155671 461.18 0.146771C465.91 0.141495 466.349 0.173973 468.278 0.173869C475.074 0.17324 480.232 0.13176 486.616 0.130414C495.088 0.128662 502.595 0.15609 510.803 0.158062C512.134 0.158372 511.829 0.128614 513.134 0.127851C517.969 0.125057 524.15 0.119641 528.456 0.123884C533.254 0.128547 535.025 0.171741 539.72 0.162944C541.097 0.160333 541.501 0.12246 543.808 0.117597C547.493 0.109951 551.534 0.143348 554.106 0.147076C557.631 0.152044 554.565 0.11346 559.319 0.118635C559.514 0.118858 560.225 0.146439 561.246 0.145123C564.22 0.141397 563.925 0.119678 568.277 0.121748C568.694 0.122034 574.464 0.148313 575.038 0.148419C578.414 0.148833 585.21 0.158033 587.208 0.152447C594.35 0.132576 588.728 0.0910934 594.802 0.181132C597.476 0.159094 600.129 0.136757 602.964 0.115339C601.072 0.135313 608.751 0.164136 609.291 0.162273C613.755 0.147263 611.096 0.11223 616.756 0.118025C609.281 0.198956 624.058 0.128456 627.353 0.126386C643.221 0.11635 657.645 0.136547 673.593 0.136029C678.932 0.135817 686.087 0.118709 691.735 0.119123C693.052 0.119148 692.057 0.138301 693.216 0.138715C694.372 0.138998 693.089 0.117497 694.409 0.118635C702.618 0.126089 709.051 0.166659 716.571 0.11595C716.937 0.123281 716.926 0.129075 717.532 0.137128C723.686 0.0916989 735.539 0.152792 739.994 0.161174C746.962 0.174207 748.742 0.1435 753.804 0.1497C760.498 0.15798 770.548 0.217969 766.06 0.11894C770.652 0.115837 775.073 0.11498 779.711 0.124189C780.227 0.125233 779.871 0.150404 780.078 0.150921C781.386 0.154535 781.813 0.131998 782.697 0.130964C785.093 0.12818 781.182 0.155164 784.6 0.147625C786.402 0.143589 787.426 0.123933 792.432 0.123518C822.607 0.121344 855.366 0.128384 886.3 0.131696C888.424 0.131903 887.025 0.107562 889.689 0.109114C898.944 0.114501 915.509 0.155465 923.489 0.149883C931.469 0.144295 929.669 0.1087 934.662 0.093795C935.627 0.0908972 934.836 0.111184 935.709 0.111494C941.576 0.113359 948.571 0.145001 953.325 0.149761C956.468 0.152951 956.216 0.121037 958.397 0.118757C961.647 0.115445 964.991 0.147689 966.725 0.148724C974.876 0.15327 980.479 0.1273 988.091 0.140546C987.793 0.133522 987.597 0.12702 987.345 0.1201C996.358 0.121238 1005.36 0.122379 1014.37 0.123518C1013.95 0.117101 1013.54 0.110629 1013.11 0.104109C1023.69 0.107631 1022.48 0.177175 1021.55 0.0303215C1022.32 0.0251481 1023.13 0.0191514 1023.87 0.0143922C1023.57 0.0900401 1029.97 0.1454 1038.11 0.164653C1038.7 0.166102 1042.71 0.0923433 1042.27 0.179484C1043.32 0.158165 1043.94 0.14347 1044.82 0.124738C1046.55 0.151121 1048.29 0.177191 1050.01 0.20347C1050.94 0.199538 1051.89 0.195744 1052.82 0.191813C1052.95 0.174736 1052.85 0.157006 1053.15 0.14024C1057.46 0.137653 1066.32 0.158764 1069.73 0.156597C1078.2 0.151112 1086.83 0.104944 1093.42 0.154827C1096.63 0.149741 1093.44 0.116226 1098.22 0.120466C1098.76 0.137435 1099.26 0.153698 1099.83 0.171184C1103.73 0.0953679 1104.54 0.141489 1109.89 0.157329C1113.51 0.168092 1115.88 0.149562 1119.32 0.153179C1120.19 0.154111 1120.07 0.176363 1120.67 0.175639C1122.67 0.173344 1128.37 0.142716 1129.78 0.141888C1142.57 0.133818 1153.56 0.137253 1165.74 0.145428C1167.05 0.146256 1165.36 0.124295 1166.71 0.125227C1168.89 0.126689 1167.61 0.160434 1168.87 0.16209C1172.39 0.166518 1172.42 0.130934 1177.33 0.129072C1193.51 0.122969 1212.11 0.1497 1229.01 0.152081C1229.54 0.152081 1229.51 0.131232 1230.08 0.131025C1233.82 0.130005 1237.61 0.158188 1241.01 0.157879C1246.65 0.157465 1250.89 0.128175 1256.45 0.128278C1267.34 0.128382 1277.06 0.143379 1288.26 0.144208C1297.42 0.144932 1305.38 0.142151 1315.43 0.142254C1359.31 0.142668 1404.09 0.0764899 1448.28 0.111677C1449.4 0.112608 1448.94 0.131029 1449.29 0.130231C1452.55 0.122263 1452.84 0.0974079 1454 0.149456C1458.15 0.139198 1459.46 0.100095 1464.48 0.102889C1467.15 0.104353 1465.16 0.164961 1469.68 0.13371C1473.77 0.105459 1469.26 0.072244 1481.4 0.106184C1481.73 0.107117 1483.31 0.14406 1485.83 0.134442C1488.37 0.124921 1485.43 0.0984682 1491.54 0.0904992C1505.88 0.0718727 1524.04 0.103806 1540.71 0.0939781C1541.75 0.0933571 1551.82 0.0736069 1553.8 0.0644995C1557.65 0.0468032 1556.84 0.0193503 1561.84 0.0126222C1565.69 0.0074476 1568.88 0.0385452 1573.41 0.0323356C1573.94 0.0315809 1574.83 -0.00040664 1578.23 0.0038336ZM732.988 0.625141C732.046 0.656525 730.347 0.772046 724.654 0.73689C724.114 0.733579 727.028 0.654137 723.883 0.641497C726.96 0.633115 729.957 0.6304 732.988 0.625019C732.988 0.625059 732.988 0.6251 732.988 0.625141ZM1602.91 0.74043C1598.65 0.734635 1594.38 0.728893 1590.12 0.723097C1593.06 0.709126 1596 0.695182 1598.93 0.681107C1600.26 0.70087 1601.58 0.720667 1602.91 0.74043ZM1072.62 0.685562C1072.63 0.685562 1072.63 0.685562 1072.63 0.685562C1068.16 0.700465 1063.68 0.715396 1059.2 0.730299C1059.67 0.719329 1060.14 0.708312 1060.61 0.697342C1064.15 0.680062 1067.68 0.662805 1071.21 0.645525C1071.68 0.658873 1072.15 0.672215 1072.62 0.685562ZM1108 0.569418C1110.86 0.582458 1110.16 0.60445 1111.73 0.625873C1111.73 0.625832 1111.73 0.625792 1111.73 0.625751C1112.15 0.631328 1114.08 0.636208 1114.83 0.637042C1114.55 0.623277 1114.2 0.609689 1113.9 0.596028C1120.57 0.562704 1133.62 0.681124 1116.73 0.728834C1116.98 0.711451 1117.22 0.694157 1117.47 0.676774C1109.08 0.681637 1099.72 0.643932 1108 0.569418ZM665.498 0.675187C658.333 0.732108 656.036 0.744109 647.343 0.705093C648.571 0.688959 649.799 0.672828 651.027 0.656694C652.462 0.673149 653.887 0.689492 655.322 0.705947C655.326 0.705947 655.331 0.705947 655.335 0.705947C655.622 0.688665 655.91 0.671352 656.185 0.65407C659.285 0.661107 662.398 0.66815 665.498 0.675187ZM1382.27 0.610554C1384.27 0.724237 1383.69 0.658157 1377.99 0.683793C1376.01 0.692693 1377.94 0.712584 1376.71 0.715895C1370.07 0.733985 1369.54 0.657818 1371.02 0.618183C1374.78 0.615492 1378.57 0.613038 1382.26 0.610554C1382.26 0.610554 1382.26 0.610554 1382.27 0.610554ZM1554.41 0.586935C1554.41 0.586935 1554.42 0.586935 1554.42 0.586935C1554.59 0.614663 1551.92 0.622122 1554.93 0.648394C1552.64 0.64829 1550.34 0.64807 1548.04 0.647967C1548.71 0.645384 1549.41 0.642921 1550.08 0.640338C1549.48 0.630816 1548.89 0.621174 1548.29 0.611653C1547.47 0.643525 1546.72 0.624998 1544.31 0.614338C1544.97 0.648386 1545.63 0.682458 1546.3 0.716506C1543.5 0.706366 1540.69 0.696191 1537.89 0.686051C1537.85 0.67747 1537.82 0.668876 1537.78 0.660295C1536.73 0.671261 1535.68 0.682347 1534.63 0.693314C1534.34 0.68307 1534.06 0.672919 1533.77 0.662675C1532.5 0.670435 1531.23 0.678188 1529.95 0.686051C1529.56 0.661237 1532.37 0.650513 1527.39 0.656816C1528.92 0.631361 1530.44 0.605982 1531.98 0.580526C1539.46 0.582596 1546.93 0.584761 1554.41 0.586935ZM1330.38 0.645525C1338.61 0.640765 1336.29 0.658749 1334.38 0.715041C1333.05 0.691866 1331.71 0.668701 1330.38 0.645525ZM906.234 0.595418C903.846 0.633814 901.448 0.671826 899.002 0.708877C894.134 0.7303 889.263 0.660317 892.926 0.632892C897.335 0.599985 901.94 0.636814 906.234 0.595418ZM795.35 0.612507C801.307 0.630311 795.702 0.675934 794.359 0.702529C792.711 0.659787 790.413 0.663557 786.723 0.658586C790.188 0.655815 794.365 0.609484 795.35 0.612385C795.35 0.612426 795.35 0.612466 795.35 0.612507ZM1002.09 0.638568C1004.48 0.637419 1006.85 0.626696 1008.99 0.639727C1008.34 0.676442 1004.07 0.643039 1007.13 0.697464C1005.6 0.698395 1004.07 0.699298 1002.56 0.700332C1003.52 0.677783 1002.22 0.66093 1002.1 0.63869C1002.1 0.638649 1002.09 0.638608 1002.09 0.638568ZM1250.61 0.688797C1245.93 0.64533 1245.04 0.66393 1240.32 0.694046C1239.65 0.658655 1245.28 0.599374 1248.81 0.586324C1249.4 0.620474 1250 0.654647 1250.61 0.688797ZM142.521 0.670671C143.646 0.625561 151.944 0.619678 156.068 0.633014C155.577 0.639704 155.084 0.646484 154.593 0.653276C150.574 0.659072 146.54 0.664875 142.521 0.670671ZM784.967 0.655535C785.584 0.656856 786.17 0.657842 786.723 0.658586C786.108 0.659078 785.515 0.658309 784.967 0.655535ZM535.541 0.459744C537.504 0.417213 531.67 0.402924 538.754 0.419584C538.754 0.419544 538.754 0.419503 538.754 0.419462C543.438 0.430433 544.473 0.433362 548.813 0.436673C547.25 0.491309 538.445 0.510838 550.581 0.522118C550.741 0.522168 550.423 0.489658 552.362 0.494105C552.96 0.495487 554.876 0.522168 557.789 0.529931C558.731 0.532414 565.806 0.540643 556.162 0.54116C556.449 0.579246 555.931 0.617794 555.954 0.654741C552.189 0.665479 549.295 0.590903 545.313 0.592733C539.4 0.59563 536.39 0.671043 535.254 0.572104C540.226 0.547796 548.764 0.547211 549.878 0.606709C554.688 0.607433 556.069 0.558687 552.19 0.534569C535.576 0.565203 547.629 0.462211 533.082 0.501123C532.909 0.514883 532.311 0.529692 532.402 0.542625C527.962 0.494202 534.841 0.474955 535.541 0.459744ZM570.284 0.564963C567.413 0.594044 564.552 0.623359 561.693 0.652544C561.693 0.605146 563.269 0.562612 567.793 0.535912C568.619 0.545632 569.458 0.555346 570.284 0.564963ZM328.813 0.577414C328.399 0.603182 327.297 0.626797 326.494 0.651323C325.621 0.629591 304.953 0.608741 315.468 0.587423C316.995 0.584318 326.31 0.629884 328.813 0.577414ZM1283.14 0.649981C1280.7 0.632697 1278.28 0.615387 1275.86 0.598103C1279.59 0.58714 1283.32 0.575889 1287.05 0.564719C1285.74 0.593133 1284.44 0.621567 1283.14 0.649981ZM866.609 0.550193C867.638 0.551161 864.223 0.5866 868.274 0.581014C865.254 0.603679 862.426 0.622863 859.475 0.644183C858.591 0.627417 857.697 0.610719 856.813 0.593953C856.124 0.604716 855.422 0.615415 854.733 0.626178C855.146 0.601754 855.514 0.5779 855.95 0.553062C860.922 0.605429 862.062 0.546054 866.609 0.550193ZM1014.44 0.454678C1015.34 0.507759 1008.14 0.539326 1015.22 0.547813C1013.88 0.582687 1011.72 0.60098 1007.57 0.604085C1006.91 0.590747 1006.24 0.577507 1005.58 0.56417C1005.49 0.59986 1004.42 0.613125 1002.09 0.638568C1002.09 0.638527 1002.09 0.638486 1002.08 0.638446C995.783 0.641029 996.16 0.62913 994.645 0.570456C1001.32 0.603573 1001.51 0.549966 1006.06 0.51809C1009.18 0.496171 1013.26 0.506098 1014.44 0.454678ZM350.834 0.576803C346.117 0.621611 350.35 0.663405 341.98 0.615803C342.52 0.604419 343.062 0.593131 343.602 0.581747C346.013 0.579988 348.423 0.578355 350.834 0.576803ZM1037.73 0.636615C1037.19 0.554447 1032.75 0.490486 1031.99 0.624164C1036.32 0.651382 1034.2 0.575662 1037.73 0.636615ZM797.382 0.483851C805.706 0.487685 804.132 0.580425 800.71 0.626789C800.182 0.609919 799.654 0.59302 799.138 0.576254C797.68 0.583912 796.221 0.591586 794.763 0.599141C795.635 0.560746 796.509 0.522247 797.382 0.483851ZM1184.47 0.546348C1178.11 0.605028 1191.34 0.578983 1186.9 0.61562C1183.35 0.644905 1178.67 0.585778 1180.44 0.548728C1181.67 0.547694 1183.04 0.546969 1184.46 0.546348C1184.46 0.546348 1184.47 0.546348 1184.47 0.546348ZM1147.66 0.563132C1148.71 0.625828 1147.2 0.607553 1152.23 0.596272C1153.66 0.593064 1165.07 0.616611 1160.28 0.564658C1156.2 0.564658 1151.9 0.563753 1147.66 0.563132ZM701.164 0.575583C701.087 0.54828 709.87 0.488328 710.997 0.503321C710.997 0.50328 710.997 0.503239 710.997 0.503198C714.04 0.544077 704.776 0.549886 708.794 0.605977C699.896 0.556619 697.234 0.676006 697.854 0.518701C703.096 0.5118 700.614 0.544226 701.164 0.575583ZM33.5579 0.542137C33.5539 0.542137 33.5498 0.542137 33.5457 0.542137C34.1354 0.543421 38.9949 0.583491 38.404 0.597371C32.5602 0.585471 33.6016 0.559095 28.1612 0.602437C27.8629 0.588477 27.6074 0.574937 27.2862 0.560874C29.4449 0.552594 30.6414 0.535824 33.5579 0.542137ZM306.467 0.522363C308.614 0.515222 312.533 0.544812 314.978 0.543052C307.193 0.656685 297.891 0.550722 306.467 0.522363ZM1473.9 0.590841C1473.89 0.590881 1473.88 0.590922 1473.88 0.590963C1473.88 0.590901 1473.88 0.590841 1473.88 0.59078C1473.89 0.5908 1473.89 0.59082 1473.9 0.590841ZM472.855 0.590535C472.578 0.583159 472.421 0.576752 472.365 0.571127C472.365 0.570598 472.365 0.570069 472.365 0.56954C472.515 0.576447 472.674 0.583432 472.855 0.590535ZM682.912 0.583822C679.254 0.545744 691.441 0.485209 695.382 0.499659C695.106 0.517038 695.063 0.532794 694.421 0.552757C691.24 0.507751 683.52 0.590238 682.912 0.583822ZM960.765 0.569846C951.131 0.568811 963.669 0.418466 964.185 0.538414C964.166 0.540738 961.014 0.569641 960.765 0.569846ZM758.882 0.568076C761.337 0.522558 756.404 0.51047 764.291 0.518334C764.75 0.530125 765.209 0.541943 765.668 0.553733C763.407 0.558492 761.144 0.563316 758.882 0.568076ZM897.656 0.372468C885.531 0.397822 873.935 0.442552 881.833 0.568076C882.751 0.564044 883.681 0.560145 884.598 0.556113C884.736 0.494874 888.122 0.528302 893.079 0.530297C893.786 0.505984 896.535 0.500362 897.05 0.479701C898.048 0.439763 894.889 0.411685 897.656 0.372468ZM1409.55 0.472133C1409.35 0.482586 1409.16 0.493093 1408.96 0.503443C1407.05 0.515241 1405.12 0.526982 1403.21 0.53878C1403.52 0.518721 1403.83 0.498662 1404.14 0.478603C1405.94 0.47643 1407.73 0.474244 1409.53 0.472072C1409.54 0.472092 1409.54 0.472113 1409.55 0.472133ZM582.099 0.435758C580.998 0.55081 584.847 0.52962 592.654 0.471462C589.14 0.45956 585.612 0.447659 582.099 0.435758ZM1092.49 0.419096C1092.74 0.451782 1092.99 0.484367 1093.25 0.517053C1097.4 0.483004 1096.63 0.445572 1094.64 0.402312C1093.92 0.407895 1093.21 0.413513 1092.49 0.419096ZM1152.2 0.405181C1150.48 0.398362 1151.35 0.424753 1151.17 0.424223C1146.82 0.410355 1146.21 0.398249 1140.87 0.41812C1140.22 0.425052 1139.57 0.432342 1138.92 0.439481C1141.39 0.507971 1143.18 0.470642 1148.4 0.510889C1147.46 0.487396 1146.52 0.463871 1145.58 0.440274C1148.49 0.445241 1151.38 0.450139 1154.28 0.455105C1154.63 0.447861 1154.97 0.440683 1155.32 0.433439C1154.28 0.424127 1153.22 0.413664 1152.2 0.405181ZM1431.72 0.501856C1434.54 0.504547 1437.38 0.507343 1440.21 0.510034C1440.31 0.493166 1440.41 0.476184 1440.51 0.459316C1437.59 0.473491 1434.65 0.487681 1431.72 0.501856ZM524.105 0.488185C523.882 0.494168 523.663 0.500188 523.469 0.506311C523.488 0.498849 523.733 0.493024 524.105 0.488185ZM26.1053 0.449612C22.9023 0.437816 18.2867 0.445562 14.7733 0.443082C15.0495 0.485399 23.9792 0.473702 27.1149 0.499353C27.6187 0.49176 27.4592 0.454576 26.1053 0.449612ZM808.897 0.487574C809.701 0.466465 810.503 0.445455 811.296 0.424345C813.236 0.426622 815.181 0.429026 817.133 0.431303C817.191 0.414019 817.247 0.396587 817.304 0.379303C808.706 0.401757 810.688 0.351919 806.431 0.302769C807.258 0.364335 808.071 0.425905 808.897 0.487574ZM1521.59 0.392242C1515.38 0.403936 1513.18 0.425779 1516.68 0.477626C1518.87 0.465728 1521.08 0.45382 1523.27 0.441922C1522.71 0.425368 1522.14 0.408797 1521.59 0.392242ZM410.976 0.449124C405.778 0.468497 405.691 0.398915 400.61 0.437772C403.331 0.450602 406.051 0.463575 408.761 0.476405C409.493 0.467334 410.243 0.458197 410.976 0.449124ZM665.92 0.258032C663.727 0.233826 659.627 0.348891 653.462 0.263953C651.993 0.289303 651.072 0.313517 649.809 0.338351C649.074 0.311339 648.24 0.283983 647.539 0.257178C647.535 0.257178 647.531 0.257178 647.527 0.257178C641.935 0.266285 645.561 0.300162 645.434 0.32883C645.375 0.340714 641.225 0.320848 642.522 0.346712C644.761 0.39111 653.127 0.36558 653.15 0.419707C650.211 0.402017 644.471 0.416799 646.169 0.452908C648.029 0.492542 653.438 0.42612 656.883 0.459011C651.946 0.372502 662.142 0.399224 663.301 0.465664C669.283 0.414643 663.785 0.39383 657.654 0.396209C661.397 0.345292 655.887 0.372801 654.98 0.330478C658.839 0.304929 672.085 0.326226 665.92 0.258032ZM948.154 0.351839C944.02 0.355122 937.56 0.326019 934.73 0.368989C933.081 0.394024 939.555 0.41341 935.091 0.452725C939.119 0.448892 940.038 0.433534 939.349 0.399078C940.267 0.394941 941.197 0.390905 942.115 0.386871C942.54 0.393594 942.975 0.400228 943.4 0.406951C943.882 0.392774 944.367 0.37871 944.838 0.364533C945.813 0.367326 946.8 0.370122 947.775 0.373017C947.889 0.365889 948.085 0.359685 948.154 0.351839ZM261.721 0.45126C262.868 0.450846 264.005 0.450435 265.153 0.449917C265.027 0.441526 264.876 0.432787 264.731 0.424162C264.627 0.417347 264.523 0.410531 264.419 0.403716C265.084 0.428066 270.553 0.468536 272.857 0.442533C274.015 0.429488 271.379 0.383176 276.289 0.375092C272.731 0.377474 269.434 0.383794 265.979 0.387726C266.289 0.373961 266.587 0.360049 266.897 0.346285C266.895 0.346265 266.893 0.346244 266.891 0.346224C265.743 0.34312 264.582 0.339868 263.434 0.336764C262.86 0.374953 262.295 0.413071 261.721 0.45126ZM1089.12 0.354463C1085.21 0.381475 1083.9 0.395502 1085.75 0.439176C1085.75 0.439196 1085.75 0.439216 1085.76 0.439237C1087.22 0.419887 1088.68 0.400545 1090.13 0.381195C1089.8 0.372295 1089.47 0.363364 1089.12 0.354463ZM490.379 0.344027C482.054 0.50992 500.801 0.408225 497.232 0.351717C497.071 0.349129 491.16 0.362345 490.379 0.344027ZM795.852 0.432828C798.137 0.431483 800.427 0.430268 802.723 0.428922C802.195 0.408534 801.655 0.388217 801.126 0.367829C799.37 0.389459 797.609 0.411198 795.852 0.432828ZM1494.55 0.316928C1492.14 0.271391 1485.97 0.254893 1482.95 0.304417C1484.54 0.310212 1486.12 0.316015 1487.71 0.321811C1484.71 0.327501 1481.75 0.333764 1478.73 0.339144C1478.57 0.402585 1482.05 0.36578 1487.28 0.38327C1488.09 0.386091 1493.28 0.464839 1495.07 0.405486C1495.43 0.393287 1489.91 0.384992 1493.75 0.34952C1492.07 0.346728 1490.62 0.347347 1489.04 0.345797C1488.93 0.330687 1488.81 0.31556 1488.69 0.30045C1490.64 0.305921 1492.59 0.311458 1494.55 0.316928ZM924.083 0.356782C918.404 0.353282 917.702 0.37863 916.52 0.42343C919.161 0.418358 921.803 0.413365 924.444 0.408294C924.318 0.391159 924.209 0.37402 924.083 0.356782ZM1443.79 0.302403C1440.68 0.295075 1442.01 0.33154 1440.76 0.338473C1436.03 0.364548 1432.8 0.338487 1428.13 0.354829C1428.44 0.347792 1428.72 0.341214 1429.02 0.334384C1429.02 0.334384 1429.01 0.334384 1429.01 0.334384C1406.88 0.30365 1418.51 0.386349 1431.74 0.372895C1432.05 0.386452 1432.35 0.400027 1432.66 0.413481C1438.59 0.389783 1444.05 0.366979 1443.79 0.302403ZM564.336 0.338351C564.084 0.329865 566.231 0.275935 562.201 0.301182C559.01 0.379922 564.243 0.340841 565.554 0.371125C564.463 0.37868 563.347 0.38603 562.268 0.393585C568.79 0.415836 569.742 0.397113 567.365 0.339571C567.195 0.335704 564.589 0.34681 564.336 0.338351ZM521.474 0.299534C520.579 0.415549 528.81 0.36338 528.511 0.327365C527.375 0.325929 526.491 0.345572 525.286 0.336886C524.069 0.328194 523.758 0.301095 521.474 0.299534ZM757.285 0.327914C757.044 0.327397 754.622 0.278637 754.862 0.316806C757.859 0.407155 763.898 0.349 762.841 0.317539C760.844 0.319095 759.512 0.332652 757.285 0.327792C757.285 0.327833 757.285 0.327874 757.285 0.327914ZM1532.01 0.289586C1531.89 0.286349 1525.85 0.266751 1525.07 0.284948C1524.43 0.305435 1524.11 0.327393 1523.62 0.348604C1526.95 0.328941 1533.69 0.34392 1531.99 0.289586C1532 0.289586 1532 0.289586 1532.01 0.289586Z" fill="#482812"/>
</svg>
