<svg width="713" height="2" viewBox="0 0 713 2" fill="none" xmlns="http://www.w3.org/2000/svg">
<path d="M653.794 1.80665C655.405 1.89684 650.027 1.83772 653.598 1.97241C652.853 1.98151 652.104 1.9909 651.36 2C651.171 1.95012 650.977 1.90035 650.788 1.85047C651.788 1.83578 652.789 1.8211 653.794 1.80641C653.794 1.80649 653.794 1.80657 653.794 1.80665ZM655.159 1.18193C654.243 1.3242 651.331 1.36214 654.476 1.49343C654.726 1.4446 654.983 1.39579 655.233 1.34696C656.325 1.38483 657.423 1.42269 658.515 1.46035C658.908 1.44174 659.3 1.4231 659.693 1.40469C660.193 1.48954 660.689 1.57463 661.189 1.65968C660.745 1.64727 660.295 1.63463 659.851 1.62221C658.095 1.69112 656.533 1.70996 654.15 1.72279C654.359 1.74287 654.569 1.76277 654.778 1.78285C653.569 1.7487 652.36 1.71446 651.156 1.68031C652.202 1.64679 653.371 1.60951 654.34 1.57827C652.789 1.44522 650.053 1.51927 648.629 1.54702C646.689 1.5849 647.128 1.52163 645.689 1.54812C645.459 1.55226 645.433 1.60184 644.979 1.60268C642.687 1.60661 638.236 1.58033 640.839 1.46463C644.611 1.47953 647.828 1.38662 651.528 1.42056C650.549 1.28677 652.499 1.24125 655.159 1.18193ZM585.868 1.60793C587.011 1.54295 589.339 1.56917 590.916 1.61428C590.917 1.61428 590.919 1.61428 590.921 1.61428C591.268 1.62421 592.054 1.71056 590.921 1.70705C589.074 1.70102 588.181 1.56509 587.211 1.65737C586.777 1.64019 586.322 1.6249 585.868 1.60793ZM581.853 1.61599C580.72 1.58266 581.234 1.48024 582.653 1.50796C582.653 1.50788 582.653 1.5078 582.653 1.50771C583.245 1.51931 582.083 1.60026 584.206 1.51809C584.639 1.58202 585.066 1.64018 585.495 1.70204C584.975 1.70308 584.501 1.70475 583.956 1.70558C584.323 1.6005 582.986 1.64905 581.853 1.61599ZM638.924 1.52248C638.746 1.61702 639.492 1.61642 640.763 1.68202C639.564 1.67892 638.364 1.67561 637.17 1.6725C637.757 1.62243 638.338 1.57255 638.924 1.52248ZM667.099 1.53713C667.101 1.53713 667.103 1.53713 667.105 1.53713C667.498 1.52223 667.892 1.50727 668.28 1.49258C668.515 1.52632 668.747 1.55991 668.982 1.59365C670.37 1.56198 671.766 1.53031 673.154 1.49844C672.985 1.6015 670.493 1.58473 669.12 1.65676C667.079 1.62571 666.095 1.56588 665.962 1.47854C666.34 1.49799 666.717 1.51768 667.099 1.53713ZM333.224 1.12626C332.76 1.15482 332.301 1.1834 331.837 1.21195C332.454 1.22499 333.067 1.23493 333.689 1.25004C335.317 1.12586 335.47 1.2357 337.603 1.22807C344.141 1.20447 342.406 1.01161 348.311 1.2941C343.57 1.28066 345.392 1.4134 342.534 1.51565C341.942 1.43782 344.774 1.2623 342.855 1.22587C339.548 1.30823 336.368 1.38495 332.699 1.43814C332.806 1.45159 332.913 1.46509 333.02 1.47854C333.602 1.47006 334.179 1.46152 334.761 1.45303C334.133 1.48905 333.519 1.52475 332.881 1.56118C333.688 1.47943 331.632 1.52511 331.907 1.43118C332.03 1.38937 332.938 1.33137 333.474 1.29142C332.091 1.26969 330.673 1.24978 329.275 1.22868C329.999 1.19536 330.723 1.16202 331.442 1.12871C332.034 1.12767 332.621 1.12693 333.213 1.1259C333.217 1.12602 333.22 1.12614 333.224 1.12626ZM35.5717 1.56093C37.3275 1.46365 40.5181 1.44755 42.1973 1.55581C39.9873 1.55746 37.7817 1.55928 35.5717 1.56093ZM665.829 1.40652C666.028 1.42306 666.221 1.43942 666.419 1.45596C665.542 1.48659 664.659 1.517 663.781 1.54763C663.613 1.49984 663.441 1.45203 663.267 1.40445C664.119 1.40507 664.977 1.4059 665.829 1.40652ZM609.675 1.45974C610.317 1.45685 610.374 1.45842 611.173 1.46524C611.172 1.4652 611.171 1.46516 611.171 1.46511C611.488 1.46766 614.14 1.49558 613.844 1.53237C612.527 1.53299 611.123 1.53237 609.775 1.53237C609.735 1.50817 609.726 1.48415 609.675 1.45974ZM625.175 1.48123C625.177 1.48131 625.179 1.48139 625.181 1.48147C625.66 1.48706 626.114 1.49844 626.609 1.50051C624.828 1.55843 624.546 1.45452 622.929 1.48391C621.311 1.51351 620.311 1.57084 618.939 1.4285C619.449 1.40718 619.998 1.37668 620.524 1.35184C622.821 1.40875 623.439 1.35519 625.281 1.29911C625.246 1.35995 625.211 1.42038 625.175 1.48123ZM362.332 1.41421C362.771 1.34385 363.26 1.41289 363.311 1.41373C363.31 1.41381 363.309 1.41389 363.308 1.41397C367.196 1.3488 362.802 1.45292 366.472 1.46389C365.926 1.48148 365.389 1.50005 364.848 1.51785C364.011 1.48391 363.148 1.44546 362.332 1.41421ZM488.651 1.42081C488.687 1.4413 488.73 1.46183 488.765 1.48233C486.561 1.47756 485.998 1.55823 484.166 1.48477C485.661 1.46324 487.156 1.44188 488.651 1.42056C488.651 1.42064 488.651 1.42072 488.651 1.42081ZM598.561 1.3107C601.006 1.27158 602.815 1.25435 605.162 1.31644C605.164 1.31652 605.166 1.3166 605.168 1.31668C605.303 1.32051 604.648 1.36338 604.825 1.37418C605.31 1.36776 605.81 1.35791 606.299 1.35025C606.366 1.38458 606.429 1.41891 606.495 1.45303C605.117 1.4433 603.739 1.43358 602.356 1.42386C602.56 1.44393 602.769 1.46384 602.973 1.48391C601.799 1.49426 600.63 1.50457 599.456 1.51492C599.864 1.45864 600.272 1.40234 600.675 1.34586C599.971 1.33406 599.265 1.3227 598.561 1.3107ZM451.944 1.19657C452.332 1.21893 451.613 1.25642 452.216 1.27567C452.818 1.29468 453.928 1.25296 453.668 1.31607C452.857 1.32455 452.006 1.33428 451.179 1.34317C453.838 1.45698 456.491 1.354 456.532 1.49453C453.98 1.4581 451.882 1.47503 449.411 1.51394C449.514 1.40239 451.985 1.30593 450.429 1.20121C450.929 1.19976 451.454 1.19765 451.938 1.19682C451.94 1.19674 451.942 1.19665 451.944 1.19657ZM701.547 0.00766721C703.057 0.0161536 706.519 -0.0293734 708.428 0.0356199C708.897 0.0516366 710.462 0.259113 710.454 0.286462C710.408 0.378568 708.497 0.391105 710.544 0.451127C709.855 0.45175 709.187 0.455208 708.504 0.456864C708.627 0.518752 708.748 0.580476 708.866 0.642157C709.698 0.632843 710.531 0.623482 711.363 0.61396C711.404 0.634452 711.444 0.654989 711.485 0.675481C708.494 0.675895 710.26 0.754985 708.708 0.828671C710.137 0.86592 711.576 0.902989 713 0.940238C712.178 0.935685 711.209 0.932313 710.484 0.926933C710.387 1.03186 712.116 1.00685 712.413 1.02629C714.081 1.13619 705.585 1.08073 704.889 1.23344C706.247 1.25041 707.671 1.26697 709.059 1.28373C708.661 1.30256 708.258 1.32141 707.859 1.34024C704.711 1.23492 701.18 1.1976 697.51 1.132C697.179 1.13634 696.847 1.1408 696.52 1.14494C696.617 1.19232 696.709 1.23952 696.806 1.2869C696.306 1.29249 695.799 1.29803 695.299 1.30362C696.774 1.14757 694.732 1.1497 692.266 1.05449C693.578 0.999649 695.196 1.0329 695.084 0.930717C690.583 1.00933 685.311 0.89823 680.933 0.986989C679.846 1.00893 679.849 1.14074 677.293 1.12858C677.38 1.11409 677.395 1.08794 677.451 1.06889C673.031 1.13202 670.349 1.16976 665.756 1.10539C666.021 1.15277 666.282 1.20034 666.547 1.24772C667.522 1.22412 668.499 1.20015 669.468 1.17655C670.132 1.25479 669.151 1.28931 672.06 1.28849C674.444 1.28787 673.025 1.25332 673.673 1.23014C674.551 1.19849 675.321 1.26075 676.265 1.22538C676.995 1.19827 676.206 1.13371 678.109 1.15007C677.344 1.23369 676.563 1.32004 675.792 1.40469C675.328 1.38586 674.867 1.36673 674.402 1.34769C674.872 1.32533 675.333 1.30327 675.803 1.28092C674.149 1.32107 672.587 1.35894 670.877 1.40054C671.434 1.27966 669.666 1.32498 668.707 1.33927C667.212 1.3616 668.493 1.2784 667.513 1.29227C666.533 1.30635 665.476 1.39929 663.705 1.37943C664.654 1.32562 663.363 1.27737 663.612 1.2277C663.863 1.17803 665.736 1.16704 663.936 1.11284C660.476 1.15403 664.231 1.34317 661.894 1.37381C659.087 1.41065 658.419 1.10234 659.255 1.03606C659.914 0.983898 662.179 0.994389 662.843 0.942435C658.785 0.848676 658.75 1.03377 658.056 1.06999C655.535 1.20183 657.228 0.849946 654.243 0.977224C654.299 0.91142 654.344 0.852235 654.4 0.789123C653.885 0.801126 653.543 0.817079 652.921 0.826596C654.756 0.95481 653.254 0.949315 652.483 0.949515C651.268 0.949929 653.144 1.01247 652.823 1.02861C651.955 1.07182 650.583 1.0522 651.425 1.10869C651.047 1.0824 650.638 1.05604 650.25 1.02996C648.831 1.06271 645.495 1.33736 648.67 1.2819C648.374 1.38394 647.347 1.33489 646.545 1.31937C645.744 1.30386 645.759 1.36885 645.055 1.35684C642.253 1.30882 644.086 1.19766 644.53 1.11052C640.83 1.17054 644.452 1.21025 639.12 1.2504C638.605 1.3214 641.068 1.39715 639.017 1.43814C638.639 1.3148 637.128 1.2262 634.183 1.18522C633.898 1.21358 633.612 1.24219 633.327 1.27054C631.719 1.1567 632.541 1.03832 629.565 1.17948C631.163 0.919724 630.064 1.08591 627.4 0.980153C626.859 0.958834 628.109 0.904941 627.354 0.877619C627.011 0.865298 626.18 0.905978 625.344 0.874568C624.936 0.859045 623.027 0.758886 621.705 0.806456C622.675 0.932303 620.163 1.03936 622.317 1.14348C618.336 1.11781 615.549 1.17823 620.01 1.00664C619 0.968556 617.988 0.930633 616.978 0.892755C616.273 0.922768 615.563 0.952544 614.853 0.98235C614.746 0.878919 614.854 0.849904 612.079 0.868098C613.283 0.843686 614.482 0.818868 615.691 0.794249C615.732 0.773363 615.9 0.751655 615.86 0.731386C614.379 0.771112 610.209 0.788209 609.199 0.815733C608.188 0.843262 610.14 0.850796 609.849 0.877497C607.425 1.09768 607.617 0.935286 605.878 0.973073C604.857 0.995428 607.294 1.0197 606.748 1.02922C604.723 1.06412 603.784 0.947101 601.988 0.945609C602.626 1.01203 603.259 1.07948 603.881 1.14653C601.998 1.14301 599.898 1.14242 598.148 1.16374C597.461 1.17206 597.98 1.22146 597.868 1.22477C597.311 1.24174 595.045 1.26863 594.805 1.26884C592.999 1.26923 592.948 1.20081 591.193 1.19706C591.882 1.19127 592.53 1.18605 593.203 1.18046C593.509 1.06953 593.822 0.958606 594.128 0.847469C592.408 0.839398 590.688 0.831494 588.963 0.823423C590.223 0.860467 591.488 0.897335 592.749 0.934379C590.779 1.024 588.809 1.11383 586.839 1.20365C585.813 1.1486 584.791 1.09355 583.765 1.0385C580.979 1.05302 581.54 1.27651 580.218 1.08073C579.397 1.09728 578.576 1.11383 577.754 1.13017C577.871 1.10224 577.988 1.07425 578.105 1.04631C577.115 1.06349 576.125 1.08056 575.135 1.09795C576.176 1.19687 577.197 1.30097 578.227 1.397C576.279 1.4185 576.242 1.33458 575.951 1.31363C575.18 1.25816 573.65 1.33298 573.038 1.28165C572.831 1.26403 574.74 1.20878 574.082 1.14506C573.954 1.13271 571.397 0.898484 569.766 0.952567C569.797 0.994999 569.923 1.04703 569.989 1.09318C567.795 1.11896 566.676 0.897469 566.967 0.835385C565.798 0.878848 564.09 0.88248 563.85 0.950369C563.253 0.952025 562.66 0.953596 562.063 0.955252C562.686 0.789909 560.195 0.820143 560.032 0.962332C561.057 0.965851 562.085 0.969555 563.11 0.973073C562.335 1.14735 565.452 1.25255 558.965 1.09111C557.725 1.00045 561.17 1.10346 560.159 1.03557C558.404 0.996055 556.756 1.02912 555.087 0.965994C553.01 0.887138 555.565 0.811293 550.727 0.911675C561.399 1.16316 549.263 1.08156 544.251 1.15959C542.873 0.911205 538.64 0.832533 532.811 0.906426C533.418 0.975555 535.252 0.939939 536.309 0.962698C537.365 0.985463 536.222 1.02647 537.538 1.05876C538.855 1.09104 541.651 1.13493 542.983 1.18376C541.855 1.22288 536.283 1.31538 539.967 1.20426C537.217 1.13577 535.926 1.06538 532.517 1.05254C531.497 1.16037 531.572 1.22752 528.25 1.23063C530.215 1.08078 526.439 0.976641 527.271 0.821836C529.627 0.857892 528.31 1.00835 529.672 1.08037C529.812 1.08757 532.007 1.04985 532.517 1.05254C530.302 0.917377 529.536 0.867068 530.899 0.706241C529.332 0.720316 528.357 0.700125 528.214 0.776916C527.888 0.743602 527.56 0.71026 527.238 0.676946C526.728 0.677775 526.269 0.680859 525.728 0.680241C526.473 0.796077 525.03 0.724769 524.004 0.777282C522.978 0.829857 524.355 0.921297 521.537 0.922539C522.476 0.949654 523.335 0.972919 524.243 0.998585C522.427 1.02839 520.604 1.05838 518.787 1.08818C520.063 1.15896 522.829 1.26409 522.753 1.35721C521.916 1.32205 519.049 1.38384 518.736 1.38638C517.521 1.3959 518.183 1.33718 518.091 1.33573C516.183 1.30719 514.611 1.32718 513.886 1.2382C512.452 1.27835 511.371 1.25546 509.85 1.25773C509.013 1.25897 509.176 1.32433 508.686 1.31192C505.43 1.22914 508.532 1.14467 502.251 1.30545C503.011 1.35099 503.761 1.39756 504.522 1.44351C503.812 1.46069 503.107 1.47796 502.397 1.49514C501.923 1.48686 501.452 1.47852 500.978 1.47024C500.988 1.37152 501 1.27259 501.01 1.17387C500.49 1.16849 499.967 1.16326 499.446 1.15788C500.34 1.14815 501.235 1.13843 502.128 1.12871C502.21 1.11133 502.286 1.09396 502.367 1.07658C501.04 1.04968 499.718 1.02253 498.391 0.995411C498.366 1.02975 498.34 1.06434 498.315 1.09868C495.324 1.05087 495.253 1.02179 492.41 1.11638C490.22 1.11534 488.437 1.25893 487.172 1.31937C486.717 1.30012 486.263 1.28063 485.803 1.26139C485.513 1.28995 485.219 1.31839 484.928 1.34696C484.351 1.30722 483.766 1.26747 483.19 1.22794C482.868 1.31814 482.702 1.3463 484.952 1.37796C484.181 1.49014 480.22 1.44065 478.607 1.40298C477.383 1.3744 478.741 1.28083 478.588 1.26945C478.077 1.23078 476.06 1.26414 475.637 1.25773C473.845 1.23103 472.59 1.2357 470.972 1.215C470.657 1.21086 469.776 1.15156 469.702 1.1497C469.12 1.13956 467.684 1.11074 467.52 1.10991C459.096 1.06564 468.098 1.32292 460.264 1.29581C460.499 1.32974 460.714 1.36344 460.944 1.39737C460.352 1.39944 459.754 1.4014 459.162 1.40347C458.412 1.37512 459.32 1.32355 457.83 1.36514C457.927 1.32334 458.024 1.28151 458.126 1.23991C457.478 1.26247 456.853 1.28485 456.189 1.30741C455.148 1.16232 451.347 1.12937 451.617 0.959036C451.709 0.90108 454.404 0.841612 452.98 0.779724C451.823 0.767541 452.606 0.836758 452.134 0.84039C448.725 0.865642 448.923 0.768621 447.529 0.794493C447.31 0.836074 447.079 0.878469 446.855 0.920464C446.329 0.908258 445.802 0.89605 445.272 0.883844C445.149 0.911787 445.022 0.93976 444.899 0.967703C445.394 0.969565 445.952 0.971455 446.406 0.973318C445.773 1.08155 439.956 1.13016 442.174 1.03789C443.077 1.00043 444.732 1.01635 443.686 0.888483C442.13 0.906903 440.363 0.925724 438.725 0.944144C438.674 0.916615 438.627 0.889036 438.576 0.861507C436.368 0.879327 438.376 0.989394 438.372 1.04839C437.867 1.05004 437.356 1.05149 436.851 1.05315C436.637 1.02647 436.434 0.998554 436.209 0.972707C436.189 1.01516 435.906 1.11382 434.401 1.07719C433.433 1.05335 434.957 0.94626 433.111 0.961111C433.249 1.02733 433.916 1.10799 431.86 1.12932C431.656 1.0602 431.374 0.996883 431.216 0.924248C428.659 0.990646 427.496 0.883914 424.495 0.961111C422.591 1.00996 419.983 1.18337 418.753 0.916192C417.361 0.909158 417.802 0.975693 417.39 0.990651C415.446 1.06144 413.999 0.934751 413.637 0.927299C411.326 0.879534 410.29 0.923388 408.407 0.863582C408.509 0.913051 408.564 0.959878 408.646 1.00811C410.371 0.934005 411.245 0.937483 413.664 0.953421C412.853 0.963354 412.041 0.973516 411.23 0.983449C411.363 1.02359 411.494 1.06375 411.622 1.10368C419.104 0.945546 417.359 1.19539 411.086 1.25004C410.545 1.17574 409.984 1.10165 409.448 1.02715C405.825 1.13974 404.12 1.042 400.021 1.0186C399.534 1.01593 397.76 1.05872 396.997 1.06084C397.009 1.06112 397.022 1.06141 397.035 1.06169C396.56 1.13185 397.203 1.16414 397.28 1.22684C396.866 1.23471 396.453 1.24254 396.039 1.2504C395.116 1.2026 395.441 1.16334 393.624 1.17472C393.869 1.22232 394.111 1.26994 394.356 1.31754C392.365 1.31919 391.063 1.26748 389.21 1.28983C389.521 1.27182 389.829 1.25376 390.14 1.23576C386.108 1.1898 389.317 0.90994 386.27 1.04924C386.076 1.02483 385.887 1.00017 385.693 0.975759C386.948 0.969757 388.204 0.963939 389.455 0.957937C389.48 0.923385 389.508 0.88898 389.528 0.854427C388.186 0.864776 386.837 0.875448 385.494 0.885798C386.474 0.862615 387.46 0.839403 388.44 0.816221C386.884 0.799664 385.327 0.783097 383.77 0.766541C385.423 0.893599 383.28 0.909137 383.683 1.03496C380.927 0.930226 378.762 0.792166 374.49 0.880549C373.643 0.898155 374.103 0.986082 371.699 0.879084C372.281 1.01899 369.27 1.08464 369.657 1.21769C370.493 1.21128 371.361 1.20724 372.172 1.19938C371.249 1.15323 371.096 1.02626 372.499 0.988576C374.29 0.940558 376.903 1.02855 376.796 0.887628C377.511 0.89425 378.175 0.898156 378.869 0.903741C378.583 0.9387 378.304 0.973879 378.023 1.00884C379.997 0.95403 381.238 0.971853 382.187 1.05998C379.835 1.08026 377.487 1.10033 375.134 1.1204C375.481 1.1264 375.832 1.13244 376.179 1.13823C374.398 1.22826 376.235 1.31355 372.912 1.3328C372.933 1.29162 372.949 1.25041 372.969 1.20902C371.76 1.31914 368.448 1.31854 369.504 1.44522C368.504 1.40631 368.3 1.3817 367.734 1.44998C365.095 1.35373 363.4 1.23202 364.339 1.08672C363.36 1.1101 362.379 1.13352 361.405 1.1569C361.971 1.19663 362.538 1.23618 363.104 1.27591C361.4 1.27343 359.683 1.27099 357.983 1.26871C357.82 1.15116 361.264 1.23305 360.27 1.12797C360.071 1.10688 359.154 1.15206 358.913 1.14018C356.371 1.01165 360.362 1.10451 359.612 1.00603C355.825 0.975604 358.856 0.810591 353.639 0.949271C353.501 0.915333 353.353 0.880712 353.226 0.846981C351.415 0.844944 351.562 0.921602 350.006 0.936088C349.031 0.9451 347.807 0.810489 346.731 0.902154C346.539 0.919054 348.35 1.08358 344.544 1.07634C341.59 1.07073 342.82 0.954459 341.223 0.913262C339.625 0.872072 335.971 1.03329 334.894 0.850521C335.731 0.874728 336.797 0.887788 337.725 0.907647C338.103 0.872051 338.471 0.83684 338.843 0.801451C336.72 0.847399 334.525 0.793245 333.096 0.878107C330.263 0.748329 327.095 0.868762 327.953 1.01531C328.885 0.994179 327.871 0.930278 329.166 0.970998C329.299 1.00515 329.438 1.03914 329.571 1.07329C327.366 1.06915 325.835 1.07011 326.84 0.965994C326.498 0.96351 326.16 0.961032 325.818 0.958548C325.756 1.03389 325.702 1.10951 325.641 1.18485C325.233 1.19334 324.822 1.20176 324.414 1.21024C323.96 1.1937 323.505 1.17695 323.046 1.1602C323.664 1.04097 324.716 1.03704 321.235 0.970388C321.224 1.01158 321.209 1.0526 321.199 1.09379C318.285 1.04143 318.208 0.941651 314.549 0.945365C317.356 0.802356 318.892 1.05586 318.882 0.768982C319.586 0.787818 320.296 0.806906 321.001 0.825742C321.108 0.784138 321.214 0.742474 321.316 0.70087C317.535 0.722815 311.253 0.996424 308.721 0.815C308.414 0.83714 308.107 0.856386 307.796 0.880183C305.315 0.770687 304.244 1.01651 301.728 0.874934C301.468 0.860075 302.011 0.629121 298.736 0.637397C298.817 0.667414 298.86 0.717935 298.926 0.755799C298.217 0.737384 297.512 0.718113 296.807 0.699283C296.68 0.727008 296.546 0.754722 296.419 0.782653C297.628 0.793416 298.835 0.804359 300.044 0.815122C299.039 0.82464 298.027 0.834168 297.022 0.843685C298.334 0.888999 298.925 0.88948 298.135 0.962088C296.997 0.966434 295.857 0.971046 294.719 0.975393C294.601 0.993996 294.485 1.01282 294.368 1.03142C294.919 1.08689 295.476 1.14113 296.027 1.19743C293.062 1.1521 290.484 1.14964 288.207 1.04057C287.819 1.02215 289.191 0.949891 286.548 1.01506C286.507 0.976791 286.436 0.945713 286.39 0.910332C283.154 1.01755 282.091 0.985548 278.718 0.908135C280.902 0.980373 278.953 0.933391 278.397 0.972097C278.015 0.998764 279.503 0.994824 279.335 1.02275C279.167 1.05049 277.233 1.16247 278.886 1.17594C282.939 0.946398 284.043 1.22084 289.249 1.11052C288.448 1.14012 287.641 1.16978 286.839 1.19938C287.217 1.21944 287.554 1.23764 287.962 1.25895C285.059 1.21404 286.471 1.24322 285.278 1.2786C284.084 1.31399 281.913 1.34406 280.458 1.35379C280 1.35685 280.483 1.30536 279.449 1.30057C278.745 1.29726 276.82 1.37358 276.376 1.2836C276.085 1.22503 279.177 1.06375 274.902 1.06413C274.097 1.00671 276.147 1.02455 276.191 1.01763C276.563 0.949322 273.935 0.897965 272.72 0.950125C272.622 0.954625 273.581 1.00785 272.538 1.02873C270.063 1.07862 268.633 1.01758 267.03 0.934989C266.857 1.03186 264.774 1.14755 262.181 1.11174C262.048 1.13946 261.922 1.16742 261.789 1.19535C262.192 1.18068 262.594 1.1662 262.997 1.15153C263.436 1.16892 263.901 1.18157 264.329 1.20207C261.722 1.22589 261.353 1.35939 260.103 1.40823C255.824 1.57509 258.417 1.22213 259.189 1.1613C259.745 1.18593 260.283 1.21342 260.834 1.2393C260.773 1.20556 260.711 1.17156 260.655 1.13762C254.25 1.13865 259.679 0.918608 256.428 0.855892C255.591 1.02188 253.203 1.03788 250.162 0.932548C249.825 0.933376 249.487 0.933588 249.15 0.934623C249.094 0.958826 249.095 0.995821 249.003 1.01177C245.338 1.03992 244.685 0.784289 244.338 0.760071C242.797 0.652664 241.597 0.801276 241.143 0.80255C239.229 0.807724 238.672 0.741737 236.851 0.770081C234.891 0.800707 236.231 0.85134 235.635 0.896661C235.157 0.932653 233.611 0.939063 232.972 0.976369C233.226 0.945857 233.508 0.915936 233.761 0.885309C231.73 0.843713 230.07 0.803169 227.763 0.793029C225.161 1.01628 222.946 0.63968 223.844 0.945121C226.029 0.966026 227.25 1.00083 228.419 1.07866C226.985 1.08859 225.55 1.09827 224.116 1.1082C223.698 1.07468 223.401 1.04201 222.906 1.00786C221.834 1.07905 219.35 1.0485 218.374 1.06938C213.806 1.16728 215.22 1.28871 211.05 1.08464C214.055 1.06476 214.05 0.965641 217.031 0.979299C216.388 0.908512 214.873 0.923178 215.853 0.838315C212.97 0.859217 213.902 0.934983 212.78 1.00225C211.812 1.06023 209.863 1.06348 209.973 1.13884C209.773 1.09741 209.619 1.0573 209.421 1.01592C207.553 1.01633 205.685 1.01636 203.818 1.01677C204.614 0.973519 205.41 0.930187 206.206 0.88714C205.604 0.870804 205.001 0.854529 204.4 0.838192C199.806 0.97273 191.885 0.726157 193.15 1.06413C190.935 1.0749 190.658 1.03251 189.454 0.968557C189.321 0.994215 189.192 1.01556 189.06 1.04411C187.631 1.01725 186.534 1.11359 185.274 1.08855C184.013 1.0637 183.7 0.972706 183.517 1.12565C182.7 1.08178 181.888 1.04534 181.077 1.00457C180.587 1.03931 180.098 1.07366 179.614 1.1082C178.848 1.08999 178.081 1.07185 177.315 1.05364C176.906 1.12665 173.896 1.09518 172.569 1.14421C171.309 1.06551 171.344 0.817713 168.38 0.862117C168.457 0.923575 168.532 0.984854 168.609 1.04631C167.93 1.03348 167.25 1.02069 166.566 1.00786C166.526 0.987803 166.49 0.967743 166.449 0.947684C166.796 0.953892 167.139 0.960067 167.486 0.966482C167.184 0.932536 166.89 0.898748 166.593 0.864802C165.558 0.915091 164.52 0.965385 163.479 1.01567C164.883 1.05375 166.286 1.09185 167.69 1.12993C165.929 1.17505 164.703 1.13004 163.172 1.18034C161.84 1.09549 162.332 1.0466 162.873 0.95452C162.378 0.962382 161.877 0.969972 161.382 0.977834C161.709 0.885742 160.872 0.83087 163.765 0.838315C163.566 0.812048 163.363 0.787005 163.169 0.759705C162.695 0.763844 162.387 0.741642 161.866 0.751771C160.447 0.779507 159.36 0.941261 159.457 0.997975C159.509 1.02768 160.908 0.970869 160.852 1.01287C160.713 1.11528 157.504 1.0693 162.133 1.17216C160.597 1.23736 160.253 1.18819 158.559 1.16935C158.692 1.20348 158.82 1.23739 158.948 1.27152C158.162 1.2558 157.376 1.24013 156.59 1.2244C157.682 1.0491 151.889 0.983251 157.104 0.829892C155.563 0.822028 154.027 0.814123 152.491 0.805845C152.807 0.787842 153.124 0.770019 153.44 0.752015C154.134 0.761535 154.824 0.770899 155.518 0.780212C154.702 0.747312 153.884 0.714606 153.068 0.681706C151.138 0.722482 150.382 0.785195 149.499 0.862605C151.744 0.919095 151.011 0.841932 152.76 0.826596C152.699 0.87562 152.78 0.920713 152.627 0.972219C151.723 0.870674 148.774 0.944548 148.09 0.949515C146.009 0.964598 147.641 0.864825 146.249 0.862727C144.855 0.860658 143.212 0.920042 142.074 0.821103C142.094 0.876558 142.185 0.933933 142.267 0.984425C140.098 1.00264 140.53 0.937128 140.306 0.928642C136.723 0.789139 134.779 0.906914 130.68 0.921196C131.201 0.938373 131.727 0.953879 132.252 0.970022C129.16 1.08776 131.243 1.05171 133.928 1.09062C131.412 1.07882 129.97 1.1791 128.194 1.2089C126.418 1.23866 123.373 1.18716 122.26 1.14701C124.806 1.08244 127.553 1.12502 130.381 1.10722C130.06 1.05073 129.747 1.00292 129.416 0.940848C127.696 1.05942 126.699 0.980137 126.133 0.964407C124.469 0.918272 124.521 1.02004 123.516 0.910577C123.557 0.948232 123.587 0.979893 123.628 1.01506C120.193 0.999334 116.488 0.932762 114.252 1.07182C114.048 0.98138 113.894 0.894244 113.659 0.801939C112.205 0.870021 110.959 0.800303 109.735 0.816221C108.515 0.832158 108.979 0.90525 107.545 0.933403C107.28 0.938577 106.727 0.892828 106.074 0.926567C105.414 0.960484 102.981 1.21267 102.69 0.99236C101.46 0.991324 100.296 0.983268 99.0916 0.979543C100.265 0.967125 101.44 0.955097 102.608 0.942679C101.608 0.889284 100.614 0.836048 99.6139 0.782653C99.4863 0.83026 99.3583 0.878727 99.2358 0.925713C96.5409 0.983667 94.5853 0.905831 91.8649 0.924248C91.4107 0.927352 92.4823 1.02147 90.4669 0.997486C88.451 0.973478 86.9549 0.797802 83.5204 0.865657C83.3468 0.869176 82.3297 1.00372 81.0997 0.910577C80.8198 0.889466 81.9979 0.85823 81.3553 0.830502C80.7122 0.802766 77.8428 0.779959 77.6182 0.713931C77.6488 0.737314 77.8279 0.761542 77.9147 0.785339C77.4249 0.796512 76.93 0.807695 76.4351 0.818662C76.3892 0.777478 76.3396 0.736233 76.2936 0.695255C73.4764 0.791085 72.0204 0.947409 67.8457 0.895685C69.0195 0.955498 70.1938 1.01555 71.3625 1.07536C71.6841 1.03335 72.0062 0.991045 72.3226 0.949027C74.2465 0.96579 76.1758 0.982432 78.0996 0.999195C78.4161 0.951382 78.727 0.903705 79.0434 0.855892C79.5537 0.8621 80.059 0.868116 80.5693 0.874323C80.4417 0.908888 80.313 0.94327 80.1804 0.977834C81.1907 0.96935 82.2023 0.960685 83.2076 0.9522C81.161 1.15623 77.4923 0.934846 77.7569 1.10551C77.3029 1.07903 76.8483 1.05237 76.3943 1.02568C76.1952 1.10844 75.2719 1.08462 73.6445 1.07158C74.0171 1.11236 74.4285 1.15258 74.7705 1.19377C73.1883 1.13623 70.3816 1.14182 68.7433 1.11967C68.0237 1.10995 68.7425 1.04995 68.5284 1.04289C67.431 1.00605 65.3336 1.11074 64.8947 1.10246C62.2713 1.05319 60.5666 0.854714 57.7033 0.985524C60.6586 1.01781 59.0508 1.00418 60.1022 1.07683C60.4314 1.09961 64.2492 1.14712 59.4685 1.12602C58.908 1.12338 50.2335 0.986246 53.085 0.881159C51.6814 0.914691 50.5824 0.953462 49.2962 0.989064C46.1521 0.712118 47.2402 0.972289 48.1538 1.11552C47.6383 1.11614 47.1479 1.1176 46.6171 1.1176C47.7451 0.967119 41.9983 0.957776 40.0486 1.03374C39.3954 1.05899 41.222 1.10716 39.7113 1.12993C38.992 1.11937 38.1759 1.10571 37.4158 1.09392C38.5181 1.18912 36.3546 1.22581 36.3849 1.32267C35.0019 1.23636 33.944 1.05343 34.7041 0.954276C33.561 0.994423 32.4119 1.03452 31.2689 1.07487C31.7996 1.09785 32.3373 1.12062 32.8681 1.1436C29.132 1.08274 24.328 1.22122 23.5471 1.01775C23.0521 1.0192 22.5517 1.02045 22.0566 1.0219C21.9035 1.05626 21.7555 1.09068 21.6024 1.12504C19.3623 1.09524 17.1272 1.06525 14.887 1.03545C16.8817 1.01413 17.3565 0.965219 19.4483 1.00493C18.6422 0.965415 17.8211 0.925681 17.0303 0.886164C13.8812 0.992552 13.4516 1.06247 8.71021 1.03081C8.49584 1.02936 4.91337 0.940143 4.79087 0.93145C4.22966 0.891712 5.08156 0.833982 4.83167 0.813902C4.13752 0.757602 -0.0804944 0.616238 0.00117009 0.594918C1.0322 0.33329 15.2238 0.329822 19.0621 0.316368C58.8731 0.176868 97.8075 0.363501 137.368 0.331626C137.775 0.331132 137.598 0.29251 137.771 0.290856C138.848 0.281156 139.905 0.341349 140.303 0.343832C141.154 0.34895 140.685 0.293337 141.307 0.293298C147.728 0.293919 153.787 0.326621 160.213 0.3171C160.631 0.316479 160.204 0.360975 160.939 0.353109C161.318 0.348802 162.506 0.280538 163.362 0.279504C166.353 0.275987 168.865 0.297872 172.02 0.296837C173.745 0.29622 176.333 0.302022 178.262 0.300988C179.114 0.300548 180.001 0.269318 180.843 0.268274C182.037 0.266826 181.793 0.330134 181.977 0.334067C182.783 0.351243 182.895 0.281757 183.661 0.28341C185.085 0.286722 185.161 0.333115 186.968 0.329184C188.259 0.326287 191.215 0.289657 192.843 0.278894C196.651 0.332705 201.448 0.311342 205.001 0.293542C207.104 0.28299 207.298 0.347945 208.156 0.347738C211.177 0.34648 213.47 0.263519 216.307 0.260828C220.073 0.257323 223.411 0.31218 227.059 0.316124C227.651 0.316744 227.515 0.257229 228.095 0.255702C230.244 0.250113 232.992 0.239281 234.906 0.247768C237.039 0.257094 237.826 0.343481 239.913 0.325889C240.525 0.320665 240.704 0.24492 241.73 0.235195C243.368 0.219902 245.164 0.286697 246.308 0.294152C247.875 0.304087 246.512 0.226921 248.625 0.23727C248.712 0.237717 249.028 0.292878 249.482 0.290246C250.804 0.282795 250.672 0.239356 252.607 0.243495C252.792 0.244067 255.357 0.296627 255.612 0.296837C257.113 0.297665 260.134 0.316067 261.022 0.304894C264.197 0.265153 261.697 0.182187 264.397 0.362264C265.586 0.318188 266.765 0.273513 268.026 0.230679C267.185 0.270626 270.598 0.328271 270.838 0.324546C272.822 0.294526 271.64 0.22446 274.156 0.236049C270.834 0.397912 277.402 0.256912 278.867 0.252772C285.921 0.232701 292.332 0.273093 299.421 0.272058C301.795 0.271634 304.975 0.237419 307.486 0.238247C308.071 0.238296 307.629 0.276602 308.144 0.277429C308.658 0.277997 308.088 0.234995 308.674 0.23727C312.324 0.252178 315.183 0.333317 318.526 0.231899C318.688 0.246563 318.683 0.258149 318.953 0.274256C321.688 0.183398 326.957 0.305583 328.937 0.322349C332.035 0.348414 332.826 0.287 335.076 0.299401C338.052 0.315959 342.519 0.435938 340.524 0.23788C342.565 0.231673 344.53 0.229959 346.592 0.248378C346.822 0.250466 346.663 0.300807 346.755 0.301842C347.337 0.30907 347.526 0.263997 347.919 0.261927C348.985 0.25636 347.246 0.310328 348.765 0.295251C349.567 0.287179 350.022 0.247866 352.247 0.247035C365.66 0.242689 380.222 0.256768 393.972 0.263392C394.917 0.263806 394.295 0.215123 395.479 0.218228C399.593 0.229001 406.956 0.31093 410.504 0.299767C414.051 0.288591 413.251 0.217399 415.47 0.18759C415.899 0.181794 415.547 0.222368 415.935 0.222989C418.543 0.226718 421.653 0.290002 423.766 0.299523C425.163 0.305902 425.051 0.242074 426.021 0.237514C427.465 0.230891 428.952 0.295378 429.722 0.297448C433.346 0.306541 435.837 0.2546 439.22 0.281091C439.088 0.267044 439 0.25404 438.888 0.2402C442.895 0.242476 446.896 0.244759 450.902 0.247035C450.713 0.234202 450.531 0.221259 450.342 0.208219C455.042 0.215261 454.506 0.354349 454.092 0.0606431C454.434 0.0502961 454.797 0.0383028 455.123 0.0287843C454.991 0.18008 457.834 0.2908 461.452 0.329307C461.718 0.332204 463.499 0.184687 463.305 0.358968C463.769 0.316331 464.046 0.286939 464.439 0.249477C465.204 0.302241 465.98 0.354382 466.745 0.406939C467.159 0.399076 467.578 0.391488 467.991 0.383625C468.052 0.349473 468.005 0.314012 468.138 0.280481C470.057 0.275307 473.992 0.317528 475.509 0.313194C479.276 0.302224 483.11 0.209887 486.04 0.309654C487.467 0.299483 486.05 0.232451 488.172 0.240932C488.412 0.274869 488.638 0.307397 488.888 0.342367C490.622 0.190736 490.985 0.282977 493.362 0.314659C494.97 0.336183 496.022 0.299124 497.553 0.306358C497.941 0.308221 497.886 0.352727 498.152 0.351278C499.041 0.346688 501.577 0.285432 502.204 0.283777C507.89 0.267635 512.774 0.274506 518.189 0.290856C518.771 0.292512 518.017 0.24859 518.619 0.250453C519.588 0.253377 519.017 0.320869 519.579 0.32418C521.145 0.333036 521.157 0.261868 523.34 0.258143C530.532 0.245939 538.8 0.299401 546.313 0.304161C546.547 0.304161 546.533 0.262463 546.788 0.262049C548.452 0.26001 550.136 0.316376 551.646 0.315757C554.152 0.314929 556.036 0.256349 558.511 0.256556C563.35 0.256763 567.673 0.286758 572.649 0.288415C576.722 0.289864 580.259 0.284302 584.725 0.284509C604.233 0.285337 624.139 0.15298 643.779 0.223355C644.279 0.225216 644.075 0.262058 644.228 0.260462C645.677 0.244525 645.807 0.194816 646.322 0.298913C648.169 0.278397 648.751 0.20019 650.981 0.205777C652.17 0.208707 651.282 0.329921 653.293 0.26742C655.109 0.210919 653.105 0.144488 658.505 0.212369C658.648 0.214235 659.351 0.28812 660.474 0.268885C661.602 0.249842 660.296 0.196936 663.011 0.180998C669.386 0.143745 677.455 0.207612 684.866 0.187956C685.33 0.186714 689.803 0.147214 690.686 0.128999C692.395 0.0936063 692.038 0.0387007 694.257 0.0252445C695.972 0.0148952 697.387 0.0770903 699.403 0.0646712C699.638 0.0631618 700.032 -0.000813279 701.547 0.00766721ZM325.823 1.25028C325.405 1.31305 324.649 1.54409 322.119 1.47378C321.879 1.46716 323.174 1.30827 321.776 1.28299C323.144 1.26623 324.476 1.2608 325.823 1.25004C325.823 1.25012 325.823 1.2502 325.823 1.25028ZM712.516 1.48086C710.622 1.46927 708.722 1.45779 706.829 1.44619C708.135 1.41825 709.444 1.39036 710.745 1.36221C711.337 1.40174 711.924 1.44133 712.516 1.48086ZM476.795 1.37112C476.797 1.37112 476.799 1.37112 476.801 1.37112C474.81 1.40093 472.818 1.43079 470.828 1.4606C471.037 1.43866 471.247 1.41662 471.456 1.39468C473.028 1.36012 474.6 1.32561 476.167 1.29105C476.376 1.31775 476.586 1.34443 476.795 1.37112ZM492.521 1.13884C493.792 1.16492 493.481 1.2089 494.181 1.25175C494.181 1.25166 494.181 1.25158 494.181 1.2515C494.365 1.26266 495.225 1.27242 495.557 1.27408C495.434 1.24655 495.276 1.21938 495.144 1.19206C498.109 1.12541 503.908 1.36225 496.4 1.45767C496.512 1.4229 496.62 1.38831 496.732 1.35355C493.001 1.36327 488.842 1.28786 492.521 1.13884ZM295.823 1.35037C292.638 1.46422 291.617 1.48822 287.753 1.41019C288.299 1.37792 288.845 1.34566 289.39 1.31339C290.028 1.3463 290.662 1.37898 291.3 1.41189C291.302 1.41189 291.303 1.41189 291.305 1.41189C291.433 1.37733 291.561 1.3427 291.683 1.30814C293.061 1.32221 294.445 1.3363 295.823 1.35037ZM614.437 1.22111C615.325 1.44847 615.069 1.31631 612.533 1.36759C611.655 1.38539 612.511 1.42517 611.965 1.43179C609.016 1.46797 608.78 1.31564 609.438 1.23637C611.107 1.23098 612.793 1.22608 614.432 1.22111C614.434 1.22111 614.435 1.22111 614.437 1.22111ZM690.955 1.17387C690.957 1.17387 690.959 1.17387 690.961 1.17387C691.037 1.22933 689.849 1.24424 691.189 1.29679C690.169 1.29658 689.149 1.29614 688.124 1.29593C688.425 1.29077 688.732 1.28584 689.032 1.28068C688.767 1.26163 688.501 1.24235 688.236 1.22331C687.873 1.28705 687.537 1.25 686.465 1.22868C686.761 1.29677 687.055 1.36492 687.352 1.43301C686.106 1.41273 684.857 1.39238 683.612 1.3721C683.596 1.35494 683.581 1.33775 683.566 1.32059C683.096 1.34252 682.631 1.36469 682.162 1.38663C682.034 1.36614 681.912 1.34584 681.784 1.32535C681.218 1.34087 680.65 1.35638 680.084 1.3721C679.912 1.32247 681.16 1.30103 678.947 1.31363C679.626 1.26272 680.303 1.21196 680.987 1.16105C684.31 1.16519 687.633 1.16952 690.955 1.17387ZM591.37 1.29105C595.029 1.28153 593.999 1.3175 593.151 1.43008C592.56 1.38373 591.962 1.3374 591.37 1.29105ZM402.834 1.19084C401.772 1.26763 400.706 1.34365 399.619 1.41775C397.455 1.4606 395.29 1.32063 396.918 1.26578C398.878 1.19997 400.925 1.27363 402.834 1.19084ZM353.544 1.22501C356.192 1.26062 353.701 1.35187 353.103 1.40506C352.371 1.31957 351.35 1.32711 349.709 1.31717C351.25 1.31163 353.106 1.21897 353.544 1.22477C353.544 1.22485 353.544 1.22493 353.544 1.22501ZM445.443 1.27714C446.504 1.27484 447.56 1.25339 448.508 1.27945C448.222 1.35288 446.324 1.28608 447.682 1.39493C447.003 1.39679 446.323 1.3986 445.65 1.40066C446.078 1.35557 445.502 1.32186 445.446 1.27738C445.445 1.2773 445.444 1.27722 445.443 1.27714ZM555.914 1.37759C553.831 1.29066 553.437 1.32786 551.339 1.38809C551.043 1.31731 553.545 1.19875 555.111 1.17265C555.377 1.24095 555.643 1.30929 555.914 1.37759ZM63.3525 1.34134C63.8525 1.25112 67.5414 1.23936 69.3743 1.26603C69.156 1.27941 68.9371 1.29297 68.7188 1.30655C66.9324 1.31814 65.1389 1.32975 63.3525 1.34134ZM348.928 1.31107C349.203 1.31371 349.463 1.31568 349.709 1.31717C349.436 1.31816 349.172 1.31662 348.928 1.31107ZM238.055 0.919487C238.928 0.834426 236.335 0.805848 239.483 0.839169C239.483 0.839088 239.483 0.839006 239.483 0.838925C241.566 0.860865 242.026 0.866723 243.955 0.873347C243.26 0.982619 239.346 1.02168 244.741 1.04424C244.812 1.04434 244.671 0.979316 245.532 0.988209C245.798 0.990974 246.65 1.04434 247.945 1.05986C248.363 1.06483 251.509 1.08129 247.221 1.08232C247.349 1.15849 247.119 1.23559 247.129 1.30948C245.456 1.33096 244.169 1.18181 242.399 1.18547C239.771 1.19126 238.433 1.34209 237.928 1.14421C240.138 1.09559 243.933 1.09442 244.428 1.21342C246.566 1.21487 247.18 1.11737 245.456 1.06914C238.071 1.13041 243.429 0.924422 236.962 1.00225C236.886 1.02977 236.62 1.05938 236.66 1.08525C234.686 0.988405 237.744 0.949911 238.055 0.919487ZM253.499 1.12993C252.223 1.18809 250.951 1.24672 249.68 1.30509C249.68 1.21029 250.381 1.12522 252.392 1.07182C252.759 1.09126 253.132 1.11069 253.499 1.12993ZM146.162 1.15483C145.978 1.20636 145.488 1.25359 145.131 1.30265C144.743 1.25918 135.556 1.21748 140.23 1.17485C140.909 1.16864 145.049 1.25977 146.162 1.15483ZM570.373 1.29996C569.29 1.26539 568.213 1.23077 567.136 1.19621C568.794 1.17428 570.453 1.15178 572.11 1.12944C571.53 1.18627 570.953 1.24313 570.373 1.29996ZM385.22 1.10039C385.677 1.10232 384.159 1.1732 385.96 1.16203C384.617 1.20736 383.36 1.24573 382.048 1.28837C381.655 1.25483 381.258 1.22144 380.865 1.18791C380.559 1.20943 380.247 1.23083 379.94 1.25236C380.124 1.20351 380.288 1.1558 380.482 1.10612C382.692 1.21086 383.199 1.09211 385.22 1.10039ZM450.935 0.909356C451.332 1.01552 448.132 1.07865 451.28 1.09563C450.683 1.16537 449.723 1.20196 447.88 1.20817C447.584 1.18149 447.289 1.15501 446.994 1.12834C446.953 1.19972 446.479 1.22625 445.443 1.27714C445.442 1.27705 445.441 1.27697 445.44 1.27689C442.639 1.28206 442.807 1.25826 442.133 1.14091C445.099 1.20715 445.187 1.09993 447.208 1.03618C448.597 0.992343 450.409 1.0122 450.935 0.909356ZM155.951 1.15361C153.854 1.24322 155.736 1.32681 152.015 1.23161C152.255 1.20884 152.496 1.18626 152.736 1.16349C153.807 1.15998 154.879 1.15671 155.951 1.15361ZM461.284 1.27323C461.044 1.10889 459.07 0.980972 458.733 1.24833C460.657 1.30276 459.717 1.15132 461.284 1.27323ZM354.447 0.967703C358.147 0.975371 357.448 1.16085 355.927 1.25358C355.692 1.21984 355.457 1.18604 355.228 1.15251C354.579 1.16782 353.931 1.18317 353.283 1.19828C353.671 1.12149 354.059 1.04449 354.447 0.967703ZM526.515 1.0927C523.687 1.21006 529.567 1.15797 527.592 1.23124C526.015 1.28981 523.936 1.17156 524.722 1.09746C525.268 1.09539 525.876 1.09394 526.509 1.0927C526.511 1.0927 526.513 1.0927 526.515 1.0927ZM510.152 1.12626C510.616 1.25166 509.947 1.21511 512.181 1.19254C512.819 1.18613 517.888 1.23322 515.76 1.12932C513.949 1.12932 512.035 1.12751 510.152 1.12626ZM311.677 1.15117C311.643 1.09656 315.547 0.976656 316.048 1.00664C316.048 1.00656 316.048 1.00648 316.048 1.0064C317.4 1.08815 313.283 1.09977 315.069 1.21195C311.113 1.11324 309.93 1.35201 310.206 1.0374C312.536 1.0236 311.433 1.08845 311.677 1.15117ZM14.917 1.08427C14.9151 1.08427 14.9133 1.08427 14.9115 1.08427C15.1737 1.08684 17.3338 1.16698 17.0711 1.19474C14.4735 1.17094 14.9364 1.11819 12.518 1.20487C12.3855 1.17695 12.2719 1.14987 12.1291 1.12175C13.0886 1.10519 13.6205 1.07165 14.917 1.08427ZM136.229 1.04473C137.183 1.03044 138.925 1.08962 140.012 1.0861C136.552 1.31337 132.416 1.10144 136.229 1.04473ZM655.167 1.18168C655.165 1.18176 655.162 1.18184 655.159 1.18193C655.16 1.1818 655.161 1.18168 655.162 1.18156C655.164 1.1816 655.165 1.18164 655.167 1.18168ZM210.19 1.18107C210.067 1.16632 209.998 1.1535 209.973 1.14225C209.973 1.1412 209.973 1.14014 209.973 1.13908C210.039 1.15289 210.11 1.16686 210.19 1.18107ZM303.564 1.16764C301.938 1.09149 307.355 0.970418 309.107 0.999317C308.984 1.03408 308.965 1.06559 308.68 1.10551C307.266 1.0155 303.834 1.18048 303.564 1.16764ZM427.073 1.13969C422.791 1.13762 428.364 0.836932 428.594 1.07683C428.585 1.08148 427.184 1.13928 427.073 1.13969ZM337.334 1.13615C338.425 1.04512 336.232 1.02094 339.738 1.03667C339.942 1.06025 340.146 1.08389 340.35 1.10747C339.345 1.11698 338.339 1.12663 337.334 1.13615ZM399.02 0.744935C393.631 0.795644 388.476 0.885104 391.987 1.13615C392.395 1.12809 392.808 1.12029 393.216 1.11223C393.277 0.989747 394.783 1.0566 396.986 1.06059C397.3 1.01197 398.522 1.00072 398.751 0.959402C399.194 0.879527 397.791 0.82337 399.02 0.744935ZM626.562 0.944266C626.476 0.965172 626.391 0.986187 626.304 1.00689C625.452 1.03048 624.597 1.05396 623.745 1.07756C623.882 1.03744 624.02 0.997324 624.158 0.957205C624.959 0.952861 625.756 0.948489 626.557 0.944144C626.559 0.944185 626.561 0.944226 626.562 0.944266ZM258.751 0.871516C258.261 1.10162 259.972 1.05924 263.443 0.942924C261.881 0.919121 260.313 0.895319 258.751 0.871516ZM485.627 0.838192C485.739 0.903564 485.849 0.968734 485.967 1.03411C487.809 0.966007 487.467 0.891145 486.584 0.804625C486.263 0.815791 485.948 0.827026 485.627 0.838192ZM512.167 0.810362C511.403 0.796724 511.793 0.849505 511.713 0.848446C509.778 0.82071 509.506 0.796498 507.133 0.836239C506.842 0.850104 506.556 0.864684 506.265 0.878962C507.362 1.01594 508.159 0.941285 510.481 1.02178C510.062 0.974791 509.646 0.927741 509.227 0.880549C510.518 0.890482 511.804 0.900278 513.095 0.91021C513.248 0.895721 513.401 0.881366 513.554 0.866878C513.095 0.848255 512.621 0.827327 512.167 0.810362ZM636.419 1.00371C637.675 1.00909 638.936 1.01469 640.192 1.02007C640.238 0.986333 640.282 0.952368 640.328 0.918633C639.026 0.946983 637.72 0.975361 636.419 1.00371ZM232.972 0.976369C232.873 0.988337 232.775 1.00038 232.689 1.01262C232.698 0.997698 232.806 0.986048 232.972 0.976369ZM11.6042 0.899225C10.1804 0.875632 8.12868 0.891123 6.56695 0.886164C6.68972 0.970798 10.6591 0.947403 12.0529 0.998707C12.2769 0.983521 12.206 0.909153 11.6042 0.899225ZM359.566 0.975149C359.923 0.932929 360.28 0.890909 360.632 0.84869C361.495 0.853244 362.359 0.858052 363.227 0.862605C363.252 0.828039 363.277 0.793173 363.303 0.758607C359.481 0.803514 360.362 0.703839 358.47 0.605538C358.837 0.72867 359.198 0.851809 359.566 0.975149ZM676.369 0.784484C673.607 0.807873 672.628 0.851558 674.185 0.955252C675.159 0.931457 676.139 0.90764 677.114 0.883844C676.864 0.850735 676.614 0.817593 676.369 0.784484ZM182.684 0.898248C180.374 0.936994 180.335 0.79783 178.077 0.875544C179.286 0.901204 180.495 0.927151 181.7 0.952811C182.025 0.934667 182.359 0.916393 182.684 0.898248ZM296.011 0.516065C295.036 0.467652 293.213 0.697782 290.473 0.527905C289.82 0.578606 289.411 0.627034 288.849 0.676701C288.523 0.622678 288.151 0.567965 287.84 0.514356C287.838 0.514356 287.836 0.514356 287.835 0.514356C285.349 0.532571 286.961 0.600325 286.904 0.657659C286.878 0.681427 285.033 0.641696 285.61 0.693424C286.605 0.782221 290.324 0.73116 290.334 0.839413C289.028 0.804034 286.476 0.833598 287.231 0.905816C288.058 0.985085 290.462 0.852241 291.993 0.918022C289.799 0.745004 294.331 0.798448 294.846 0.931327C297.506 0.829286 295.062 0.78766 292.336 0.792418C294 0.690584 291.551 0.745602 291.147 0.660955C292.863 0.609858 298.751 0.652452 296.011 0.516065ZM421.468 0.703678C419.63 0.710244 416.758 0.652038 415.5 0.737978C414.767 0.788048 417.645 0.82682 415.661 0.90545C417.451 0.897784 417.86 0.867068 417.554 0.798155C417.962 0.789881 418.375 0.78181 418.783 0.773743C418.972 0.787188 419.165 0.800456 419.354 0.813902C419.569 0.785548 419.784 0.75742 419.993 0.729067C420.427 0.734651 420.865 0.740243 421.299 0.746034C421.35 0.731777 421.437 0.719369 421.468 0.703678ZM116.338 0.90252C116.849 0.901693 117.354 0.900869 117.864 0.899835C117.808 0.883051 117.741 0.865573 117.677 0.848324C117.63 0.834693 117.584 0.821063 117.538 0.807432C117.834 0.856131 120.265 0.937072 121.289 0.885065C121.803 0.858975 120.632 0.766352 122.814 0.750184C121.233 0.754948 119.767 0.767588 118.231 0.775451C118.369 0.747922 118.502 0.720099 118.639 0.69257C118.638 0.692529 118.638 0.692488 118.637 0.692448C118.126 0.68624 117.61 0.679735 117.1 0.673528C116.845 0.749905 116.594 0.826143 116.338 0.90252ZM484.131 0.708926C482.39 0.76295 481.808 0.791004 482.629 0.878352C482.631 0.878392 482.633 0.878433 482.635 0.878474C483.283 0.839774 483.931 0.80109 484.579 0.762391C484.431 0.74459 484.284 0.726727 484.131 0.708926ZM217.98 0.688053C214.28 1.01984 222.613 0.81645 221.026 0.703433C220.955 0.698259 218.327 0.72469 217.98 0.688053ZM353.767 0.865657C354.783 0.862966 355.801 0.860536 356.822 0.857845C356.587 0.817069 356.346 0.776435 356.112 0.735658C355.331 0.778918 354.548 0.822397 353.767 0.865657ZM664.347 0.633857C663.278 0.542782 660.534 0.509786 659.193 0.608834C659.897 0.620425 660.602 0.632031 661.306 0.643622C659.975 0.655002 658.658 0.667528 657.316 0.678288C657.244 0.80517 658.791 0.73156 661.118 0.766541C661.479 0.772182 663.783 0.929678 664.578 0.810972C664.738 0.786573 662.287 0.769983 663.991 0.699039C663.246 0.693456 662.603 0.694694 661.899 0.691593C661.848 0.661373 661.797 0.631119 661.741 0.6009C662.612 0.611841 663.477 0.622915 664.347 0.633857ZM410.768 0.713565C408.243 0.706563 407.931 0.757261 407.406 0.846859C408.58 0.836717 409.754 0.826729 410.928 0.816587C410.872 0.782317 410.823 0.74804 410.768 0.713565ZM641.783 0.604806C640.401 0.59015 640.993 0.663081 640.436 0.676946C638.334 0.729097 636.9 0.676974 634.823 0.709659C634.961 0.695584 635.087 0.682428 635.22 0.668767C635.218 0.668767 635.216 0.668767 635.214 0.668767C625.379 0.6073 630.545 0.772698 636.43 0.74579C636.568 0.772905 636.7 0.800054 636.838 0.826963C639.472 0.779565 641.9 0.733958 641.783 0.604806ZM250.855 0.676701C250.743 0.659729 251.697 0.55187 249.906 0.602364C248.487 0.759844 250.814 0.681681 251.396 0.74225C250.912 0.75736 250.416 0.77206 249.936 0.78717C252.835 0.831671 253.258 0.794226 252.202 0.679143C252.126 0.671408 250.968 0.69362 250.855 0.676701ZM231.802 0.599069C231.404 0.831099 235.063 0.726761 234.93 0.65473C234.425 0.651858 234.033 0.691145 233.497 0.673772C232.956 0.656388 232.818 0.60219 231.802 0.599069ZM336.624 0.655828C336.517 0.654794 335.44 0.557274 335.547 0.633613C336.879 0.814311 339.563 0.698001 339.093 0.635078C338.206 0.63819 337.614 0.665304 336.624 0.655584C336.624 0.655666 336.624 0.655747 336.624 0.655828ZM680.998 0.579172C680.947 0.572698 678.26 0.533501 677.914 0.569895C677.628 0.610871 677.486 0.654786 677.272 0.697208C678.752 0.657881 681.748 0.687839 680.993 0.579172C680.994 0.579172 680.996 0.579172 680.998 0.579172Z" fill="#482812"/>
</svg>
