<svg width="396" height="6" viewBox="0 0 396 6" fill="none" xmlns="http://www.w3.org/2000/svg">
<path d="M363.117 5.41995C364.012 5.69053 361.025 5.51316 363.008 5.91724C362.595 5.94454 362.178 5.9727 361.765 6C361.66 5.85035 361.553 5.70106 361.448 5.55141C362.003 5.50735 362.559 5.46329 363.117 5.41922C363.117 5.41946 363.117 5.41971 363.117 5.41995ZM363.875 3.54578C363.366 3.97261 361.749 4.08641 363.496 4.4803C363.635 4.33381 363.777 4.18736 363.916 4.04087C364.523 4.15448 365.133 4.26807 365.739 4.38106C365.957 4.32521 366.175 4.26931 366.393 4.21408C366.671 4.46863 366.946 4.72388 367.224 4.97905C366.978 4.9418 366.728 4.90389 366.481 4.86663C365.506 5.07335 364.638 5.12988 363.315 5.16838C363.431 5.22861 363.547 5.28831 363.664 5.34854C362.992 5.24609 362.321 5.14339 361.652 5.04094C362.233 4.94037 362.882 4.82853 363.421 4.7348C362.559 4.33567 361.039 4.55781 360.248 4.64106C359.171 4.75469 359.414 4.5649 358.615 4.64435C358.488 4.65677 358.473 4.80553 358.221 4.80804C356.948 4.81984 354.476 4.74099 355.922 4.39388C358.017 4.43859 359.803 4.15985 361.859 4.26168C361.315 3.86032 362.397 3.72374 363.875 3.54578ZM325.391 4.82379C326.026 4.62886 327.319 4.70752 328.194 4.84283C328.195 4.84283 328.196 4.84283 328.197 4.84283C328.39 4.87264 328.827 5.13169 328.197 5.12114C327.172 5.10305 326.675 4.69526 326.137 4.9721C325.896 4.92056 325.643 4.8747 325.391 4.82379ZM323.161 4.84796C322.532 4.74799 322.817 4.44072 323.605 4.52388C323.605 4.52363 323.605 4.52339 323.605 4.52314C323.934 4.55792 323.288 4.80079 324.468 4.55427C324.709 4.74606 324.946 4.92054 325.184 5.10612C324.895 5.10923 324.632 5.11426 324.329 5.11674C324.533 4.8015 323.79 4.94714 323.161 4.84796ZM354.858 4.56745C354.759 4.85106 355.174 4.84926 355.88 5.04607C355.213 5.03675 354.547 5.02682 353.884 5.0175C354.21 4.8673 354.532 4.71766 354.858 4.56745ZM370.507 4.6114C370.508 4.6114 370.509 4.6114 370.51 4.6114C370.728 4.56669 370.947 4.52182 371.162 4.47774C371.293 4.57895 371.422 4.67973 371.552 4.78094C372.323 4.68594 373.098 4.59094 373.869 4.49531C373.776 4.80449 372.392 4.75419 371.629 4.97027C370.495 4.87712 369.949 4.69765 369.875 4.43562C370.085 4.49397 370.294 4.55305 370.507 4.6114ZM185.072 3.37879C184.815 3.46446 184.56 3.55019 184.302 3.63586C184.645 3.67496 184.985 3.7048 185.331 3.75011C186.235 3.37759 186.32 3.70711 187.505 3.6842C191.136 3.61341 190.172 3.03482 193.452 3.88231C190.819 3.84199 191.831 4.24021 190.243 4.54695C189.914 4.31347 191.487 3.78689 190.422 3.67761C188.585 3.9247 186.819 4.15485 184.781 4.31441C184.84 4.35477 184.9 4.39527 184.959 4.43562C185.282 4.41017 185.603 4.38455 185.926 4.35909C185.577 4.46714 185.236 4.57425 184.882 4.68354C185.33 4.43829 184.189 4.57532 184.341 4.29354C184.409 4.16811 184.914 3.9941 185.211 3.87425C184.443 3.80906 183.656 3.74935 182.879 3.68603C183.281 3.58609 183.683 3.48605 184.083 3.38612C184.412 3.38301 184.738 3.3808 185.066 3.37769C185.068 3.37806 185.07 3.37843 185.072 3.37879ZM19.7565 4.6828C20.7317 4.39096 22.5037 4.34266 23.4364 4.66742C22.2089 4.67239 20.9839 4.67784 19.7565 4.6828ZM369.801 4.21957C369.912 4.26919 370.019 4.31826 370.129 4.36788C369.642 4.45976 369.151 4.55101 368.664 4.64289C368.57 4.49951 368.475 4.3561 368.378 4.21335C368.852 4.21521 369.328 4.21771 369.801 4.21957ZM338.613 4.37923C338.97 4.37055 339.001 4.37526 339.445 4.39571C339.445 4.39559 339.444 4.39547 339.444 4.39534C339.62 4.40298 341.093 4.48673 340.929 4.59712C340.198 4.59898 339.417 4.59712 338.669 4.59712C338.646 4.5245 338.641 4.45246 338.613 4.37923ZM347.222 4.44368C347.223 4.44392 347.224 4.44417 347.225 4.44441C347.491 4.46118 347.744 4.49532 348.018 4.50154C347.029 4.67528 346.873 4.36357 345.974 4.45174C345.076 4.54053 344.521 4.71251 343.758 4.28549C344.042 4.22153 344.347 4.13003 344.639 4.05552C345.914 4.22626 346.258 4.06558 347.281 3.89732C347.261 4.07985 347.242 4.26115 347.222 4.44368ZM201.239 4.24264C201.483 4.03154 201.755 4.23868 201.783 4.24118C201.782 4.24142 201.782 4.24166 201.781 4.24191C203.941 4.0464 201.5 4.35876 203.538 4.39168C203.235 4.44444 202.937 4.50016 202.636 4.55354C202.172 4.45173 201.692 4.33637 201.239 4.24264ZM271.397 4.26242C271.417 4.32389 271.44 4.3855 271.46 4.44698C270.236 4.43269 269.923 4.6747 268.906 4.4543C269.736 4.38973 270.566 4.32563 271.397 4.26168C271.397 4.26193 271.397 4.26217 271.397 4.26242ZM332.441 3.93211C333.799 3.81475 334.803 3.76304 336.107 3.94932C336.108 3.94956 336.109 3.94981 336.11 3.95005C336.185 3.96152 335.822 4.09013 335.92 4.12253C336.189 4.10329 336.467 4.07372 336.738 4.05076C336.775 4.15375 336.81 4.25672 336.847 4.35909C336.082 4.32991 335.316 4.30075 334.548 4.27157C334.661 4.3318 334.778 4.39151 334.891 4.45174C334.239 4.48278 333.59 4.51371 332.938 4.54475C333.165 4.37591 333.391 4.20703 333.615 4.03757C333.224 4.00219 332.832 3.96811 332.441 3.93211ZM251.009 3.58972C251.225 3.65678 250.826 3.76926 251.16 3.82701C251.495 3.88403 252.112 3.75888 251.967 3.94822C251.517 3.97366 251.044 4.00284 250.585 4.02952C252.062 4.37094 253.535 4.06199 253.558 4.4836C252.14 4.37431 250.975 4.42508 249.603 4.54182C249.66 4.20716 251.032 3.9178 250.168 3.60363C250.446 3.59929 250.737 3.59294 251.006 3.59045C251.007 3.59021 251.008 3.58996 251.009 3.58972ZM389.639 0.0230017C390.478 0.0484607 392.4 -0.0881202 393.461 0.10686C393.721 0.15491 394.59 0.77734 394.586 0.859386C394.561 1.1357 393.499 1.17331 394.636 1.35338C394.254 1.35525 393.882 1.36562 393.503 1.37059C393.571 1.55626 393.639 1.74143 393.704 1.92647C394.166 1.89853 394.629 1.87045 395.091 1.84188C395.113 1.90336 395.136 1.96497 395.159 2.02644C393.497 2.02768 394.478 2.26495 393.616 2.48601C394.41 2.59776 395.209 2.70897 396 2.82071C395.544 2.80706 395.005 2.79694 394.603 2.7808C394.549 3.09559 395.509 3.02054 395.674 3.07888C396.601 3.40858 391.882 3.24218 391.495 3.70031C392.249 3.75122 393.04 3.8009 393.811 3.85118C393.59 3.90768 393.366 3.96422 393.145 4.02073C391.396 3.70475 389.435 3.59281 387.397 3.396C387.213 3.40903 387.028 3.42241 386.847 3.43482C386.901 3.57696 386.952 3.71856 387.006 3.8607C386.728 3.87747 386.447 3.8941 386.169 3.91087C386.988 3.44272 385.854 3.4491 384.485 3.16347C385.213 2.99895 386.112 3.09869 386.05 2.79215C383.55 3.028 380.622 2.69469 378.19 2.96097C377.586 3.02678 377.588 3.42222 376.169 3.38575C376.217 3.34228 376.225 3.26381 376.256 3.20668C373.801 3.39607 372.312 3.50929 369.761 3.31617C369.908 3.4583 370.053 3.60103 370.2 3.74315C370.742 3.67237 371.284 3.60045 371.823 3.52966C372.191 3.76436 371.647 3.86794 373.262 3.86546C374.586 3.8636 373.798 3.75997 374.158 3.69042C374.645 3.59548 375.073 3.78225 375.598 3.67614C376.003 3.5948 375.564 3.40114 376.622 3.4502C376.197 3.70107 375.763 3.96011 375.335 4.21408C375.077 4.15757 374.821 4.10019 374.563 4.04307C374.824 3.976 375.08 3.90982 375.341 3.84276C374.422 3.96321 373.555 4.07683 372.605 4.20163C372.914 3.83899 371.933 3.97495 371.4 4.0178C370.569 4.08479 371.281 3.83521 370.736 3.87681C370.192 3.91906 369.605 4.19788 368.622 4.13828C369.149 3.97685 368.432 3.8321 368.57 3.6831C368.709 3.5341 369.749 3.50111 368.75 3.33851C366.828 3.46208 368.914 4.0295 367.616 4.12143C366.057 4.23195 365.685 3.30701 366.15 3.10818C366.516 2.95169 367.774 2.98317 368.143 2.82731C365.889 2.54603 365.87 3.10131 365.484 3.20998C364.084 3.60549 365.024 2.54984 363.366 2.93167C363.397 2.73426 363.423 2.55671 363.454 2.36737C363.168 2.40338 362.978 2.45124 362.632 2.47979C363.651 2.86443 362.817 2.84794 362.389 2.84855C361.714 2.84979 362.756 3.0374 362.578 3.08584C362.096 3.21545 361.334 3.1566 361.801 3.32606C361.591 3.2472 361.364 3.16811 361.149 3.08987C360.36 3.18813 358.508 4.01209 360.271 3.84569C360.106 4.15182 359.536 4.00468 359.091 3.95811C358.646 3.91158 358.654 4.10654 358.263 4.07053C356.707 3.92646 357.725 3.59297 357.972 3.33155C355.917 3.51162 357.929 3.63075 354.967 3.75121C354.681 3.96419 356.049 4.19146 354.91 4.31441C354.7 3.9444 353.861 3.6786 352.225 3.55566C352.067 3.64073 351.908 3.72656 351.749 3.81163C350.857 3.47011 351.313 3.11497 349.66 3.53845C350.548 2.75917 349.938 3.25772 348.458 2.94046C348.157 2.8765 348.852 2.71482 348.432 2.63286C348.242 2.59589 347.78 2.71794 347.316 2.6237C347.089 2.57714 346.029 2.27666 345.295 2.41937C345.833 2.79691 344.438 3.11808 345.634 3.43043C343.423 3.35343 341.876 3.5347 344.353 3.01992C343.792 2.90567 343.23 2.7919 342.669 2.67827C342.278 2.7683 341.883 2.85763 341.489 2.94705C341.43 2.63676 341.49 2.54971 339.949 2.60429C340.617 2.53106 341.283 2.45661 341.955 2.38275C341.977 2.32009 342.071 2.25496 342.048 2.19416C341.226 2.31333 338.91 2.36463 338.349 2.4472C337.788 2.52978 338.871 2.55239 338.71 2.63249C337.364 3.29303 337.47 2.80586 336.504 2.91922C335.937 2.98628 337.291 3.0591 336.988 3.08767C335.863 3.19236 335.341 2.8413 334.344 2.83683C334.698 3.03609 335.05 3.23845 335.396 3.43958C334.349 3.42902 333.183 3.42725 332.211 3.49121C331.829 3.51618 332.118 3.66438 332.056 3.67431C331.746 3.72523 330.488 3.80588 330.355 3.80651C329.352 3.80769 329.323 3.60242 328.349 3.59118C328.731 3.57381 329.091 3.55814 329.465 3.54138C329.635 3.20859 329.808 2.87582 329.978 2.54241C329.023 2.5182 328.068 2.49448 327.11 2.47027C327.81 2.5814 328.513 2.692 329.213 2.80314C328.118 3.072 327.024 3.34148 325.93 3.61096C325.36 3.44579 324.793 3.28066 324.223 3.1155C322.676 3.15907 322.987 3.82953 322.253 3.2422C321.797 3.29185 321.341 3.34148 320.885 3.39051C320.95 3.30671 321.014 3.22274 321.079 3.13894C320.53 3.19047 319.98 3.24168 319.43 3.29384C320.008 3.59062 320.575 3.90292 321.147 4.19101C320.065 4.2555 320.044 4.00373 319.883 3.9409C319.455 3.77448 318.605 3.99895 318.265 3.84496C318.15 3.79209 319.211 3.62634 318.845 3.43519C318.774 3.39813 317.354 2.69545 316.448 2.8577C316.465 2.985 316.535 3.14108 316.572 3.27955C315.353 3.35687 314.732 2.69241 314.893 2.50615C314.244 2.63654 313.295 2.64744 313.162 2.85111C312.831 2.85608 312.501 2.86079 312.17 2.86576C312.515 2.36973 311.132 2.46043 311.041 2.887C311.611 2.89755 312.182 2.90866 312.751 2.91922C312.32 3.44206 314.052 3.75764 310.449 3.27333C309.76 3.00135 311.674 3.31038 311.112 3.10671C310.137 2.98817 309.222 3.08735 308.295 2.89798C307.142 2.66141 308.561 2.43388 305.874 2.73503C311.801 3.48947 305.061 3.24468 302.277 3.47876C301.511 2.73362 299.16 2.4976 295.923 2.71928C296.26 2.92666 297.279 2.81982 297.866 2.88809C298.453 2.95639 297.818 3.07942 298.549 3.17629C299.28 3.27313 300.833 3.40478 301.573 3.55127C300.946 3.66864 297.852 3.94614 299.898 3.61279C298.37 3.4073 297.653 3.19613 295.76 3.15761C295.193 3.48111 295.235 3.68256 293.39 3.69189C294.481 3.24235 292.384 2.92992 292.846 2.46551C294.155 2.57368 293.423 3.02506 294.18 3.2411C294.257 3.2627 295.477 3.14954 295.76 3.15761C294.53 2.75213 294.104 2.6012 294.861 2.11872C293.991 2.16095 293.45 2.10037 293.37 2.33075C293.189 2.23081 293.006 2.13078 292.828 2.03084C292.545 2.03333 292.29 2.04258 291.989 2.04072C292.403 2.38823 291.601 2.17431 291.032 2.33185C290.462 2.48957 291.226 2.76389 289.662 2.76762C290.183 2.84896 290.66 2.91876 291.165 2.99575C290.156 3.08516 289.143 3.17513 288.134 3.26454C288.843 3.47687 290.379 3.79226 290.337 4.07163C289.872 3.96616 288.28 4.15152 288.106 4.15915C287.431 4.18771 287.799 4.01153 287.748 4.00718C286.688 3.92156 285.815 3.98155 285.412 3.71459C284.616 3.83504 284.015 3.76637 283.17 3.77318C282.706 3.77691 282.796 3.97299 282.524 3.93577C280.715 3.68741 282.438 3.43402 278.95 3.91636C279.372 4.05296 279.789 4.19269 280.211 4.33053C279.817 4.38207 279.425 4.43389 279.031 4.48543C278.768 4.46059 278.507 4.43556 278.243 4.41072C278.249 4.11456 278.255 3.81777 278.261 3.52161C277.972 3.50546 277.681 3.48978 277.392 3.47364C277.888 3.44445 278.386 3.4153 278.882 3.38612C278.927 3.334 278.969 3.28187 279.015 3.22975C278.278 3.14903 277.543 3.06758 276.806 2.98623C276.792 3.08926 276.778 3.19301 276.764 3.29603C275.103 3.1526 275.063 3.06538 273.484 3.34913C272.268 3.34603 271.278 3.77679 270.575 3.95811C270.323 3.90037 270.07 3.8419 269.815 3.78417C269.653 3.86986 269.49 3.95518 269.329 4.04087C269.008 3.92166 268.684 3.80242 268.363 3.68383C268.185 3.95442 268.092 4.0389 269.342 4.13388C268.914 4.47043 266.714 4.32196 265.818 4.20895C265.138 4.12319 265.892 3.84248 265.807 3.80834C265.524 3.69233 264.404 3.79243 264.168 3.77318C263.173 3.69309 262.476 3.70711 261.578 3.64501C261.403 3.63259 260.914 3.45468 260.872 3.4491C260.549 3.41867 259.751 3.33221 259.661 3.32972C254.982 3.19692 259.981 3.96876 255.63 3.88743C255.761 3.98922 255.881 4.09032 256.008 4.19211C255.679 4.19831 255.347 4.20421 255.019 4.21042C254.602 4.12535 255.106 3.97064 254.278 4.09543C254.332 3.97001 254.386 3.84452 254.443 3.71972C254.083 3.7874 253.736 3.85454 253.367 3.92222C252.789 3.48695 250.678 3.3881 250.828 2.87711C250.879 2.70324 252.376 2.52484 251.585 2.33917C250.942 2.30262 251.377 2.51027 251.115 2.52117C249.222 2.59693 249.332 2.30586 248.558 2.38348C248.436 2.50822 248.308 2.63541 248.183 2.76139C247.891 2.72477 247.599 2.68815 247.304 2.65153C247.236 2.73536 247.165 2.81928 247.097 2.90311C247.372 2.9087 247.682 2.91436 247.934 2.91995C247.582 3.24464 244.351 3.39048 245.583 3.11367C246.085 3.00129 247.004 3.04904 246.423 2.66545C245.559 2.72071 244.578 2.77717 243.668 2.83243C243.639 2.74985 243.613 2.66711 243.585 2.58452C242.358 2.63798 243.474 2.96818 243.471 3.14516C243.191 3.15013 242.908 3.15448 242.627 3.15944C242.508 3.07942 242.395 2.99566 242.271 2.91812C242.259 3.04547 242.102 3.34147 241.266 3.23158C240.728 3.16006 241.575 2.83878 240.55 2.88333C240.627 3.082 240.997 3.32397 239.855 3.38795C239.742 3.1806 239.585 2.99065 239.497 2.77274C238.077 2.97194 237.431 2.65174 235.764 2.88333C234.707 3.02989 233.259 3.5501 232.575 2.74857C231.802 2.72748 232.047 2.92708 231.819 2.97195C230.739 3.18432 229.935 2.80425 229.734 2.7819C228.45 2.6386 227.875 2.77016 226.829 2.59075C226.886 2.73915 226.917 2.87963 226.962 3.02432C227.92 2.80202 228.405 2.81245 229.749 2.86026C229.298 2.89006 228.848 2.92055 228.397 2.95035C228.471 3.07078 228.544 3.19124 228.615 3.31105C232.77 2.83664 231.801 3.58618 228.317 3.75011C228.016 3.52723 227.705 3.30494 227.408 3.08144C225.395 3.41923 224.448 3.12599 222.172 3.05581C221.901 3.04778 220.916 3.17617 220.492 3.18251C220.499 3.18337 220.506 3.18422 220.513 3.18508C220.25 3.39555 220.606 3.49241 220.649 3.68053C220.419 3.70413 220.19 3.72762 219.96 3.75121C219.447 3.60781 219.628 3.49003 218.619 3.52417C218.755 3.66697 218.889 3.80981 219.025 3.95262C217.92 3.95758 217.196 3.80243 216.167 3.86949C216.34 3.81547 216.511 3.76129 216.684 3.70727C214.444 3.56941 216.226 2.72982 214.534 3.14772C214.426 3.07448 214.321 3.00052 214.214 2.92728C214.911 2.90927 215.609 2.89182 216.303 2.87381C216.317 2.77015 216.332 2.66694 216.344 2.56328C215.598 2.59433 214.849 2.62634 214.104 2.65739C214.648 2.58785 215.195 2.51821 215.74 2.44866C214.875 2.39899 214.01 2.34929 213.146 2.29962C214.064 2.6808 212.874 2.72741 213.097 3.10488C211.567 2.79068 210.364 2.3765 207.992 2.64165C207.521 2.69447 207.777 2.95825 206.442 2.63725C206.765 3.05696 205.092 3.25391 205.307 3.65307C205.772 3.63383 206.254 3.62172 206.705 3.59814C206.191 3.45968 206.106 3.07877 206.886 2.96573C207.881 2.82167 209.332 3.08566 209.273 2.66289C209.669 2.68275 210.038 2.69447 210.424 2.71122C210.265 2.8161 210.11 2.92164 209.954 3.02651C211.05 2.86209 211.739 2.91556 212.267 3.17995C210.96 3.24079 209.656 3.30099 208.35 3.36121C208.542 3.3792 208.737 3.39732 208.93 3.41468C207.94 3.68479 208.961 3.94064 207.115 3.99839C207.127 3.87485 207.136 3.75123 207.147 3.62707C206.475 3.95742 204.636 3.95563 205.223 4.33565C204.667 4.21893 204.554 4.1451 204.239 4.34994C202.774 4.06119 201.832 3.69606 202.354 3.26015C201.81 3.3303 201.265 3.40055 200.724 3.47071C201.039 3.5899 201.354 3.70855 201.668 3.82774C200.721 3.82029 199.768 3.81297 198.824 3.80614C198.733 3.45349 200.646 3.69915 200.094 3.38392C199.984 3.32064 199.474 3.45618 199.34 3.42054C197.929 3.03496 200.145 3.31353 199.728 3.01809C197.625 2.92681 199.308 2.43177 196.411 2.84781C196.335 2.746 196.252 2.64214 196.182 2.54094C195.176 2.53483 195.257 2.76481 194.393 2.80826C193.852 2.8353 193.172 2.43147 192.574 2.70646C192.468 2.75716 193.473 3.25074 191.36 3.22902C189.719 3.21218 190.402 2.86338 189.515 2.73979C188.628 2.61622 186.598 3.09987 186 2.55156C186.465 2.62419 187.057 2.66336 187.573 2.72294C187.782 2.61615 187.987 2.51052 188.193 2.40435C187.014 2.5422 185.795 2.37973 185.001 2.63432C183.428 2.24499 181.669 2.60629 182.145 3.04592C182.663 2.98254 182.099 2.79083 182.819 2.913C182.892 3.01545 182.97 3.11741 183.044 3.21986C181.819 3.20745 180.969 3.21032 181.527 2.89798C181.337 2.89053 181.149 2.88309 180.959 2.87564C180.925 3.10167 180.895 3.32854 180.861 3.55456C180.634 3.58002 180.406 3.60528 180.18 3.63073C179.927 3.58109 179.675 3.53086 179.42 3.48059C179.763 3.12292 180.347 3.11111 178.414 2.91116C178.408 3.03473 178.4 3.15781 178.394 3.28138C176.775 3.12429 176.733 2.82495 174.701 2.83609C176.26 2.40707 177.113 3.16757 177.107 2.30695C177.498 2.36345 177.893 2.42072 178.284 2.47723C178.343 2.35241 178.402 2.22742 178.459 2.10261C176.359 2.16845 172.87 2.98927 171.463 2.445C171.293 2.51142 171.123 2.56916 170.95 2.64055C169.572 2.31206 168.977 3.04953 167.579 2.6248C167.435 2.58023 167.737 1.88736 165.918 1.91219C165.963 2.00224 165.987 2.15381 166.024 2.2674C165.63 2.21215 165.238 2.15434 164.847 2.09785C164.776 2.18102 164.702 2.26417 164.631 2.34796C165.303 2.38025 165.973 2.41308 166.644 2.44537C166.086 2.47392 165.524 2.5025 164.966 2.53106C165.694 2.667 166.023 2.66844 165.584 2.88626C164.952 2.8993 164.319 2.91314 163.687 2.92618C163.622 2.98199 163.557 3.03845 163.492 3.09426C163.798 3.26066 164.107 3.4234 164.413 3.59228C162.766 3.4563 161.335 3.44892 160.07 3.12172C159.855 3.06646 160.617 2.84967 159.149 3.04519C159.126 2.93037 159.087 2.83714 159.061 2.731C157.264 3.05265 156.673 2.95664 154.8 2.72441C156.013 2.94112 154.93 2.80017 154.621 2.91629C154.41 2.99629 155.236 2.98447 155.143 3.06826C155.049 3.15146 153.975 3.48742 154.893 3.52783C157.144 2.83919 157.757 3.66252 160.649 3.33155C160.204 3.42035 159.755 3.50934 159.31 3.59814C159.52 3.65833 159.708 3.71293 159.934 3.77684C158.322 3.64212 159.106 3.72965 158.443 3.8358C157.78 3.94198 156.574 4.03219 155.766 4.06138C155.512 4.07054 155.78 3.91609 155.206 3.90172C154.815 3.89178 153.746 4.12075 153.499 3.85081C153.337 3.6751 155.055 3.19125 152.68 3.1924C152.233 3.02014 153.372 3.07364 153.396 3.05288C153.603 2.84797 152.143 2.6939 151.469 2.85038C151.414 2.86387 151.947 3.02355 151.368 3.0862C149.993 3.23585 149.199 3.05273 148.309 2.80497C148.212 3.09558 147.055 3.44264 145.615 3.33522C145.541 3.41838 145.471 3.50227 145.398 3.58606C145.621 3.54204 145.845 3.49861 146.068 3.45459C146.312 3.50675 146.57 3.54472 146.809 3.6062C145.36 3.67766 145.155 4.07817 144.461 4.2247C142.085 4.72526 143.525 3.6664 143.953 3.48389C144.262 3.55778 144.561 3.64027 144.867 3.71789C144.833 3.61667 144.799 3.51468 144.768 3.41285C141.21 3.41594 144.226 2.75582 142.42 2.56768C141.955 3.06565 140.629 3.11364 138.94 2.79764C138.753 2.80013 138.565 2.80076 138.378 2.80387C138.347 2.87648 138.347 2.98746 138.296 3.0353C136.261 3.11975 135.898 2.35287 135.705 2.28021C134.849 1.95799 134.183 2.40383 133.93 2.40765C132.867 2.42317 132.559 2.22521 131.547 2.31024C130.458 2.40212 131.203 2.55402 130.871 2.68998C130.606 2.79796 129.747 2.81719 129.393 2.92911C129.534 2.83757 129.69 2.74781 129.831 2.65593C128.703 2.53114 127.781 2.40951 126.5 2.37909C125.054 3.04885 123.824 1.91904 124.323 2.83536C125.536 2.89808 126.215 3.0025 126.864 3.23598C126.067 3.26578 125.27 3.2948 124.474 3.3246C124.242 3.22403 124.077 3.12602 123.802 3.02359C123.207 3.23715 121.827 3.14551 121.285 3.20815C118.748 3.50185 119.533 3.86613 117.217 3.25392C118.886 3.19427 118.884 2.89692 120.539 2.9379C120.182 2.72553 119.341 2.76953 119.885 2.51494C118.283 2.57765 118.801 2.80495 118.178 3.00674C117.64 3.1807 116.558 3.19044 116.619 3.41651C116.508 3.29222 116.423 3.17189 116.312 3.04775C115.275 3.049 114.238 3.04908 113.2 3.05032C113.642 2.92056 114.084 2.79056 114.527 2.66142C114.192 2.61241 113.858 2.56359 113.524 2.51458C110.972 2.91819 106.573 2.17847 107.276 3.1924C106.045 3.22469 105.892 3.09752 105.223 2.90567C105.149 2.98265 105.077 3.04667 105.004 3.13234C104.21 3.05176 103.601 3.34076 102.901 3.26564C102.201 3.19109 102.027 2.91812 101.925 3.37696C101.472 3.24534 101.021 3.13601 100.57 3.0137C100.298 3.11794 100.026 3.22098 99.7573 3.3246C99.3321 3.26996 98.906 3.21555 98.4808 3.16091C98.2536 3.37994 96.5818 3.28553 95.8448 3.43262C95.1452 3.19652 95.1644 2.45314 93.5185 2.58635C93.561 2.77072 93.6029 2.95456 93.6453 3.13894C93.2684 3.10044 92.8906 3.06208 92.5109 3.02359C92.4882 2.96341 92.4686 2.90323 92.4459 2.84305C92.6386 2.86168 92.8287 2.8802 93.0215 2.89945C92.8542 2.79761 92.6904 2.69624 92.526 2.59441C91.9506 2.74527 91.3745 2.89616 90.7963 3.04702C91.5757 3.16125 92.3554 3.27555 93.1348 3.38978C92.1567 3.52515 91.476 3.39012 90.6256 3.54102C89.8859 3.28647 90.159 3.13979 90.4594 2.86356C90.1846 2.88715 89.9065 2.90992 89.6316 2.9335C89.813 2.65723 89.348 2.49261 90.9549 2.51494C90.8445 2.43614 90.7318 2.36101 90.6241 2.27912C90.3605 2.29153 90.1896 2.22493 89.9005 2.25531C89.1125 2.33852 88.5082 2.82378 88.5621 2.99392C88.5912 3.08305 89.3682 2.91261 89.3371 3.0386C89.2602 3.34585 87.4777 3.2079 90.0486 3.51648C89.1953 3.71208 89.0047 3.56457 88.0636 3.50806C88.1373 3.61044 88.2088 3.71218 88.2796 3.81456C87.8433 3.76739 87.4063 3.72038 86.9699 3.67321C87.5765 3.14729 84.3591 2.94975 87.2554 2.48968C86.3995 2.46609 85.5465 2.44237 84.6934 2.41754C84.8691 2.36352 85.0449 2.31006 85.2206 2.25605C85.6061 2.28461 85.9893 2.3127 86.3747 2.34064C85.9213 2.24194 85.4671 2.14382 85.0137 2.04512C83.9422 2.16745 83.5222 2.35558 83.0318 2.58782C84.2787 2.75729 83.8713 2.5258 84.843 2.47979C84.809 2.62686 84.8539 2.76214 84.769 2.91666C84.2669 2.61202 82.629 2.83364 82.2493 2.84855C81.0934 2.89379 81.9998 2.59448 81.2266 2.58818C80.4527 2.58197 79.5399 2.76013 78.9078 2.46331C78.9191 2.62967 78.9697 2.8018 79.015 2.95328C77.8102 3.00792 78.0506 2.81139 77.9259 2.78593C75.9359 2.36742 74.8561 2.72074 72.5798 2.76359C72.8689 2.81512 73.161 2.86164 73.4529 2.91007C71.7356 3.26329 72.8925 3.15513 74.3835 3.27186C72.9859 3.23647 72.1856 3.53729 71.1991 3.6267C70.2127 3.71597 68.5211 3.56147 67.9029 3.44104C69.3175 3.24731 70.8431 3.37507 72.4136 3.32167C72.2351 3.15219 72.0615 3.00876 71.8773 2.82255C70.9222 3.17825 70.3687 2.94041 70.054 2.89322C69.1301 2.75482 69.1591 3.06011 68.6008 2.73173C68.6235 2.8447 68.6401 2.93968 68.6628 3.04519C66.7551 2.998 64.6973 2.79829 63.4557 3.21547C63.3423 2.94414 63.2567 2.68273 63.1263 2.40582C62.3185 2.61006 61.6268 2.40091 60.9465 2.44866C60.269 2.49647 60.5269 2.71575 59.7305 2.80021C59.5831 2.81573 59.2761 2.67849 58.9132 2.7797C58.5468 2.88145 57.1956 3.638 57.034 2.97708C56.3509 2.97397 55.7044 2.9498 55.0355 2.93863C55.6874 2.90137 56.3396 2.86529 56.9887 2.82804C56.4331 2.66785 55.8811 2.50815 55.3255 2.34796C55.2546 2.49078 55.1836 2.63618 55.1155 2.77714C53.6188 2.951 52.5326 2.71749 51.0218 2.77274C50.7695 2.78206 51.3647 3.06442 50.2453 2.99246C49.1256 2.92043 48.2947 2.39341 46.3872 2.59697C46.2908 2.60753 45.7259 3.01116 45.0427 2.73173C44.8873 2.6684 45.5416 2.57469 45.1847 2.49151C44.8276 2.4083 43.2339 2.33988 43.1091 2.14179C43.1262 2.21194 43.2256 2.28463 43.2738 2.35602C43.0017 2.38954 42.7269 2.42309 42.452 2.45599C42.4265 2.33243 42.399 2.2087 42.3735 2.08577C40.8088 2.37325 40.0001 2.84223 37.6815 2.68705C38.3334 2.86649 38.9856 3.04665 39.6347 3.22609C39.8133 3.10004 39.9922 2.97313 40.168 2.84708C41.2365 2.89737 42.308 2.9473 43.3765 2.99759C43.5523 2.85414 43.725 2.71112 43.9007 2.56768C44.1841 2.5863 44.4648 2.60435 44.7482 2.62297C44.6773 2.72666 44.6058 2.82981 44.5321 2.9335C45.0933 2.90805 45.6551 2.88205 46.2135 2.8566C45.0768 3.46868 43.0392 2.80454 43.1862 3.31654C42.934 3.2371 42.6815 3.15711 42.4294 3.07705C42.3188 3.32531 41.806 3.25386 40.9021 3.21474C41.1091 3.33707 41.3376 3.45773 41.5275 3.5813C40.6487 3.40869 39.0899 3.42545 38.18 3.35902C37.7804 3.32984 38.1795 3.14984 38.0607 3.12868C37.4512 3.01815 36.2863 3.33222 36.0425 3.30738C34.5855 3.15957 33.6387 2.56414 32.0484 2.95657C33.6897 3.05344 32.7968 3.01253 33.3808 3.23048C33.5636 3.29882 35.684 3.44137 33.0288 3.37806C32.7175 3.37014 27.8997 2.95874 29.4834 2.64348C28.7038 2.74407 28.0935 2.86039 27.3791 2.96719C25.6329 2.13635 26.2372 2.91687 26.7446 3.34657C26.4583 3.34843 26.1859 3.35279 25.8911 3.35279C26.5176 2.90136 23.3259 2.87333 22.243 3.10122C21.8802 3.17697 22.8947 3.32147 22.0557 3.38978C21.6561 3.35812 21.2029 3.31713 20.7807 3.28175C21.393 3.56737 20.1914 3.67744 20.2082 3.968C19.44 3.70908 18.8525 3.16028 19.2746 2.86283C18.6398 2.98327 18.0016 3.10356 17.3667 3.22462C17.6615 3.29355 17.9601 3.36187 18.255 3.43079C16.1799 3.24823 13.5118 3.66365 13.0781 3.05325C12.8031 3.05759 12.5252 3.06135 12.2502 3.0657C12.1652 3.16878 12.083 3.27205 11.998 3.37513C10.7538 3.28573 9.51243 3.19574 8.26826 3.10634C9.37609 3.04238 9.6398 2.89566 10.8016 3.0148C10.3539 2.89625 9.89783 2.77704 9.45863 2.65849C7.7096 2.97766 7.47101 3.18742 4.83765 3.09243C4.71859 3.08808 2.72888 2.82043 2.66085 2.79435C2.34915 2.67514 2.8223 2.50195 2.68351 2.4417C2.29798 2.27281 -0.0447064 1.84871 0.000649868 1.78476C0.573281 0.999869 8.45531 0.989465 10.5871 0.949103C32.6981 0.530603 54.3222 1.0905 76.2944 0.994877C76.5203 0.993397 76.4217 0.877531 76.518 0.872569C77.116 0.843469 77.7033 1.02405 77.9243 1.0315C78.3967 1.04685 78.1366 0.880012 78.4818 0.879893C82.0479 0.881756 85.4131 0.979863 88.9821 0.9513C89.2145 0.949437 88.9772 1.08292 89.3854 1.05933C89.5961 1.04641 90.2558 0.841614 90.7314 0.838513C92.3925 0.827961 93.7878 0.893617 95.5397 0.890512C96.4978 0.888659 97.9352 0.906067 99.0065 0.902963C99.4797 0.901644 99.9726 0.807954 100.44 0.804823C101.103 0.800477 100.968 0.990403 101.07 1.0022C101.518 1.05373 101.58 0.84527 102.005 0.850231C102.796 0.860166 102.839 0.999345 103.842 0.987553C104.559 0.97886 106.201 0.868972 107.105 0.836682C109.22 0.998115 111.884 0.934026 113.857 0.880625C115.025 0.848969 115.133 1.04384 115.61 1.04321C117.288 1.03944 118.561 0.790557 120.137 0.782485C122.229 0.77197 124.082 0.936539 126.109 0.948371C126.437 0.950233 126.362 0.771686 126.684 0.767105C127.877 0.75034 129.404 0.717844 130.467 0.743303C131.651 0.771281 132.088 1.03044 133.248 0.977666C133.588 0.961995 133.687 0.734759 134.257 0.705585C135.167 0.659707 136.164 0.86009 136.799 0.882456C137.669 0.912262 136.913 0.680763 138.086 0.71181C138.134 0.713151 138.31 0.878633 138.562 0.870738C139.296 0.848384 139.223 0.718067 140.298 0.730486C140.401 0.732201 141.825 0.88988 141.967 0.890512C142.8 0.892996 144.478 0.948201 144.972 0.914681C146.735 0.795458 145.347 0.546561 146.846 1.08679C147.507 0.954563 148.161 0.820539 148.861 0.692036C148.394 0.811879 150.29 0.984814 150.423 0.973638C151.525 0.883578 150.869 0.67338 152.266 0.708148C150.421 1.19374 154.069 0.770736 154.883 0.758317C158.8 0.698103 162.361 0.81928 166.298 0.816175C167.617 0.814903 169.383 0.712256 170.777 0.71474C171.103 0.714887 170.857 0.829805 171.143 0.832288C171.428 0.83399 171.112 0.704984 171.438 0.71181C173.464 0.756535 175.052 0.999952 176.909 0.695698C176.999 0.739688 176.997 0.774448 177.146 0.822767C178.666 0.550193 181.592 0.91675 182.692 0.967047C184.412 1.04524 184.851 0.860999 186.101 0.898202C187.754 0.947877 190.235 1.30781 189.127 0.713641C190.261 0.69502 191.352 0.689878 192.497 0.745134C192.625 0.751397 192.537 0.902422 192.588 0.905526C192.911 0.927209 193.016 0.79199 193.234 0.785781C193.826 0.769079 192.86 0.930985 193.704 0.885752C194.149 0.861536 194.402 0.743599 195.638 0.741106C203.088 0.728066 211.175 0.770305 218.812 0.790175C219.337 0.791417 218.991 0.64537 219.649 0.654684C221.934 0.687004 226.024 0.932791 227.994 0.899301C229.964 0.865772 229.519 0.652198 230.752 0.56277C230.99 0.545383 230.795 0.667103 231.01 0.668966C232.459 0.680153 234.186 0.870005 235.359 0.898569C236.135 0.917707 236.073 0.726221 236.612 0.712543C237.414 0.692672 238.24 0.886134 238.668 0.892343C240.68 0.919621 242.063 0.7638 243.943 0.843273C243.869 0.801132 243.821 0.76212 243.758 0.720599C245.983 0.727429 248.206 0.734276 250.431 0.741106C250.326 0.702606 250.225 0.663777 250.12 0.624656C252.73 0.645784 252.432 1.06305 252.203 0.181929C252.393 0.150888 252.594 0.114908 252.775 0.0863531C252.702 0.54024 254.281 0.8724 256.291 0.98792C256.438 0.996613 257.427 0.55406 257.319 1.0769C257.577 0.948992 257.731 0.860817 257.949 0.74843C258.374 0.906724 258.805 1.06315 259.23 1.22082C259.46 1.19723 259.692 1.17446 259.922 1.15088C259.956 1.04842 259.93 0.942037 260.004 0.841443C261.069 0.825921 263.255 0.952583 264.097 0.939582C266.189 0.906672 268.319 0.629662 269.947 0.928963C270.739 0.898448 269.952 0.697353 271.131 0.722796C271.264 0.824608 271.389 0.92219 271.528 1.0271C272.492 0.572208 272.693 0.848932 274.013 0.943976C274.906 1.00855 275.491 0.897371 276.341 0.919075C276.556 0.924664 276.526 1.05818 276.673 1.05383C277.167 1.04007 278.576 0.856296 278.924 0.85133C282.082 0.802906 284.795 0.823518 287.802 0.872569C288.125 0.877537 287.706 0.74577 288.041 0.751359C288.579 0.760132 288.262 0.962606 288.574 0.972539C289.443 0.999109 289.45 0.785604 290.663 0.774429C294.657 0.737817 299.249 0.898203 303.422 0.912484C303.552 0.912484 303.544 0.787389 303.686 0.786147C304.61 0.780031 305.545 0.949128 306.384 0.947272C307.776 0.944788 308.822 0.769048 310.197 0.769669C312.884 0.77029 315.285 0.860275 318.049 0.865245C320.311 0.869592 322.276 0.852906 324.756 0.853527C335.591 0.856011 346.647 0.45894 357.555 0.670064C357.832 0.675648 357.719 0.786173 357.804 0.781387C358.609 0.733575 358.681 0.584447 358.967 0.896738C359.993 0.835191 360.316 0.600571 361.555 0.617332C362.215 0.62612 361.722 0.989763 362.839 0.80226C363.847 0.632756 362.735 0.433464 365.733 0.637107C365.813 0.642705 366.203 0.864359 366.827 0.806654C367.453 0.749526 366.728 0.590809 368.236 0.542995C371.777 0.431236 376.258 0.622835 380.374 0.563868C380.632 0.560143 383.116 0.441641 383.607 0.386997C384.556 0.280819 384.358 0.116102 385.59 0.0757334C386.543 0.0446856 387.329 0.231271 388.448 0.194014C388.579 0.189485 388.797 -0.00243974 389.639 0.0230017ZM180.962 3.75084C180.73 3.93915 180.31 4.63227 178.905 4.42134C178.771 4.40147 179.491 3.92482 178.714 3.84898C179.474 3.79869 180.214 3.7824 180.962 3.75011C180.962 3.75036 180.962 3.7506 180.962 3.75084ZM395.731 4.44258C394.679 4.40781 393.624 4.37336 392.572 4.33858C393.298 4.25476 394.025 4.17109 394.748 4.08664C395.076 4.20522 395.402 4.324 395.731 4.44258ZM264.812 4.11337C264.813 4.11337 264.814 4.11337 264.815 4.11337C263.709 4.20279 262.603 4.29238 261.498 4.38179C261.614 4.31597 261.73 4.24987 261.847 4.18405C262.72 4.08037 263.593 3.97683 264.463 3.87315C264.579 3.95324 264.696 4.03329 264.812 4.11337ZM273.546 3.41651C274.252 3.49475 274.079 3.6267 274.468 3.75524C274.468 3.75499 274.468 3.75475 274.468 3.75451C274.57 3.78797 275.048 3.81725 275.232 3.82225C275.164 3.73966 275.076 3.65814 275.003 3.57617C276.65 3.37622 279.87 4.08675 275.7 4.37301C275.763 4.26871 275.822 4.16494 275.885 4.06064C273.812 4.08982 271.502 3.86359 273.546 3.41651ZM164.3 4.05112C162.531 4.39265 161.964 4.46465 159.818 4.23056C160.121 4.13375 160.424 4.03697 160.727 3.94017C161.082 4.0389 161.433 4.13695 161.788 4.23568C161.789 4.23568 161.79 4.23568 161.791 4.23568C161.862 4.13199 161.933 4.02811 162.001 3.92442C162.766 3.96664 163.535 4.0089 164.3 4.05112ZM341.258 3.66332C341.751 4.34542 341.609 3.94894 340.201 4.10276C339.713 4.15616 340.188 4.2755 339.885 4.29537C338.247 4.40391 338.116 3.94691 338.482 3.7091C339.409 3.69295 340.345 3.67823 341.255 3.66332C341.256 3.66332 341.257 3.66332 341.258 3.66332ZM383.756 3.52161C383.757 3.52161 383.758 3.52161 383.759 3.52161C383.802 3.68798 383.142 3.73273 383.886 3.89036C383.32 3.88974 382.753 3.88842 382.184 3.8878C382.351 3.8723 382.521 3.85753 382.688 3.84203C382.541 3.7849 382.393 3.72704 382.246 3.66992C382.045 3.86115 381.858 3.74999 381.262 3.68603C381.427 3.89031 381.59 4.09475 381.755 4.29903C381.063 4.2382 380.369 4.17714 379.678 4.1163C379.669 4.06482 379.661 4.01325 379.652 3.96177C379.391 4.02757 379.133 4.09408 378.873 4.15988C378.802 4.09842 378.734 4.03751 378.663 3.97605C378.348 4.02261 378.033 4.06913 377.719 4.1163C377.623 3.96742 378.316 3.90308 377.087 3.9409C377.464 3.78816 377.84 3.63589 378.22 3.48316C380.065 3.49558 381.911 3.50857 383.756 3.52161ZM328.447 3.87315C330.479 3.84459 329.907 3.95249 329.436 4.29025C329.107 4.15119 328.775 4.0122 328.447 3.87315ZM223.734 3.57251C223.144 3.80288 222.552 4.03096 221.948 4.25326C220.746 4.3818 219.544 3.9619 220.448 3.79735C221.537 3.59991 222.674 3.82088 223.734 3.57251ZM196.358 3.67504C197.829 3.78187 196.445 4.05561 196.114 4.21518C195.707 3.95872 195.139 3.98134 194.228 3.95152C195.084 3.93489 196.115 3.6569 196.358 3.67431C196.358 3.67455 196.358 3.6748 196.358 3.67504ZM247.399 3.83141C247.988 3.82452 248.575 3.76018 249.102 3.83836C248.943 4.05865 247.888 3.85824 248.642 4.18478C248.265 4.19037 247.888 4.19579 247.514 4.20199C247.752 4.0667 247.432 3.96558 247.401 3.83214C247.4 3.83189 247.4 3.83165 247.399 3.83141ZM308.754 4.13278C307.598 3.87198 307.378 3.98358 306.213 4.16428C306.049 3.95193 307.438 3.59624 308.309 3.51795C308.456 3.72284 308.604 3.92788 308.754 4.13278ZM35.186 4.02402C35.4637 3.75336 37.5125 3.71807 38.5305 3.79808C38.4092 3.83823 38.2876 3.8789 38.1664 3.91966C37.1742 3.95443 36.1781 3.98925 35.186 4.02402ZM193.795 3.93321C193.947 3.94113 194.092 3.94705 194.228 3.95152C194.077 3.95447 193.93 3.94986 193.795 3.93321ZM132.216 2.75846C132.701 2.50328 131.26 2.41754 133.009 2.51751C133.009 2.51726 133.009 2.51702 133.009 2.51677C134.166 2.5826 134.421 2.60017 135.492 2.62004C135.107 2.94786 132.933 3.06503 135.929 3.13271C135.969 3.13301 135.89 2.93795 136.369 2.96463C136.516 2.97292 136.989 3.13301 137.709 3.17958C137.941 3.19449 139.688 3.24386 137.307 3.24696C137.378 3.47547 137.25 3.70677 137.255 3.92845C136.326 3.99287 135.612 3.54542 134.628 3.5564C133.169 3.57378 132.426 4.02626 132.145 3.43262C133.373 3.28677 135.48 3.28327 135.755 3.64025C136.943 3.6446 137.284 3.35212 136.326 3.20741C132.224 3.39122 135.2 2.77327 131.609 3.00674C131.566 3.0893 131.418 3.17815 131.441 3.25575C130.345 2.96521 132.043 2.84973 132.216 2.75846ZM140.793 3.38978C140.085 3.56427 139.378 3.74015 138.672 3.91526C138.672 3.63088 139.062 3.37567 140.178 3.21547C140.382 3.27379 140.589 3.33208 140.793 3.38978ZM81.1782 3.46448C81.0762 3.61909 80.8041 3.76078 80.6057 3.90794C80.3903 3.77754 75.2876 3.65245 77.8836 3.52454C78.2606 3.50591 80.5602 3.77931 81.1782 3.46448ZM316.785 3.89988C316.184 3.79619 315.585 3.69232 314.987 3.58862C315.908 3.52284 316.829 3.45534 317.75 3.38831C317.427 3.5588 317.107 3.7294 316.785 3.89988ZM213.951 3.30116C214.205 3.30696 213.362 3.5196 214.362 3.48609C213.616 3.62208 212.918 3.73718 212.19 3.8651C211.971 3.7645 211.751 3.66431 211.532 3.56372C211.362 3.6283 211.189 3.69249 211.019 3.75707C211.121 3.61052 211.212 3.4674 211.319 3.31837C212.547 3.63257 212.828 3.27632 213.951 3.30116ZM250.449 2.72807C250.67 3.04656 248.892 3.23595 250.641 3.28688C250.309 3.49612 249.776 3.60588 248.753 3.62451C248.588 3.54448 248.424 3.46504 248.26 3.38502C248.237 3.59916 247.974 3.67875 247.399 3.83141C247.399 3.83116 247.398 3.83092 247.398 3.83067C245.842 3.84618 245.935 3.77478 245.561 3.42274C247.208 3.62144 247.257 3.2998 248.379 3.10854C249.15 2.97703 250.157 3.03659 250.449 2.72807ZM86.6149 3.46082C85.4503 3.72967 86.4955 3.98043 84.4291 3.69482C84.5623 3.62651 84.6961 3.55879 84.8294 3.49048C85.4245 3.47993 86.0198 3.47013 86.6149 3.46082ZM256.197 3.81969C256.064 3.32668 254.967 2.94292 254.78 3.74498C255.849 3.90829 255.327 3.45397 256.197 3.81969ZM196.86 2.90311C198.915 2.92611 198.526 3.48255 197.682 3.76073C197.551 3.65952 197.421 3.55812 197.293 3.45752C196.933 3.50347 196.573 3.54952 196.213 3.59485C196.429 3.36447 196.644 3.13348 196.86 2.90311ZM292.426 3.27809C290.855 3.63017 294.121 3.4739 293.024 3.69372C292.148 3.86943 290.994 3.51467 291.431 3.29237C291.734 3.28616 292.072 3.28181 292.423 3.27809C292.424 3.27809 292.425 3.27809 292.426 3.27809ZM283.338 3.37879C283.596 3.75497 283.224 3.64532 284.465 3.57763C284.819 3.55838 287.635 3.69967 286.453 3.38795C285.447 3.38795 284.384 3.38252 283.338 3.37879ZM173.105 3.4535C173.086 3.28968 175.255 2.92997 175.533 3.01992C175.533 3.01968 175.533 3.01943 175.533 3.01919C176.284 3.26446 173.997 3.29931 174.989 3.63586C172.792 3.33972 172.135 4.05603 172.288 3.1122C173.582 3.0708 172.969 3.26536 173.105 3.4535ZM8.28488 3.25282C8.28387 3.25282 8.28286 3.25282 8.28186 3.25282C8.42746 3.26053 9.62718 3.50095 9.48129 3.58423C8.03855 3.51282 8.29566 3.35457 6.95251 3.61462C6.87888 3.53086 6.81579 3.44962 6.73649 3.36524C7.26943 3.31557 7.56484 3.21494 8.28488 3.25282ZM75.6614 3.13418C76.1915 3.09133 77.1589 3.26887 77.7627 3.25831C75.8408 3.94011 73.5441 3.30433 75.6614 3.13418ZM363.88 3.54504C363.878 3.54529 363.877 3.54553 363.875 3.54578C363.876 3.54541 363.876 3.54505 363.877 3.54468C363.878 3.5448 363.879 3.54492 363.88 3.54504ZM116.74 3.54321C116.671 3.49895 116.633 3.46051 116.619 3.42676C116.619 3.42359 116.619 3.42042 116.619 3.41724C116.656 3.45868 116.695 3.50059 116.74 3.54321ZM168.599 3.50293C167.696 3.27447 170.705 2.91125 171.678 2.99795C171.61 3.10223 171.599 3.19677 171.441 3.31654C170.655 3.0465 168.749 3.54143 168.599 3.50293ZM237.196 3.41907C234.818 3.41286 237.913 2.5108 238.041 3.23048C238.036 3.24443 237.258 3.41785 237.196 3.41907ZM187.355 3.40845C187.961 3.13535 186.743 3.06282 188.69 3.11001C188.804 3.18075 188.917 3.25166 189.03 3.3224C188.472 3.35095 187.913 3.3799 187.355 3.40845ZM221.616 2.23481C218.622 2.38693 215.76 2.65531 217.709 3.40845C217.936 3.38426 218.166 3.36087 218.392 3.33668C218.426 2.96924 219.262 3.16981 220.486 3.18178C220.66 3.0359 221.339 3.00217 221.466 2.87821C221.713 2.63858 220.933 2.47011 221.616 2.23481ZM347.993 2.8328C347.944 2.89552 347.897 2.95856 347.849 3.02066C347.376 3.09144 346.901 3.16189 346.428 3.23268C346.504 3.11232 346.581 2.99197 346.657 2.87162C347.102 2.85858 347.545 2.84547 347.99 2.83243C347.991 2.83255 347.992 2.83268 347.993 2.8328ZM143.71 2.61455C143.438 3.30486 144.389 3.17772 146.316 2.82877C145.449 2.75736 144.578 2.68596 143.71 2.61455ZM269.717 2.51458C269.779 2.71069 269.841 2.9062 269.906 3.10232C270.929 2.89802 270.739 2.67343 270.249 2.41387C270.07 2.44737 269.895 2.48108 269.717 2.51458ZM284.458 2.43109C284.033 2.39017 284.25 2.54852 284.205 2.54534C283.131 2.46213 282.98 2.38949 281.661 2.50872C281.5 2.55031 281.341 2.59405 281.179 2.63689C281.789 3.04783 282.231 2.82385 283.521 3.06533C283.288 2.92437 283.057 2.78322 282.825 2.64165C283.542 2.67144 284.256 2.70083 284.973 2.73063C285.058 2.68716 285.143 2.6441 285.228 2.60063C284.973 2.54476 284.71 2.48198 284.458 2.43109ZM353.467 3.01113C354.164 3.02728 354.865 3.04406 355.562 3.0602C355.588 2.959 355.612 2.8571 355.638 2.7559C354.915 2.84095 354.19 2.92608 353.467 3.01113ZM129.393 2.92911C129.337 2.96501 129.283 3.00113 129.235 3.03787C129.24 2.9931 129.301 2.95815 129.393 2.92911ZM6.44494 2.69767C5.65418 2.6269 4.51467 2.67337 3.64728 2.65849C3.71547 2.91239 5.92006 2.84221 6.6942 2.99612C6.81859 2.95056 6.7792 2.72746 6.44494 2.69767ZM199.703 2.92545C199.901 2.79879 200.099 2.67273 200.295 2.54607C200.774 2.55973 201.254 2.57415 201.736 2.58782C201.75 2.48412 201.764 2.37952 201.778 2.27582C199.656 2.41054 200.145 2.11152 199.094 1.81661C199.298 2.18601 199.499 2.55543 199.703 2.92545ZM375.655 2.35345C374.121 2.42362 373.577 2.55467 374.442 2.86576C374.983 2.79437 375.528 2.72292 376.069 2.65153C375.93 2.55221 375.791 2.45278 375.655 2.35345ZM101.463 2.69474C100.179 2.81098 100.158 2.39349 98.9038 2.62663C99.5755 2.70361 100.247 2.78145 100.916 2.85843C101.097 2.804 101.282 2.74918 101.463 2.69474ZM164.404 1.54819C163.863 1.40296 162.851 2.09334 161.329 1.58372C160.966 1.73582 160.739 1.8811 160.427 2.0301C160.245 1.86803 160.039 1.7039 159.866 1.54307C159.865 1.54307 159.864 1.54307 159.863 1.54307C158.483 1.59771 159.378 1.80097 159.347 1.97298C159.332 2.04428 158.307 1.92509 158.628 2.08027C159.18 2.34666 161.246 2.19348 161.252 2.51824C160.526 2.4121 159.109 2.50079 159.528 2.71745C159.987 2.95525 161.323 2.55672 162.173 2.75407C160.954 2.23501 163.471 2.39534 163.758 2.79398C165.235 2.48786 163.877 2.36298 162.363 2.37726C163.287 2.07175 161.927 2.23681 161.703 1.98287C162.656 1.82957 165.926 1.95736 164.404 1.54819ZM234.083 2.11103C233.062 2.13073 231.467 1.95611 230.769 2.21393C230.362 2.36414 231.96 2.48046 230.858 2.71635C231.852 2.69335 232.079 2.60121 231.909 2.39447C232.136 2.36964 232.365 2.34543 232.592 2.32123C232.697 2.36157 232.804 2.40137 232.909 2.4417C233.028 2.35664 233.148 2.27226 233.264 2.1872C233.505 2.20395 233.749 2.22073 233.989 2.2381C234.018 2.19533 234.066 2.15811 234.083 2.11103ZM64.6143 2.70756C64.8977 2.70508 65.1784 2.70261 65.4618 2.6995C65.4305 2.64915 65.3933 2.59672 65.3575 2.54497C65.3318 2.50408 65.3062 2.46319 65.2805 2.4223C65.4447 2.56839 66.7949 2.81122 67.3636 2.6552C67.6496 2.57693 66.9989 2.29906 68.2111 2.25055C67.3326 2.26484 66.5187 2.30276 65.6657 2.32635C65.7422 2.24377 65.8157 2.1603 65.8923 2.07771C65.8918 2.07759 65.8913 2.07747 65.8908 2.07734C65.6074 2.05872 65.3206 2.03921 65.0373 2.02058C64.8955 2.24972 64.756 2.47843 64.6143 2.70756ZM268.886 2.12678C267.919 2.28885 267.596 2.37301 268.052 2.63505C268.053 2.63518 268.054 2.6353 268.055 2.63542C268.415 2.51932 268.775 2.40327 269.135 2.28717C269.053 2.23377 268.971 2.18018 268.886 2.12678ZM121.066 2.06416C119.011 3.05952 123.639 2.44935 122.758 2.1103C122.718 2.09478 121.259 2.17407 121.066 2.06416ZM196.482 2.59697C197.046 2.5889 197.612 2.58161 198.179 2.57353C198.048 2.45121 197.915 2.3293 197.784 2.20698C197.351 2.33676 196.916 2.46719 196.482 2.59697ZM368.978 1.90157C368.384 1.62835 366.86 1.52936 366.115 1.8265C366.507 1.86127 366.898 1.89609 367.289 1.93087C366.55 1.965 365.818 2.00259 365.073 2.03486C365.033 2.41551 365.892 2.19468 367.185 2.29962C367.385 2.31655 368.665 2.78904 369.106 2.43292C369.195 2.35972 367.834 2.30995 368.78 2.09712C368.367 2.08037 368.009 2.08408 367.619 2.07478C367.59 1.98412 367.562 1.89336 367.531 1.8027C368.014 1.83552 368.495 1.86875 368.978 1.90157ZM228.14 2.14069C226.738 2.11969 226.565 2.27178 226.273 2.54058C226.925 2.51015 227.577 2.48019 228.229 2.44976C228.198 2.34695 228.171 2.24412 228.14 2.14069ZM356.446 1.81442C355.678 1.77045 356.007 1.98924 355.698 2.03084C354.53 2.18729 353.734 2.03092 352.58 2.12898C352.657 2.08675 352.727 2.04728 352.801 2.0063C352.8 2.0063 352.799 2.0063 352.798 2.0063C347.336 1.8219 350.205 2.31809 353.473 2.23737C353.55 2.31871 353.623 2.40016 353.7 2.48089C355.162 2.3387 356.511 2.20187 356.446 1.81442ZM139.325 2.0301C139.263 1.97919 139.793 1.65561 138.798 1.80709C138.01 2.27953 139.302 2.04504 139.626 2.22675C139.356 2.27208 139.081 2.31618 138.814 2.36151C140.424 2.49501 140.659 2.38268 140.073 2.03743C140.031 2.01423 139.387 2.08086 139.325 2.0301ZM128.743 1.79721C128.522 2.4933 130.554 2.18028 130.48 1.96419C130.2 1.95557 129.982 2.07343 129.684 2.02132C129.384 1.96916 129.307 1.80657 128.743 1.79721ZM186.961 1.96749C186.901 1.96438 186.303 1.67182 186.363 1.90084C187.102 2.44293 188.593 2.094 188.332 1.90523C187.839 1.91457 187.511 1.99591 186.961 1.96675C186.961 1.967 186.961 1.96724 186.961 1.96749ZM378.226 1.73752C378.198 1.71809 376.706 1.6005 376.513 1.70969C376.354 1.83261 376.276 1.96436 376.157 2.09162C376.979 1.97364 378.643 2.06352 378.223 1.73752C378.224 1.73752 378.225 1.73752 378.226 1.73752Z" fill="#361F0F"/>
</svg>
