<svg width="713" height="3" viewBox="0 0 713 3" fill="none" xmlns="http://www.w3.org/2000/svg">
<path d="M653.794 2.70998C655.405 2.84526 650.027 2.75658 653.598 2.95862C652.853 2.97227 652.104 2.98635 651.36 3C651.171 2.92517 650.977 2.85053 650.788 2.77571C651.788 2.75367 652.789 2.73164 653.794 2.70961C653.794 2.70973 653.794 2.70985 653.794 2.70998ZM655.159 1.77289C654.243 1.98631 651.331 2.04321 654.476 2.24015C654.726 2.16691 654.983 2.09368 655.233 2.02043C656.325 2.07724 657.423 2.13403 658.515 2.19053C658.908 2.16261 659.3 2.13465 659.693 2.10704C660.193 2.23432 660.689 2.36194 661.189 2.48953C660.745 2.4709 660.295 2.45195 659.851 2.43332C658.095 2.53667 656.533 2.56494 654.15 2.58419C654.359 2.6143 654.569 2.64416 654.778 2.67427C653.569 2.62305 652.36 2.57169 651.156 2.52047C652.202 2.47019 653.371 2.41427 654.34 2.3674C652.789 2.16784 650.053 2.27891 648.629 2.32053C646.689 2.37734 647.128 2.28245 645.689 2.32218C645.459 2.32839 645.433 2.40276 644.979 2.40402C642.687 2.40992 638.236 2.3705 640.839 2.19694C644.611 2.21929 647.828 2.07992 651.528 2.13084C650.549 1.93016 652.499 1.86187 655.159 1.77289ZM585.868 2.41189C587.011 2.31443 589.339 2.35376 590.916 2.42142C590.917 2.42142 590.919 2.42142 590.921 2.42142C591.268 2.43632 592.054 2.56585 590.921 2.56057C589.074 2.55152 588.181 2.34763 587.211 2.48605C586.777 2.46028 586.322 2.43735 585.868 2.41189ZM581.853 2.42398C580.72 2.37399 581.234 2.22036 582.653 2.26194C582.653 2.26182 582.653 2.26169 582.653 2.26157C583.245 2.27896 582.083 2.4004 584.206 2.27714C584.639 2.37303 585.066 2.46027 585.495 2.55306C584.975 2.55461 584.501 2.55713 583.956 2.55837C584.323 2.40075 582.986 2.47357 581.853 2.42398ZM638.924 2.28373C638.746 2.42553 639.492 2.42463 640.763 2.52303C639.564 2.51838 638.364 2.51341 637.17 2.50875C637.757 2.43365 638.338 2.35883 638.924 2.28373ZM667.099 2.3057C667.101 2.3057 667.103 2.3057 667.105 2.3057C667.498 2.28335 667.892 2.26091 668.28 2.23887C668.515 2.28948 668.747 2.33986 668.982 2.39047C670.37 2.34297 671.766 2.29547 673.154 2.24766C672.985 2.40225 670.493 2.37709 669.12 2.48513C667.079 2.43856 666.095 2.34883 665.962 2.21781C666.34 2.24698 666.717 2.27653 667.099 2.3057ZM333.224 1.6894C332.76 1.73223 332.301 1.7751 331.837 1.81793C332.454 1.83748 333.067 1.8524 333.689 1.87506C335.317 1.68879 335.47 1.85356 337.603 1.8421C344.141 1.80671 342.406 1.51741 348.311 1.94115C343.57 1.921 345.392 2.12011 342.534 2.27347C341.942 2.15673 344.774 1.89345 342.855 1.8388C339.548 1.96235 336.368 2.07742 332.699 2.15721C332.806 2.17739 332.913 2.19763 333.02 2.21781C333.602 2.20508 334.179 2.19227 334.761 2.17955C334.133 2.23357 333.519 2.28712 332.881 2.34177C333.688 2.21914 331.632 2.28766 331.907 2.14677C332.03 2.08405 332.938 1.99705 333.474 1.93713C332.091 1.90453 330.673 1.87468 329.275 1.84301C329.999 1.79305 330.723 1.74302 331.442 1.69306C332.034 1.69151 332.621 1.6904 333.213 1.68885C333.217 1.68903 333.22 1.68921 333.224 1.6894ZM35.5717 2.3414C37.3275 2.19548 40.5181 2.17133 42.1973 2.33371C39.9873 2.3362 37.7817 2.33892 35.5717 2.3414ZM665.829 2.10979C666.028 2.13459 666.221 2.15913 666.419 2.18394C665.542 2.22988 664.659 2.2755 663.781 2.32144C663.613 2.24976 663.441 2.17805 663.267 2.10667C664.119 2.1076 664.977 2.10885 665.829 2.10979ZM609.675 2.18962C610.317 2.18528 610.374 2.18763 611.173 2.19785C611.172 2.19779 611.171 2.19773 611.171 2.19767C611.488 2.20149 614.14 2.24336 613.844 2.29856C612.527 2.29949 611.123 2.29856 609.775 2.29856C609.735 2.26225 609.726 2.22623 609.675 2.18962ZM625.175 2.22184C625.177 2.22196 625.179 2.22208 625.181 2.22221C625.66 2.23059 626.114 2.24766 626.609 2.25077C624.828 2.33764 624.546 2.18179 622.929 2.22587C621.311 2.27026 620.311 2.35626 618.939 2.14274C619.449 2.11076 619.998 2.06501 620.524 2.02776C622.821 2.11313 623.439 2.03279 625.281 1.94866C625.246 2.03993 625.211 2.13057 625.175 2.22184ZM362.332 2.12132C362.771 2.01577 363.26 2.11934 363.311 2.12059C363.31 2.12071 363.309 2.12083 363.308 2.12095C367.196 2.0232 362.802 2.17938 366.472 2.19584C365.926 2.22222 365.389 2.25008 364.848 2.27677C364.011 2.22587 363.148 2.16819 362.332 2.12132ZM488.651 2.13121C488.687 2.16194 488.73 2.19275 488.765 2.22349C486.561 2.21635 485.998 2.33735 484.166 2.22715C485.661 2.19487 487.156 2.16281 488.651 2.13084C488.651 2.13096 488.651 2.13109 488.651 2.13121ZM598.561 1.96605C601.006 1.90737 602.815 1.88152 605.162 1.97466C605.164 1.97478 605.166 1.9749 605.168 1.97503C605.303 1.98076 604.648 2.04507 604.825 2.06126C605.31 2.05165 605.81 2.03686 606.299 2.02538C606.366 2.07687 606.429 2.12836 606.495 2.17955C605.117 2.16495 603.739 2.15038 602.356 2.13579C602.56 2.1659 602.769 2.19575 602.973 2.22587C601.799 2.24139 600.63 2.25685 599.456 2.27237C599.864 2.18796 600.272 2.10352 600.675 2.01879C599.971 2.0011 599.265 1.98405 598.561 1.96605ZM451.944 1.79486C452.332 1.82839 451.613 1.88463 452.216 1.91351C452.818 1.94201 453.928 1.87944 453.668 1.97411C452.857 1.98683 452.006 2.00142 451.179 2.01476C453.838 2.18547 456.491 2.031 456.532 2.2418C453.98 2.18716 451.882 2.21254 449.411 2.27091C449.514 2.10358 451.985 1.9589 450.429 1.80182C450.929 1.79964 451.454 1.79647 451.938 1.79523C451.94 1.7951 451.942 1.79498 451.944 1.79486ZM701.547 0.0115008C703.057 0.0242304 706.519 -0.0440601 708.428 0.0534299C708.897 0.077455 710.462 0.38867 710.454 0.429693C710.408 0.567852 708.497 0.586657 710.544 0.67669C709.855 0.677625 709.187 0.682812 708.504 0.685296C708.627 0.778128 708.748 0.870714 708.866 0.963236C709.698 0.949264 710.531 0.935223 711.363 0.920941C711.404 0.951678 711.444 0.982484 711.485 1.01322C708.494 1.01384 710.26 1.13248 708.708 1.24301C710.137 1.29888 711.576 1.35448 713 1.41036C712.178 1.40353 711.209 1.39847 710.484 1.3904C710.387 1.5478 712.116 1.51027 712.413 1.53944C714.081 1.70429 705.585 1.62109 704.889 1.85015C706.247 1.87561 707.671 1.90045 709.059 1.92559C708.661 1.95384 708.258 1.98211 707.859 2.01036C704.711 1.85237 701.18 1.7964 697.51 1.698C697.179 1.70452 696.847 1.7112 696.52 1.71741C696.617 1.78848 696.709 1.85928 696.806 1.93035C696.306 1.93873 695.799 1.94705 695.299 1.95544C696.774 1.72136 694.732 1.72455 692.266 1.58174C693.578 1.49947 695.196 1.54935 695.084 1.39608C690.583 1.514 685.311 1.34735 680.933 1.48048C679.846 1.51339 679.849 1.71111 677.293 1.69287C677.38 1.67114 677.395 1.6319 677.451 1.60334C673.031 1.69804 670.349 1.75465 665.756 1.65809C666.021 1.72915 666.282 1.80051 666.547 1.87158C667.522 1.83618 668.499 1.80023 669.468 1.76483C670.132 1.88218 669.151 1.93397 672.06 1.93273C674.444 1.9318 673.025 1.87998 673.673 1.84521C674.551 1.79774 675.321 1.89113 676.265 1.83807C676.995 1.7974 676.206 1.70057 678.109 1.7251C677.344 1.85053 676.563 1.98005 675.792 2.10704C675.328 2.07879 674.867 2.0501 674.402 2.02153C674.872 1.988 675.333 1.95491 675.803 1.92138C674.149 1.98161 672.587 2.03841 670.877 2.10081C671.434 1.91949 669.666 1.98748 668.707 2.0089C667.212 2.04239 668.493 1.91761 667.513 1.93841C666.533 1.95953 665.476 2.09894 663.705 2.06914C664.654 1.98843 663.363 1.91605 663.612 1.84155C663.863 1.76705 665.736 1.75055 663.936 1.66926C660.476 1.73104 664.231 2.01475 661.894 2.06072C659.087 2.11598 658.419 1.6535 659.255 1.55409C659.914 1.47585 662.179 1.49158 662.843 1.41365C658.785 1.27301 658.75 1.55066 658.056 1.60499C655.535 1.80275 657.228 1.27492 654.243 1.46584C654.299 1.36713 654.344 1.27835 654.4 1.18368C653.885 1.20169 653.543 1.22562 652.921 1.23989C654.756 1.43222 653.254 1.42397 652.483 1.42427C651.268 1.42489 653.144 1.5187 652.823 1.54292C651.955 1.60772 650.583 1.5783 651.425 1.66303C651.047 1.6236 650.638 1.58405 650.25 1.54493C648.831 1.59406 645.495 2.00604 648.67 1.92284C648.374 2.07591 647.347 2.00234 646.545 1.97905C645.744 1.95579 645.759 2.05327 645.055 2.03527C642.253 1.96323 644.086 1.79648 644.53 1.66578C640.83 1.75581 644.452 1.81538 639.12 1.87561C638.605 1.9821 641.068 2.09573 639.017 2.15721C638.639 1.9722 637.128 1.8393 634.183 1.77783C633.898 1.82037 633.612 1.86328 633.327 1.90582C631.719 1.73505 632.541 1.55748 629.565 1.76923C631.163 1.37959 630.064 1.62886 627.4 1.47023C626.859 1.43825 628.109 1.35741 627.354 1.31643C627.011 1.29795 626.18 1.35897 625.344 1.31185C624.936 1.28857 623.027 1.13833 621.705 1.20968C622.675 1.39845 620.163 1.55904 622.317 1.71521C618.336 1.67671 615.549 1.76735 620.01 1.50996C619 1.45283 617.988 1.39595 616.978 1.33913C616.273 1.38415 615.563 1.42882 614.853 1.47353C614.746 1.31838 614.854 1.27486 612.079 1.30215C613.283 1.26553 614.482 1.2283 615.691 1.19137C615.732 1.16004 615.9 1.12748 615.86 1.09708C614.379 1.15667 610.209 1.18231 609.199 1.2236C608.188 1.26489 610.14 1.27619 609.849 1.31625C607.425 1.64652 607.617 1.40293 605.878 1.45961C604.857 1.49314 607.294 1.52955 606.748 1.54383C604.723 1.59618 603.784 1.42065 601.988 1.41841C602.626 1.51805 603.259 1.61923 603.881 1.71979C601.998 1.71451 599.898 1.71363 598.148 1.74561C597.461 1.75809 597.98 1.83219 597.868 1.83715C597.311 1.86261 595.045 1.90294 594.805 1.90325C592.999 1.90384 592.948 1.80121 591.193 1.79559C591.882 1.7869 592.53 1.77907 593.203 1.77069C593.509 1.6043 593.822 1.43791 594.128 1.2712C592.408 1.2591 590.688 1.24724 588.963 1.23513C590.223 1.2907 591.488 1.346 592.749 1.40157C590.779 1.536 588.809 1.67074 586.839 1.80548C585.813 1.7229 584.791 1.64033 583.765 1.55775C580.979 1.57953 581.54 1.91476 580.218 1.6211C579.397 1.64593 578.576 1.67074 577.754 1.69526C577.871 1.65335 577.988 1.61137 578.105 1.56947C577.115 1.59524 576.125 1.62084 575.135 1.64692C576.176 1.79531 577.197 1.95146 578.227 2.0955C576.279 2.12775 576.242 2.00186 575.951 1.97045C575.18 1.88724 573.65 1.99948 573.038 1.92248C572.831 1.89604 574.74 1.81317 574.082 1.71759C573.954 1.69907 571.397 1.34773 569.766 1.42885C569.797 1.4925 569.923 1.57054 569.989 1.63978C567.795 1.67844 566.676 1.3462 566.967 1.25308C565.798 1.31827 564.09 1.32372 563.85 1.42555C563.253 1.42804 562.66 1.43039 562.063 1.43288C562.686 1.18486 560.195 1.23021 560.032 1.4435C561.057 1.44878 562.085 1.45433 563.11 1.45961C562.335 1.72103 565.452 1.87882 558.965 1.63666C557.725 1.50067 561.17 1.65519 560.159 1.55336C558.404 1.49408 556.756 1.54368 555.087 1.44899C553.01 1.33071 555.565 1.21694 550.727 1.36751C561.399 1.74473 549.263 1.62234 544.251 1.73938C542.873 1.36681 538.64 1.2488 532.811 1.35964C533.418 1.46333 535.252 1.40991 536.309 1.44405C537.365 1.47819 536.222 1.53971 537.538 1.58814C538.855 1.63656 541.651 1.70239 542.983 1.77563C541.855 1.83432 536.283 1.97307 539.967 1.80639C537.217 1.70365 535.926 1.59807 532.517 1.57881C531.497 1.74056 531.572 1.84128 528.25 1.84594C530.215 1.62118 526.439 1.46496 527.271 1.23275C529.627 1.28684 528.31 1.51253 529.672 1.62055C529.812 1.63135 532.007 1.57477 532.517 1.57881C530.302 1.37607 529.536 1.3006 530.899 1.05936C529.332 1.08047 528.357 1.05019 528.214 1.16537C527.888 1.1154 527.56 1.06539 527.238 1.01542C526.728 1.01666 526.269 1.02129 525.728 1.02036C526.473 1.19412 525.03 1.08715 524.004 1.16592C522.978 1.24478 524.355 1.38195 521.537 1.38381C522.476 1.42448 523.335 1.45938 524.243 1.49788C522.427 1.54258 520.604 1.58757 518.787 1.63227C520.063 1.73844 522.829 1.89613 522.753 2.03581C521.916 1.98308 519.049 2.07576 518.736 2.07957C517.521 2.09386 518.183 2.00576 518.091 2.00359C516.183 1.96078 514.611 1.99077 513.886 1.8573C512.452 1.91752 511.371 1.88318 509.85 1.88659C509.013 1.88845 509.176 1.98649 508.686 1.96789C505.43 1.8437 508.532 1.71701 502.251 1.95818C503.011 2.02648 503.761 2.09635 504.522 2.16526C503.812 2.19103 503.107 2.21694 502.397 2.24271C501.923 2.23029 501.452 2.21778 500.978 2.20536C500.988 2.05728 501 1.90889 501.01 1.7608C500.49 1.75273 499.967 1.74489 499.446 1.73682C500.34 1.72223 501.235 1.70765 502.128 1.69306C502.21 1.667 502.286 1.64093 502.367 1.61488C501.04 1.57451 499.718 1.53379 498.391 1.49312C498.366 1.54463 498.34 1.5965 498.315 1.64802C495.324 1.5763 495.253 1.53269 492.41 1.67457C490.22 1.67301 488.437 1.8884 487.172 1.97905C486.717 1.95019 486.263 1.92095 485.803 1.89208C485.513 1.93493 485.219 1.97759 484.928 2.02043C484.351 1.96083 483.766 1.90121 483.19 1.84192C482.868 1.97721 482.702 2.01945 484.952 2.06694C484.181 2.23521 480.22 2.16098 478.607 2.10448C477.383 2.0616 478.741 1.92124 478.588 1.90417C478.077 1.84617 476.06 1.89621 475.637 1.88659C473.845 1.84654 472.59 1.85355 470.972 1.82251C470.657 1.81629 469.776 1.72734 469.702 1.72455C469.12 1.70934 467.684 1.6661 467.52 1.66486C459.096 1.59846 468.098 1.98438 460.264 1.94372C460.499 1.99461 460.714 2.04516 460.944 2.09605C460.352 2.09916 459.754 2.10211 459.162 2.10521C458.412 2.06267 459.32 1.98532 457.83 2.04772C457.927 1.985 458.024 1.92226 458.126 1.85986C457.478 1.8937 456.853 1.92727 456.189 1.96111C455.148 1.74348 451.347 1.69405 451.617 1.43855C451.709 1.35162 454.404 1.26242 452.98 1.16959C451.823 1.15131 452.606 1.25514 452.134 1.26058C448.725 1.29846 448.923 1.15293 447.529 1.19174C447.31 1.25411 447.079 1.3177 446.855 1.3807C446.329 1.36239 445.802 1.34408 445.272 1.32577C445.149 1.36768 445.022 1.40964 444.899 1.45155C445.394 1.45435 445.952 1.45718 446.406 1.45998C445.773 1.62232 439.956 1.69524 442.174 1.55683C443.077 1.50065 444.732 1.52452 443.686 1.33272C442.13 1.36036 440.363 1.38859 438.725 1.41622C438.674 1.37492 438.627 1.33355 438.576 1.29226C436.368 1.31899 438.376 1.48409 438.372 1.57258C437.867 1.57506 437.356 1.57724 436.851 1.57972C436.637 1.53971 436.434 1.49783 436.209 1.45906C436.189 1.52273 435.906 1.67073 434.401 1.61579C433.433 1.58003 434.957 1.41939 433.111 1.44167C433.249 1.541 433.916 1.66198 431.86 1.69397C431.656 1.5903 431.374 1.49532 431.216 1.38637C428.659 1.48597 427.496 1.32587 424.495 1.44167C422.591 1.51494 419.983 1.77505 418.753 1.37429C417.361 1.36374 417.802 1.46354 417.39 1.48598C415.446 1.59216 413.999 1.40213 413.637 1.39095C411.326 1.3193 410.29 1.38508 408.407 1.29537C408.509 1.36958 408.564 1.43982 408.646 1.51216C410.371 1.40101 411.245 1.40622 413.664 1.43013C412.853 1.44503 412.041 1.46027 411.23 1.47517C411.363 1.53539 411.494 1.59562 411.622 1.65552C419.104 1.41832 417.359 1.79309 411.086 1.87506C410.545 1.76362 409.984 1.65247 409.448 1.54072C405.825 1.70961 404.12 1.563 400.021 1.52791C399.534 1.52389 397.76 1.58809 396.997 1.59126C397.009 1.59168 397.022 1.59211 397.035 1.59254C396.56 1.69777 397.203 1.74621 397.28 1.84027C396.866 1.85206 396.453 1.86381 396.039 1.87561C395.116 1.80391 395.441 1.74501 393.624 1.76209C393.869 1.83349 394.111 1.90491 394.356 1.97631C392.365 1.97879 391.063 1.90121 389.21 1.93475C389.521 1.90773 389.829 1.88065 390.14 1.85363C386.108 1.78471 389.317 1.36491 386.27 1.57386C386.076 1.53724 385.887 1.50026 385.693 1.46364C386.948 1.45464 388.204 1.44591 389.455 1.43691C389.48 1.38508 389.508 1.33347 389.528 1.28164C388.186 1.29716 386.837 1.31317 385.494 1.3287C386.474 1.29392 387.46 1.2591 388.44 1.22433C386.884 1.1995 385.327 1.17465 383.77 1.14981C385.423 1.3404 383.28 1.36371 383.683 1.55244C380.927 1.39534 378.762 1.18825 374.49 1.32082C373.643 1.34723 374.103 1.47912 371.699 1.31863C372.281 1.52848 369.27 1.62695 369.657 1.82654C370.493 1.81691 371.361 1.81086 372.172 1.79907C371.249 1.72984 371.096 1.53938 372.499 1.48286C374.29 1.41084 376.903 1.54283 376.796 1.33144C377.511 1.34137 378.175 1.34723 378.869 1.35561C378.583 1.40805 378.304 1.46082 378.023 1.51326C379.997 1.43104 381.238 1.45778 382.187 1.58997C379.835 1.6204 377.487 1.6505 375.134 1.68061C375.481 1.6896 375.832 1.69866 376.179 1.70734C374.398 1.8424 376.235 1.97032 372.912 1.9992C372.933 1.93743 372.949 1.87561 372.969 1.81354C371.76 1.97871 368.448 1.97781 369.504 2.16783C368.504 2.10946 368.3 2.07255 367.734 2.17497C365.095 2.0306 363.4 1.84803 364.339 1.63007C363.36 1.66515 362.379 1.70028 361.405 1.73535C361.971 1.79495 362.538 1.85427 363.104 1.91387C361.4 1.91015 359.683 1.90648 357.983 1.90307C357.82 1.72674 361.264 1.84958 360.27 1.69196C360.071 1.66032 359.154 1.72809 358.913 1.71027C356.371 1.51748 360.362 1.65677 359.612 1.50905C355.825 1.46341 358.856 1.21589 353.639 1.42391C353.501 1.373 353.353 1.32107 353.226 1.27047C351.415 1.26742 351.562 1.3824 350.006 1.40413C349.031 1.41765 347.807 1.21573 346.731 1.35323C346.539 1.37858 348.35 1.62537 344.544 1.61451C341.59 1.60609 342.82 1.43169 341.223 1.36989C339.625 1.30811 335.971 1.54993 334.894 1.27578C335.731 1.31209 336.797 1.33168 337.725 1.36147C338.103 1.30808 338.471 1.25526 338.843 1.20218C336.72 1.2711 334.525 1.18987 333.096 1.31716C330.263 1.12249 327.095 1.30314 327.953 1.52296C328.885 1.49127 327.871 1.39542 329.166 1.4565C329.299 1.50773 329.438 1.5587 329.571 1.60993C327.366 1.60372 325.835 1.60516 326.84 1.44899C326.498 1.44526 326.16 1.44155 325.818 1.43782C325.756 1.55084 325.702 1.66427 325.641 1.77728C325.233 1.79001 324.822 1.80264 324.414 1.81537C323.96 1.79054 323.505 1.76543 323.046 1.7403C323.664 1.56146 324.716 1.55556 321.235 1.45558C321.224 1.51737 321.209 1.57891 321.199 1.64069C318.285 1.56215 318.208 1.41248 314.549 1.41805C317.356 1.20353 318.892 1.58379 318.882 1.15347C319.586 1.18173 320.296 1.21036 321.001 1.23861C321.108 1.17621 321.214 1.11371 321.316 1.05131C317.535 1.08422 311.253 1.49464 308.721 1.2225C308.414 1.25571 308.107 1.28458 307.796 1.32027C305.315 1.15603 304.244 1.52477 301.728 1.3124C301.468 1.29011 302.011 0.943681 298.736 0.956095C298.817 1.00112 298.86 1.0769 298.926 1.1337C298.217 1.10608 297.512 1.07717 296.807 1.04892C296.68 1.09051 296.546 1.13208 296.419 1.17398C297.628 1.19012 298.835 1.20654 300.044 1.22268C299.039 1.23696 298.027 1.25125 297.022 1.26553C298.334 1.3335 298.925 1.33422 298.135 1.44313C296.997 1.44965 295.857 1.45657 294.719 1.46309C294.601 1.49099 294.485 1.51922 294.368 1.54713C294.919 1.63033 295.476 1.7117 296.027 1.79614C293.062 1.72815 290.484 1.72446 288.207 1.56086C287.819 1.53323 289.191 1.42484 286.548 1.5226C286.507 1.46519 286.436 1.41857 286.39 1.3655C283.154 1.52633 282.091 1.47832 278.718 1.3622C280.902 1.47056 278.953 1.40009 278.397 1.45815C278.015 1.49815 279.503 1.49224 279.335 1.53413C279.167 1.57573 277.233 1.74371 278.886 1.76392C282.939 1.4196 284.043 1.83126 289.249 1.66578C288.448 1.71017 287.641 1.75467 286.839 1.79907C287.217 1.82916 287.554 1.85646 287.962 1.88842C285.059 1.82106 286.471 1.86482 285.278 1.9179C284.084 1.97099 281.913 2.0161 280.458 2.03069C280 2.03527 280.483 1.95805 279.449 1.95086C278.745 1.94589 276.82 2.06038 276.376 1.92541C276.085 1.83755 279.177 1.59562 274.902 1.5962C274.097 1.51007 276.147 1.53682 276.191 1.52644C276.563 1.42398 273.935 1.34695 272.72 1.42519C272.622 1.43194 273.581 1.51178 272.538 1.5431C270.063 1.61793 268.633 1.52636 267.03 1.40248C266.857 1.54779 264.774 1.72132 262.181 1.66761C262.048 1.70919 261.922 1.75114 261.789 1.79303C262.192 1.77102 262.594 1.74931 262.997 1.7273C263.436 1.75338 263.901 1.77236 264.329 1.8031C261.722 1.83883 261.353 2.03908 260.103 2.11235C255.824 2.36263 258.417 1.8332 259.189 1.74194C259.745 1.77889 260.283 1.82013 260.834 1.85894C260.773 1.80834 260.711 1.75734 260.655 1.70642C254.25 1.70797 259.679 1.37791 256.428 1.28384C255.591 1.53282 253.203 1.55682 250.162 1.39882C249.825 1.40006 249.487 1.40038 249.15 1.40193C249.094 1.43824 249.095 1.49373 249.003 1.51765C245.338 1.55988 244.685 1.17643 244.338 1.14011C242.797 0.978996 241.597 1.20191 241.143 1.20382C239.229 1.21159 238.672 1.11261 236.851 1.15512C234.891 1.20106 236.231 1.27701 235.635 1.34499C235.157 1.39898 233.611 1.40859 232.972 1.46455C233.226 1.41879 233.508 1.3739 233.761 1.32796C231.73 1.26557 230.07 1.20475 227.763 1.18954C225.161 1.52443 222.946 0.959521 223.844 1.41768C226.029 1.44904 227.25 1.50125 228.419 1.61799C226.985 1.63289 225.55 1.6474 224.116 1.6623C223.698 1.61201 223.401 1.56301 222.906 1.51179C221.834 1.61858 219.35 1.57275 218.374 1.60407C213.806 1.75093 215.22 1.93307 211.05 1.62696C214.055 1.59713 214.05 1.44846 217.031 1.46895C216.388 1.36277 214.873 1.38477 215.853 1.25747C212.97 1.28883 213.902 1.40248 212.78 1.50337C211.812 1.59035 209.863 1.59522 209.973 1.70825C209.773 1.64611 209.619 1.58594 209.421 1.52388C207.553 1.5245 205.685 1.52454 203.818 1.52516C204.614 1.46028 205.41 1.39528 206.206 1.33071C205.604 1.30621 205.001 1.28179 204.4 1.25729C199.806 1.4591 191.885 1.08924 193.15 1.5962C190.935 1.61234 190.658 1.54876 189.454 1.45284C189.321 1.49132 189.192 1.52334 189.06 1.56617C187.631 1.52588 186.534 1.67038 185.274 1.63282C184.013 1.59555 183.7 1.45906 183.517 1.68848C182.7 1.62267 181.888 1.568 181.077 1.50685C180.587 1.55897 180.098 1.61049 179.614 1.6623C178.848 1.63498 178.081 1.60777 177.315 1.58045C176.906 1.68997 173.896 1.64276 172.569 1.71631C171.309 1.59826 171.344 1.22657 168.38 1.29318C168.457 1.38536 168.532 1.47728 168.609 1.56947C167.93 1.55022 167.25 1.53104 166.566 1.51179C166.526 1.4817 166.49 1.45161 166.449 1.42153C166.796 1.43084 167.139 1.4401 167.486 1.44972C167.184 1.3988 166.89 1.34812 166.593 1.2972C165.558 1.37264 164.52 1.44808 163.479 1.52351C164.883 1.58062 166.286 1.63778 167.69 1.69489C165.929 1.76257 164.703 1.69506 163.172 1.77051C161.84 1.64323 162.332 1.5699 162.873 1.43178C162.378 1.44357 161.877 1.45496 161.382 1.46675C161.709 1.32861 160.872 1.24631 163.765 1.25747C163.566 1.21807 163.363 1.18051 163.169 1.13956C162.695 1.14577 162.387 1.11246 161.866 1.12766C160.447 1.16926 159.36 1.41189 159.457 1.49696C159.509 1.54152 160.908 1.4563 160.852 1.5193C160.713 1.67292 157.504 1.60395 162.133 1.75824C160.597 1.85604 160.253 1.78228 158.559 1.75403C158.692 1.80522 158.82 1.85609 158.948 1.90728C158.162 1.88369 157.376 1.86019 156.59 1.83661C157.682 1.57364 151.889 1.47488 157.104 1.24484C155.563 1.23304 154.027 1.22118 152.491 1.20877C152.807 1.18176 153.124 1.15503 153.44 1.12802C154.134 1.1423 154.824 1.15635 155.518 1.17032C154.702 1.12097 153.884 1.07191 153.068 1.02256C151.138 1.08372 150.382 1.17779 149.499 1.29391C151.744 1.37864 151.011 1.2629 152.76 1.23989C152.699 1.31343 152.78 1.38107 152.627 1.45833C151.723 1.30601 148.774 1.41682 148.09 1.42427C146.009 1.4469 147.641 1.29724 146.249 1.29409C144.855 1.29099 143.212 1.38006 142.074 1.23166C142.094 1.31484 142.185 1.4009 142.267 1.47664C140.098 1.50396 140.53 1.40569 140.306 1.39296C136.723 1.18371 134.779 1.36037 130.68 1.38179C131.201 1.40756 131.727 1.43082 132.252 1.45503C129.16 1.63164 131.243 1.57757 133.928 1.63593C131.412 1.61823 129.97 1.76864 128.194 1.81335C126.418 1.85798 123.373 1.78074 122.26 1.72052C124.806 1.62365 127.553 1.68753 130.381 1.66083C130.06 1.5761 129.747 1.50438 129.416 1.41127C127.696 1.58912 126.699 1.4702 126.133 1.44661C124.469 1.37741 124.521 1.53006 123.516 1.36586C123.557 1.42235 123.587 1.46984 123.628 1.5226C120.193 1.499 116.488 1.39914 114.252 1.60774C114.048 1.47207 113.894 1.34137 113.659 1.20291C112.205 1.30503 110.959 1.20045 109.735 1.22433C108.515 1.24824 108.979 1.35788 107.545 1.4001C107.28 1.40787 106.727 1.33924 106.074 1.38985C105.414 1.44073 102.981 1.819 102.69 1.48854C101.46 1.48699 100.296 1.4749 99.0916 1.46931C100.265 1.45069 101.44 1.43265 102.608 1.41402C101.608 1.33393 100.614 1.25407 99.6139 1.17398C99.4863 1.24539 99.3583 1.31809 99.2358 1.38857C96.5409 1.4755 94.5853 1.35875 91.8649 1.38637C91.4107 1.39103 92.4823 1.53221 90.4669 1.49623C88.451 1.46022 86.9549 1.1967 83.5204 1.29849C83.3468 1.30376 82.3297 1.50558 81.0997 1.36586C80.8198 1.3342 81.9979 1.28734 81.3553 1.24575C80.7122 1.20415 77.8428 1.16994 77.6182 1.0709C77.6488 1.10597 77.8279 1.14231 77.9147 1.17801C77.4249 1.19477 76.93 1.21154 76.4351 1.22799C76.3892 1.16622 76.3396 1.10435 76.2936 1.04288C73.4764 1.18663 72.0204 1.42111 67.8457 1.34353C69.0195 1.43325 70.1938 1.52333 71.3625 1.61304C71.6841 1.55002 72.0062 1.48657 72.3226 1.42354C74.2465 1.44868 76.1758 1.47365 78.0996 1.49879C78.4161 1.42707 78.727 1.35556 79.0434 1.28384C79.5537 1.29315 80.059 1.30217 80.5693 1.31149C80.4417 1.36333 80.313 1.4149 80.1804 1.46675C81.1907 1.45402 82.2023 1.44103 83.2076 1.4283C81.161 1.73434 77.4923 1.40227 77.7569 1.65827C77.3029 1.61855 76.8483 1.57855 76.3943 1.53852C76.1952 1.66266 75.2719 1.62693 73.6445 1.60737C74.0171 1.66853 74.4285 1.72886 74.7705 1.79065C73.1883 1.70435 70.3816 1.71273 68.7433 1.67951C68.0237 1.66492 68.7425 1.57492 68.5284 1.56434C67.431 1.50908 65.3336 1.66611 64.8947 1.65369C62.2713 1.57979 60.5666 1.28207 57.7033 1.47829C60.6586 1.52672 59.0508 1.50626 60.1022 1.61524C60.4314 1.64941 64.2492 1.72069 59.4685 1.68903C58.908 1.68507 50.2335 1.47937 53.085 1.32174C51.6814 1.37204 50.5824 1.43019 49.2962 1.4836C46.1521 1.06818 47.2402 1.45843 48.1538 1.67328C47.6383 1.67421 47.1479 1.6764 46.6171 1.6764C47.7451 1.45068 41.9983 1.43666 40.0486 1.55061C39.3954 1.58849 41.222 1.66074 39.7113 1.69489C38.992 1.67906 38.1759 1.65856 37.4158 1.64088C38.5181 1.78368 36.3546 1.83872 36.3849 1.984C35.0019 1.85454 33.944 1.58014 34.7041 1.43141C33.561 1.49163 32.4119 1.55178 31.2689 1.61231C31.7996 1.64677 32.3373 1.68093 32.8681 1.7154C29.132 1.62412 24.328 1.83182 23.5471 1.52662C23.0521 1.5288 22.5517 1.53068 22.0566 1.53285C21.9035 1.58439 21.7555 1.63603 21.6024 1.68757C19.3623 1.64287 17.1272 1.59787 14.887 1.55317C16.8817 1.52119 17.3565 1.44783 19.4483 1.5074C18.6422 1.44812 17.8211 1.38852 17.0303 1.32925C13.8812 1.48883 13.4516 1.59371 8.71021 1.54621C8.49584 1.54404 4.91337 1.41021 4.79087 1.39717C4.22966 1.33757 5.08156 1.25097 4.83167 1.22085C4.13752 1.1364 -0.0804944 0.924357 0.00117009 0.892378C1.0322 0.499934 15.2238 0.494733 19.0621 0.474552C58.8731 0.265301 97.8075 0.545252 137.368 0.497439C137.775 0.496699 137.598 0.438766 137.771 0.436284C138.848 0.421734 139.905 0.512023 140.303 0.515748C141.154 0.523425 140.685 0.440006 141.307 0.439946C147.728 0.440878 153.787 0.489931 160.213 0.47565C160.631 0.474719 160.204 0.541462 160.939 0.529664C161.318 0.523204 162.506 0.420807 163.362 0.419256C166.353 0.413981 168.865 0.446809 172.02 0.445256C173.745 0.444329 176.333 0.453033 178.262 0.451481C179.114 0.450822 180.001 0.403977 180.843 0.402412C182.037 0.400238 181.793 0.495201 181.977 0.501101C182.783 0.526864 182.895 0.422635 183.661 0.425116C185.085 0.430083 185.161 0.499673 186.968 0.493777C188.259 0.48943 191.215 0.434486 192.843 0.418341C196.651 0.499057 201.448 0.467013 205.001 0.440313C207.104 0.424485 207.298 0.521918 208.156 0.521607C211.177 0.51972 213.47 0.395279 216.307 0.391243C220.073 0.385985 223.411 0.46827 227.059 0.474185C227.651 0.475116 227.515 0.385843 228.095 0.383553C230.244 0.37517 232.992 0.358922 234.906 0.371651C237.039 0.385641 237.826 0.515222 239.913 0.488833C240.525 0.480998 240.704 0.36738 241.73 0.352792C243.368 0.329853 245.164 0.430045 246.308 0.441228C247.875 0.456131 246.512 0.340381 248.625 0.355905C248.712 0.356575 249.028 0.439317 249.482 0.435369C250.804 0.424192 250.672 0.359033 252.607 0.365243C252.792 0.366101 255.357 0.44494 255.612 0.445256C257.113 0.446498 260.134 0.4741 261.022 0.457341C264.197 0.397729 261.697 0.27328 264.397 0.543396C265.586 0.477282 266.765 0.41027 268.026 0.346018C267.185 0.405939 270.598 0.492407 270.838 0.486819C272.822 0.441789 271.64 0.33669 274.156 0.354074C270.834 0.596868 277.402 0.385368 278.867 0.379158C285.921 0.349051 292.332 0.40964 299.421 0.408088C301.795 0.407452 304.975 0.356128 307.486 0.35737C308.071 0.357444 307.629 0.414903 308.144 0.416144C308.658 0.416995 308.088 0.352492 308.674 0.355905C312.324 0.378267 315.183 0.499976 318.526 0.347849C318.688 0.369844 318.683 0.387224 318.953 0.411383C321.688 0.275097 326.957 0.458375 328.937 0.483523C332.035 0.52262 332.826 0.430499 335.076 0.449101C338.052 0.473939 342.519 0.653907 340.524 0.356821C342.565 0.34751 344.53 0.344939 346.592 0.372567C346.822 0.375699 346.663 0.451211 346.755 0.452763C347.337 0.463604 347.526 0.395995 347.919 0.392891C348.985 0.38454 347.246 0.465492 348.765 0.442876C349.567 0.430768 350.022 0.371799 352.247 0.370553C365.66 0.364033 380.222 0.385152 393.972 0.395088C394.917 0.395709 394.295 0.322685 395.479 0.327342C399.593 0.343502 406.956 0.466395 410.504 0.44965C414.051 0.432886 413.251 0.326099 415.47 0.281385C415.899 0.272692 415.547 0.333551 415.935 0.334483C418.543 0.340076 421.653 0.435003 423.766 0.449284C425.163 0.458854 425.051 0.36311 426.021 0.356271C427.465 0.346336 428.952 0.443067 429.722 0.446172C433.346 0.459811 435.837 0.3819 439.22 0.421637C439.088 0.400566 439 0.38106 438.888 0.360299C442.895 0.363714 446.896 0.367138 450.902 0.370553C450.713 0.351303 450.531 0.331888 450.342 0.312328C455.042 0.322892 454.506 0.531524 454.092 0.0909646C454.434 0.0754442 454.797 0.0574541 455.123 0.0431765C454.991 0.27012 457.834 0.4362 461.452 0.49396C461.718 0.498307 463.499 0.27703 463.305 0.538452C463.769 0.474496 464.046 0.430409 464.439 0.374215C465.204 0.453362 465.98 0.531573 466.745 0.610409C467.159 0.598614 467.578 0.587232 467.991 0.575438C468.052 0.524209 468.005 0.471019 468.138 0.420721C470.057 0.41296 473.992 0.476292 475.509 0.469791C479.276 0.453336 483.11 0.314831 486.04 0.464481C487.467 0.449224 486.05 0.348677 488.172 0.361398C488.412 0.412304 488.638 0.461095 488.888 0.513551C490.622 0.286104 490.985 0.424466 493.362 0.471988C494.97 0.504275 496.022 0.448685 497.553 0.459538C497.941 0.462332 497.886 0.52909 498.152 0.526917C499.041 0.520033 501.577 0.428148 502.204 0.425665C507.89 0.401453 512.774 0.411759 518.189 0.436284C518.771 0.438768 518.017 0.372885 518.619 0.37568C519.588 0.380066 519.017 0.481303 519.579 0.48627C521.145 0.499554 521.157 0.392802 523.34 0.387215C530.532 0.368908 538.8 0.449101 546.313 0.456242C546.547 0.456242 546.533 0.393695 546.788 0.393074C548.452 0.390015 550.136 0.474564 551.646 0.473636C554.152 0.472394 556.036 0.384524 558.511 0.384834C563.35 0.385145 567.673 0.430137 572.649 0.432623C576.722 0.434796 580.259 0.426453 584.725 0.426763C604.233 0.428005 624.139 0.22947 643.779 0.335032C644.279 0.337824 644.075 0.393087 644.228 0.390693C645.677 0.366788 645.807 0.292224 646.322 0.448369C648.169 0.417595 648.751 0.300285 650.981 0.308666C652.17 0.31306 651.282 0.494882 653.293 0.40113C655.109 0.316378 653.105 0.216732 658.505 0.318553C658.648 0.321352 659.351 0.43218 660.474 0.403327C661.602 0.374763 660.296 0.295404 663.011 0.271498C669.386 0.215618 677.455 0.311418 684.866 0.281934C685.33 0.280071 689.803 0.220821 690.686 0.193499C692.395 0.140409 692.038 0.058051 694.257 0.0378667C695.972 0.0223428 697.387 0.115635 699.403 0.0970068C699.638 0.0947427 700.032 -0.00121992 701.547 0.0115008ZM325.823 1.87542C325.405 1.96958 324.649 2.31614 322.119 2.21067C321.879 2.20074 323.174 1.96241 321.776 1.92449C323.144 1.89934 324.476 1.8912 325.823 1.87506C325.823 1.87518 325.823 1.8753 325.823 1.87542ZM712.516 2.22129C710.622 2.2039 708.722 2.18668 706.829 2.16929C708.135 2.12738 709.444 2.08555 710.745 2.04332C711.337 2.10261 711.924 2.162 712.516 2.22129ZM476.795 2.05669C476.797 2.05669 476.799 2.05669 476.801 2.05669C474.81 2.1014 472.818 2.14619 470.828 2.1909C471.037 2.15799 471.247 2.12494 471.456 2.09203C473.028 2.04019 474.6 1.98842 476.167 1.93658C476.376 1.97662 476.586 2.01665 476.795 2.05669ZM492.521 1.70825C493.792 1.74738 493.481 1.81335 494.181 1.87762C494.181 1.8775 494.181 1.87738 494.181 1.87725C494.365 1.89398 495.225 1.90862 495.557 1.91113C495.434 1.86983 495.276 1.82907 495.144 1.78809C498.109 1.68811 503.908 2.04337 496.4 2.1865C496.512 2.13435 496.62 2.08247 496.732 2.03032C493.001 2.04491 488.842 1.9318 492.521 1.70825ZM295.823 2.02556C292.638 2.19632 291.617 2.23233 287.753 2.11528C288.299 2.06688 288.845 2.01848 289.39 1.97008C290.028 2.01945 290.662 2.06848 291.3 2.11784C291.302 2.11784 291.303 2.11784 291.305 2.11784C291.433 2.06599 291.561 2.01406 291.683 1.96221C293.061 1.98332 294.445 2.00445 295.823 2.02556ZM614.437 1.83166C615.325 2.17271 615.069 1.97447 612.533 2.05138C611.655 2.07808 612.511 2.13775 611.965 2.14769C609.016 2.20195 608.78 1.97345 609.438 1.85455C611.107 1.84648 612.793 1.83911 614.432 1.83166C614.434 1.83166 614.435 1.83166 614.437 1.83166ZM690.955 1.7608C690.957 1.7608 690.959 1.7608 690.961 1.7608C691.037 1.84399 689.849 1.86637 691.189 1.94518C690.169 1.94487 689.149 1.94421 688.124 1.9439C688.425 1.93615 688.732 1.92876 689.032 1.92101C688.767 1.89245 688.501 1.86352 688.236 1.83496C687.873 1.93058 687.537 1.87499 686.465 1.84301C686.761 1.94516 687.055 2.04737 687.352 2.14952C686.106 2.1191 684.857 2.08857 683.612 2.05815C683.596 2.03241 683.581 2.00663 683.566 1.98089C683.096 2.01378 682.631 2.04704 682.162 2.07994C682.034 2.04921 681.912 2.01876 681.784 1.98803C681.218 2.0113 680.65 2.03456 680.084 2.05815C679.912 1.98371 681.16 1.95154 678.947 1.97045C679.626 1.89408 680.303 1.81795 680.987 1.74158C684.31 1.74779 687.633 1.75428 690.955 1.7608ZM591.37 1.93658C595.029 1.9223 593.999 1.97625 593.151 2.14512C592.56 2.0756 591.962 2.0061 591.37 1.93658ZM402.834 1.78625C401.772 1.90144 400.706 2.01548 399.619 2.12663C397.455 2.1909 395.29 1.98095 396.918 1.89868C398.878 1.79995 400.925 1.91044 402.834 1.78625ZM353.544 1.83752C356.192 1.89093 353.701 2.0278 353.103 2.10759C352.371 1.97936 351.35 1.99067 349.709 1.97576C351.25 1.96745 353.106 1.82845 353.544 1.83715C353.544 1.83728 353.544 1.8374 353.544 1.83752ZM445.443 1.9157C446.504 1.91226 447.56 1.88009 448.508 1.91918C448.222 2.02933 446.324 1.92912 447.682 2.09239C447.003 2.09518 446.323 2.09789 445.65 2.101C446.078 2.03335 445.502 1.98279 445.446 1.91607C445.445 1.91595 445.444 1.91583 445.443 1.9157ZM555.914 2.06639C553.831 1.93599 553.437 1.99179 551.339 2.08214C551.043 1.97597 553.545 1.79812 555.111 1.75897C555.377 1.86142 555.643 1.96394 555.914 2.06639ZM63.3525 2.01201C63.8525 1.87668 67.5414 1.85903 69.3743 1.89904C69.156 1.91911 68.9371 1.93945 68.7188 1.95983C66.9324 1.97722 65.1389 1.99463 63.3525 2.01201ZM348.928 1.9666C349.203 1.97057 349.463 1.97353 349.709 1.97576C349.436 1.97723 349.172 1.97493 348.928 1.9666ZM238.055 1.37923C238.928 1.25164 236.335 1.20877 239.483 1.25875C239.483 1.25863 239.483 1.25851 239.483 1.25839C241.566 1.2913 242.026 1.30009 243.955 1.31002C243.26 1.47393 239.346 1.53252 244.741 1.56636C244.812 1.56651 244.671 1.46897 245.532 1.48231C245.798 1.48646 246.65 1.56651 247.945 1.58979C248.363 1.59724 251.509 1.62193 247.221 1.62348C247.349 1.73774 247.119 1.85338 247.129 1.96422C245.456 1.99644 244.169 1.77271 242.399 1.7782C239.771 1.78689 238.433 2.01313 237.928 1.71631C240.138 1.64339 243.933 1.64163 244.428 1.82013C246.566 1.8223 247.18 1.67606 245.456 1.60371C238.071 1.69561 243.429 1.38663 236.962 1.50337C236.886 1.54465 236.62 1.58908 236.66 1.62788C234.686 1.48261 237.744 1.42487 238.055 1.37923ZM253.499 1.69489C252.223 1.78213 250.951 1.87008 249.68 1.95763C249.68 1.81544 250.381 1.68784 252.392 1.60774C252.759 1.6369 253.132 1.66604 253.499 1.69489ZM146.162 1.73224C145.978 1.80955 145.488 1.88039 145.131 1.95397C144.743 1.88877 135.556 1.82622 140.23 1.76227C140.909 1.75295 145.049 1.88965 146.162 1.73224ZM570.373 1.94994C569.29 1.89809 568.213 1.84616 567.136 1.79431C568.794 1.76142 570.453 1.72767 572.11 1.69416C571.53 1.7794 570.953 1.8647 570.373 1.94994ZM385.22 1.65058C385.677 1.65348 384.159 1.7598 385.96 1.74304C384.617 1.81104 383.36 1.86859 382.048 1.93255C381.655 1.88225 381.258 1.83216 380.865 1.78186C380.559 1.81415 380.247 1.84624 379.94 1.87853C380.124 1.80526 380.288 1.7337 380.482 1.65919C382.692 1.81629 383.199 1.63816 385.22 1.65058ZM450.935 1.36403C451.332 1.52328 448.132 1.61798 451.28 1.64344C450.683 1.74806 449.723 1.80294 447.88 1.81225C447.584 1.77224 447.289 1.73252 446.994 1.69251C446.953 1.79958 446.479 1.83938 445.443 1.9157C445.442 1.91558 445.441 1.91546 445.44 1.91534C442.639 1.92309 442.807 1.88739 442.133 1.71137C445.099 1.81072 445.187 1.6499 447.208 1.55427C448.597 1.48851 450.409 1.51829 450.935 1.36403ZM155.951 1.73041C153.854 1.86483 155.736 1.99022 152.015 1.84741C152.255 1.81326 152.496 1.77939 152.736 1.74524C153.807 1.73996 154.879 1.73507 155.951 1.73041ZM461.284 1.90984C461.044 1.66334 459.07 1.47146 458.733 1.87249C460.657 1.95415 459.717 1.72698 461.284 1.90984ZM354.447 1.45155C358.147 1.46306 357.448 1.74128 355.927 1.88037C355.692 1.82976 355.457 1.77906 355.228 1.72876C354.579 1.75174 353.931 1.77476 353.283 1.79742C353.671 1.68224 354.059 1.56674 354.447 1.45155ZM526.515 1.63904C523.687 1.81509 529.567 1.73695 527.592 1.84686C526.015 1.93471 523.936 1.75733 524.722 1.64619C525.268 1.64308 525.876 1.64091 526.509 1.63904C526.511 1.63904 526.513 1.63904 526.515 1.63904ZM510.152 1.6894C510.616 1.87748 509.947 1.82266 512.181 1.78882C512.819 1.77919 517.888 1.84983 515.76 1.69397C513.949 1.69397 512.035 1.69126 510.152 1.6894ZM311.677 1.72675C311.643 1.64484 315.547 1.46498 316.048 1.50996C316.048 1.50984 316.048 1.50972 316.048 1.5096C317.4 1.63223 313.283 1.64966 315.069 1.81793C311.113 1.66986 309.93 2.02802 310.206 1.5561C312.536 1.5354 311.433 1.63268 311.677 1.72675ZM14.917 1.62641C14.9151 1.62641 14.9133 1.62641 14.9115 1.62641C15.1737 1.63026 17.3338 1.75047 17.0711 1.79211C14.4735 1.75641 14.9364 1.67728 12.518 1.80731C12.3855 1.76543 12.2719 1.72481 12.1291 1.68262C13.0886 1.65778 13.6205 1.60747 14.917 1.62641ZM136.229 1.56709C137.183 1.54566 138.925 1.63444 140.012 1.62916C136.552 1.97006 132.416 1.65217 136.229 1.56709ZM655.167 1.77252C655.165 1.77264 655.162 1.77277 655.159 1.77289C655.16 1.7727 655.161 1.77252 655.162 1.77234C655.164 1.7724 655.165 1.77246 655.167 1.77252ZM210.19 1.77161C210.067 1.74948 209.998 1.73025 209.973 1.71338C209.973 1.71179 209.973 1.71021 209.973 1.70862C210.039 1.72934 210.11 1.7503 210.19 1.77161ZM303.564 1.75147C301.938 1.63723 307.355 1.45563 309.107 1.49898C308.984 1.55111 308.965 1.59838 308.68 1.65827C307.266 1.52325 303.834 1.77071 303.564 1.75147ZM427.073 1.70954C422.791 1.70643 428.364 1.2554 428.594 1.61524C428.585 1.62221 427.184 1.70892 427.073 1.70954ZM337.334 1.70423C338.425 1.56767 336.232 1.53141 339.738 1.555C339.942 1.59037 340.146 1.62583 340.35 1.6612C339.345 1.67548 338.339 1.68995 337.334 1.70423ZM399.02 1.1174C393.631 1.19347 388.476 1.32766 391.987 1.70423C392.395 1.69213 392.808 1.68044 393.216 1.66834C393.277 1.48462 394.783 1.58491 396.986 1.59089C397.3 1.51795 398.522 1.50109 398.751 1.4391C399.194 1.31929 397.791 1.23505 399.02 1.1174ZM626.562 1.4164C626.476 1.44776 626.391 1.47928 626.304 1.51033C625.452 1.54572 624.597 1.58095 623.745 1.61634C623.882 1.55616 624.02 1.49599 624.158 1.43581C624.959 1.42929 625.756 1.42273 626.557 1.41622C626.559 1.41628 626.561 1.41634 626.562 1.4164ZM258.751 1.30727C258.261 1.65243 259.972 1.58886 263.443 1.41439C261.881 1.37868 260.313 1.34298 258.751 1.30727ZM485.627 1.25729C485.739 1.35535 485.849 1.4531 485.967 1.55116C487.809 1.44901 487.467 1.33672 486.584 1.20694C486.263 1.22369 485.948 1.24054 485.627 1.25729ZM512.167 1.21554C511.403 1.19509 511.793 1.27426 511.713 1.27267C509.778 1.23106 509.506 1.19475 507.133 1.25436C506.842 1.27516 506.556 1.29703 506.265 1.31844C507.362 1.52391 508.159 1.41193 510.481 1.53267C510.062 1.46219 509.646 1.39161 509.227 1.32082C510.518 1.33572 511.804 1.35042 513.095 1.36532C513.248 1.34358 513.401 1.32205 513.554 1.30032C513.095 1.27238 512.621 1.24099 512.167 1.21554ZM636.419 1.50557C637.675 1.51364 638.936 1.52203 640.192 1.5301C640.238 1.4795 640.282 1.42855 640.328 1.37795C639.026 1.42047 637.72 1.46304 636.419 1.50557ZM232.972 1.46455C232.873 1.4825 232.775 1.50057 232.689 1.51893C232.698 1.49655 232.806 1.47907 232.972 1.46455ZM11.6042 1.34884C10.1804 1.31345 8.12868 1.33668 6.56695 1.32925C6.68972 1.4562 10.6591 1.4211 12.0529 1.49806C12.2769 1.47528 12.206 1.36373 11.6042 1.34884ZM359.566 1.46272C359.923 1.39939 360.28 1.33636 360.632 1.27303C361.495 1.27987 362.359 1.28708 363.227 1.29391C363.252 1.24206 363.277 1.18976 363.303 1.13791C359.481 1.20527 360.362 1.05576 358.47 0.908307C358.837 1.09301 359.198 1.27771 359.566 1.46272ZM676.369 1.17673C673.607 1.21181 672.628 1.27734 674.185 1.43288C675.159 1.39719 676.139 1.36146 677.114 1.32577C676.864 1.2761 676.614 1.22639 676.369 1.17673ZM182.684 1.34737C180.374 1.40549 180.335 1.19674 178.077 1.31332C179.286 1.35181 180.495 1.39073 181.7 1.42922C182.025 1.402 182.359 1.37459 182.684 1.34737ZM296.011 0.774097C295.036 0.701479 293.213 1.04667 290.473 0.791858C289.82 0.867909 289.411 0.940552 288.849 1.01505C288.523 0.934017 288.151 0.851948 287.84 0.771534C287.838 0.771534 287.836 0.771534 287.835 0.771534C285.349 0.798856 286.961 0.900487 286.904 0.986489C286.878 1.02214 285.033 0.962544 285.61 1.04014C286.605 1.17333 290.324 1.09674 290.334 1.25912C289.028 1.20605 286.476 1.2504 287.231 1.35872C288.058 1.47763 290.462 1.27836 291.993 1.37703C289.799 1.11751 294.331 1.19767 294.846 1.39699C297.506 1.24393 295.062 1.18149 292.336 1.18863C294 1.03588 291.551 1.1184 291.147 0.991433C292.863 0.914787 298.751 0.978678 296.011 0.774097ZM421.468 1.05552C419.63 1.06537 416.758 0.978057 415.5 1.10697C414.767 1.18207 417.645 1.24023 415.661 1.35817C417.451 1.34668 417.86 1.3006 417.554 1.19723C417.962 1.18482 418.375 1.17272 418.783 1.16061C418.972 1.18078 419.165 1.20068 419.354 1.22085C419.569 1.17832 419.784 1.13613 419.993 1.0936C420.427 1.10198 420.865 1.11036 421.299 1.11905C421.35 1.09767 421.437 1.07905 421.468 1.05552ZM116.338 1.35378C116.849 1.35254 117.354 1.3513 117.864 1.34975C117.808 1.32458 117.741 1.29836 117.677 1.27249C117.63 1.25204 117.584 1.23159 117.538 1.21115C117.834 1.2842 120.265 1.40561 121.289 1.3276C121.803 1.28846 120.632 1.14953 122.814 1.12528C121.233 1.13242 119.767 1.15138 118.231 1.16318C118.369 1.12188 118.502 1.08015 118.639 1.03885C118.638 1.03879 118.638 1.03873 118.637 1.03867C118.126 1.02936 117.61 1.0196 117.1 1.01029C116.845 1.12486 116.594 1.23921 116.338 1.35378ZM484.131 1.06339C482.39 1.14442 481.808 1.18651 482.629 1.31753C482.631 1.31759 482.633 1.31765 482.635 1.31771C483.283 1.25966 483.931 1.20163 484.579 1.14359C484.431 1.11688 484.284 1.09009 484.131 1.06339ZM217.98 1.03208C214.28 1.52976 222.613 1.22467 221.026 1.05515C220.955 1.04739 218.327 1.08703 217.98 1.03208ZM353.767 1.29849C354.783 1.29445 355.801 1.2908 356.822 1.28677C356.587 1.2256 356.346 1.16465 356.112 1.10349C355.331 1.16838 354.548 1.2336 353.767 1.29849ZM664.347 0.950785C663.278 0.814174 660.534 0.764679 659.193 0.913251C659.897 0.930637 660.602 0.948046 661.306 0.965433C659.975 0.982502 658.658 1.00129 657.316 1.01743C657.244 1.20776 658.791 1.09734 661.118 1.14981C661.479 1.15827 663.783 1.39452 664.578 1.21646C664.738 1.17986 662.287 1.15497 663.991 1.04856C663.246 1.04018 662.603 1.04204 661.899 1.03739C661.848 0.99206 661.797 0.946679 661.741 0.901349C662.612 0.917762 663.477 0.934373 664.347 0.950785ZM410.768 1.07035C408.243 1.05984 407.931 1.13589 407.406 1.27029C408.58 1.25508 409.754 1.24009 410.928 1.22488C410.872 1.17348 410.823 1.12206 410.768 1.07035ZM641.783 0.907208C640.401 0.885225 640.993 0.994621 640.436 1.01542C638.334 1.09365 636.9 1.01546 634.823 1.06449C634.961 1.04338 635.087 1.02364 635.22 1.00315C635.218 1.00315 635.216 1.00315 635.214 1.00315C625.379 0.91095 630.545 1.15905 636.43 1.11868C636.568 1.15936 636.7 1.20008 636.838 1.24044C639.472 1.16935 641.9 1.10094 641.783 0.907208ZM250.855 1.01505C250.743 0.989594 251.697 0.827805 249.906 0.903546C248.487 1.13977 250.814 1.02252 251.396 1.11337C250.912 1.13604 250.416 1.15809 249.936 1.18075C252.835 1.24751 253.258 1.19134 252.202 1.01871C252.126 1.00711 250.968 1.04043 250.855 1.01505ZM231.802 0.898603C231.404 1.24665 235.063 1.09014 234.93 0.982095C234.425 0.977787 234.033 1.03672 233.497 1.01066C232.956 0.984582 232.818 0.903285 231.802 0.898603ZM336.624 0.983743C336.517 0.98219 335.44 0.835912 335.547 0.950419C336.879 1.22147 339.563 1.047 339.093 0.952616C338.206 0.957285 337.614 0.997956 336.624 0.983376C336.624 0.983499 336.624 0.983621 336.624 0.983743ZM680.998 0.868758C680.947 0.859047 678.26 0.800252 677.914 0.854843C677.628 0.916306 677.486 0.982178 677.272 1.04581C678.752 0.986822 681.748 1.03176 680.993 0.868758C680.994 0.868758 680.996 0.868758 680.998 0.868758Z" fill="#482812"/>
</svg>
