<svg width="396" height="10" viewBox="0 0 396 10" fill="none" xmlns="http://www.w3.org/2000/svg">
<path d="M363.117 8.62993C364.012 9.03579 361.025 8.76974 363.008 9.37586C362.595 9.41681 362.178 9.45905 361.765 9.5C361.66 9.27552 361.553 9.0516 361.448 8.82712C362.003 8.76102 362.559 8.69493 363.117 8.62883C363.117 8.62919 363.117 8.62956 363.117 8.62993ZM363.875 5.81866C363.366 6.45892 361.749 6.62962 363.496 7.22045C363.635 7.00072 363.777 6.78103 363.916 6.5613C364.523 6.73172 365.133 6.9021 365.739 7.07159C365.957 6.98782 366.175 6.90396 366.393 6.82112C366.671 7.20295 366.946 7.58582 367.224 7.96858C366.978 7.9127 366.728 7.85584 366.481 7.79995C365.506 8.11002 364.638 8.19482 363.315 8.25256C363.431 8.34291 363.547 8.43247 363.664 8.52281C362.992 8.36914 362.321 8.21508 361.652 8.06141C362.233 7.91056 362.882 7.7428 363.421 7.60221C362.559 7.00351 361.039 7.33672 360.248 7.46159C359.171 7.63203 359.414 7.34736 358.615 7.46653C358.488 7.48516 358.473 7.70829 358.221 7.71206C356.948 7.72976 354.476 7.61149 355.922 7.09082C358.017 7.15788 359.803 6.73977 361.859 6.89252C361.315 6.29048 362.397 6.08562 363.875 5.81866ZM325.391 7.73568C326.025 7.44328 327.318 7.56128 328.194 7.76425C328.195 7.76425 328.196 7.76425 328.197 7.76425C328.39 7.80895 328.827 8.19754 328.197 8.18171C327.172 8.15457 326.675 7.54289 326.137 7.95815C325.896 7.88084 325.643 7.81206 325.391 7.73568ZM323.161 7.77194C322.532 7.62198 322.817 7.16107 323.605 7.28582C323.605 7.28545 323.605 7.28508 323.605 7.28472C323.934 7.33688 323.288 7.70119 324.468 7.33141C324.709 7.61909 324.946 7.88082 325.184 8.15919C324.895 8.16384 324.632 8.17139 324.329 8.17511C324.533 7.70225 323.79 7.92072 323.161 7.77194ZM354.858 7.35118C354.759 7.77658 355.174 7.7739 355.88 8.0691C355.213 8.05513 354.547 8.04023 353.884 8.02626C354.21 7.80095 354.532 7.57649 354.858 7.35118ZM370.507 7.4171C370.508 7.4171 370.509 7.4171 370.51 7.4171C370.728 7.35004 370.947 7.28273 371.162 7.2166C371.293 7.36843 371.422 7.51959 371.552 7.67142C372.323 7.52891 373.098 7.38641 373.869 7.24297C373.776 7.70674 372.392 7.63128 371.629 7.9554C370.495 7.81568 369.949 7.54648 369.875 7.15344C370.085 7.24095 370.294 7.32958 370.507 7.4171ZM185.072 5.56819C184.815 5.69669 184.56 5.82529 184.302 5.95379C184.645 6.01244 184.985 6.0572 185.331 6.12517C186.235 5.56638 186.32 6.06067 187.505 6.0263C191.136 5.92012 190.172 5.05223 193.452 6.32346C190.819 6.26299 191.831 6.86032 190.243 7.32042C189.914 6.9702 191.487 6.18034 190.422 6.01641C188.585 6.38706 186.819 6.73227 184.781 6.97162C184.84 7.03216 184.9 7.0929 184.959 7.15344C185.282 7.11525 185.603 7.07682 185.926 7.03864C185.577 7.2007 185.236 7.36137 184.882 7.52531C185.33 7.15743 184.189 7.36299 184.341 6.94031C184.409 6.75216 184.914 6.49114 185.211 6.31138C184.443 6.2136 183.656 6.12403 182.879 6.02904C183.281 5.87914 183.683 5.72907 184.083 5.57917C184.412 5.57452 184.738 5.57119 185.066 5.56654C185.068 5.56709 185.07 5.56764 185.072 5.56819ZM19.7565 7.52421C20.7317 7.08643 22.5037 7.014 23.4364 7.50114C22.2089 7.50859 20.9839 7.51676 19.7565 7.52421ZM369.801 6.82936C369.912 6.90378 370.019 6.9774 370.129 7.05182C369.642 7.18964 369.151 7.32651 368.664 7.46433C368.57 7.24927 368.475 7.03416 368.378 6.82002C368.852 6.82281 369.328 6.82656 369.801 6.82936ZM338.613 7.06885C338.97 7.05583 339.001 7.06288 339.445 7.09356C339.445 7.09338 339.444 7.0932 339.444 7.09301C339.62 7.10447 341.093 7.23009 340.929 7.39567C340.198 7.39847 339.417 7.39567 338.669 7.39567C338.646 7.28675 338.641 7.17869 338.613 7.06885ZM347.222 7.16552C347.223 7.16589 347.224 7.16625 347.225 7.16662C347.491 7.19177 347.744 7.24298 348.018 7.25231C347.029 7.51291 346.873 7.04536 345.974 7.17761C345.076 7.31079 344.521 7.56877 343.758 6.92823C344.042 6.83229 344.347 6.69504 344.639 6.58327C345.914 6.83939 346.258 6.59837 347.281 6.34598C347.261 6.61978 347.242 6.89172 347.222 7.16552ZM201.239 6.86396C201.483 6.54731 201.755 6.85802 201.783 6.86176C201.782 6.86213 201.782 6.8625 201.781 6.86286C203.941 6.5696 201.5 7.03815 203.538 7.08752C203.235 7.16667 202.937 7.25024 202.636 7.33031C202.172 7.1776 201.692 7.00456 201.239 6.86396ZM271.397 6.89362C271.417 6.98583 271.44 7.07825 271.46 7.17046C270.236 7.14904 269.923 7.51205 268.906 7.18145C269.736 7.0846 270.566 6.98844 271.397 6.89252C271.397 6.89289 271.397 6.89326 271.397 6.89362ZM332.441 6.39816C333.799 6.22212 334.803 6.14456 336.107 6.42398C336.108 6.42435 336.109 6.42471 336.11 6.42508C336.185 6.44228 335.822 6.6352 335.92 6.68379C336.189 6.65494 336.467 6.61058 336.738 6.57613C336.775 6.73062 336.81 6.88508 336.847 7.03864C336.082 6.99486 335.316 6.95113 334.548 6.90736C334.661 6.9977 334.778 7.08726 334.891 7.17761C334.239 7.22417 333.59 7.27056 332.938 7.31712C333.165 7.06387 333.391 6.81055 333.615 6.55636C333.224 6.50329 332.832 6.45216 332.441 6.39816ZM251.009 5.88458C251.225 5.98517 250.826 6.15389 251.16 6.24052C251.495 6.32604 252.112 6.13832 251.967 6.42233C251.517 6.46049 251.044 6.50425 250.585 6.54428C252.062 7.05642 253.535 6.59299 253.558 7.22539C252.14 7.06147 250.975 7.13762 249.603 7.31273C249.66 6.81074 251.032 6.3767 250.168 5.90545C250.446 5.89893 250.737 5.8894 251.006 5.88568C251.007 5.88531 251.008 5.88494 251.009 5.88458ZM389.639 0.534502C390.478 0.572691 392.4 0.36782 393.461 0.66029C393.721 0.732365 394.59 1.66601 394.586 1.78908C394.561 2.20356 393.499 2.25997 394.636 2.53007C394.254 2.53287 393.882 2.54844 393.503 2.55589C393.571 2.83439 393.639 3.11214 393.704 3.38971C394.166 3.34779 394.629 3.30567 395.091 3.26282C395.113 3.35503 395.136 3.44745 395.159 3.53966C393.497 3.54153 394.478 3.89743 393.616 4.22902C394.41 4.39664 395.209 4.56345 396 4.73107C395.544 4.71058 395.005 4.69541 394.603 4.6712C394.549 5.14339 395.509 5.03081 395.674 5.11832C396.601 5.61287 391.882 5.36327 391.495 6.05046C392.249 6.12682 393.04 6.20134 393.811 6.27677C393.59 6.36153 393.366 6.44634 393.145 6.53109C391.396 6.05712 389.435 5.88921 387.397 5.594C387.213 5.61355 387.028 5.63361 386.847 5.65223C386.901 5.86544 386.952 6.07784 387.006 6.29105C386.728 6.3162 386.447 6.34116 386.169 6.36631C386.988 5.66408 385.854 5.67365 384.485 5.24521C385.213 4.99842 386.112 5.14804 386.05 4.68823C383.55 5.042 380.622 4.54204 378.19 4.94145C377.586 5.04016 377.588 5.63333 376.169 5.57862C376.217 5.51342 376.225 5.39571 376.256 5.31002C373.801 5.59411 372.312 5.76394 369.761 5.47426C369.908 5.68745 370.053 5.90154 370.2 6.11473C370.742 6.00855 371.284 5.90068 371.823 5.7945C372.191 6.14655 371.647 6.30192 373.262 6.29819C374.586 6.2954 373.798 6.13995 374.158 6.03563C374.645 5.89322 375.073 6.17338 375.598 6.01421C376.003 5.89219 375.564 5.60172 376.622 5.6753C376.197 6.0516 375.763 6.44016 375.335 6.82112C375.077 6.73636 374.821 6.65029 374.563 6.5646C374.824 6.464 375.08 6.36473 375.341 6.26414C374.422 6.44482 373.555 6.61524 372.605 6.80244C372.914 6.25848 371.933 6.46243 371.4 6.5267C370.569 6.62718 371.281 6.25282 370.736 6.31522C370.192 6.37859 369.605 6.79683 368.622 6.70741C369.149 6.46528 368.432 6.24815 368.57 6.02465C368.709 5.80115 369.749 5.75166 368.75 5.50777C366.828 5.69312 368.914 6.54425 367.616 6.68215C366.057 6.84793 365.685 5.46051 366.15 5.16226C366.516 4.92754 367.774 4.97475 368.143 4.74096C365.889 4.31904 365.87 5.15197 365.484 5.31497C364.084 5.90824 365.024 4.32476 363.366 4.89751C363.397 4.60139 363.423 4.33506 363.454 4.05105C363.168 4.10507 362.978 4.17685 362.632 4.21968C363.651 4.79665 362.817 4.77192 362.389 4.77282C361.714 4.77468 362.756 5.05611 362.578 5.12876C362.096 5.32317 361.334 5.23489 361.801 5.48909C361.591 5.3708 361.364 5.25216 361.149 5.1348C360.36 5.28219 358.508 6.51813 360.271 6.26853C360.106 6.72773 359.536 6.50702 359.091 6.43716C358.646 6.36737 358.654 6.65981 358.263 6.6058C356.707 6.38969 357.725 5.88945 357.972 5.49733C355.917 5.76743 357.929 5.94613 354.967 6.12682C354.681 6.44629 356.049 6.7872 354.91 6.97162C354.7 6.4166 353.861 6.01789 352.225 5.83349C352.067 5.9611 351.908 6.08984 351.749 6.21745C350.857 5.70516 351.313 5.17245 349.66 5.80768C350.548 4.63876 349.938 5.38658 348.458 4.91069C348.157 4.81475 348.852 4.57224 348.432 4.44929C348.242 4.39384 347.78 4.5769 347.316 4.43555C347.089 4.3657 346.029 3.91499 345.295 4.12905C345.833 4.69536 344.438 5.17713 345.634 5.64564C343.423 5.53014 341.876 5.80204 344.353 5.02988C343.792 4.8585 343.23 4.68785 342.669 4.5174C342.278 4.65246 341.883 4.78645 341.489 4.92058C341.43 4.45514 341.49 4.32457 339.949 4.40644C340.617 4.29659 341.283 4.18491 341.955 4.07412C341.977 3.98013 342.071 3.88245 342.048 3.79124C341.226 3.97 338.91 4.04694 338.349 4.1708C337.788 4.29468 338.871 4.32858 338.71 4.44874C337.364 5.43955 337.47 4.70879 336.504 4.87883C335.937 4.97943 337.291 5.08866 336.988 5.1315C335.863 5.28854 335.341 4.76196 334.344 4.75524C334.698 5.05414 335.05 5.35768 335.396 5.65937C334.349 5.64354 333.183 5.64088 332.211 5.73682C331.829 5.77427 332.118 5.99657 332.056 6.01146C331.746 6.08784 330.488 6.20883 330.355 6.20976C329.352 6.21153 329.323 5.90363 328.349 5.88678C328.731 5.86071 329.091 5.83721 329.465 5.81207C329.635 5.31289 329.808 4.81373 329.978 4.31361C329.023 4.27729 328.068 4.24172 327.11 4.2054C327.81 4.3721 328.513 4.53801 329.213 4.70471C328.118 5.108 327.024 5.51221 325.93 5.91644C325.36 5.66869 324.793 5.421 324.223 5.17325C322.676 5.2386 322.987 6.24429 322.253 5.3633C321.797 5.43778 321.341 5.51222 320.885 5.58577C320.95 5.46006 321.014 5.3341 321.079 5.2084C320.53 5.28571 319.98 5.36251 319.43 5.44075C320.008 5.88592 320.575 6.35438 321.147 6.78651C320.065 6.88325 320.044 6.50559 319.883 6.41135C319.455 6.16172 318.605 6.49843 318.265 6.26743C318.15 6.18813 319.211 5.93951 318.845 5.65278C318.774 5.5972 317.354 4.54318 316.448 4.78655C316.465 4.97749 316.535 5.21162 316.572 5.41933C315.353 5.53531 314.732 4.53861 314.893 4.25923C314.244 4.45482 313.295 4.47116 313.162 4.77666C312.831 4.78411 312.501 4.79118 312.17 4.79863C312.515 4.05459 311.132 4.19064 311.041 4.83049C311.611 4.84633 312.182 4.863 312.751 4.87883C312.32 5.66308 314.052 6.13646 310.449 5.40999C309.76 5.00202 311.674 5.46558 311.112 5.16007C310.137 4.98225 309.222 5.13103 308.295 4.84697C307.142 4.49212 308.561 4.15082 305.874 4.60254C311.801 5.7342 305.061 5.36702 302.277 5.71814C301.511 4.60042 299.16 4.2464 295.923 4.57892C296.26 4.89 297.279 4.72973 297.866 4.83214C298.453 4.93458 297.818 5.11914 298.549 5.26443C299.28 5.40969 300.833 5.60717 301.573 5.8269C300.946 6.00297 297.852 6.41921 299.898 5.91918C298.37 5.61095 297.653 5.2942 295.76 5.23642C295.193 5.72167 295.235 6.02383 293.39 6.03783C294.481 5.36353 292.384 4.89488 292.846 4.19826C294.155 4.36051 293.423 5.03759 294.18 5.36166C294.257 5.39405 295.477 5.22431 295.76 5.23642C294.53 4.6282 294.104 4.40181 294.861 3.67808C293.991 3.74142 293.45 3.65056 293.37 3.99612C293.189 3.84621 293.006 3.69617 292.828 3.54625C292.545 3.54999 292.29 3.56387 291.989 3.56109C292.403 4.08235 291.601 3.76146 291.032 3.99777C290.462 4.23435 291.226 4.64584 289.662 4.65142C290.183 4.77344 290.66 4.87813 291.165 4.99363C290.156 5.12774 289.143 5.2627 288.134 5.39681C288.843 5.71531 290.379 6.1884 290.337 6.60744C289.872 6.44924 288.28 6.72728 288.106 6.73872C287.431 6.78157 287.799 6.51729 287.748 6.51077C286.688 6.38234 285.815 6.47232 285.412 6.07189C284.616 6.25256 284.015 6.14955 283.17 6.15977C282.706 6.16536 282.796 6.45948 282.524 6.40366C280.715 6.03111 282.438 5.65103 278.95 6.37454C279.372 6.57943 279.789 6.78904 280.211 6.99579C279.817 7.0731 279.425 7.15083 279.031 7.22814C278.768 7.19088 278.506 7.15334 278.243 7.11609C278.249 6.67184 278.255 6.22666 278.261 5.78241C277.972 5.75819 277.681 5.73467 277.392 5.71045C277.888 5.66668 278.386 5.62295 278.882 5.57917C278.927 5.501 278.969 5.4228 279.015 5.34463C278.278 5.22354 277.543 5.10137 276.806 4.97935C276.792 5.13389 276.778 5.28951 276.764 5.44405C275.103 5.22889 275.063 5.09807 273.484 5.5237C272.268 5.51904 271.278 6.16519 270.575 6.43716C270.323 6.35056 270.07 6.26285 269.815 6.17625C269.653 6.30479 269.49 6.43277 269.329 6.5613C269.008 6.38249 268.684 6.20363 268.363 6.02575C268.185 6.43163 268.092 6.55835 269.342 6.70082C268.914 7.20564 266.714 6.98295 265.818 6.81343C265.138 6.68479 265.892 6.26372 265.807 6.2125C265.524 6.0385 264.404 6.18864 264.168 6.15977C263.173 6.03963 262.476 6.06066 261.578 5.96752C261.403 5.94888 260.914 5.68203 260.872 5.67365C260.549 5.62801 259.751 5.49831 259.661 5.49458C254.982 5.29538 259.981 6.45314 255.63 6.33115C255.761 6.48383 255.881 6.63548 256.008 6.78816C255.679 6.79747 255.347 6.80632 255.019 6.81562C254.602 6.68802 255.106 6.45596 254.278 6.64315C254.332 6.45501 254.386 6.26678 254.443 6.07958C254.083 6.1811 253.736 6.28181 253.367 6.38333C252.789 5.73043 250.678 5.58215 250.828 4.81566C250.879 4.55486 252.376 4.28725 251.585 4.00876C250.942 3.95393 251.377 4.26541 251.115 4.28175C249.222 4.39539 249.332 3.9588 248.558 4.07522C248.436 4.26233 248.308 4.45311 248.183 4.64209C247.891 4.58716 247.599 4.53223 247.304 4.4773C247.236 4.60304 247.165 4.72892 247.097 4.85466C247.372 4.86304 247.681 4.87155 247.934 4.87993C247.582 5.36695 244.351 5.58572 245.583 5.1705C246.085 5.00194 247.004 5.07355 246.423 4.49817C245.559 4.58107 244.578 4.66576 243.668 4.74865C243.639 4.62477 243.613 4.50066 243.585 4.37678C242.358 4.45697 243.474 4.95227 243.471 5.21774C243.191 5.22519 242.907 5.23172 242.627 5.23916C242.508 5.11913 242.395 4.9935 242.27 4.87718C242.259 5.0682 242.102 5.5122 241.266 5.34737C240.728 5.24009 241.575 4.75817 240.55 4.825C240.627 5.123 240.997 5.48595 239.855 5.58192C239.742 5.2709 239.585 4.98597 239.497 4.65911C238.077 4.95791 237.431 4.47761 235.764 4.825C234.707 5.04483 233.259 5.82515 232.575 4.62286C231.802 4.59121 232.047 4.89062 231.819 4.95793C230.739 5.27648 229.935 4.70638 229.734 4.67285C228.45 4.4579 227.875 4.65525 226.829 4.38612C226.886 4.60873 226.917 4.81945 226.962 5.03648C227.92 4.70302 228.405 4.71867 229.749 4.79039C229.298 4.83509 228.848 4.88082 228.397 4.92552C228.471 5.10617 228.544 5.28685 228.615 5.46657C232.77 4.75495 231.801 5.87927 228.317 6.12517C228.016 5.79085 227.705 5.45741 227.408 5.12217C225.395 5.62884 224.448 5.18899 222.172 5.08372C221.901 5.07168 220.916 5.26426 220.492 5.27377C220.499 5.27505 220.506 5.27633 220.513 5.27761C220.25 5.59332 220.606 5.73862 220.649 6.0208C220.419 6.05619 220.19 6.09143 219.96 6.12682C219.447 5.91172 219.628 5.73504 218.619 5.78626C218.755 6.00046 218.889 6.21472 219.025 6.42892C217.92 6.43638 217.196 6.20364 216.167 6.30424C216.34 6.2232 216.511 6.14194 216.684 6.0609C214.444 5.85412 216.226 4.59473 214.534 5.22159C214.426 5.11172 214.321 5.00078 214.214 4.89091C214.911 4.86391 215.609 4.83773 216.303 4.81072C216.317 4.65523 216.332 4.50041 216.344 4.34492C215.598 4.39149 214.849 4.43952 214.104 4.48609C214.648 4.38177 215.195 4.27731 215.74 4.17299C214.875 4.09849 214.01 4.02394 213.146 3.94943C214.064 4.52119 212.874 4.59112 213.097 5.15732C211.567 4.68601 210.364 4.06475 207.992 4.46247C207.521 4.5417 207.777 4.93737 206.442 4.45588C206.765 5.08544 205.092 5.38086 205.307 5.97961C205.772 5.95074 206.254 5.93258 206.705 5.89721C206.191 5.68952 206.106 5.11815 206.886 4.94859C207.881 4.73251 209.332 5.1285 209.273 4.49433C209.669 4.52412 210.038 4.5417 210.424 4.56683C210.265 4.72415 210.11 4.88246 209.954 5.03977C211.05 4.79313 211.739 4.87334 212.267 5.26992C210.96 5.36119 209.656 5.45149 208.35 5.54182C208.542 5.56879 208.737 5.59597 208.93 5.62202C207.94 6.02719 208.961 6.41096 207.115 6.49759C207.127 6.31228 207.136 6.12684 207.147 5.94061C206.475 6.43613 204.636 6.43344 205.223 7.00348C204.667 6.82839 204.554 6.71764 204.239 7.0249C202.774 6.59179 201.832 6.04408 202.354 5.39022C201.81 5.49545 201.265 5.60083 200.724 5.70606C201.039 5.88486 201.354 6.06282 201.668 6.24162C200.721 6.23044 199.768 6.21945 198.824 6.20921C198.733 5.68023 200.646 6.04873 200.094 5.57588C199.984 5.48097 199.474 5.68427 199.34 5.63081C197.929 5.05244 200.145 5.4703 199.728 5.02714C197.625 4.89022 199.308 4.14766 196.411 4.77172C196.335 4.619 196.252 4.4632 196.182 4.31141C195.176 4.30225 195.257 4.64721 194.393 4.7124C193.852 4.75295 193.172 4.1472 192.574 4.55969C192.468 4.63574 193.473 5.37611 191.36 5.34353C189.719 5.31828 190.402 4.79506 189.515 4.60968C188.628 4.42432 186.598 5.1498 186 4.32734C186.465 4.43628 187.057 4.49505 187.573 4.58441C187.782 4.42423 187.987 4.26578 188.193 4.10653C187.014 4.31329 185.795 4.0696 185.001 4.45148C183.428 3.86748 181.669 4.40943 182.145 5.06888C182.663 4.97381 182.099 4.68625 182.819 4.86949C182.892 5.02318 182.97 5.17611 183.044 5.3298C181.819 5.31117 180.969 5.31548 181.527 4.84697C181.337 4.83579 181.149 4.82464 180.959 4.81347C180.925 5.15251 180.895 5.49281 180.861 5.83185C180.634 5.87003 180.406 5.90791 180.18 5.9461C179.927 5.87163 179.675 5.79629 179.42 5.72089C179.763 5.18439 180.347 5.16667 178.414 4.86675C178.408 5.0521 178.4 5.23672 178.394 5.42208C176.775 5.18644 176.733 4.73743 174.701 4.75414C176.26 4.1106 177.113 5.25136 177.107 3.96042C177.498 4.04518 177.893 4.13108 178.284 4.21584C178.343 4.02862 178.402 3.84113 178.459 3.65392C176.359 3.75267 172.87 4.98391 171.463 4.1675C171.293 4.26713 171.123 4.35374 170.95 4.46082C169.572 3.96809 168.977 5.0743 167.579 4.4372C167.435 4.37034 167.737 3.33104 165.918 3.36829C165.963 3.50336 165.987 3.73071 166.024 3.9011C165.63 3.81823 165.238 3.73151 164.847 3.64677C164.776 3.77154 164.702 3.89625 164.631 4.02194C165.303 4.07037 165.973 4.11962 166.644 4.16805C166.086 4.21088 165.524 4.25375 164.966 4.29658C165.694 4.50049 166.023 4.50266 165.584 4.82939C164.952 4.84895 164.319 4.86971 163.687 4.88927C163.622 4.97298 163.557 5.05767 163.492 5.14139C163.798 5.39099 164.107 5.6351 164.413 5.88842C162.766 5.68445 161.335 5.67337 160.07 5.18259C159.855 5.0997 160.617 4.77451 159.149 5.06779C159.126 4.89556 159.087 4.75571 159.061 4.5965C157.264 5.07898 156.673 4.93496 154.8 4.58661C156.013 4.91168 154.93 4.70026 154.621 4.87444C154.41 4.99444 155.236 4.97671 155.143 5.10239C155.049 5.22719 153.975 5.73114 154.893 5.79175C157.144 4.75879 157.757 5.99378 160.649 5.49733C160.204 5.63052 159.755 5.76402 159.31 5.89721C159.52 5.98749 159.708 6.06939 159.934 6.16527C158.322 5.96318 159.106 6.09447 158.443 6.2537C157.78 6.41298 156.574 6.54829 155.766 6.59206C155.512 6.60582 155.78 6.37414 155.206 6.35257C154.815 6.33767 153.746 6.68113 153.499 6.27622C153.337 6.01265 155.055 5.28687 152.68 5.2886C152.233 5.0302 153.372 5.11046 153.396 5.07932C153.603 4.77195 152.143 4.54084 151.469 4.77556C151.414 4.79581 151.947 5.03533 151.368 5.12931C149.993 5.35378 149.199 5.07909 148.309 4.70745C148.212 5.14336 147.055 5.66396 145.615 5.50282C145.541 5.62757 145.471 5.75341 145.398 5.87909C145.621 5.81306 145.845 5.74792 146.068 5.68189C146.312 5.76013 146.57 5.81708 146.809 5.9093C145.36 6.01649 145.155 6.61725 144.461 6.83705C142.085 7.58789 143.525 5.9996 143.953 5.72583C144.262 5.83667 144.561 5.9604 144.867 6.07683C144.833 5.92501 144.799 5.77203 144.768 5.61927C141.21 5.62391 144.226 4.63373 142.42 4.35151C141.955 5.09847 140.629 5.17047 138.94 4.69647C138.753 4.70019 138.565 4.70115 138.378 4.7058C138.347 4.81471 138.347 4.98119 138.296 5.05295C136.261 5.17963 135.898 4.0293 135.705 3.92032C134.849 3.43699 134.183 4.10574 133.93 4.11147C132.867 4.13476 132.559 3.83782 131.547 3.96536C130.458 4.10318 131.203 4.33103 130.871 4.53498C130.606 4.69694 129.747 4.72578 129.393 4.89366C129.534 4.75636 129.69 4.62171 129.831 4.48389C128.703 4.29671 127.781 4.11426 126.5 4.06863C125.054 5.07328 123.824 3.37856 124.323 4.75304C125.536 4.84712 126.215 5.00375 126.864 5.35397C126.067 5.39866 125.27 5.44219 124.474 5.48689C124.242 5.33604 124.077 5.18902 123.802 5.03538C123.207 5.35573 121.827 5.21826 121.285 5.31222C118.748 5.75278 119.533 6.2992 117.217 5.38088C118.886 5.2914 118.884 4.84538 120.539 4.90684C120.182 4.5883 119.341 4.6543 119.885 4.27242C118.283 4.36648 118.801 4.70743 118.178 5.01011C117.64 5.27105 116.558 5.28566 116.619 5.62476C116.508 5.43832 116.423 5.25783 116.312 5.07163C115.275 5.07349 114.238 5.07361 113.2 5.07548C113.642 4.88084 114.084 4.68584 114.527 4.49213C114.192 4.41862 113.858 4.34538 113.524 4.27187C110.972 4.87729 106.573 3.76771 107.276 5.2886C106.045 5.33703 105.892 5.14628 105.223 4.85851C105.149 4.97397 105.077 5.07001 105.004 5.19852C104.21 5.07765 103.601 5.51114 102.901 5.39846C102.201 5.28664 102.027 4.87718 101.925 5.56544C101.472 5.36802 101.021 5.20401 100.57 5.02055C100.298 5.17691 100.026 5.33146 99.7573 5.48689C99.3321 5.40494 98.906 5.32332 98.4808 5.24136C98.2536 5.5699 96.5818 5.42829 95.8448 5.64893C95.1452 5.29478 95.1644 4.17971 93.5185 4.37953C93.5609 4.65609 93.6028 4.93184 93.6453 5.2084C93.2684 5.15067 92.8906 5.09311 92.5109 5.03538C92.4882 4.94511 92.4686 4.85484 92.4459 4.76458C92.6386 4.79251 92.8287 4.8203 93.0215 4.84917C92.8542 4.69641 92.6904 4.54437 92.526 4.39161C91.9506 4.61791 91.3745 4.84423 90.7963 5.07053C91.5757 5.24187 92.3554 5.41333 93.1348 5.58467C92.1567 5.78772 91.476 5.58519 90.6256 5.81152C89.8859 5.4297 90.159 5.20969 90.4594 4.79534C90.1846 4.83072 89.9065 4.86487 89.6316 4.90025C89.813 4.48584 89.348 4.23892 90.9549 4.27242C90.8445 4.15422 90.7318 4.04152 90.6241 3.91867C90.3605 3.9373 90.1896 3.83739 89.9005 3.88297C89.1125 4.00778 88.5082 4.73567 88.5621 4.99089C88.5912 5.12457 89.3682 4.86891 89.3371 5.0579C89.2602 5.51877 87.4777 5.31185 90.0486 5.77472C89.1953 6.06812 89.0047 5.84685 88.0636 5.76209C88.1373 5.91566 88.2088 6.06827 88.2796 6.22184C87.8433 6.15108 87.4063 6.08058 86.9699 6.00982C87.5765 5.22093 84.3591 4.92463 87.2554 4.23451C86.3995 4.19913 85.5465 4.16355 84.6934 4.1263C84.8691 4.04529 85.0449 3.96509 85.2206 3.88407C85.6061 3.92691 85.9893 3.96904 86.3747 4.01095C85.9213 3.8629 85.4671 3.71573 85.0137 3.56768C83.9422 3.75117 83.5222 4.03338 83.0317 4.38172C84.2787 4.63593 83.8713 4.28869 84.843 4.21968C84.809 4.44029 84.8539 4.64321 84.769 4.87499C84.2669 4.41803 82.629 4.75047 82.2492 4.77282C81.0933 4.84069 81.9998 4.39171 81.2266 4.38227C80.4527 4.37296 79.5399 4.64019 78.9078 4.19497C78.9191 4.44451 78.9697 4.7027 79.015 4.92991C77.8102 5.01188 78.0506 4.71708 77.9259 4.67889C75.9359 4.05113 74.8561 4.58111 72.5798 4.64538C72.8689 4.72268 73.161 4.79246 73.4529 4.8651C71.7356 5.39493 72.8925 5.2327 74.3835 5.4078C72.9859 5.3547 72.1856 5.80593 71.1991 5.94006C70.2127 6.07395 68.5211 5.84221 67.9029 5.66157C69.3175 5.37096 70.8431 5.5626 72.4136 5.4825C72.2351 5.22829 72.0615 5.01314 71.8773 4.73382C70.9222 5.26737 70.3687 4.91061 70.054 4.83983C69.1301 4.63222 69.1591 5.09017 68.6008 4.59759C68.6235 4.76705 68.6401 4.90952 68.6628 5.06779C66.7551 4.997 64.6973 4.69743 63.4557 5.32321C63.3423 4.91621 63.2567 4.5241 63.1263 4.10873C62.3185 4.4151 61.6268 4.10136 60.9465 4.17299C60.269 4.24471 60.5269 4.57363 59.7305 4.70031C59.5831 4.7236 59.2761 4.51773 58.9132 4.66955C58.5468 4.82218 57.1956 5.957 57.034 4.96562C56.3509 4.96096 55.7044 4.92471 55.0355 4.90794C55.6874 4.85206 56.3396 4.79794 56.9887 4.74206C56.4331 4.50178 55.8811 4.26222 55.3255 4.02194C55.2546 4.23617 55.1836 4.45427 55.1155 4.66571C53.6188 4.9265 52.5326 4.57624 51.0218 4.65911C50.7695 4.67309 51.3647 5.09664 50.2453 4.98869C49.1256 4.88065 48.2947 4.09011 46.3872 4.39546C46.2908 4.41129 45.7259 5.01674 45.0427 4.59759C44.8873 4.5026 45.5416 4.36203 45.1847 4.23726C44.8276 4.11245 43.2339 4.00982 43.1091 3.71269C43.1261 3.81791 43.2256 3.92694 43.2738 4.03402C43.0017 4.08431 42.7269 4.13463 42.452 4.18398C42.4265 3.99865 42.399 3.81305 42.3735 3.62865C40.8087 4.05988 40.0001 4.76334 37.6815 4.53058C38.3334 4.79974 38.9856 5.06998 39.6347 5.33913C39.8133 5.15005 39.9922 4.9597 40.168 4.77062C41.2365 4.84605 42.308 4.92095 43.3765 4.99638C43.5523 4.78122 43.725 4.56667 43.9007 4.35151C44.1841 4.37945 44.4648 4.40652 44.7482 4.43446C44.6773 4.58999 44.6058 4.74471 44.5321 4.90025C45.0933 4.86207 45.6551 4.82308 46.2135 4.7849C45.0768 5.70301 43.0392 4.70681 43.1862 5.47481C42.934 5.35565 42.6815 5.23566 42.4294 5.11557C42.3188 5.48797 41.806 5.38079 40.9021 5.32211C41.1091 5.5056 41.3376 5.68659 41.5275 5.87195C40.6487 5.61304 39.0899 5.63818 38.18 5.53853C37.7804 5.49476 38.1795 5.22476 38.0607 5.19302C37.4512 5.02723 36.2863 5.49833 36.0425 5.46108C34.5855 5.23936 33.6387 4.34621 32.0484 4.93486C33.6897 5.08016 32.7968 5.01879 33.3808 5.34573C33.5636 5.44823 35.684 5.66206 33.0288 5.56709C32.7175 5.55521 27.8997 4.93811 29.4834 4.46522C28.7038 4.61611 28.0935 4.79058 27.3791 4.95079C25.6329 3.70453 26.2372 4.8753 26.7446 5.51985C26.4583 5.52264 26.1859 5.52919 25.8911 5.52919C26.5176 4.85204 23.3259 4.80999 22.243 5.15183C21.8802 5.26546 22.8947 5.48221 22.0557 5.58467C21.6561 5.53718 21.2029 5.47569 20.7807 5.42263C21.393 5.85105 20.1914 6.01616 20.2082 6.45199C19.44 6.06362 18.8525 5.24043 19.2746 4.79424C18.6398 4.9749 18.0016 5.15534 17.3667 5.33694C17.6615 5.44032 17.9601 5.5428 18.255 5.64619C16.1799 5.37235 13.5118 5.99547 13.0781 5.07987C12.8031 5.08639 12.5252 5.09203 12.2502 5.09855C12.1652 5.25316 12.083 5.40808 11.998 5.5627C10.7538 5.4286 9.51243 5.29361 8.26826 5.15952C9.37609 5.06356 9.63979 4.84349 10.8016 5.02219C10.3539 4.84437 9.89783 4.66556 9.45863 4.48774C7.7096 4.96648 7.47101 5.28113 4.83765 5.13864C4.71859 5.13212 2.72888 4.73064 2.66085 4.69152C2.34915 4.5127 2.8223 4.25292 2.68351 4.16256C2.29798 3.90921 -0.0447064 3.27307 0.000649868 3.17713C0.573281 1.9998 8.45531 1.9842 10.5871 1.92365C32.6981 1.2959 54.3222 2.13576 76.2944 1.99232C76.5203 1.9901 76.4217 1.8163 76.518 1.80885C77.116 1.7652 77.7033 2.03607 77.9243 2.04724C78.3967 2.07028 78.1366 1.82002 78.4818 1.81984C82.0479 1.82263 85.4131 1.96979 88.9821 1.92695C89.2145 1.92416 88.9772 2.12439 89.3854 2.08899C89.5961 2.06961 90.2558 1.76242 90.7314 1.75777C92.3925 1.74194 93.7878 1.84043 95.5397 1.83577C96.4978 1.83299 97.9352 1.8591 99.0065 1.85444C99.4797 1.85247 99.9726 1.71193 100.44 1.70723C101.103 1.70071 100.968 1.9856 101.07 2.0033C101.518 2.08059 101.58 1.76791 102.005 1.77535C102.796 1.79025 102.839 1.99902 103.842 1.98133C104.559 1.96829 106.201 1.80346 107.105 1.75502C109.22 1.99717 111.884 1.90104 113.857 1.82094C115.025 1.77345 115.133 2.06575 115.61 2.06482C117.288 2.05916 118.561 1.68584 120.137 1.67373C122.229 1.65795 124.082 1.90481 126.109 1.92256C126.437 1.92535 126.362 1.65753 126.684 1.65066C127.877 1.62551 129.404 1.57677 130.467 1.61495C131.651 1.65692 132.088 2.04566 133.248 1.9665C133.588 1.94299 133.687 1.60214 134.257 1.55838C135.167 1.48956 136.164 1.79014 136.799 1.82368C137.669 1.86839 136.913 1.52114 138.086 1.56772C138.134 1.56973 138.31 1.81795 138.562 1.80611C139.296 1.77258 139.223 1.5771 140.298 1.59573C140.401 1.5983 141.825 1.83482 141.967 1.83577C142.8 1.83949 144.478 1.9223 144.972 1.87202C146.735 1.69319 145.347 1.31984 146.846 2.13019C147.507 1.93185 148.161 1.73081 148.861 1.53805C148.394 1.71782 150.29 1.97722 150.423 1.96046C151.525 1.82537 150.869 1.51007 152.266 1.56222C150.421 2.2906 154.069 1.6561 154.883 1.63748C158.8 1.54715 162.361 1.72892 166.298 1.72426C167.617 1.72235 169.383 1.56838 170.777 1.57211C171.103 1.57233 170.857 1.74471 171.143 1.74843C171.428 1.75099 171.112 1.55748 171.438 1.56772C173.464 1.6348 175.052 1.99993 176.909 1.54355C176.999 1.60953 176.997 1.66167 177.146 1.73415C178.666 1.32529 181.592 1.87513 182.692 1.95057C184.412 2.06786 184.851 1.7915 186.101 1.8473C187.754 1.92182 190.235 2.46172 189.127 1.57046C190.261 1.54253 191.352 1.53482 192.497 1.6177C192.625 1.6271 192.537 1.85363 192.588 1.85829C192.911 1.89081 193.016 1.68798 193.234 1.67867C193.826 1.65362 192.86 1.89648 193.704 1.82863C194.149 1.7923 194.402 1.6154 195.638 1.61166C203.088 1.5921 211.175 1.65546 218.812 1.68526C219.337 1.68713 218.991 1.46805 219.649 1.48203C221.934 1.53051 226.024 1.89919 227.994 1.84895C229.964 1.79866 229.519 1.4783 230.752 1.34415C230.99 1.31807 230.795 1.50065 231.01 1.50345C232.459 1.52023 234.186 1.80501 235.359 1.84785C236.135 1.87656 236.073 1.58933 236.612 1.56881C237.414 1.53901 238.24 1.8292 238.668 1.83851C240.68 1.87943 242.063 1.6457 243.943 1.76491C243.869 1.7017 243.821 1.64318 243.758 1.5809C245.983 1.59114 248.206 1.60141 250.431 1.61166C250.326 1.55391 250.225 1.49566 250.12 1.43698C252.73 1.46868 252.432 2.09457 252.203 0.772894C252.393 0.726333 252.594 0.672362 252.775 0.629529C252.702 1.31036 254.281 1.8086 256.291 1.98188C256.438 1.99492 257.427 1.33109 257.319 2.11536C257.577 1.92349 257.731 1.79123 257.949 1.62264C258.374 1.86009 258.805 2.09472 259.23 2.33123C259.46 2.29584 259.692 2.2617 259.922 2.22631C259.956 2.07263 259.93 1.91306 260.004 1.76216C261.069 1.73888 263.255 1.92887 264.097 1.90937C266.189 1.86001 268.319 1.44449 269.946 1.89344C270.739 1.84767 269.952 1.54603 271.131 1.58419C271.264 1.73691 271.389 1.88329 271.528 2.04065C272.492 1.35831 272.693 1.7734 274.013 1.91596C274.906 2.01282 275.491 1.84606 276.341 1.87861C276.556 1.887 276.526 2.08727 276.673 2.08075C277.167 2.0601 278.576 1.78444 278.924 1.77699C282.082 1.70436 284.795 1.73528 287.802 1.80885C288.125 1.8163 287.706 1.61866 288.041 1.62704C288.579 1.6402 288.262 1.94391 288.574 1.95881C289.443 1.99866 289.45 1.67841 290.663 1.66164C294.657 1.60673 299.249 1.8473 303.422 1.86873C303.552 1.86873 303.544 1.68108 303.686 1.67922C304.61 1.67005 305.545 1.92369 306.384 1.92091C307.776 1.91718 308.822 1.65357 310.197 1.6545C312.884 1.65543 315.285 1.79041 318.049 1.79787C320.311 1.80439 322.276 1.77936 324.756 1.78029C335.591 1.78402 346.647 1.18841 357.555 1.5051C357.832 1.51347 357.719 1.67926 357.804 1.67208C358.609 1.60036 358.681 1.37667 358.967 1.84511C359.993 1.75279 360.316 1.40086 361.555 1.426C362.215 1.43918 361.722 1.98464 362.839 1.70339C363.847 1.44913 362.735 1.1502 365.733 1.45566C365.813 1.46406 366.203 1.79654 366.827 1.70998C367.453 1.62429 366.728 1.38621 368.236 1.31449C371.777 1.14685 376.258 1.43425 380.374 1.3458C380.632 1.34021 383.116 1.16246 383.607 1.0805C384.556 0.921228 384.358 0.674153 385.59 0.6136C386.543 0.567028 387.329 0.846906 388.448 0.79102C388.579 0.784228 388.797 0.49634 389.639 0.534502ZM180.962 6.12627C180.73 6.40873 180.31 7.44841 178.905 7.13201C178.771 7.10221 179.491 6.38723 178.714 6.27348C179.474 6.19803 180.214 6.1736 180.962 6.12517C180.962 6.12553 180.962 6.1259 180.962 6.12627ZM395.731 7.16387C394.679 7.11171 393.624 7.06004 392.572 7.00788C393.298 6.88213 394.025 6.75664 394.748 6.62996C395.076 6.80783 395.402 6.986 395.731 7.16387ZM264.812 6.67006C264.813 6.67006 264.814 6.67006 264.815 6.67006C263.709 6.80419 262.603 6.93857 261.498 7.07269C261.614 6.97396 261.73 6.87481 261.847 6.77608C262.72 6.62056 263.593 6.46525 264.463 6.30973C264.579 6.42985 264.696 6.54994 264.812 6.67006ZM273.546 5.62476C274.252 5.74213 274.079 5.94005 274.468 6.13286C274.468 6.13249 274.468 6.13213 274.468 6.13176C274.57 6.18195 275.048 6.22587 275.232 6.23338C275.164 6.1095 275.076 5.9872 275.003 5.86426C276.65 5.56433 279.87 6.63012 275.7 7.05951C275.763 6.90306 275.822 6.74741 275.885 6.59096C273.812 6.63474 271.502 6.29539 273.546 5.62476ZM164.3 6.57668C162.531 7.08897 161.964 7.19698 159.818 6.84583C160.121 6.70063 160.424 6.55545 160.727 6.41025C161.082 6.55835 161.433 6.70543 161.788 6.85352C161.789 6.85352 161.79 6.85352 161.791 6.85352C161.862 6.69798 161.933 6.54217 162.001 6.38663C162.766 6.44996 163.535 6.51335 164.3 6.57668ZM341.258 5.99499C341.751 7.01813 341.609 6.42342 340.201 6.65413C339.713 6.73424 340.188 6.91325 339.885 6.94306C338.247 7.10586 338.116 6.42036 338.482 6.06365C339.409 6.03943 340.345 6.01734 341.255 5.99499C341.256 5.99499 341.257 5.99499 341.258 5.99499ZM383.756 5.78241C383.757 5.78241 383.758 5.78241 383.759 5.78241C383.802 6.03197 383.142 6.0991 383.886 6.33555C383.32 6.33461 382.753 6.33263 382.184 6.3317C382.351 6.30845 382.521 6.28629 382.688 6.26304C382.541 6.17735 382.393 6.09056 382.246 6.00487C382.045 6.29173 381.858 6.12498 381.262 6.02904C381.427 6.33547 381.59 6.64212 381.755 6.94855C381.063 6.85729 380.369 6.76572 379.678 6.67446C379.669 6.59723 379.661 6.51988 379.652 6.44266C379.391 6.54135 379.133 6.64113 378.873 6.73982C378.802 6.64763 378.734 6.55627 378.663 6.46408C378.348 6.53391 378.033 6.60369 377.718 6.67446C377.623 6.45113 378.316 6.35461 377.087 6.41135C377.464 6.18225 377.84 5.95384 378.22 5.72474C380.065 5.74336 381.911 5.76285 383.756 5.78241ZM328.447 6.30973C330.479 6.26689 329.907 6.42874 329.436 6.93537C329.107 6.72679 328.775 6.5183 328.447 6.30973ZM223.734 5.85876C223.144 6.20432 222.552 6.54644 221.948 6.87989C220.746 7.0727 219.544 6.44286 220.448 6.19603C221.537 5.89986 222.673 6.23133 223.734 5.85876ZM196.358 6.01256C197.829 6.1728 196.445 6.58341 196.114 6.82276C195.707 6.43808 195.139 6.47201 194.228 6.42728C195.084 6.40234 196.115 5.98536 196.358 6.01146C196.358 6.01183 196.358 6.0122 196.358 6.01256ZM247.399 6.24711C247.988 6.23677 248.575 6.14027 249.101 6.25755C248.943 6.58798 247.888 6.28735 248.642 6.77717C248.265 6.78555 247.888 6.79368 247.514 6.80299C247.752 6.60005 247.432 6.44837 247.401 6.24821C247.4 6.24784 247.4 6.24748 247.399 6.24711ZM308.754 6.69917C307.598 6.30797 307.378 6.47537 306.213 6.74641C306.049 6.4279 307.438 5.89437 308.309 5.77692C308.456 6.08427 308.604 6.39183 308.754 6.69917ZM35.186 6.53604C35.4637 6.13004 37.5125 6.0771 38.5305 6.19712C38.4092 6.25734 38.2876 6.31836 38.1664 6.37949C37.1742 6.43165 36.1781 6.48388 35.186 6.53604ZM193.795 6.39981C193.947 6.4117 194.092 6.42058 194.228 6.42728C194.077 6.4317 193.93 6.42478 193.795 6.39981ZM132.216 4.63769C132.701 4.25492 131.26 4.12632 133.009 4.27626C133.009 4.27589 133.009 4.27553 133.009 4.27516C134.166 4.37389 134.421 4.40026 135.492 4.43006C135.107 4.92178 132.933 5.09755 135.929 5.19907C135.969 5.19952 135.89 4.90692 136.369 4.94694C136.516 4.95939 136.989 5.19952 137.709 5.26937C137.941 5.29173 139.688 5.36578 137.307 5.37044C137.378 5.71321 137.25 6.06015 137.255 6.39267C136.326 6.48931 135.612 5.81813 134.628 5.83459C133.169 5.86067 132.426 6.53938 132.145 5.64893C133.373 5.43016 135.48 5.4249 135.755 5.96038C136.943 5.9669 137.284 5.52818 136.326 5.31112C132.224 5.58682 135.2 4.6599 131.609 5.01011C131.566 5.13395 131.418 5.26723 131.441 5.38363C130.345 4.94782 132.043 4.7746 132.216 4.63769ZM140.793 5.58467C140.085 5.8464 139.378 6.11023 138.672 6.3729C138.672 5.94631 139.062 5.56351 140.178 5.32321C140.382 5.41069 140.589 5.49811 140.793 5.58467ZM81.1782 5.69672C81.0762 5.92864 80.8041 6.14117 80.6057 6.36191C80.3903 6.16632 75.2876 5.97867 77.8836 5.78681C78.2606 5.75886 80.5602 6.16896 81.1782 5.69672ZM316.785 6.34983C316.184 6.19428 315.585 6.03848 314.987 5.88293C315.908 5.78426 316.829 5.683 317.75 5.58247C317.427 5.83819 317.107 6.0941 316.785 6.34983ZM213.951 5.45174C214.205 5.46045 213.362 5.7794 214.362 5.72913C213.616 5.93311 212.918 6.10577 212.19 6.29764C211.971 6.14675 211.751 5.99647 211.532 5.84558C211.362 5.94245 211.189 6.03873 211.019 6.1356C211.121 5.91579 211.212 5.7011 211.319 5.47756C212.547 5.94886 212.828 5.41448 213.951 5.45174ZM250.449 4.5921C250.67 5.06983 248.892 5.35393 250.641 5.43032C250.309 5.74419 249.776 5.90882 248.753 5.93676C248.588 5.81673 248.424 5.69756 248.26 5.57753C248.237 5.89874 247.974 6.01813 247.399 6.24711C247.399 6.24674 247.398 6.24638 247.398 6.24601C245.842 6.26927 245.935 6.16217 245.561 5.6341C247.208 5.93216 247.257 5.44969 248.379 5.16281C249.15 4.96554 250.157 5.05488 250.449 4.5921ZM86.6149 5.69123C85.4503 6.0945 86.4954 6.47065 84.4291 6.04222C84.5623 5.93977 84.6961 5.83818 84.8294 5.73572C85.4245 5.71989 86.0198 5.7052 86.6149 5.69123ZM256.197 6.22953C256.064 5.49002 254.967 4.91437 254.78 6.11748C255.849 6.36244 255.327 5.68095 256.197 6.22953ZM196.86 4.85466C198.915 4.88917 198.526 5.72383 197.682 6.1411C197.551 5.98927 197.421 5.83718 197.293 5.68629C196.933 5.75521 196.573 5.82427 196.213 5.89227C196.429 5.54671 196.644 5.20022 196.86 4.85466ZM292.426 5.41713C290.855 5.94526 294.121 5.71085 293.024 6.04058C292.148 6.30414 290.994 5.772 291.431 5.43856C291.734 5.42924 292.071 5.42272 292.423 5.41713C292.424 5.41713 292.425 5.41713 292.426 5.41713ZM283.338 5.56819C283.596 6.13245 283.224 5.96798 284.465 5.86645C284.819 5.83758 287.635 6.0495 286.453 5.58192C285.447 5.58192 284.384 5.57378 283.338 5.56819ZM173.105 5.68024C173.086 5.43452 175.255 4.89495 175.533 5.02988C175.533 5.02952 175.533 5.02915 175.533 5.02879C176.284 5.3967 173.997 5.44897 174.989 5.95379C172.792 5.50958 172.135 6.58405 172.288 5.16831C173.582 5.1062 172.969 5.39804 173.105 5.68024ZM8.28488 5.37923C8.28387 5.37923 8.28286 5.37923 8.28186 5.37923C8.42746 5.39079 9.62718 5.75142 9.48129 5.87634C8.03855 5.76924 8.29566 5.53185 6.95251 5.92193C6.87888 5.79629 6.81579 5.67443 6.73649 5.54786C7.26943 5.47335 7.56484 5.32242 8.28488 5.37923ZM75.6614 5.20126C76.1915 5.13699 77.1589 5.40331 77.7627 5.38747C75.8408 6.41017 73.5441 5.4565 75.6614 5.20126ZM363.88 5.81757C363.878 5.81793 363.877 5.8183 363.875 5.81866C363.876 5.81811 363.876 5.81757 363.877 5.81702C363.878 5.8172 363.879 5.81738 363.88 5.81757ZM116.74 5.81482C116.671 5.74843 116.633 5.69076 116.619 5.64015C116.619 5.63538 116.619 5.63062 116.619 5.62586C116.656 5.68802 116.695 5.75089 116.74 5.81482ZM168.599 5.7544C167.696 5.4117 170.705 4.86688 171.678 4.99693C171.61 5.15334 171.599 5.29515 171.441 5.47481C170.655 5.06976 168.749 5.81214 168.599 5.7544ZM237.196 5.62861C234.818 5.6193 237.913 4.2662 238.041 5.34573C238.036 5.36664 237.258 5.62677 237.196 5.62861ZM187.355 5.61268C187.961 5.20302 186.743 5.09423 188.69 5.16501C188.804 5.27112 188.917 5.37749 189.03 5.4836C188.472 5.52643 187.913 5.56985 187.355 5.61268ZM221.616 3.85221C218.622 4.0804 215.76 4.48297 217.709 5.61268C217.936 5.57639 218.166 5.54131 218.392 5.50502C218.426 4.95386 219.262 5.25472 220.486 5.27267C220.66 5.05386 221.339 5.00326 221.466 4.81731C221.713 4.45787 220.933 4.20516 221.616 3.85221ZM347.993 4.7492C347.944 4.84327 347.897 4.93784 347.849 5.03098C347.376 5.13717 346.901 5.24284 346.428 5.34902C346.504 5.16848 346.581 4.98796 346.657 4.80742C347.102 4.78787 347.545 4.7682 347.99 4.74865C347.991 4.74883 347.992 4.74902 347.993 4.7492ZM143.71 4.42182C143.438 5.45729 144.389 5.26658 146.316 4.74316C145.449 4.63604 144.578 4.52893 143.71 4.42182ZM269.717 4.27187C269.779 4.56604 269.841 4.8593 269.906 5.15347C270.929 4.84703 270.739 4.51015 270.249 4.12081C270.07 4.17106 269.895 4.22162 269.717 4.27187ZM284.458 4.14663C284.033 4.08526 284.25 4.32277 284.205 4.31801C283.131 4.19319 282.98 4.08424 281.661 4.26308C281.5 4.32547 281.341 4.39108 281.179 4.45533C281.789 5.07174 282.231 4.73578 283.521 5.098C283.288 4.88656 283.057 4.67484 282.825 4.46247C283.542 4.50717 284.256 4.55125 284.973 4.59595C285.058 4.53075 285.143 4.46615 285.228 4.40095C284.973 4.31715 284.71 4.22297 284.458 4.14663ZM353.467 5.0167C354.164 5.04092 354.865 5.06609 355.562 5.09031C355.588 4.9385 355.612 4.78566 355.638 4.63385C354.915 4.76142 354.19 4.88913 353.467 5.0167ZM129.393 4.89366C129.337 4.94751 129.283 5.0017 129.235 5.0568C129.24 4.98964 129.301 4.93722 129.393 4.89366ZM6.44494 4.54651C5.65418 4.44035 4.51467 4.51005 3.64728 4.48774C3.71547 4.86859 5.92006 4.76331 6.6942 4.99418C6.81859 4.92584 6.7792 4.59119 6.44494 4.54651ZM199.703 4.88817C199.901 4.69818 200.099 4.50909 200.295 4.3191C200.774 4.3396 201.254 4.36123 201.736 4.38172C201.75 4.22617 201.764 4.06928 201.778 3.91373C199.656 4.11581 200.145 3.66727 199.094 3.22492C199.298 3.77902 199.499 4.33314 199.703 4.88817ZM375.655 4.03018C374.121 4.13543 373.577 4.33201 374.442 4.79863C374.983 4.69156 375.528 4.58438 376.069 4.4773C375.93 4.32831 375.791 4.17917 375.655 4.03018ZM101.463 4.54212C100.179 4.71647 100.158 4.09023 98.9038 4.43995C99.5755 4.55542 100.247 4.67218 100.916 4.78765C101.097 4.706 101.282 4.62377 101.463 4.54212ZM164.404 2.82229C163.863 2.60444 162.851 3.64002 161.329 2.87557C160.966 3.10373 160.738 3.32166 160.427 3.54516C160.245 3.30205 160.039 3.05584 159.866 2.8146C159.865 2.8146 159.864 2.8146 159.863 2.8146C158.483 2.89657 159.378 3.20146 159.347 3.45947C159.332 3.56642 158.307 3.38763 158.628 3.62041C159.18 4.01999 161.246 3.79022 161.252 4.27736C160.526 4.11815 159.109 4.25119 159.528 4.57617C159.987 4.93288 161.323 4.33508 162.173 4.6311C160.954 3.85252 163.471 4.09301 163.758 4.69097C165.235 4.23179 163.877 4.04447 162.363 4.06588C163.287 3.60763 161.927 3.85521 161.703 3.4743C162.656 3.24436 165.926 3.43603 164.404 2.82229ZM234.083 3.66655C233.062 3.6961 231.467 3.43417 230.769 3.8209C230.362 4.04622 231.96 4.22069 230.858 4.57452C231.852 4.54003 232.079 4.40181 231.909 4.0917C232.136 4.05446 232.365 4.01815 232.592 3.98184C232.697 4.04235 232.804 4.10205 232.909 4.16256C233.028 4.03497 233.148 3.90839 233.264 3.7808C233.505 3.80593 233.749 3.83109 233.989 3.85715C234.018 3.793 234.066 3.73716 234.083 3.66655ZM64.6143 4.56134C64.8977 4.55762 65.1784 4.55391 65.4618 4.54926C65.4305 4.47373 65.3933 4.39508 65.3575 4.31746C65.3318 4.25612 65.3062 4.19478 65.2805 4.13345C65.4447 4.35259 66.7949 4.71682 67.3636 4.48279C67.6496 4.36539 66.9989 3.94858 68.2111 3.87583C67.3325 3.89726 66.5187 3.95415 65.6657 3.98953C65.7422 3.86565 65.8157 3.74044 65.8923 3.61656C65.8918 3.61638 65.8913 3.6162 65.8908 3.61601C65.6074 3.58808 65.3206 3.55881 65.0373 3.53087C64.8955 3.87457 64.756 4.21764 64.6143 4.56134ZM268.886 3.69017C267.919 3.93327 267.596 4.05952 268.052 4.45258C268.053 4.45277 268.054 4.45295 268.055 4.45313C268.415 4.27899 268.775 4.1049 269.135 3.93076C269.053 3.85065 268.971 3.77027 268.886 3.69017ZM121.066 3.59624C119.011 5.08928 123.639 4.17402 122.758 3.66545C122.718 3.64216 121.259 3.7611 121.066 3.59624ZM196.482 4.39546C197.046 4.38335 197.612 4.37241 198.179 4.3603C198.048 4.17681 197.915 3.99396 197.784 3.81046C197.351 4.00513 196.916 4.20079 196.482 4.39546ZM368.978 3.35236C368.384 2.94252 366.86 2.79404 366.115 3.23975C366.507 3.29191 366.898 3.34414 367.289 3.3963C366.55 3.44751 365.818 3.50388 365.073 3.5523C365.033 4.12327 365.892 3.79202 367.185 3.94943C367.385 3.97482 368.665 4.68355 369.106 4.14937C369.195 4.03958 367.834 3.96492 368.78 3.64568C368.367 3.62055 368.009 3.62612 367.619 3.61217C367.59 3.47618 367.562 3.34004 367.531 3.20405C368.014 3.25329 368.495 3.30312 368.978 3.35236ZM228.14 3.71104C226.738 3.67953 226.565 3.90767 226.273 4.31087C226.925 4.26523 227.577 4.22028 228.229 4.17464C228.198 4.02043 228.171 3.86618 228.14 3.71104ZM356.446 3.22163C355.678 3.15568 356.007 3.48386 355.698 3.54625C354.53 3.78094 353.734 3.54638 352.58 3.69346C352.657 3.63013 352.727 3.57093 352.801 3.50945C352.8 3.50945 352.799 3.50945 352.798 3.50945C347.336 3.23285 350.205 3.97714 353.473 3.85605C353.55 3.97807 353.623 4.10025 353.7 4.22133C355.162 4.00804 356.511 3.80281 356.446 3.22163ZM139.325 3.54516C139.263 3.46878 139.793 2.98341 138.798 3.21064C138.01 3.9193 139.302 3.56756 139.626 3.84012C139.356 3.90812 139.081 3.97427 138.814 4.04226C140.424 4.24252 140.659 4.07402 140.073 3.55614C140.031 3.52134 139.387 3.62129 139.325 3.54516ZM128.743 3.19581C128.522 4.23994 130.554 3.77042 130.48 3.44628C130.2 3.43336 129.982 3.61015 129.684 3.53197C129.384 3.45375 129.307 3.20985 128.743 3.19581ZM186.961 3.45123C186.901 3.44657 186.303 3.00773 186.363 3.35126C187.102 4.1644 188.593 3.641 188.332 3.35785C187.839 3.37185 187.511 3.49387 186.961 3.45013C186.961 3.4505 186.961 3.45086 186.961 3.45123ZM378.226 3.10627C378.198 3.07714 376.706 2.90076 376.513 3.06453C376.354 3.24892 376.276 3.44653 376.157 3.63744C376.979 3.46046 378.643 3.59528 378.223 3.10627C378.224 3.10627 378.225 3.10627 378.226 3.10627Z" fill="#361F0F"/>
</svg>
