<svg width="713" height="6" viewBox="0 0 713 6" fill="none" xmlns="http://www.w3.org/2000/svg">
<path d="M653.794 5.41995C655.405 5.69053 650.027 5.51316 653.598 5.91724C652.853 5.94454 652.104 5.9727 651.36 6C651.171 5.85035 650.977 5.70106 650.788 5.55141C651.788 5.50735 652.789 5.46329 653.794 5.41922C653.794 5.41946 653.794 5.41971 653.794 5.41995ZM655.159 3.54578C654.243 3.97261 651.331 4.08641 654.476 4.4803C654.726 4.33381 654.983 4.18736 655.233 4.04087C656.325 4.15448 657.423 4.26807 658.515 4.38106C658.908 4.32521 659.3 4.26931 659.693 4.21408C660.193 4.46863 660.689 4.72388 661.189 4.97905C660.745 4.9418 660.295 4.90389 659.851 4.86663C658.095 5.07335 656.533 5.12988 654.15 5.16838C654.359 5.22861 654.569 5.28831 654.778 5.34854C653.569 5.24609 652.36 5.14339 651.156 5.04094C652.202 4.94037 653.371 4.82853 654.34 4.7348C652.789 4.33567 650.053 4.55781 648.629 4.64106C646.689 4.75469 647.128 4.5649 645.689 4.64435C645.459 4.65677 645.433 4.80553 644.979 4.80804C642.687 4.81984 638.236 4.74099 640.839 4.39388C644.611 4.43859 647.828 4.15985 651.528 4.26168C650.549 3.86032 652.499 3.72374 655.159 3.54578ZM585.868 4.82379C587.011 4.62886 589.339 4.70752 590.916 4.84283C590.917 4.84283 590.919 4.84283 590.921 4.84283C591.268 4.87264 592.054 5.13169 590.921 5.12114C589.074 5.10305 588.181 4.69526 587.211 4.9721C586.777 4.92056 586.322 4.8747 585.868 4.82379ZM581.853 4.84796C580.72 4.74799 581.234 4.44072 582.653 4.52388C582.653 4.52363 582.653 4.52339 582.653 4.52314C583.245 4.55792 582.083 4.80079 584.206 4.55427C584.639 4.74606 585.066 4.92054 585.495 5.10612C584.975 5.10923 584.501 5.11426 583.956 5.11674C584.323 4.8015 582.986 4.94714 581.853 4.84796ZM638.924 4.56745C638.746 4.85106 639.492 4.84926 640.763 5.04607C639.564 5.03675 638.364 5.02682 637.17 5.0175C637.757 4.8673 638.338 4.71766 638.924 4.56745ZM667.099 4.6114C667.101 4.6114 667.103 4.6114 667.105 4.6114C667.498 4.56669 667.892 4.52182 668.28 4.47774C668.515 4.57895 668.747 4.67973 668.982 4.78094C670.37 4.68594 671.766 4.59094 673.154 4.49531C672.985 4.80449 670.493 4.75419 669.12 4.97027C667.079 4.87712 666.095 4.69765 665.962 4.43562C666.34 4.49397 666.717 4.55305 667.099 4.6114ZM333.224 3.37879C332.76 3.46446 332.301 3.55019 331.837 3.63586C332.454 3.67496 333.067 3.7048 333.689 3.75011C335.317 3.37759 335.47 3.70711 337.603 3.6842C344.141 3.61341 342.406 3.03482 348.311 3.88231C343.57 3.84199 345.392 4.24021 342.534 4.54695C341.942 4.31347 344.774 3.78689 342.855 3.67761C339.548 3.9247 336.368 4.15485 332.699 4.31441C332.806 4.35477 332.913 4.39527 333.02 4.43562C333.602 4.41017 334.179 4.38455 334.761 4.35909C334.133 4.46714 333.519 4.57425 332.881 4.68354C333.688 4.43829 331.632 4.57532 331.907 4.29354C332.03 4.16811 332.938 3.9941 333.474 3.87425C332.091 3.80906 330.673 3.74935 329.275 3.68603C329.999 3.58609 330.723 3.48605 331.442 3.38612C332.034 3.38301 332.621 3.3808 333.213 3.37769C333.217 3.37806 333.22 3.37843 333.224 3.37879ZM35.5717 4.6828C37.3275 4.39096 40.5181 4.34266 42.1973 4.66742C39.9873 4.67239 37.7817 4.67784 35.5717 4.6828ZM665.829 4.21957C666.028 4.26919 666.221 4.31826 666.419 4.36788C665.542 4.45976 664.659 4.55101 663.781 4.64289C663.613 4.49951 663.441 4.3561 663.267 4.21335C664.119 4.21521 664.977 4.21771 665.829 4.21957ZM609.675 4.37923C610.317 4.37055 610.374 4.37526 611.173 4.39571C611.172 4.39559 611.171 4.39547 611.171 4.39534C611.488 4.40298 614.14 4.48673 613.844 4.59712C612.527 4.59898 611.123 4.59712 609.775 4.59712C609.735 4.5245 609.726 4.45246 609.675 4.37923ZM625.175 4.44368C625.177 4.44392 625.179 4.44417 625.181 4.44441C625.66 4.46118 626.114 4.49532 626.609 4.50154C624.828 4.67528 624.546 4.36357 622.929 4.45174C621.311 4.54053 620.311 4.71251 618.939 4.28549C619.449 4.22153 619.998 4.13003 620.524 4.05552C622.821 4.22626 623.439 4.06558 625.281 3.89732C625.246 4.07985 625.211 4.26115 625.175 4.44368ZM362.332 4.24264C362.771 4.03154 363.26 4.23868 363.311 4.24118C363.31 4.24142 363.309 4.24166 363.308 4.24191C367.196 4.0464 362.802 4.35876 366.472 4.39168C365.926 4.44444 365.389 4.50016 364.848 4.55354C364.011 4.45173 363.148 4.33637 362.332 4.24264ZM488.651 4.26242C488.687 4.32389 488.73 4.3855 488.765 4.44698C486.561 4.43269 485.998 4.6747 484.166 4.4543C485.661 4.38973 487.156 4.32563 488.651 4.26168C488.651 4.26193 488.651 4.26217 488.651 4.26242ZM598.561 3.93211C601.006 3.81475 602.815 3.76304 605.162 3.94932C605.164 3.94956 605.166 3.94981 605.168 3.95005C605.303 3.96152 604.648 4.09013 604.825 4.12253C605.31 4.10329 605.81 4.07372 606.299 4.05076C606.366 4.15375 606.429 4.25672 606.495 4.35909C605.117 4.32991 603.739 4.30075 602.356 4.27157C602.56 4.3318 602.769 4.39151 602.973 4.45174C601.799 4.48278 600.63 4.51371 599.456 4.54475C599.864 4.37591 600.272 4.20703 600.675 4.03757C599.971 4.00219 599.265 3.96811 598.561 3.93211ZM451.944 3.58972C452.332 3.65678 451.613 3.76926 452.216 3.82701C452.818 3.88403 453.928 3.75888 453.668 3.94822C452.857 3.97366 452.006 4.00284 451.179 4.02952C453.838 4.37094 456.491 4.06199 456.532 4.4836C453.98 4.37431 451.882 4.42508 449.411 4.54182C449.514 4.20716 451.985 3.9178 450.429 3.60363C450.929 3.59929 451.454 3.59294 451.938 3.59045C451.94 3.59021 451.942 3.58996 451.944 3.58972ZM701.547 0.0230016C703.057 0.0484608 706.519 -0.0881202 708.428 0.10686C708.897 0.15491 710.462 0.77734 710.454 0.859386C710.408 1.1357 708.497 1.17331 710.544 1.35338C709.855 1.35525 709.187 1.36562 708.504 1.37059C708.627 1.55626 708.748 1.74143 708.866 1.92647C709.698 1.89853 710.531 1.87045 711.363 1.84188C711.404 1.90336 711.444 1.96497 711.485 2.02644C708.494 2.02768 710.26 2.26495 708.708 2.48601C710.137 2.59776 711.576 2.70897 713 2.82071C712.178 2.80706 711.209 2.79694 710.484 2.7808C710.387 3.09559 712.116 3.02054 712.413 3.07888C714.081 3.40858 705.585 3.24218 704.889 3.70031C706.247 3.75122 707.671 3.8009 709.059 3.85118C708.661 3.90768 708.258 3.96422 707.859 4.02073C704.711 3.70475 701.18 3.59281 697.51 3.396C697.179 3.40903 696.847 3.42241 696.52 3.43482C696.617 3.57696 696.709 3.71856 696.806 3.8607C696.306 3.87747 695.799 3.8941 695.299 3.91087C696.774 3.44272 694.732 3.4491 692.266 3.16347C693.578 2.99895 695.196 3.09869 695.084 2.79215C690.583 3.028 685.311 2.69469 680.933 2.96097C679.846 3.02678 679.849 3.42222 677.293 3.38575C677.38 3.34228 677.395 3.26381 677.451 3.20668C673.031 3.39607 670.349 3.50929 665.756 3.31617C666.021 3.4583 666.282 3.60103 666.547 3.74315C667.522 3.67236 668.499 3.60045 669.468 3.52966C670.132 3.76436 669.151 3.86794 672.06 3.86546C674.444 3.8636 673.025 3.75997 673.673 3.69042C674.551 3.59548 675.321 3.78226 676.265 3.67614C676.995 3.5948 676.206 3.40114 678.109 3.4502C677.344 3.70107 676.563 3.96011 675.792 4.21408C675.328 4.15757 674.867 4.10019 674.402 4.04307C674.872 3.976 675.333 3.90982 675.803 3.84276C674.149 3.96321 672.587 4.07683 670.877 4.20163C671.434 3.83899 669.666 3.97495 668.707 4.0178C667.212 4.08479 668.493 3.83521 667.513 3.87681C666.533 3.91906 665.476 4.19788 663.705 4.13828C664.654 3.97685 663.363 3.8321 663.612 3.6831C663.863 3.5341 665.736 3.50111 663.936 3.33851C660.476 3.46208 664.231 4.0295 661.894 4.12143C659.087 4.23195 658.419 3.30701 659.255 3.10818C659.914 2.95169 662.179 2.98317 662.843 2.82731C658.785 2.54603 658.75 3.10131 658.056 3.20998C655.535 3.60549 657.228 2.54984 654.243 2.93167C654.299 2.73426 654.344 2.55671 654.4 2.36737C653.885 2.40338 653.543 2.45124 652.921 2.47979C654.756 2.86443 653.254 2.84794 652.483 2.84855C651.268 2.84979 653.144 3.0374 652.823 3.08584C651.955 3.21545 650.583 3.1566 651.425 3.32606C651.047 3.2472 650.638 3.16811 650.25 3.08987C648.831 3.18813 645.495 4.01209 648.67 3.84569C648.374 4.15182 647.347 4.00468 646.545 3.95811C645.744 3.91158 645.759 4.10654 645.055 4.07053C642.253 3.92646 644.086 3.59297 644.53 3.33155C640.83 3.51162 644.452 3.63075 639.12 3.75121C638.605 3.96419 641.068 4.19146 639.017 4.31441C638.639 3.9444 637.128 3.6786 634.183 3.55566C633.898 3.64073 633.612 3.72656 633.327 3.81163C631.719 3.47011 632.541 3.11497 629.565 3.53845C631.163 2.75917 630.064 3.25772 627.4 2.94046C626.859 2.8765 628.109 2.71482 627.354 2.63286C627.011 2.59589 626.18 2.71794 625.344 2.6237C624.936 2.57714 623.027 2.27666 621.705 2.41937C622.675 2.79691 620.163 3.11808 622.317 3.43043C618.336 3.35343 615.549 3.5347 620.01 3.01992C619 2.90567 617.988 2.7919 616.978 2.67827C616.273 2.7683 615.563 2.85763 614.853 2.94705C614.746 2.63676 614.854 2.54971 612.079 2.60429C613.283 2.53106 614.482 2.45661 615.691 2.38275C615.732 2.32009 615.9 2.25496 615.86 2.19416C614.379 2.31333 610.209 2.36463 609.199 2.4472C608.188 2.52978 610.14 2.55239 609.849 2.63249C607.425 3.29303 607.617 2.80586 605.878 2.91922C604.857 2.98628 607.294 3.0591 606.748 3.08767C604.723 3.19236 603.784 2.8413 601.988 2.83683C602.626 3.03609 603.259 3.23845 603.881 3.43958C601.998 3.42902 599.898 3.42725 598.148 3.49121C597.461 3.51618 597.98 3.66438 597.868 3.67431C597.311 3.72523 595.045 3.80588 594.805 3.80651C592.999 3.80769 592.948 3.60242 591.193 3.59118C591.882 3.57381 592.53 3.55814 593.203 3.54138C593.509 3.20859 593.822 2.87582 594.128 2.54241C592.408 2.5182 590.688 2.49448 588.963 2.47027C590.223 2.5814 591.488 2.692 592.749 2.80314C590.779 3.072 588.809 3.34148 586.839 3.61096C585.813 3.44579 584.791 3.28066 583.765 3.1155C580.979 3.15907 581.54 3.82953 580.218 3.2422C579.397 3.29185 578.576 3.34148 577.754 3.39051C577.871 3.30671 577.988 3.22274 578.105 3.13894C577.115 3.19047 576.125 3.24168 575.135 3.29384C576.176 3.59062 577.197 3.90292 578.227 4.19101C576.279 4.2555 576.242 4.00373 575.951 3.9409C575.18 3.77448 573.65 3.99895 573.038 3.84496C572.831 3.79209 574.74 3.62634 574.082 3.43519C573.954 3.39813 571.397 2.69545 569.766 2.8577C569.797 2.985 569.923 3.14108 569.989 3.27955C567.795 3.35687 566.676 2.69241 566.967 2.50615C565.798 2.63654 564.09 2.64744 563.85 2.85111C563.253 2.85608 562.66 2.86079 562.063 2.86576C562.686 2.36973 560.195 2.46043 560.032 2.887C561.057 2.89755 562.085 2.90866 563.11 2.91922C562.335 3.44206 565.452 3.75764 558.965 3.27333C557.725 3.00135 561.17 3.31038 560.159 3.10671C558.404 2.98817 556.756 3.08735 555.087 2.89798C553.01 2.66141 555.565 2.43388 550.727 2.73503C561.399 3.48947 549.263 3.24468 544.251 3.47876C542.873 2.73362 538.64 2.4976 532.811 2.71928C533.418 2.92666 535.252 2.81982 536.309 2.88809C537.365 2.95639 536.222 3.07942 537.538 3.17629C538.855 3.27313 541.651 3.40478 542.983 3.55127C541.855 3.66864 536.283 3.94614 539.967 3.61279C537.217 3.4073 535.926 3.19613 532.517 3.15761C531.497 3.48111 531.572 3.68256 528.25 3.69189C530.215 3.24235 526.439 2.92992 527.271 2.46551C529.627 2.57368 528.31 3.02506 529.672 3.2411C529.812 3.2627 532.007 3.14954 532.517 3.15761C530.302 2.75213 529.536 2.6012 530.899 2.11872C529.332 2.16095 528.357 2.10037 528.214 2.33075C527.888 2.23081 527.56 2.13078 527.238 2.03084C526.728 2.03333 526.269 2.04258 525.728 2.04072C526.473 2.38823 525.03 2.17431 524.004 2.33185C522.978 2.48957 524.355 2.76389 521.537 2.76762C522.476 2.84896 523.335 2.91876 524.243 2.99575C522.427 3.08516 520.604 3.17513 518.787 3.26454C520.063 3.47687 522.829 3.79226 522.753 4.07163C521.916 3.96616 519.049 4.15152 518.736 4.15915C517.521 4.18771 518.183 4.01153 518.091 4.00718C516.183 3.92156 514.611 3.98155 513.886 3.71459C512.452 3.83504 511.371 3.76637 509.85 3.77318C509.013 3.77691 509.176 3.97299 508.686 3.93577C505.43 3.68741 508.532 3.43402 502.251 3.91636C503.011 4.05296 503.761 4.19269 504.522 4.33053C503.812 4.38207 503.107 4.43389 502.397 4.48543C501.923 4.46059 501.452 4.43556 500.978 4.41072C500.988 4.11456 501 3.81777 501.01 3.52161C500.49 3.50546 499.967 3.48978 499.446 3.47364C500.34 3.44445 501.235 3.4153 502.128 3.38612C502.21 3.334 502.286 3.28187 502.367 3.22975C501.04 3.14903 499.718 3.06758 498.391 2.98623C498.366 3.08926 498.34 3.19301 498.315 3.29603C495.324 3.1526 495.253 3.06538 492.41 3.34913C490.22 3.34603 488.437 3.77679 487.172 3.95811C486.717 3.90037 486.263 3.8419 485.803 3.78417C485.513 3.86986 485.219 3.95518 484.928 4.04087C484.351 3.92166 483.766 3.80242 483.19 3.68383C482.868 3.95442 482.702 4.0389 484.952 4.13388C484.181 4.47043 480.22 4.32196 478.607 4.20895C477.383 4.12319 478.741 3.84248 478.588 3.80834C478.077 3.69233 476.06 3.79243 475.637 3.77318C473.845 3.69309 472.59 3.70711 470.972 3.64501C470.657 3.63259 469.776 3.45468 469.702 3.4491C469.12 3.41867 467.684 3.33221 467.52 3.32972C459.096 3.19692 468.098 3.96876 460.264 3.88743C460.499 3.98922 460.714 4.09032 460.944 4.19211C460.352 4.19831 459.754 4.20421 459.162 4.21042C458.412 4.12535 459.32 3.97064 457.83 4.09543C457.927 3.97001 458.024 3.84452 458.126 3.71972C457.478 3.7874 456.853 3.85454 456.189 3.92222C455.148 3.48695 451.347 3.3881 451.617 2.87711C451.709 2.70324 454.404 2.52484 452.98 2.33917C451.823 2.30262 452.606 2.51027 452.134 2.52117C448.725 2.59693 448.923 2.30586 447.529 2.38348C447.31 2.50822 447.079 2.63541 446.855 2.76139C446.329 2.72477 445.802 2.68815 445.272 2.65153C445.149 2.73536 445.022 2.81928 444.899 2.90311C445.394 2.9087 445.952 2.91436 446.406 2.91995C445.773 3.24464 439.956 3.39048 442.174 3.11367C443.077 3.00129 444.732 3.04904 443.686 2.66545C442.13 2.72071 440.363 2.77717 438.725 2.83243C438.674 2.74985 438.627 2.66711 438.576 2.58452C436.368 2.63798 438.376 2.96818 438.372 3.14516C437.867 3.15013 437.356 3.15448 436.851 3.15944C436.637 3.07942 436.434 2.99566 436.209 2.91812C436.189 3.04547 435.906 3.34147 434.401 3.23158C433.433 3.16006 434.957 2.83878 433.111 2.88333C433.249 3.082 433.916 3.32397 431.86 3.38795C431.656 3.1806 431.374 2.99065 431.216 2.77274C428.659 2.97194 427.496 2.65174 424.495 2.88333C422.591 3.02989 419.983 3.5501 418.753 2.74857C417.361 2.72748 417.802 2.92708 417.39 2.97195C415.446 3.18432 413.999 2.80425 413.637 2.7819C411.326 2.6386 410.29 2.77016 408.407 2.59075C408.509 2.73915 408.564 2.87963 408.646 3.02432C410.371 2.80202 411.245 2.81245 413.664 2.86026C412.853 2.89006 412.041 2.92055 411.23 2.95035C411.363 3.07078 411.494 3.19124 411.622 3.31105C419.104 2.83664 417.359 3.58618 411.086 3.75011C410.545 3.52723 409.984 3.30494 409.448 3.08144C405.825 3.41923 404.12 3.12599 400.021 3.05581C399.534 3.04778 397.76 3.17617 396.997 3.18251C397.009 3.18337 397.022 3.18422 397.035 3.18508C396.56 3.39555 397.203 3.49241 397.28 3.68053C396.866 3.70413 396.453 3.72762 396.039 3.75121C395.116 3.60781 395.441 3.49003 393.624 3.52417C393.869 3.66697 394.111 3.80981 394.356 3.95262C392.365 3.95758 391.063 3.80243 389.21 3.86949C389.521 3.81547 389.829 3.76129 390.14 3.70727C386.108 3.56941 389.317 2.72982 386.27 3.14772C386.076 3.07448 385.887 3.00052 385.693 2.92728C386.948 2.90927 388.204 2.89182 389.455 2.87381C389.48 2.77015 389.508 2.66694 389.528 2.56328C388.186 2.59433 386.837 2.62634 385.494 2.65739C386.474 2.58785 387.46 2.51821 388.44 2.44866C386.884 2.39899 385.327 2.34929 383.77 2.29962C385.423 2.6808 383.28 2.72741 383.683 3.10488C380.927 2.79068 378.762 2.3765 374.49 2.64165C373.643 2.69447 374.103 2.95825 371.699 2.63725C372.281 3.05696 369.27 3.25391 369.657 3.65307C370.493 3.63383 371.361 3.62172 372.172 3.59814C371.249 3.45968 371.096 3.07877 372.499 2.96573C374.29 2.82167 376.903 3.08566 376.796 2.66289C377.511 2.68275 378.175 2.69447 378.869 2.71122C378.583 2.8161 378.304 2.92164 378.023 3.02651C379.997 2.86209 381.238 2.91556 382.187 3.17995C379.835 3.24079 377.487 3.30099 375.134 3.36121C375.481 3.3792 375.832 3.39732 376.179 3.41468C374.398 3.68479 376.235 3.94064 372.912 3.99839C372.933 3.87485 372.949 3.75123 372.969 3.62707C371.76 3.95742 368.448 3.95563 369.504 4.33565C368.504 4.21893 368.3 4.1451 367.734 4.34994C365.095 4.06119 363.4 3.69606 364.339 3.26015C363.36 3.3303 362.379 3.40055 361.405 3.47071C361.971 3.5899 362.538 3.70855 363.104 3.82774C361.4 3.82029 359.683 3.81297 357.983 3.80614C357.82 3.45349 361.264 3.69915 360.27 3.38392C360.071 3.32064 359.154 3.45618 358.913 3.42054C356.371 3.03496 360.362 3.31353 359.612 3.01809C355.825 2.92681 358.856 2.43177 353.639 2.84781C353.501 2.746 353.353 2.64214 353.226 2.54094C351.415 2.53483 351.562 2.76481 350.006 2.80826C349.031 2.8353 347.807 2.43147 346.731 2.70646C346.539 2.75716 348.35 3.25074 344.544 3.22902C341.59 3.21218 342.82 2.86338 341.223 2.73979C339.625 2.61622 335.971 3.09987 334.894 2.55156C335.731 2.62419 336.797 2.66336 337.725 2.72294C338.103 2.61615 338.471 2.51052 338.843 2.40435C336.72 2.5422 334.525 2.37973 333.096 2.63432C330.263 2.24499 327.095 2.60629 327.953 3.04592C328.885 2.98254 327.871 2.79083 329.166 2.913C329.299 3.01545 329.438 3.11741 329.571 3.21986C327.366 3.20745 325.835 3.21032 326.84 2.89798C326.498 2.89053 326.16 2.88309 325.818 2.87564C325.756 3.10167 325.702 3.32854 325.641 3.55456C325.233 3.58002 324.822 3.60528 324.414 3.63073C323.96 3.58109 323.505 3.53086 323.046 3.48059C323.664 3.12292 324.716 3.11111 321.235 2.91116C321.224 3.03473 321.209 3.15781 321.199 3.28138C318.285 3.12429 318.208 2.82495 314.549 2.83609C317.356 2.40707 318.892 3.16757 318.882 2.30695C319.586 2.36345 320.296 2.42072 321.001 2.47723C321.108 2.35241 321.214 2.22742 321.316 2.10261C317.535 2.16845 311.253 2.98927 308.721 2.445C308.414 2.51142 308.107 2.56916 307.796 2.64055C305.315 2.31206 304.244 3.04953 301.728 2.6248C301.468 2.58023 302.011 1.88736 298.736 1.91219C298.817 2.00224 298.86 2.15381 298.926 2.2674C298.217 2.21215 297.512 2.15434 296.807 2.09785C296.68 2.18102 296.546 2.26417 296.419 2.34796C297.628 2.38025 298.835 2.41308 300.044 2.44537C299.039 2.47392 298.027 2.5025 297.022 2.53106C298.334 2.667 298.925 2.66844 298.135 2.88626C296.997 2.8993 295.857 2.91314 294.719 2.92618C294.601 2.98199 294.485 3.03845 294.368 3.09426C294.919 3.26066 295.476 3.4234 296.027 3.59228C293.062 3.4563 290.484 3.44892 288.207 3.12172C287.819 3.06646 289.191 2.84967 286.548 3.04519C286.507 2.93037 286.436 2.83714 286.39 2.731C283.154 3.05265 282.091 2.95664 278.718 2.72441C280.902 2.94112 278.953 2.80017 278.397 2.91629C278.015 2.99629 279.503 2.98447 279.335 3.06826C279.167 3.15146 277.233 3.48742 278.886 3.52783C282.939 2.83919 284.043 3.66252 289.249 3.33155C288.448 3.42035 287.641 3.50934 286.839 3.59814C287.217 3.65833 287.554 3.71293 287.962 3.77684C285.059 3.64212 286.471 3.72965 285.278 3.8358C284.084 3.94198 281.913 4.03219 280.458 4.06138C280 4.07054 280.483 3.91609 279.449 3.90172C278.745 3.89178 276.82 4.12075 276.376 3.85081C276.085 3.6751 279.177 3.19125 274.902 3.1924C274.097 3.02014 276.147 3.07364 276.191 3.05288C276.563 2.84797 273.935 2.6939 272.72 2.85038C272.622 2.86387 273.581 3.02355 272.538 3.0862C270.063 3.23585 268.633 3.05273 267.03 2.80497C266.857 3.09558 264.774 3.44264 262.181 3.33522C262.048 3.41838 261.922 3.50227 261.789 3.58606C262.192 3.54204 262.594 3.49861 262.997 3.45459C263.436 3.50675 263.901 3.54472 264.329 3.6062C261.722 3.67766 261.353 4.07817 260.103 4.2247C255.824 4.72526 258.417 3.6664 259.189 3.48389C259.745 3.55778 260.283 3.64027 260.834 3.71789C260.773 3.61667 260.711 3.51468 260.655 3.41285C254.25 3.41594 259.679 2.75582 256.428 2.56768C255.591 3.06565 253.203 3.11364 250.162 2.79764C249.825 2.80013 249.487 2.80076 249.15 2.80387C249.094 2.87648 249.095 2.98746 249.003 3.0353C245.338 3.11975 244.685 2.35287 244.338 2.28021C242.797 1.95799 241.597 2.40383 241.143 2.40765C239.229 2.42317 238.672 2.22521 236.851 2.31024C234.891 2.40212 236.231 2.55402 235.635 2.68998C235.157 2.79796 233.611 2.81719 232.972 2.92911C233.226 2.83757 233.508 2.74781 233.761 2.65593C231.73 2.53114 230.07 2.40951 227.763 2.37909C225.161 3.04885 222.946 1.91904 223.844 2.83536C226.029 2.89808 227.25 3.0025 228.419 3.23598C226.985 3.26578 225.55 3.2948 224.116 3.3246C223.698 3.22403 223.401 3.12602 222.906 3.02359C221.834 3.23715 219.35 3.14551 218.374 3.20815C213.806 3.50185 215.22 3.86613 211.05 3.25392C214.055 3.19427 214.05 2.89692 217.031 2.9379C216.388 2.72553 214.873 2.76953 215.853 2.51494C212.97 2.57765 213.902 2.80495 212.78 3.00674C211.812 3.1807 209.863 3.19044 209.973 3.41651C209.773 3.29222 209.619 3.17189 209.421 3.04775C207.553 3.049 205.685 3.04908 203.818 3.05032C204.614 2.92056 205.41 2.79056 206.206 2.66142C205.604 2.61241 205.001 2.56359 204.4 2.51458C199.806 2.91819 191.885 2.17847 193.15 3.1924C190.935 3.22469 190.658 3.09752 189.454 2.90567C189.321 2.98265 189.192 3.04667 189.06 3.13234C187.631 3.05176 186.534 3.34076 185.274 3.26564C184.013 3.19109 183.7 2.91812 183.517 3.37696C182.7 3.24534 181.888 3.13601 181.077 3.0137C180.587 3.11794 180.098 3.22098 179.614 3.3246C178.848 3.26996 178.081 3.21555 177.315 3.16091C176.906 3.37994 173.896 3.28553 172.569 3.43262C171.309 3.19652 171.344 2.45314 168.38 2.58635C168.457 2.77072 168.532 2.95456 168.609 3.13894C167.93 3.10044 167.25 3.06208 166.566 3.02359C166.526 2.96341 166.49 2.90323 166.449 2.84305C166.796 2.86168 167.139 2.8802 167.486 2.89945C167.184 2.79761 166.89 2.69624 166.593 2.59441C165.558 2.74527 164.52 2.89616 163.479 3.04702C164.883 3.16125 166.286 3.27555 167.69 3.38978C165.929 3.52515 164.703 3.39012 163.172 3.54102C161.84 3.28647 162.332 3.13979 162.873 2.86356C162.378 2.88715 161.877 2.90992 161.382 2.9335C161.709 2.65723 160.872 2.49261 163.765 2.51494C163.566 2.43614 163.363 2.36101 163.169 2.27912C162.695 2.29153 162.387 2.22493 161.866 2.25531C160.447 2.33852 159.36 2.82378 159.457 2.99392C159.509 3.08305 160.908 2.91261 160.852 3.0386C160.713 3.34585 157.504 3.2079 162.133 3.51648C160.597 3.71208 160.253 3.56457 158.559 3.50806C158.692 3.61044 158.82 3.71218 158.948 3.81456C158.162 3.76739 157.376 3.72038 156.59 3.67321C157.682 3.14729 151.889 2.94975 157.104 2.48968C155.563 2.46609 154.027 2.44237 152.491 2.41754C152.807 2.36352 153.124 2.31006 153.44 2.25605C154.134 2.28461 154.824 2.3127 155.518 2.34064C154.702 2.24194 153.884 2.14382 153.068 2.04512C151.138 2.16745 150.382 2.35558 149.499 2.58782C151.744 2.75729 151.011 2.5258 152.76 2.47979C152.699 2.62686 152.78 2.76214 152.627 2.91666C151.723 2.61202 148.774 2.83364 148.09 2.84855C146.009 2.89379 147.641 2.59448 146.249 2.58818C144.855 2.58197 143.212 2.76013 142.074 2.46331C142.094 2.62967 142.185 2.8018 142.267 2.95328C140.098 3.00792 140.53 2.81139 140.306 2.78593C136.723 2.36742 134.779 2.72074 130.68 2.76359C131.201 2.81512 131.727 2.86164 132.252 2.91007C129.16 3.26329 131.243 3.15513 133.928 3.27186C131.412 3.23647 129.97 3.53729 128.194 3.6267C126.418 3.71597 123.373 3.56147 122.26 3.44104C124.806 3.24731 127.553 3.37507 130.381 3.32167C130.06 3.15219 129.747 3.00876 129.416 2.82255C127.696 3.17825 126.699 2.94041 126.133 2.89322C124.469 2.75482 124.521 3.06011 123.516 2.73173C123.557 2.8447 123.587 2.93968 123.628 3.04519C120.193 2.998 116.488 2.79829 114.252 3.21547C114.048 2.94414 113.894 2.68273 113.659 2.40582C112.205 2.61006 110.959 2.40091 109.735 2.44866C108.515 2.49647 108.979 2.71575 107.545 2.80021C107.28 2.81573 106.727 2.67849 106.074 2.7797C105.414 2.88145 102.981 3.638 102.69 2.97708C101.46 2.97397 100.296 2.9498 99.0916 2.93863C100.265 2.90137 101.44 2.86529 102.608 2.82804C101.608 2.66785 100.614 2.50815 99.6139 2.34796C99.4863 2.49078 99.3583 2.63618 99.2358 2.77714C96.5409 2.951 94.5853 2.71749 91.8649 2.77274C91.4107 2.78206 92.4823 3.06442 90.4669 2.99246C88.451 2.92043 86.9549 2.39341 83.5204 2.59697C83.3468 2.60753 82.3297 3.01116 81.0997 2.73173C80.8198 2.6684 81.9979 2.57469 81.3553 2.49151C80.7122 2.4083 77.8428 2.33988 77.6182 2.14179C77.6488 2.21194 77.8279 2.28463 77.9147 2.35602C77.4249 2.38954 76.93 2.42309 76.4351 2.45599C76.3892 2.33243 76.3396 2.2087 76.2936 2.08577C73.4764 2.37325 72.0204 2.84223 67.8457 2.68705C69.0195 2.86649 70.1938 3.04665 71.3625 3.22609C71.6841 3.10004 72.0062 2.97313 72.3226 2.84708C74.2465 2.89737 76.1758 2.9473 78.0996 2.99759C78.4161 2.85414 78.727 2.71112 79.0434 2.56768C79.5537 2.5863 80.059 2.60435 80.5693 2.62297C80.4417 2.72666 80.313 2.82981 80.1804 2.9335C81.1907 2.90805 82.2023 2.88205 83.2076 2.8566C81.161 3.46868 77.4923 2.80454 77.7569 3.31654C77.3029 3.2371 76.8483 3.15711 76.3943 3.07705C76.1952 3.32531 75.2719 3.25386 73.6445 3.21474C74.0171 3.33707 74.4285 3.45773 74.7705 3.5813C73.1883 3.40869 70.3816 3.42545 68.7433 3.35902C68.0237 3.32984 68.7425 3.14984 68.5284 3.12868C67.431 3.01815 65.3336 3.33222 64.8947 3.30738C62.2713 3.15957 60.5666 2.56414 57.7033 2.95657C60.6586 3.05344 59.0508 3.01253 60.1022 3.23048C60.4314 3.29882 64.2492 3.44137 59.4685 3.37806C58.908 3.37014 50.2335 2.95874 53.085 2.64348C51.6814 2.74407 50.5824 2.86039 49.2962 2.96719C46.1521 2.13635 47.2402 2.91687 48.1538 3.34657C47.6383 3.34843 47.1479 3.35279 46.6171 3.35279C47.7451 2.90136 41.9983 2.87333 40.0486 3.10122C39.3954 3.17697 41.222 3.32147 39.7113 3.38978C38.992 3.35812 38.1759 3.31713 37.4158 3.28175C38.5181 3.56737 36.3546 3.67744 36.3849 3.968C35.0019 3.70908 33.944 3.16028 34.7041 2.86283C33.561 2.98327 32.4119 3.10356 31.2689 3.22462C31.7996 3.29355 32.3373 3.36187 32.8681 3.43079C29.132 3.24823 24.328 3.66365 23.5471 3.05325C23.0521 3.05759 22.5517 3.06135 22.0566 3.0657C21.9035 3.16878 21.7555 3.27205 21.6024 3.37513C19.3623 3.28573 17.1272 3.19574 14.887 3.10634C16.8817 3.04238 17.3565 2.89566 19.4483 3.0148C18.6422 2.89625 17.8211 2.77704 17.0303 2.65849C13.8812 2.97766 13.4516 3.18742 8.71021 3.09243C8.49584 3.08808 4.91337 2.82043 4.79087 2.79435C4.22966 2.67514 5.08156 2.50195 4.83167 2.4417C4.13752 2.27281 -0.0804944 1.84871 0.00117009 1.78476C1.0322 0.999869 15.2238 0.989465 19.0621 0.949103C58.8731 0.530603 97.8075 1.0905 137.368 0.994877C137.775 0.993397 137.598 0.877531 137.771 0.872569C138.848 0.843469 139.905 1.02405 140.303 1.0315C141.154 1.04685 140.685 0.880012 141.307 0.879893C147.728 0.881756 153.787 0.979863 160.213 0.9513C160.631 0.949437 160.204 1.08292 160.939 1.05933C161.318 1.04641 162.506 0.841614 163.362 0.838513C166.353 0.827962 168.865 0.893617 172.02 0.890512C173.745 0.888659 176.333 0.906067 178.262 0.902963C179.114 0.901643 180.001 0.807954 180.843 0.804823C182.037 0.800477 181.793 0.990403 181.977 1.0022C182.783 1.05373 182.895 0.84527 183.661 0.850231C185.085 0.860166 185.161 0.999345 186.968 0.987553C188.259 0.97886 191.215 0.868972 192.843 0.836682C196.651 0.998114 201.448 0.934026 205.001 0.880625C207.104 0.848969 207.298 1.04384 208.156 1.04321C211.177 1.03944 213.47 0.790557 216.307 0.782485C220.073 0.77197 223.411 0.936539 227.059 0.948371C227.651 0.950232 227.515 0.771686 228.095 0.767105C230.244 0.75034 232.992 0.717844 234.906 0.743303C237.039 0.771281 237.826 1.03044 239.913 0.977666C240.525 0.961995 240.704 0.734759 241.73 0.705585C243.368 0.659707 245.164 0.86009 246.308 0.882456C247.875 0.912262 246.512 0.680762 248.625 0.71181C248.712 0.71315 249.028 0.878633 249.482 0.870738C250.804 0.848384 250.672 0.718067 252.607 0.730486C252.792 0.732201 255.357 0.88988 255.612 0.890512C257.113 0.892996 260.134 0.948201 261.022 0.914681C264.197 0.795458 261.697 0.54656 264.397 1.08679C265.586 0.954563 266.765 0.820539 268.026 0.692036C267.185 0.811879 270.598 0.984814 270.838 0.973638C272.822 0.883578 271.64 0.67338 274.156 0.708148C270.834 1.19374 277.402 0.770736 278.867 0.758317C285.921 0.698103 292.332 0.81928 299.421 0.816175C301.795 0.814903 304.975 0.712256 307.486 0.71474C308.071 0.714887 307.629 0.829805 308.144 0.832288C308.658 0.83399 308.088 0.704984 308.674 0.71181C312.324 0.756535 315.183 0.999952 318.526 0.695698C318.688 0.739688 318.683 0.774448 318.953 0.822767C321.688 0.550193 326.957 0.91675 328.937 0.967047C332.035 1.04524 332.826 0.860999 335.076 0.898202C338.052 0.947877 342.519 1.30781 340.524 0.713641C342.565 0.69502 344.53 0.689878 346.592 0.745134C346.822 0.751397 346.663 0.902422 346.755 0.905526C347.337 0.927209 347.526 0.79199 347.919 0.785781C348.985 0.769079 347.246 0.930985 348.765 0.885752C349.567 0.861536 350.022 0.743599 352.247 0.741106C365.66 0.728066 380.222 0.770305 393.972 0.790176C394.917 0.791417 394.295 0.64537 395.479 0.654684C399.593 0.687004 406.956 0.932791 410.504 0.899301C414.051 0.865772 413.251 0.652198 415.47 0.56277C415.899 0.545383 415.547 0.667103 415.935 0.668966C418.543 0.680153 421.653 0.870005 423.766 0.898569C425.163 0.917707 425.051 0.726221 426.021 0.712543C427.465 0.692672 428.952 0.886134 429.722 0.892343C433.346 0.919622 435.837 0.7638 439.22 0.843273C439.088 0.801132 439 0.76212 438.888 0.720599C442.895 0.727429 446.896 0.734276 450.902 0.741106C450.713 0.702606 450.531 0.663777 450.342 0.624656C455.042 0.645784 454.506 1.06305 454.092 0.181929C454.434 0.150888 454.797 0.114908 455.123 0.086353C454.991 0.54024 457.834 0.8724 461.452 0.98792C461.718 0.996613 463.499 0.55406 463.305 1.0769C463.769 0.948992 464.046 0.860817 464.439 0.74843C465.204 0.906724 465.98 1.06315 466.745 1.22082C467.159 1.19723 467.578 1.17446 467.991 1.15088C468.052 1.04842 468.005 0.942037 468.138 0.841443C470.057 0.825921 473.992 0.952583 475.509 0.939582C479.276 0.906672 483.11 0.629662 486.04 0.928963C487.467 0.898448 486.05 0.697353 488.172 0.722796C488.412 0.824608 488.638 0.92219 488.888 1.0271C490.622 0.572208 490.985 0.848932 493.362 0.943976C494.97 1.00855 496.022 0.897371 497.553 0.919075C497.941 0.924664 497.886 1.05818 498.152 1.05383C499.041 1.04007 501.577 0.856296 502.204 0.85133C507.89 0.802906 512.774 0.823518 518.189 0.872569C518.771 0.877537 518.017 0.745771 518.619 0.751359C519.588 0.760132 519.017 0.962606 519.579 0.97254C521.145 0.999108 521.157 0.785603 523.34 0.774429C530.532 0.737817 538.8 0.898203 546.313 0.912484C546.547 0.912484 546.533 0.787389 546.788 0.786147C548.452 0.780031 550.136 0.949128 551.646 0.947272C554.152 0.944788 556.036 0.769048 558.511 0.769669C563.35 0.77029 567.673 0.860275 572.649 0.865245C576.722 0.869592 580.259 0.852906 584.725 0.853527C604.233 0.856011 624.139 0.45894 643.779 0.670064C644.279 0.675649 644.075 0.786173 644.228 0.781387C645.677 0.733575 645.807 0.584447 646.322 0.896738C648.169 0.835191 648.751 0.600571 650.981 0.617332C652.17 0.62612 651.282 0.989763 653.293 0.80226C655.109 0.632756 653.105 0.433464 658.505 0.637107C658.648 0.642705 659.351 0.864359 660.474 0.806654C661.602 0.749526 660.296 0.590809 663.011 0.542995C669.386 0.431236 677.455 0.622835 684.866 0.563868C685.33 0.560143 689.803 0.441641 690.686 0.386997C692.395 0.280819 692.038 0.116102 694.257 0.0757334C695.972 0.0446856 697.387 0.231271 699.403 0.194014C699.638 0.189485 700.032 -0.00243984 701.547 0.0230016ZM325.823 3.75084C325.405 3.93915 324.649 4.63227 322.119 4.42134C321.879 4.40147 323.174 3.92482 321.776 3.84898C323.144 3.79869 324.476 3.7824 325.823 3.75011C325.823 3.75036 325.823 3.7506 325.823 3.75084ZM712.516 4.44258C710.622 4.40781 708.722 4.37336 706.829 4.33858C708.135 4.25476 709.444 4.17109 710.745 4.08664C711.337 4.20522 711.924 4.324 712.516 4.44258ZM476.795 4.11337C476.797 4.11337 476.799 4.11337 476.801 4.11337C474.81 4.20279 472.818 4.29238 470.828 4.38179C471.037 4.31597 471.247 4.24987 471.456 4.18405C473.028 4.08037 474.6 3.97683 476.167 3.87315C476.376 3.95324 476.586 4.03329 476.795 4.11337ZM492.521 3.41651C493.792 3.49475 493.481 3.6267 494.181 3.75524C494.181 3.75499 494.181 3.75475 494.181 3.75451C494.365 3.78797 495.225 3.81725 495.557 3.82225C495.434 3.73966 495.276 3.65814 495.144 3.57617C498.109 3.37622 503.908 4.08675 496.4 4.37301C496.512 4.26871 496.62 4.16494 496.732 4.06064C493.001 4.08982 488.842 3.86359 492.521 3.41651ZM295.823 4.05112C292.638 4.39265 291.617 4.46465 287.753 4.23056C288.299 4.13376 288.845 4.03697 289.39 3.94017C290.028 4.0389 290.662 4.13695 291.3 4.23568C291.302 4.23568 291.303 4.23568 291.305 4.23568C291.433 4.13199 291.561 4.02811 291.683 3.92442C293.061 3.96664 294.445 4.0089 295.823 4.05112ZM614.437 3.66332C615.325 4.34542 615.069 3.94894 612.533 4.10276C611.655 4.15616 612.511 4.2755 611.965 4.29537C609.016 4.40391 608.78 3.94691 609.438 3.7091C611.107 3.69295 612.793 3.67823 614.432 3.66332C614.434 3.66332 614.435 3.66332 614.437 3.66332ZM690.955 3.52161C690.957 3.52161 690.959 3.52161 690.961 3.52161C691.037 3.68798 689.849 3.73273 691.189 3.89036C690.169 3.88974 689.149 3.88842 688.124 3.8878C688.425 3.8723 688.732 3.85753 689.032 3.84203C688.767 3.7849 688.501 3.72704 688.236 3.66992C687.873 3.86115 687.537 3.74999 686.465 3.68603C686.761 3.89031 687.055 4.09475 687.352 4.29903C686.106 4.2382 684.857 4.17714 683.612 4.1163C683.596 4.06482 683.581 4.01325 683.566 3.96177C683.096 4.02757 682.631 4.09408 682.162 4.15988C682.034 4.09842 681.912 4.03751 681.784 3.97605C681.218 4.02261 680.65 4.06913 680.084 4.1163C679.912 3.96742 681.16 3.90308 678.947 3.9409C679.626 3.78816 680.303 3.63589 680.987 3.48316C684.31 3.49558 687.633 3.50857 690.955 3.52161ZM591.37 3.87315C595.029 3.84459 593.999 3.95249 593.151 4.29025C592.56 4.15119 591.962 4.0122 591.37 3.87315ZM402.834 3.57251C401.772 3.80288 400.706 4.03096 399.619 4.25326C397.455 4.3818 395.29 3.9619 396.918 3.79735C398.878 3.59991 400.925 3.82088 402.834 3.57251ZM353.544 3.67504C356.192 3.78187 353.701 4.05561 353.103 4.21518C352.371 3.95872 351.35 3.98134 349.709 3.95152C351.25 3.93489 353.106 3.6569 353.544 3.67431C353.544 3.67455 353.544 3.6748 353.544 3.67504ZM445.443 3.83141C446.504 3.82452 447.56 3.76018 448.508 3.83836C448.222 4.05865 446.324 3.85824 447.682 4.18478C447.003 4.19037 446.323 4.19579 445.65 4.20199C446.078 4.0667 445.502 3.96558 445.446 3.83214C445.445 3.83189 445.444 3.83165 445.443 3.83141ZM555.914 4.13278C553.831 3.87198 553.437 3.98358 551.339 4.16428C551.043 3.95193 553.545 3.59624 555.111 3.51795C555.377 3.72284 555.643 3.92788 555.914 4.13278ZM63.3525 4.02402C63.8525 3.75336 67.5414 3.71807 69.3743 3.79808C69.156 3.83823 68.9371 3.8789 68.7188 3.91966C66.9324 3.95443 65.1389 3.98925 63.3525 4.02402ZM348.928 3.93321C349.203 3.94113 349.463 3.94705 349.709 3.95152C349.436 3.95447 349.172 3.94986 348.928 3.93321ZM238.055 2.75846C238.928 2.50328 236.335 2.41754 239.483 2.51751C239.483 2.51726 239.483 2.51702 239.483 2.51677C241.566 2.5826 242.026 2.60017 243.955 2.62004C243.26 2.94786 239.346 3.06503 244.741 3.13271C244.812 3.13301 244.671 2.93795 245.532 2.96463C245.798 2.97292 246.65 3.13301 247.945 3.17958C248.363 3.19449 251.509 3.24386 247.221 3.24696C247.349 3.47547 247.119 3.70677 247.129 3.92845C245.456 3.99287 244.169 3.54542 242.399 3.5564C239.771 3.57378 238.433 4.02626 237.928 3.43262C240.138 3.28677 243.933 3.28327 244.428 3.64025C246.566 3.6446 247.18 3.35212 245.456 3.20741C238.071 3.39122 243.429 2.77327 236.962 3.00674C236.886 3.0893 236.62 3.17815 236.66 3.25575C234.686 2.96521 237.744 2.84973 238.055 2.75846ZM253.499 3.38978C252.223 3.56427 250.951 3.74015 249.68 3.91526C249.68 3.63088 250.381 3.37567 252.392 3.21547C252.759 3.27379 253.132 3.33208 253.499 3.38978ZM146.162 3.46448C145.978 3.61909 145.488 3.76078 145.131 3.90794C144.743 3.77754 135.556 3.65245 140.23 3.52454C140.909 3.50591 145.049 3.77931 146.162 3.46448ZM570.373 3.89988C569.29 3.79618 568.213 3.69232 567.136 3.58862C568.794 3.52284 570.453 3.45534 572.11 3.38831C571.53 3.5588 570.953 3.7294 570.373 3.89988ZM385.22 3.30116C385.677 3.30696 384.159 3.5196 385.96 3.48609C384.617 3.62208 383.36 3.73718 382.048 3.8651C381.655 3.7645 381.258 3.66431 380.865 3.56372C380.559 3.6283 380.247 3.69249 379.94 3.75707C380.124 3.61052 380.288 3.4674 380.482 3.31837C382.692 3.63257 383.199 3.27632 385.22 3.30116ZM450.935 2.72807C451.332 3.04656 448.132 3.23595 451.28 3.28688C450.683 3.49612 449.723 3.60588 447.88 3.62451C447.584 3.54448 447.289 3.46504 446.994 3.38502C446.953 3.59916 446.479 3.67875 445.443 3.83141C445.442 3.83116 445.441 3.83092 445.44 3.83067C442.639 3.84618 442.807 3.77478 442.133 3.42274C445.099 3.62144 445.187 3.2998 447.208 3.10854C448.597 2.97703 450.409 3.03659 450.935 2.72807ZM155.951 3.46082C153.854 3.72967 155.736 3.98043 152.015 3.69482C152.255 3.62651 152.496 3.55879 152.736 3.49048C153.807 3.47993 154.879 3.47013 155.951 3.46082ZM461.284 3.81969C461.044 3.32668 459.07 2.94292 458.733 3.74498C460.657 3.90829 459.717 3.45397 461.284 3.81969ZM354.447 2.90311C358.147 2.92611 357.448 3.48255 355.927 3.76073C355.692 3.65952 355.457 3.55812 355.228 3.45752C354.579 3.50347 353.931 3.54952 353.283 3.59485C353.671 3.36447 354.059 3.13348 354.447 2.90311ZM526.515 3.27809C523.687 3.63017 529.567 3.4739 527.592 3.69372C526.015 3.86943 523.936 3.51467 524.722 3.29237C525.268 3.28616 525.876 3.28181 526.509 3.27809C526.511 3.27809 526.513 3.27809 526.515 3.27809ZM510.152 3.37879C510.616 3.75497 509.947 3.64532 512.181 3.57763C512.819 3.55838 517.888 3.69967 515.76 3.38795C513.949 3.38795 512.035 3.38252 510.152 3.37879ZM311.677 3.4535C311.643 3.28968 315.547 2.92997 316.048 3.01992C316.048 3.01968 316.048 3.01943 316.048 3.01919C317.4 3.26446 313.283 3.29931 315.069 3.63586C311.113 3.33972 309.93 4.05603 310.206 3.1122C312.536 3.0708 311.433 3.26536 311.677 3.4535ZM14.917 3.25282C14.9151 3.25282 14.9133 3.25282 14.9115 3.25282C15.1737 3.26053 17.3338 3.50095 17.0711 3.58423C14.4735 3.51282 14.9364 3.35457 12.518 3.61462C12.3855 3.53086 12.2719 3.44962 12.1291 3.36524C13.0886 3.31557 13.6205 3.21494 14.917 3.25282ZM136.229 3.13418C137.183 3.09133 138.925 3.26887 140.012 3.25831C136.552 3.94011 132.416 3.30433 136.229 3.13418ZM655.167 3.54504C655.165 3.54529 655.162 3.54553 655.159 3.54578C655.16 3.54541 655.161 3.54505 655.162 3.54468C655.164 3.5448 655.165 3.54492 655.167 3.54504ZM210.19 3.54321C210.067 3.49895 209.998 3.46051 209.973 3.42676C209.973 3.42359 209.973 3.42042 209.973 3.41724C210.039 3.45868 210.11 3.50059 210.19 3.54321ZM303.564 3.50293C301.938 3.27447 307.355 2.91125 309.107 2.99795C308.984 3.10223 308.965 3.19677 308.68 3.31654C307.266 3.0465 303.834 3.54143 303.564 3.50293ZM427.073 3.41907C422.791 3.41286 428.364 2.5108 428.594 3.23048C428.585 3.24443 427.184 3.41785 427.073 3.41907ZM337.334 3.40845C338.425 3.13535 336.232 3.06282 339.738 3.11001C339.942 3.18075 340.146 3.25166 340.35 3.3224C339.345 3.35095 338.339 3.3799 337.334 3.40845ZM399.02 2.23481C393.631 2.38693 388.476 2.65531 391.987 3.40845C392.395 3.38426 392.808 3.36087 393.216 3.33668C393.277 2.96924 394.783 3.16981 396.986 3.18178C397.3 3.0359 398.522 3.00217 398.751 2.87821C399.194 2.63858 397.791 2.47011 399.02 2.23481ZM626.562 2.8328C626.476 2.89552 626.391 2.95856 626.304 3.02066C625.452 3.09144 624.597 3.16189 623.745 3.23268C623.882 3.11232 624.02 2.99197 624.158 2.87162C624.959 2.85858 625.756 2.84547 626.557 2.83243C626.559 2.83255 626.561 2.83268 626.562 2.8328ZM258.751 2.61455C258.261 3.30486 259.972 3.17772 263.443 2.82877C261.881 2.75736 260.313 2.68596 258.751 2.61455ZM485.627 2.51458C485.739 2.71069 485.849 2.9062 485.967 3.10232C487.809 2.89802 487.467 2.67343 486.584 2.41387C486.263 2.44737 485.948 2.48108 485.627 2.51458ZM512.167 2.43109C511.403 2.39017 511.793 2.54852 511.713 2.54534C509.778 2.46213 509.506 2.38949 507.133 2.50872C506.842 2.55031 506.556 2.59405 506.265 2.63689C507.362 3.04783 508.159 2.82385 510.481 3.06533C510.062 2.92437 509.646 2.78322 509.227 2.64165C510.518 2.67144 511.804 2.70083 513.095 2.73063C513.248 2.68716 513.401 2.6441 513.554 2.60063C513.095 2.54476 512.621 2.48198 512.167 2.43109ZM636.419 3.01113C637.675 3.02728 638.936 3.04406 640.192 3.0602C640.238 2.959 640.282 2.8571 640.328 2.7559C639.026 2.84095 637.72 2.92608 636.419 3.01113ZM232.972 2.92911C232.873 2.96501 232.775 3.00113 232.689 3.03787C232.698 2.9931 232.806 2.95815 232.972 2.92911ZM11.6042 2.69767C10.1804 2.6269 8.12868 2.67337 6.56695 2.65849C6.68972 2.91239 10.6591 2.84221 12.0529 2.99612C12.2769 2.95056 12.206 2.72746 11.6042 2.69767ZM359.566 2.92545C359.923 2.79879 360.28 2.67273 360.632 2.54607C361.495 2.55973 362.359 2.57415 363.227 2.58782C363.252 2.48412 363.277 2.37952 363.303 2.27582C359.481 2.41054 360.362 2.11152 358.47 1.81661C358.837 2.18601 359.198 2.55543 359.566 2.92545ZM676.369 2.35345C673.607 2.42362 672.628 2.55467 674.185 2.86576C675.159 2.79437 676.139 2.72292 677.114 2.65153C676.864 2.55221 676.614 2.45278 676.369 2.35345ZM182.684 2.69474C180.374 2.81098 180.335 2.39349 178.077 2.62663C179.286 2.70361 180.495 2.78145 181.7 2.85843C182.025 2.804 182.359 2.74918 182.684 2.69474ZM296.011 1.54819C295.036 1.40296 293.213 2.09334 290.473 1.58372C289.82 1.73582 289.411 1.8811 288.849 2.0301C288.523 1.86803 288.151 1.7039 287.84 1.54307C287.838 1.54307 287.836 1.54307 287.835 1.54307C285.349 1.59771 286.961 1.80097 286.904 1.97298C286.878 2.04428 285.033 1.92509 285.61 2.08027C286.605 2.34666 290.324 2.19348 290.334 2.51824C289.028 2.4121 286.476 2.50079 287.231 2.71745C288.058 2.95525 290.462 2.55672 291.993 2.75407C289.799 2.23501 294.331 2.39534 294.846 2.79398C297.506 2.48786 295.062 2.36298 292.336 2.37726C294 2.07175 291.551 2.23681 291.147 1.98287C292.863 1.82957 298.751 1.95736 296.011 1.54819ZM421.468 2.11103C419.63 2.13073 416.758 1.95611 415.5 2.21393C414.767 2.36414 417.645 2.48046 415.661 2.71635C417.451 2.69335 417.86 2.60121 417.554 2.39447C417.962 2.36964 418.375 2.34543 418.783 2.32123C418.972 2.36157 419.165 2.40137 419.354 2.4417C419.569 2.35664 419.784 2.27226 419.993 2.1872C420.427 2.20395 420.865 2.22073 421.299 2.2381C421.35 2.19533 421.437 2.15811 421.468 2.11103ZM116.338 2.70756C116.849 2.70508 117.354 2.70261 117.864 2.6995C117.808 2.64915 117.741 2.59672 117.677 2.54497C117.63 2.50408 117.584 2.46319 117.538 2.4223C117.834 2.56839 120.265 2.81122 121.289 2.6552C121.803 2.57693 120.632 2.29906 122.814 2.25055C121.233 2.26484 119.767 2.30276 118.231 2.32635C118.369 2.24377 118.502 2.1603 118.639 2.07771C118.638 2.07759 118.638 2.07747 118.637 2.07734C118.126 2.05872 117.61 2.03921 117.1 2.02058C116.845 2.24972 116.594 2.47843 116.338 2.70756ZM484.131 2.12678C482.39 2.28885 481.808 2.37301 482.629 2.63505C482.631 2.63518 482.633 2.6353 482.635 2.63542C483.283 2.51932 483.931 2.40327 484.579 2.28717C484.431 2.23377 484.284 2.18018 484.131 2.12678ZM217.98 2.06416C214.28 3.05952 222.613 2.44935 221.026 2.1103C220.955 2.09478 218.327 2.17407 217.98 2.06416ZM353.767 2.59697C354.783 2.5889 355.801 2.58161 356.822 2.57353C356.587 2.45121 356.346 2.3293 356.112 2.20698C355.331 2.33676 354.548 2.46719 353.767 2.59697ZM664.347 1.90157C663.278 1.62835 660.534 1.52936 659.193 1.8265C659.897 1.86127 660.602 1.89609 661.306 1.93087C659.975 1.965 658.658 2.00259 657.316 2.03486C657.244 2.41551 658.791 2.19468 661.118 2.29962C661.479 2.31655 663.783 2.78904 664.578 2.43292C664.738 2.35972 662.287 2.30995 663.991 2.09712C663.246 2.08037 662.603 2.08408 661.899 2.07478C661.848 1.98412 661.797 1.89336 661.741 1.8027C662.612 1.83552 663.477 1.86875 664.347 1.90157ZM410.768 2.14069C408.243 2.11969 407.931 2.27178 407.406 2.54058C408.58 2.51015 409.754 2.48019 410.928 2.44976C410.872 2.34695 410.823 2.24412 410.768 2.14069ZM641.783 1.81442C640.401 1.77045 640.993 1.98924 640.436 2.03084C638.334 2.18729 636.9 2.03092 634.823 2.12898C634.961 2.08675 635.087 2.04728 635.22 2.0063C635.218 2.0063 635.216 2.0063 635.214 2.0063C625.379 1.8219 630.545 2.31809 636.43 2.23737C636.568 2.31871 636.7 2.40016 636.838 2.48089C639.472 2.3387 641.9 2.20187 641.783 1.81442ZM250.855 2.0301C250.743 1.97919 251.697 1.65561 249.906 1.80709C248.487 2.27953 250.814 2.04504 251.396 2.22675C250.912 2.27208 250.416 2.31618 249.936 2.36151C252.835 2.49501 253.258 2.38268 252.202 2.03743C252.126 2.01423 250.968 2.08086 250.855 2.0301ZM231.802 1.79721C231.404 2.4933 235.063 2.18028 234.93 1.96419C234.425 1.95557 234.033 2.07343 233.497 2.02132C232.956 1.96916 232.818 1.80657 231.802 1.79721ZM336.624 1.96749C336.517 1.96438 335.44 1.67182 335.547 1.90084C336.879 2.44293 339.563 2.094 339.093 1.90523C338.206 1.91457 337.614 1.99591 336.624 1.96675C336.624 1.967 336.624 1.96724 336.624 1.96749ZM680.998 1.73752C680.947 1.71809 678.26 1.6005 677.914 1.70969C677.628 1.83261 677.486 1.96436 677.272 2.09162C678.752 1.97364 681.748 2.06352 680.993 1.73752C680.994 1.73752 680.996 1.73752 680.998 1.73752Z" fill="#482812"/>
</svg>
