<svg width="186" height="48" viewBox="0 0 186 48" fill="none" xmlns="http://www.w3.org/2000/svg">
<path d="M16.1066 40.576C8.71463 40.576 5.01863 37.12 5.01863 30.208V14.848C5.01863 13.792 4.90663 13.104 4.68263 12.784C4.49063 12.432 4.07463 12.256 3.43463 12.256C3.11463 12.256 2.79463 12.272 2.47462 12.304C2.18663 12.336 1.99463 12.352 1.89863 12.352L1.80263 12.16L2.23463 9.04C2.68263 9.072 3.54663 9.104 4.82663 9.136C6.13863 9.168 7.53063 9.184 9.00263 9.184C9.83463 9.184 10.8906 9.152 12.1706 9.088C13.4506 8.992 14.2986 8.928 14.7146 8.896L14.3786 12.064C13.3546 12.192 12.6506 12.448 12.2666 12.832C11.9146 13.184 11.7066 13.792 11.6426 14.656L11.3066 28.672C11.3066 31.104 11.8186 32.992 12.8426 34.336C13.8986 35.648 15.4026 36.304 17.3546 36.304C21.3546 36.304 23.3546 34.192 23.3546 29.968C23.3546 27.504 23.3226 24.688 23.2586 21.52C23.2266 18.352 23.1946 16.128 23.1626 14.848C23.1306 13.792 23.0186 13.104 22.8266 12.784C22.6346 12.432 22.2346 12.256 21.6266 12.256C21.3066 12.256 20.9866 12.272 20.6666 12.304C20.3466 12.336 20.1226 12.352 19.9946 12.352L19.8986 12.16L20.3306 9.04C20.7466 9.04 21.4986 9.072 22.5866 9.136C23.7066 9.168 24.8106 9.184 25.8986 9.184C26.9226 9.184 28.0266 9.152 29.2106 9.088C30.4266 8.992 31.2106 8.928 31.5626 8.896L31.2746 12.016C30.4106 12.208 29.7866 12.384 29.4026 12.544C29.0186 12.704 28.7626 12.928 28.6346 13.216C28.5066 13.504 28.4426 13.936 28.4426 14.512V29.44C28.4426 33.024 27.3866 35.776 25.2746 37.696C23.1626 39.616 20.1066 40.576 16.1066 40.576ZM41.1735 40.576C40.7895 39.104 39.9735 36.112 38.7255 31.6C37.4775 27.088 36.4375 23.536 35.6055 20.944C35.3815 20.176 35.0455 19.616 34.5975 19.264C34.1495 18.88 33.5575 18.656 32.8215 18.592L32.6295 18.304L32.9175 15.856C33.2695 15.856 33.9415 15.872 34.9335 15.904C35.9255 15.936 36.9495 15.952 38.0055 15.952C39.2855 15.952 40.6455 15.92 42.0855 15.856C43.5255 15.792 44.4535 15.744 44.8695 15.712L45.1095 16L44.9175 18.496C43.9895 18.592 43.3175 18.688 42.9015 18.784C42.5175 18.848 42.2615 18.96 42.1335 19.12C42.0055 19.28 41.9415 19.536 41.9415 19.888C41.9415 20.432 42.4055 22.688 43.3335 26.656C44.2935 30.624 44.9495 33.312 45.3015 34.72H45.9255C46.3735 33.696 47.2535 31.072 48.5655 26.848C49.9095 22.624 50.5815 20.224 50.5815 19.648C50.5815 19.232 50.4535 18.96 50.1975 18.832C49.9415 18.672 49.4455 18.592 48.7095 18.592H47.2695L47.0775 18.304L47.3175 15.808C47.7015 15.84 48.4535 15.872 49.5735 15.904C50.6935 15.936 51.9095 15.952 53.2215 15.952L57.8775 15.904L57.5895 18.592C57.0135 18.656 56.5815 18.816 56.2935 19.072C56.0375 19.328 55.7815 19.808 55.5255 20.512L48.5655 39.808L41.1735 40.576ZM69.3173 40L69.5093 37.504C70.4373 37.408 71.0933 37.328 71.4773 37.264C71.8613 37.168 72.1173 37.04 72.2453 36.88C72.4053 36.72 72.4853 36.48 72.4853 36.16C72.4853 35.808 72.4213 35.44 72.2933 35.056L71.6213 32.56C70.9493 32.528 69.7813 32.512 68.1172 32.512C67.3813 32.512 66.1653 32.592 64.4693 32.752L63.6053 35.248C63.4773 35.728 63.4133 36.08 63.4133 36.304C63.4133 36.72 63.5253 37.008 63.7493 37.168C64.0053 37.296 64.4693 37.36 65.1413 37.36H66.6293L66.8693 37.696L66.5813 40.192C66.1973 40.16 65.3813 40.112 64.1333 40.048C62.9173 40.016 61.7813 40 60.7253 40C59.6053 40 58.5813 40.016 57.6533 40.048C56.7573 40.08 56.1653 40.096 55.8773 40.096L56.1653 37.408C56.7413 37.312 57.2053 37.088 57.5573 36.736C57.9413 36.352 58.2933 35.792 58.6133 35.056L65.5253 16.144L72.5813 15.52L73.0613 15.808C73.4453 17.248 74.2613 20.192 75.5093 24.64C76.7573 29.088 77.7813 32.496 78.5813 34.864C78.8373 35.728 79.1733 36.352 79.5893 36.736C80.0373 37.12 80.6773 37.344 81.5093 37.408L81.7013 37.696L81.4133 40.096C81.0613 40.096 80.3893 40.08 79.3973 40.048C78.4373 40.016 77.4453 40 76.4213 40C74.9813 40 73.5733 40.032 72.1973 40.096C70.8213 40.192 69.9413 40.256 69.5573 40.288L69.3173 40ZM68.1172 29.152C69.1733 29.152 70.1013 29.104 70.9013 29.008L68.7413 21.232H68.1653L65.5253 29.152H68.1172ZM96.9293 40.576C94.0173 40.576 91.4893 39.968 89.3453 38.752C87.2013 37.536 85.5533 35.792 84.4013 33.52C83.2493 31.248 82.6733 28.56 82.6733 25.456C82.6733 22.064 83.3613 19.104 84.7373 16.576C86.1133 14.048 88.0653 12.096 90.5933 10.72C93.1533 9.312 96.1133 8.608 99.4733 8.608C100.657 8.608 101.921 8.704 103.265 8.896C104.641 9.056 105.809 9.232 106.769 9.424C107.729 9.616 108.337 9.744 108.593 9.808L108.881 10.432C108.817 10.656 108.705 11.168 108.545 11.968C108.385 12.768 108.209 13.84 108.017 15.184C107.825 16.528 107.681 17.952 107.585 19.456L103.025 19.744C103.025 19.616 103.041 19.328 103.073 18.88C103.105 18.4 103.121 17.856 103.121 17.248C103.121 15.84 102.689 14.816 101.825 14.176C100.961 13.504 99.6013 13.168 97.7453 13.168C95.2173 13.168 93.2813 14.064 91.9373 15.856C90.6253 17.648 89.9693 20.288 89.9693 23.776C89.9693 27.712 90.6733 30.768 92.0813 32.944C93.5213 35.12 95.5213 36.208 98.0813 36.208C99.8413 36.208 101.217 35.68 102.209 34.624C103.201 33.536 103.889 31.824 104.273 29.488L108.881 29.2C108.785 29.744 108.609 30.944 108.353 32.8C108.129 34.656 107.985 36.416 107.921 38.08L107.441 38.656C107.441 38.688 106.897 38.88 105.809 39.232C104.753 39.552 103.441 39.856 101.873 40.144C100.337 40.432 98.6893 40.576 96.9293 40.576ZM113.067 37.6C114.059 37.44 114.731 37.136 115.083 36.688C115.467 36.208 115.659 35.424 115.659 34.336V20.56C115.659 19.792 115.563 19.28 115.371 19.024C115.179 18.768 114.811 18.64 114.267 18.64H113.115L112.827 18.256L113.163 15.904L118.731 15.952C119.915 15.952 121.163 15.92 122.475 15.856C123.819 15.792 124.747 15.744 125.259 15.712L124.923 18.64C123.995 18.736 123.323 18.864 122.907 19.024C122.491 19.184 122.219 19.424 122.091 19.744C121.963 20.032 121.867 20.496 121.803 21.136C121.515 25.008 121.371 29.504 121.371 34.624C121.371 35.456 121.515 36.016 121.803 36.304C122.123 36.592 122.731 36.736 123.627 36.736C124.843 36.736 125.755 36.592 126.363 36.304C127.003 35.984 127.467 35.44 127.755 34.672C128.075 33.872 128.331 32.624 128.523 30.928L132.171 30.544L132.459 30.976C132.395 31.456 132.251 32.576 132.027 34.336C131.803 36.096 131.611 37.92 131.451 39.808L131.019 40.288C130.315 40.256 128.763 40.192 126.363 40.096C123.995 40.032 121.803 40 119.787 40C118.283 40 116.827 40.048 115.419 40.144C114.011 40.272 113.115 40.352 112.731 40.384L113.067 37.6ZM145.38 40.432C142.244 40.432 139.908 39.776 138.372 38.464C136.868 37.152 136.116 35.136 136.116 32.416V20.656C136.116 19.824 136.036 19.28 135.876 19.024C135.716 18.768 135.364 18.64 134.82 18.64L133.62 18.688L133.524 18.544L133.86 15.856C134.244 15.856 134.996 15.872 136.116 15.904C137.268 15.936 138.5 15.952 139.812 15.952C140.772 15.952 141.732 15.936 142.692 15.904C143.652 15.84 144.308 15.792 144.66 15.76L144.324 18.544C143.556 18.608 143.012 18.784 142.692 19.072C142.404 19.36 142.228 19.824 142.164 20.464L141.924 31.36C141.924 33.024 142.308 34.336 143.076 35.296C143.876 36.256 144.996 36.736 146.436 36.736C149.412 36.736 150.9 35.248 150.9 32.272C150.9 30.384 150.868 28.224 150.804 25.792C150.772 23.36 150.756 21.648 150.756 20.656C150.756 19.856 150.676 19.328 150.516 19.072C150.356 18.784 150.036 18.64 149.556 18.64L148.308 18.688L148.212 18.544L148.596 15.856C148.948 15.856 149.572 15.872 150.468 15.904C151.396 15.936 152.308 15.952 153.204 15.952C154.1 15.952 155.06 15.936 156.084 15.904C157.14 15.84 157.828 15.792 158.148 15.76L157.908 18.496C156.948 18.72 156.324 18.944 156.036 19.168C155.78 19.36 155.652 19.744 155.652 20.32V31.648C155.652 34.496 154.772 36.672 153.012 38.176C151.252 39.68 148.708 40.432 145.38 40.432ZM166.822 40C165.894 40 164.758 40.048 163.414 40.144C162.102 40.24 161.238 40.304 160.822 40.336L161.11 37.6C162.23 37.408 162.982 37.12 163.366 36.736C163.75 36.32 163.942 35.632 163.942 34.672L163.99 20.416C163.99 19.776 163.894 19.328 163.702 19.072C163.51 18.784 163.19 18.64 162.742 18.64L161.398 18.688L161.062 18.352L161.494 15.856L167.206 15.952C168.262 15.92 169.446 15.888 170.758 15.856C172.102 15.792 173.046 15.744 173.59 15.712C176.342 15.712 178.438 16.224 179.878 17.248C181.35 18.24 182.086 19.68 182.086 21.568C182.086 22.592 181.846 23.504 181.366 24.304C180.886 25.104 180.326 25.76 179.686 26.272C179.046 26.752 178.47 27.088 177.958 27.28C179.174 27.536 180.374 28.128 181.558 29.056C182.774 29.952 183.382 31.2 183.382 32.8C183.382 35.136 182.438 36.992 180.55 38.368C178.662 39.712 176.102 40.384 172.87 40.384L171.382 40.288C169.334 40.096 167.814 40 166.822 40ZM169.846 25.984C170.166 26.016 170.774 26.096 171.67 26.224C172.566 26.32 173.174 26.368 173.494 26.368C173.494 26.432 173.718 26.32 174.166 26.032C174.646 25.712 175.062 25.28 175.414 24.736C175.798 24.16 175.99 23.456 175.99 22.624C175.99 21.472 175.574 20.624 174.742 20.08C173.91 19.536 172.614 19.264 170.854 19.264C170.598 19.264 170.422 19.312 170.326 19.408C170.23 19.504 170.166 19.68 170.134 19.936C169.942 22.496 169.846 24.512 169.846 25.984ZM169.606 34.72C169.606 35.456 169.878 35.984 170.422 36.304C170.966 36.624 171.878 36.784 173.158 36.784C174.374 36.784 175.318 36.48 175.99 35.872C176.662 35.264 176.998 34.416 176.998 33.328C176.998 32.432 176.678 31.68 176.038 31.072C175.43 30.432 174.518 29.984 173.302 29.728H169.75L169.606 34.72Z" fill="#EFE6DD"/>
</svg>
