<svg width="128" height="22" viewBox="0 0 128 22" fill="none" xmlns="http://www.w3.org/2000/svg">
<path d="M10.2534 21.384C5.32538 21.384 2.86138 19.08 2.86138 14.472V4.232C2.86138 3.528 2.78671 3.06933 2.63738 2.856C2.50938 2.62133 2.23204 2.504 1.80538 2.504C1.59204 2.504 1.37871 2.51467 1.16537 2.536C0.973375 2.55733 0.845375 2.568 0.781375 2.568L0.717375 2.44L1.00538 0.359999C1.30404 0.381332 1.88004 0.402665 2.73338 0.424C3.60804 0.445333 4.53604 0.455999 5.51738 0.455999C6.07204 0.455999 6.77604 0.434666 7.62938 0.391998C8.48271 0.327999 9.04804 0.285333 9.32538 0.264L9.10138 2.376C8.41871 2.46133 7.94938 2.632 7.69338 2.888C7.45871 3.12267 7.32004 3.528 7.27738 4.104L7.05338 13.448C7.05338 15.0693 7.39471 16.328 8.07738 17.224C8.78138 18.0987 9.78404 18.536 11.0854 18.536C13.752 18.536 15.0854 17.128 15.0854 14.312C15.0854 12.6693 15.064 10.792 15.0214 8.68C15 6.568 14.9787 5.08533 14.9574 4.232C14.936 3.528 14.8614 3.06933 14.7334 2.856C14.6054 2.62133 14.3387 2.504 13.9334 2.504C13.72 2.504 13.5067 2.51467 13.2934 2.536C13.08 2.55733 12.9307 2.568 12.8454 2.568L12.7814 2.44L13.0694 0.359999C13.3467 0.359999 13.848 0.381332 14.5734 0.424C15.32 0.445333 16.056 0.455999 16.7814 0.455999C17.464 0.455999 18.2 0.434666 18.9894 0.391998C19.8 0.327999 20.3227 0.285333 20.5574 0.264L20.3654 2.344C19.7894 2.472 19.3734 2.58933 19.1174 2.696C18.8614 2.80267 18.6907 2.952 18.6054 3.144C18.52 3.336 18.4774 3.624 18.4774 4.008V13.96C18.4774 16.3493 17.7734 18.184 16.3654 19.464C14.9574 20.744 12.92 21.384 10.2534 21.384ZM26.9646 21.384C26.7086 20.4027 26.1646 18.408 25.3326 15.4C24.5006 12.392 23.8073 10.024 23.2526 8.296C23.1033 7.784 22.8793 7.41067 22.5806 7.176C22.282 6.92 21.8873 6.77067 21.3966 6.728L21.2686 6.536L21.4606 4.904C21.6953 4.904 22.1433 4.91467 22.8046 4.936C23.466 4.95733 24.1486 4.968 24.8526 4.968C25.706 4.968 26.6126 4.94667 27.5726 4.904C28.5326 4.86133 29.1513 4.82933 29.4286 4.808L29.5886 5L29.4606 6.664C28.842 6.728 28.394 6.792 28.1166 6.856C27.8606 6.89867 27.69 6.97333 27.6046 7.08C27.5193 7.18667 27.4766 7.35733 27.4766 7.592C27.4766 7.95467 27.786 9.45867 28.4046 12.104C29.0446 14.7493 29.482 16.5413 29.7166 17.48H30.1326C30.4313 16.7973 31.018 15.048 31.8926 12.232C32.7886 9.416 33.2366 7.816 33.2366 7.432C33.2366 7.15467 33.1513 6.97333 32.9806 6.888C32.81 6.78133 32.4793 6.728 31.9886 6.728H31.0286L30.9006 6.536L31.0606 4.872C31.3166 4.89333 31.818 4.91467 32.5646 4.936C33.3113 4.95733 34.122 4.968 34.9966 4.968L38.1006 4.936L37.9086 6.728C37.5246 6.77067 37.2366 6.87733 37.0446 7.048C36.874 7.21867 36.7033 7.53867 36.5326 8.008L31.8926 20.872L26.9646 21.384ZM45.7271 21L45.8551 19.336C46.4738 19.272 46.9111 19.2187 47.1671 19.176C47.4231 19.112 47.5938 19.0267 47.6791 18.92C47.7858 18.8133 47.8391 18.6533 47.8391 18.44C47.8391 18.2053 47.7965 17.96 47.7111 17.704L47.2631 16.04C46.8151 16.0187 46.0365 16.008 44.9271 16.008C44.4365 16.008 43.6258 16.0613 42.4951 16.168L41.9191 17.832C41.8338 18.152 41.7911 18.3867 41.7911 18.536C41.7911 18.8133 41.8658 19.0053 42.0151 19.112C42.1858 19.1973 42.4951 19.24 42.9431 19.24H43.9351L44.0951 19.464L43.9031 21.128C43.6471 21.1067 43.1031 21.0747 42.2711 21.032C41.4605 21.0107 40.7031 21 39.9991 21C39.2525 21 38.5698 21.0107 37.9511 21.032C37.3538 21.0533 36.9591 21.064 36.7671 21.064L36.9591 19.272C37.3431 19.208 37.6525 19.0587 37.8871 18.824C38.1431 18.568 38.3778 18.1947 38.5911 17.704L43.1991 5.096L47.9031 4.68L48.2231 4.872C48.4791 5.832 49.0231 7.79467 49.8551 10.76C50.6871 13.7253 51.3698 15.9973 51.9031 17.576C52.0738 18.152 52.2978 18.568 52.5751 18.824C52.8738 19.08 53.3005 19.2293 53.8551 19.272L53.9831 19.464L53.7911 21.064C53.5565 21.064 53.1085 21.0533 52.4471 21.032C51.8071 21.0107 51.1458 21 50.4631 21C49.5031 21 48.5645 21.0213 47.6471 21.064C46.7298 21.128 46.1431 21.1707 45.8871 21.192L45.7271 21ZM44.9271 13.768C45.6311 13.768 46.2498 13.736 46.7831 13.672L45.3431 8.488H44.9591L43.1991 13.768H44.9271ZM70.1039 21.384C68.1625 21.384 66.4772 20.9787 65.0479 20.168C63.6185 19.3573 62.5199 18.1947 61.7519 16.68C60.9839 15.1653 60.5999 13.3733 60.5999 11.304C60.5999 9.04267 61.0585 7.06933 61.9759 5.384C62.8932 3.69867 64.1945 2.39733 65.8799 1.48C67.5865 0.541332 69.5599 0.0719986 71.7999 0.0719986C72.5892 0.0719986 73.4319 0.135999 74.3279 0.264C75.2452 0.370667 76.0239 0.488 76.6639 0.615999C77.3039 0.743999 77.7092 0.829332 77.8799 0.872L78.0719 1.288C78.0292 1.43733 77.9545 1.77867 77.8479 2.312C77.7412 2.84533 77.6239 3.56 77.4959 4.456C77.3679 5.352 77.2719 6.30133 77.2079 7.304L74.1679 7.496C74.1679 7.41067 74.1785 7.21867 74.1999 6.92C74.2212 6.6 74.2319 6.23733 74.2319 5.832C74.2319 4.89333 73.9439 4.21067 73.3679 3.784C72.7919 3.336 71.8852 3.112 70.6479 3.112C68.9625 3.112 67.6719 3.70933 66.7759 4.904C65.9012 6.09867 65.4639 7.85867 65.4639 10.184C65.4639 12.808 65.9332 14.8453 66.8719 16.296C67.8319 17.7467 69.1652 18.472 70.8719 18.472C72.0452 18.472 72.9625 18.12 73.6239 17.416C74.2852 16.6907 74.7439 15.5493 74.9999 13.992L78.0719 13.8C78.0079 14.1627 77.8905 14.9627 77.7199 16.2C77.5705 17.4373 77.4745 18.6107 77.4319 19.72L77.1119 20.104C77.1119 20.1253 76.7492 20.2533 76.0239 20.488C75.3199 20.7013 74.4452 20.904 73.3999 21.096C72.3759 21.288 71.2772 21.384 70.1039 21.384ZM80.8626 19.4C81.524 19.2933 81.972 19.0907 82.2066 18.792C82.4626 18.472 82.5906 17.9493 82.5906 17.224V8.04C82.5906 7.528 82.5266 7.18667 82.3986 7.016C82.2706 6.84533 82.0253 6.76 81.6626 6.76H80.8946L80.7026 6.504L80.9266 4.936L84.6386 4.968C85.428 4.968 86.26 4.94667 87.1346 4.904C88.0306 4.86133 88.6493 4.82933 88.9906 4.808L88.7666 6.76C88.148 6.824 87.7 6.90933 87.4226 7.016C87.1453 7.12267 86.964 7.28267 86.8786 7.496C86.7933 7.688 86.7293 7.99733 86.6866 8.424C86.4946 11.0053 86.3986 14.0027 86.3986 17.416C86.3986 17.9707 86.4946 18.344 86.6866 18.536C86.9 18.728 87.3053 18.824 87.9026 18.824C88.7133 18.824 89.3213 18.728 89.7266 18.536C90.1533 18.3227 90.4626 17.96 90.6546 17.448C90.868 16.9147 91.0386 16.0827 91.1666 14.952L93.5986 14.696L93.7906 14.984C93.748 15.304 93.652 16.0507 93.5026 17.224C93.3533 18.3973 93.2253 19.6133 93.1186 20.872L92.8306 21.192C92.3613 21.1707 91.3266 21.128 89.7266 21.064C88.148 21.0213 86.6866 21 85.3426 21C84.34 21 83.3693 21.032 82.4306 21.096C81.492 21.1813 80.8946 21.2347 80.6386 21.256L80.8626 19.4ZM102.404 21.288C100.313 21.288 98.7561 20.8507 97.7321 19.976C96.7295 19.1013 96.2281 17.7573 96.2281 15.944V8.104C96.2281 7.54933 96.1748 7.18667 96.0681 7.016C95.9615 6.84533 95.7268 6.76 95.3641 6.76L94.5641 6.792L94.5001 6.696L94.7241 4.904C94.9801 4.904 95.4815 4.91467 96.2281 4.936C96.9961 4.95733 97.8175 4.968 98.6921 4.968C99.3321 4.968 99.9721 4.95733 100.612 4.936C101.252 4.89333 101.689 4.86133 101.924 4.84L101.7 6.696C101.188 6.73867 100.825 6.856 100.612 7.048C100.42 7.24 100.303 7.54933 100.26 7.976L100.1 15.24C100.1 16.3493 100.356 17.224 100.868 17.864C101.401 18.504 102.148 18.824 103.108 18.824C105.092 18.824 106.084 17.832 106.084 15.848C106.084 14.5893 106.063 13.1493 106.02 11.528C105.999 9.90667 105.988 8.76533 105.988 8.104C105.988 7.57067 105.935 7.21867 105.828 7.048C105.721 6.856 105.508 6.76 105.188 6.76L104.356 6.792L104.292 6.696L104.548 4.904C104.783 4.904 105.199 4.91467 105.796 4.936C106.415 4.95733 107.023 4.968 107.62 4.968C108.217 4.968 108.857 4.95733 109.54 4.936C110.244 4.89333 110.703 4.86133 110.916 4.84L110.756 6.664C110.116 6.81333 109.7 6.96267 109.508 7.112C109.337 7.24 109.252 7.496 109.252 7.88V15.432C109.252 17.3307 108.665 18.7813 107.492 19.784C106.319 20.7867 104.623 21.288 102.404 21.288ZM116.699 21C116.08 21 115.323 21.032 114.427 21.096C113.552 21.16 112.976 21.2027 112.699 21.224L112.891 19.4C113.638 19.272 114.139 19.08 114.395 18.824C114.651 18.5467 114.779 18.088 114.779 17.448L114.811 7.944C114.811 7.51733 114.747 7.21867 114.619 7.048C114.491 6.856 114.278 6.76 113.979 6.76L113.083 6.792L112.859 6.568L113.147 4.904L116.955 4.968C117.659 4.94667 118.448 4.92533 119.323 4.904C120.219 4.86133 120.848 4.82933 121.211 4.808C123.046 4.808 124.443 5.14933 125.403 5.832C126.384 6.49333 126.875 7.45333 126.875 8.712C126.875 9.39467 126.715 10.0027 126.395 10.536C126.075 11.0693 125.702 11.5067 125.275 11.848C124.848 12.168 124.464 12.392 124.123 12.52C124.934 12.6907 125.734 13.0853 126.523 13.704C127.334 14.3013 127.739 15.1333 127.739 16.2C127.739 17.7573 127.11 18.9947 125.851 19.912C124.592 20.808 122.886 21.256 120.731 21.256L119.739 21.192C118.374 21.064 117.36 21 116.699 21ZM118.715 11.656C118.928 11.6773 119.334 11.7307 119.931 11.816C120.528 11.88 120.934 11.912 121.147 11.912C121.147 11.9547 121.296 11.88 121.595 11.688C121.915 11.4747 122.192 11.1867 122.427 10.824C122.683 10.44 122.811 9.97067 122.811 9.416C122.811 8.648 122.534 8.08267 121.979 7.72C121.424 7.35733 120.56 7.176 119.387 7.176C119.216 7.176 119.099 7.208 119.035 7.272C118.971 7.336 118.928 7.45333 118.907 7.624C118.779 9.33067 118.715 10.6747 118.715 11.656ZM118.555 17.48C118.555 17.9707 118.736 18.3227 119.099 18.536C119.462 18.7493 120.07 18.856 120.923 18.856C121.734 18.856 122.363 18.6533 122.811 18.248C123.259 17.8427 123.483 17.2773 123.483 16.552C123.483 15.9547 123.27 15.4533 122.843 15.048C122.438 14.6213 121.83 14.3227 121.019 14.152H118.651L118.555 17.48Z" fill="#482812"/>
</svg>
