<svg width="23" height="18" viewBox="0 0 23 18" fill="none" xmlns="http://www.w3.org/2000/svg">
<path fill-rule="evenodd" clip-rule="evenodd" d="M18.0399 1.34041L19.4999 1.49041C21.2284 1.68578 22.5264 3.16113 22.4999 4.90041V13.1004C22.5264 14.8397 21.2284 16.3151 19.4999 16.5104L18.0999 16.6604C13.7315 17.1104 9.32835 17.1104 4.95991 16.6604L3.49991 16.5104C1.77143 16.3151 0.473464 14.8397 0.499909 13.1004V4.90041C0.473464 3.16113 1.77143 1.68578 3.49991 1.49041L4.89991 1.34041C9.26835 0.890437 13.6715 0.890437 18.0399 1.34041ZM10.6099 12.2204L14.4999 9.62039H14.5599C14.7695 9.48379 14.8959 9.25059 14.8959 9.00039C14.8959 8.75019 14.7695 8.51699 14.5599 8.38039L10.6699 5.78041C10.4402 5.62518 10.1437 5.60928 9.8987 5.73908C9.6538 5.86888 9.5004 6.1232 9.49991 6.40041V11.6004C9.5128 11.8585 9.6576 12.0918 9.8832 12.2178C10.1088 12.3438 10.3834 12.3448 10.6099 12.2204Z" fill="#F8F2EA"/>
<path d="M18.7386 0.914668C18.9825 0.93138 19.2734 0.963937 19.5502 1.00038C19.7355 1.02576 19.9076 1.06473 20.0592 1.10991C20.1897 1.14998 20.1162 1.15793 20.2045 1.18861C20.3762 1.25029 20.5401 1.2978 20.6995 1.38367C20.7517 1.41235 20.6673 1.41949 20.7218 1.44868C21.019 1.60986 21.2943 1.77479 21.5487 2.0029C22.3708 2.73809 22.8372 3.82178 22.802 4.90501C22.7949 5.4206 22.7887 5.94318 22.7822 6.47101C22.7759 6.97735 22.7378 7.59287 22.7545 8.11586C22.7564 8.17691 22.7933 8.14051 22.7963 8.15213C22.8428 8.33432 22.7684 8.27374 22.7585 8.3927C22.7195 8.86483 22.7161 9.38984 22.7304 9.8442C22.7365 10.0375 22.8097 9.84369 22.7686 10.0383C22.7658 10.0518 22.7267 10.0028 22.7225 10.0558C22.7132 10.176 22.7201 10.4041 22.717 10.4973C22.7109 10.6769 22.7113 10.7066 22.7108 10.8764C22.7099 11.1086 22.6904 11.3847 22.6993 11.6339C22.7013 11.687 22.7414 11.6166 22.7482 11.7014C22.755 11.7863 22.7516 12.0109 22.7422 12.0866C22.7327 12.1623 22.7012 12.13 22.694 12.1434C22.633 12.2537 22.7175 12.5134 22.7195 12.5468C22.7307 12.7385 22.7337 12.9216 22.7324 13.1004C22.7351 13.5137 22.6521 13.9041 22.5202 14.2978C22.3755 14.7351 22.1357 15.1772 21.8439 15.5078C21.4954 15.9007 21.1212 16.1559 20.6687 16.3808C20.6203 16.4041 20.6976 16.4199 20.638 16.4483C20.2876 16.6131 19.9104 16.717 19.5274 16.754C19.234 16.7804 18.9419 16.8028 18.6487 16.8198C18.5834 16.8235 18.6628 16.7734 18.5972 16.7747C18.4557 16.7778 18.2848 16.778 18.1134 16.7861C17.7972 16.7998 17.4795 16.8364 17.3363 16.9665C17.0649 16.9842 16.7352 17.0043 16.4901 16.9867C16.332 16.9754 16.4803 16.9189 16.2899 16.9525C16.247 16.96 16.3062 16.9952 16.2415 17.0035C15.9691 17.038 15.6694 17.0452 15.3999 17.0818C15.3451 17.0894 15.3622 17.1238 15.347 17.1311C15.2187 17.1906 14.9952 17.1174 14.9473 17.1136C14.5823 17.0866 14.3186 17.1167 13.9806 17.1286C13.9021 17.1313 13.9966 17.1753 13.9212 17.1796C13.5298 17.201 13.1236 17.2082 12.7396 17.1943C12.6542 17.191 12.7319 17.1491 12.6911 17.1455C12.5112 17.1298 12.4725 17.2069 12.2998 17.1925C12.2634 17.1896 12.2835 17.1547 12.2768 17.1509C12.1725 17.0924 12.0833 17.1778 12.0566 17.1799C11.719 17.208 11.5031 17.1198 11.1774 17.1308C11.1384 17.1321 11.2261 17.1765 11.1164 17.1776C10.3857 17.1852 9.61283 17.1547 8.89213 17.0898C8.78007 17.0797 8.8616 17.0501 8.8547 17.0458C8.74234 16.9775 8.66425 17.0591 8.62747 17.0607C8.33753 17.0707 8.07194 16.9851 7.87013 17.0751C6.89079 16.991 5.91202 16.9437 4.94446 16.8104C4.70688 16.7777 4.46985 16.7411 4.23358 16.6988C4.21836 16.6961 4.2501 16.6573 4.21973 16.6522C3.85408 16.591 3.91811 16.6631 3.66643 16.7173C3.62761 16.7256 3.54626 16.6857 3.4854 16.6516C3.44378 16.6293 3.41316 16.6088 3.40696 16.6052C3.34911 16.5708 3.42141 16.5181 3.40168 16.5102C3.24298 16.4449 3.23375 16.656 3.0002 16.6007C2.99315 16.5986 3.03245 16.5694 3.01423 16.5609C2.95792 16.5344 2.89505 16.5324 2.84178 16.5023C2.7191 16.431 2.71053 16.3246 2.50053 16.2985C2.47386 16.2939 2.46267 16.4219 2.27363 16.3229C2.19675 16.2873 1.87464 16.0949 1.79743 16.0226C1.71772 15.9545 1.79813 15.967 1.79296 15.9612C1.60428 15.7523 1.70126 15.7996 1.64726 15.6565C1.59859 15.513 1.50673 15.6654 1.45212 15.6403C1.39651 15.6156 1.2877 15.4389 1.26817 15.3917C1.2472 15.3451 1.30496 15.3761 1.28313 15.3378C1.1449 15.0828 1.13582 15.2931 1.05448 15.2331C0.863635 15.0836 0.880252 14.8576 0.801321 14.6705C0.779917 14.6189 0.773162 14.6729 0.749108 14.629C0.656018 14.4524 0.650133 14.3285 0.549719 14.1239C0.533005 14.0917 0.409341 13.9299 0.444693 13.8003C0.449848 13.7823 0.489907 13.823 0.482289 13.7388C0.47008 13.6131 0.454104 13.3888 0.441013 13.2541C0.430976 13.1549 0.379034 13.2704 0.394744 13.1434C0.402146 13.0897 0.430126 13.182 0.443375 13.0995C0.443971 13.0965 0.444534 13.0922 0.445056 13.0874C0.456355 12.9852 0.454984 12.7238 0.453906 12.6243C0.452804 12.525 0.412321 12.5794 0.409594 12.5713C0.393972 12.5228 0.374451 12.3322 0.374499 12.3154C0.369557 11.466 0.437795 10.6827 0.41521 9.85566C0.413496 9.79076 0.370806 9.83399 0.370105 9.82409C0.352219 9.60191 0.46572 9.77709 0.50371 9.62188C0.417081 9.64431 0.432767 9.55269 0.423266 9.39618C0.418618 9.32076 0.385074 9.36184 0.38164 9.35495C0.330692 9.24311 0.396498 9.16523 0.409961 9.14517C0.459481 9.0711 0.400969 8.9905 0.434069 8.94009C0.466922 8.88972 0.515626 9.00565 0.515002 8.85555C0.483991 8.81346 0.402953 8.9249 0.389819 8.81093C0.340139 8.38096 0.403722 7.57834 0.410327 7.23262C0.416926 6.88759 0.411204 6.77615 0.422412 6.5751C0.442675 6.21194 0.38255 6.34503 0.355029 6.11953C0.327511 5.89338 0.475448 6.00332 0.50725 5.97081C0.539038 5.9389 0.506316 5.90405 0.523791 5.86435C0.541261 5.82479 0.562885 5.91044 0.569445 5.81739C0.575999 5.72427 0.519446 5.46971 0.486193 5.4367C0.415744 5.36693 0.341806 5.48164 0.367785 5.23527C0.369327 5.2211 0.408226 5.26709 0.412158 5.21283C0.419339 5.1095 0.424904 5.0052 0.429582 4.90041C0.438836 4.5622 0.491029 4.21977 0.601931 3.9077C0.622198 3.85145 0.648728 3.91474 0.661031 3.88255C0.798495 3.55289 0.690687 3.65204 0.693144 3.43339C0.775571 3.51852 0.871331 3.44106 1.00156 3.20997C1.08288 3.07193 1.02938 3.07164 1.05955 2.96449C1.06869 2.93182 1.16214 2.85606 1.15721 2.82641C1.14268 2.728 1.00486 2.76348 1.21626 2.55872C1.22571 2.55011 1.22943 2.60651 1.2598 2.57498C1.46007 2.3771 1.42977 2.29829 1.66325 2.09062C1.84686 1.92652 2.24186 1.73701 2.49789 1.64159C2.54171 1.75301 2.75968 1.63533 2.83673 1.52651C3.0067 1.47651 3.1933 1.42939 3.36443 1.41582C3.4231 1.41126 3.38982 1.4516 3.3977 1.45428C3.43623 1.46822 3.46869 1.46877 3.49679 1.4628C3.55521 1.4507 3.59339 1.40837 3.6182 1.40354C4.01551 1.32979 4.34848 1.35612 4.72439 1.25524C4.73773 1.25163 4.75074 1.16552 4.8595 1.21572C4.86607 1.21899 4.76086 1.26387 4.89097 1.25702C4.90114 1.25651 4.91229 1.25574 4.92494 1.25465C5.10554 1.23896 5.44947 1.25073 5.69629 1.18944C5.75597 1.17459 5.9035 1.09283 6.03122 1.13564C6.04824 1.14148 6.03234 1.16707 6.05714 1.17846C6.13718 1.2147 6.17195 1.12635 6.26777 1.19111C6.36361 1.2559 6.55426 1.29483 6.80294 1.22662C6.81086 1.22459 6.86575 1.1529 6.94532 1.14834C7.07233 1.14108 7.25339 1.14297 7.38584 1.13412C7.44927 1.12985 7.40601 1.09061 7.41698 1.08915C7.84246 1.03901 8.14875 1.05962 8.6069 1.05504C8.69082 1.05426 8.9297 0.986977 9.09391 1.02622C9.27403 1.06933 9.09831 1.28074 9.50536 1.21856C9.66923 1.19395 9.87209 0.927001 10.1724 1.05612C10.7481 1.0111 11.2814 1.0765 11.8592 1.03202C11.8852 1.03005 11.9679 0.957764 12.0291 0.959302C12.1199 0.96172 12.1694 0.996318 12.2341 0.999322C12.5055 1.01284 12.7544 0.98825 13.0162 0.999065C13.1155 1.00316 13.0799 1.03744 13.1983 1.04255C13.3166 1.04771 13.397 1.00362 13.5568 1.03117C13.6774 1.05219 13.7951 1.15109 13.9551 1.16834C13.9649 1.07522 14.0752 1.08123 14.2725 1.06514C14.3104 1.06201 14.2714 1.02774 14.2894 1.02458C14.3629 1.01103 14.4289 1.04104 14.4987 1.02607C14.5157 1.02248 14.518 0.990637 14.532 0.985913C14.6511 0.944455 14.8399 1.02611 14.8721 1.0404C14.9961 1.09456 15.0574 1.05643 15.1534 1.08065C15.2491 1.10491 15.103 1.11985 15.2154 1.13774C15.4482 1.17478 15.7492 1.18903 15.9868 1.20739C16.0815 1.21451 16.0199 1.16742 16.0335 1.16745C16.2305 1.17063 16.4252 1.2311 16.5407 1.15515C16.6591 1.38482 16.6607 1.14305 16.9374 1.21056C16.9592 1.216 16.9783 1.32177 16.8925 1.32973C16.8066 1.3377 16.681 1.29471 16.5617 1.30903C16.5334 1.31231 16.3667 1.39683 16.3446 1.4011C16.1712 1.43408 16.1585 1.27785 16.1501 1.26865C16.0546 1.1694 15.8522 1.2603 15.8005 1.26412C15.5637 1.28133 15.3658 1.24722 15.1681 1.25947C15.0389 1.26736 15.0207 1.36813 14.9202 1.35953C14.5865 1.33151 14.4758 1.18442 14.1548 1.29358C14.086 1.317 14.1487 1.43041 13.91 1.33372C13.895 1.32759 13.7179 1.24108 13.6121 1.28815C13.5988 1.29407 13.5982 1.32643 13.5809 1.32857C13.4649 1.34235 13.3888 1.31421 13.2627 1.32299C13.1367 1.33179 12.9852 1.34638 12.8419 1.33233C12.7556 1.32389 12.6458 1.26153 12.6045 1.24605C12.4882 1.20145 12.3616 1.26934 12.2898 1.21695C12.2172 1.16431 12.3615 1.08742 12.1696 1.05175C12.1616 1.13573 12.1443 1.22183 12.1321 1.30625C11.7124 1.29895 11.2991 1.27153 10.8777 1.27913C10.8255 1.28017 10.8793 1.32484 10.8234 1.32714C10.5874 1.33676 10.3807 1.3077 10.136 1.3256C9.94666 1.33965 9.74018 1.39276 9.54267 1.41081C9.41882 1.3182 9.12571 1.36069 8.91194 1.36063C8.83703 1.36062 8.84097 1.33476 8.7874 1.32861C8.58528 1.30623 8.68308 1.38716 8.62868 1.40293C8.39556 1.47071 8.36621 1.27937 8.08773 1.29861C8.07291 1.29952 7.89828 1.41177 7.87392 1.41961C7.71875 1.47017 7.84581 1.38542 7.74672 1.38357C7.56581 1.38033 7.43894 1.3636 7.22963 1.40756C7.16855 1.42051 7.02535 1.49433 6.90233 1.45362C6.88614 1.44829 6.89241 1.41385 6.8796 1.41279C6.64787 1.39647 6.64976 1.50337 6.52185 1.5494C6.39397 1.59544 6.18618 1.53875 6.14322 1.52114C6.03103 1.47554 6.22373 1.49088 6.22912 1.4851C6.29239 1.41567 6.14573 1.43869 6.03255 1.44297C6.00735 1.34025 5.84997 1.36023 5.91524 1.44789C5.92261 1.45743 6.0095 1.44013 6.03255 1.44297C5.94226 1.55351 5.77091 1.5816 5.57094 1.50399C5.47729 1.46772 5.557 1.40734 5.2867 1.45256C5.16408 1.47321 5.2188 1.54009 5.11197 1.57042C5.0544 1.58679 4.9921 1.59746 4.92714 1.60475C4.71707 1.62919 4.47766 1.61737 4.28215 1.64644C4.18929 1.66025 4.28434 1.68965 4.22102 1.70044C4.05299 1.72919 3.90065 1.71581 3.73237 1.74905C3.71713 1.75211 3.75913 1.78906 3.70635 1.79524C3.64819 1.80217 3.59104 1.80833 3.53457 1.81393C3.2367 1.84609 2.95746 1.89635 2.65593 2.02483C2.48355 2.09478 2.20848 2.27926 2.05566 2.39231C1.78512 2.57809 1.45728 2.84412 1.30904 3.09381C1.21317 3.25494 1.27249 3.24342 1.2561 3.3247C1.22549 3.47843 1.03043 3.67923 1.0039 3.71107C1.00216 3.71177 1.05601 3.56026 1.00289 3.63086C0.942612 3.66027 1.00435 3.70957 1.0039 3.71107C0.982301 3.72815 0.871828 4.03046 0.868526 4.09553C0.864411 4.13015 0.906985 4.12059 0.904267 4.13828C0.865832 4.39023 0.850621 4.64172 0.856679 4.89498C0.858221 5.0882 0.855425 5.27659 0.848131 5.46593C0.847342 5.47427 0.803664 5.4617 0.802354 5.48132C0.782934 5.75568 0.836366 5.93135 0.868089 6.15763C0.899798 6.38387 0.889178 6.56329 0.814195 6.69721C0.823636 6.86792 0.790486 7.11282 0.770372 7.25376C0.750258 7.39468 0.83528 7.41435 0.836961 7.42675C0.890759 7.81351 0.842094 8.03709 0.83452 8.43834C0.830773 8.62911 0.843106 9.00751 0.852403 9.21406C0.859893 9.3773 0.839968 9.47564 0.852708 9.62605C0.85441 9.6464 0.892266 9.62584 0.893724 9.63205C0.939017 9.79992 0.846471 9.71925 0.829942 9.7539C0.769836 9.87956 0.737824 9.95719 0.7661 10.1722C0.772575 10.2217 0.905828 10.3662 0.913621 10.4566C0.923509 10.5741 0.875745 10.5297 0.887315 10.6528C0.888261 10.6633 0.917728 10.6611 0.916429 10.7371C0.910785 11.0896 0.893639 11.4739 0.896592 11.8402C0.896883 11.8903 0.943621 11.8261 0.94481 11.8984C0.95035 12.2377 0.94862 12.6095 0.926744 12.94C0.921212 13.0214 0.888487 12.9704 0.87877 12.988C0.859948 13.0227 0.855907 13.0621 0.859165 13.1004C0.864818 13.1795 0.906901 13.2459 0.908581 13.2609C0.975021 13.7835 1.01774 14.2097 1.32237 14.6674C1.33899 14.6947 1.53522 14.8298 1.53542 14.9546C1.53478 14.9626 1.53503 15.094 1.63638 15.1254C1.6426 15.127 1.63231 15.0537 1.70133 15.1371C1.77129 15.2211 1.91296 15.3217 1.99991 15.4506C2.02644 15.4909 2.06903 15.628 2.22516 15.6547C2.23718 15.6592 2.49239 15.647 2.51359 15.7678C2.51718 15.7872 2.4562 15.8787 2.63581 15.9027C2.66986 15.9064 2.6257 15.8614 2.70956 15.8819C2.83671 15.9124 2.99145 15.9969 3.15744 15.9899C3.18703 15.9892 3.31336 15.9456 3.39533 16.0139C3.40844 16.0246 3.37491 16.055 3.42367 16.0667C3.46403 16.0764 3.50538 16.084 3.54742 16.0899C3.76952 16.1184 4.0039 16.1299 4.22908 16.1732C4.32568 16.1917 4.27003 16.2433 4.37007 16.2689C4.47014 16.2945 4.67337 16.3301 4.78236 16.3152C4.89138 16.3002 4.78447 16.198 4.94454 16.2071C4.96507 16.2083 4.98559 16.2096 5.00609 16.2109C5.67576 16.2539 6.33346 16.3617 7.00182 16.4169C7.10392 16.4253 7.0215 16.387 7.17208 16.3968C7.72744 16.4343 8.68742 16.4533 9.16748 16.5385C9.55244 16.6075 9.06381 16.6323 9.359 16.6652C9.50162 16.6808 9.65936 16.5799 9.69384 16.5776C10.0312 16.5534 10.264 16.605 10.5673 16.5954C10.6299 16.5934 10.5692 16.5497 10.6224 16.5484C10.8042 16.5436 10.9951 16.5646 11.1688 16.562C11.2468 16.5608 11.2326 16.5281 11.3042 16.5309C11.4757 16.5371 11.6273 16.5508 11.7947 16.5807C11.81 16.5834 11.7073 16.6245 11.8344 16.6254C12.04 16.6268 12.2957 16.6546 12.5319 16.6196C12.602 16.6091 12.6034 16.5346 12.7551 16.5833C12.7869 16.5934 12.7484 16.6839 12.9226 16.6028C12.952 16.5894 13.2441 16.478 13.3907 16.5408C13.4293 16.5574 13.5291 16.6278 13.6132 16.6135C13.6246 16.6113 13.5774 16.5727 13.6472 16.5665C13.8931 16.5453 14.1513 16.5395 14.4036 16.5155C14.471 16.509 14.3686 16.4721 14.469 16.4637C14.745 16.4406 15.0905 16.4327 15.3616 16.4293C15.4615 16.4281 15.3947 16.4666 15.4022 16.4699C15.5226 16.5235 15.5865 16.4371 15.6249 16.4298C15.8636 16.3856 16.0494 16.4113 16.2704 16.3846C16.3313 16.3773 16.285 16.3415 16.2969 16.3371C16.4206 16.2936 16.3319 16.3708 16.4124 16.3724C16.638 16.3771 16.8874 16.3534 17.1132 16.3285C17.1962 16.3193 17.0988 16.2823 17.1732 16.2745C17.4625 16.2436 17.7594 16.2152 18.0517 16.1929C18.2036 16.1807 18.3562 16.1706 18.5057 16.1632C18.5877 16.1592 18.5402 16.1995 18.558 16.2056C18.681 16.2486 18.8445 16.1545 18.8833 16.143C19.0593 16.0908 19.1323 16.1141 19.2902 16.0914C19.3435 16.0837 19.3977 16.0761 19.4526 16.0687C20.097 15.9887 20.8068 15.6412 21.2263 15.211C21.8107 14.6183 22.1031 13.9609 22.1066 13.1531C22.1059 13.1016 22.0597 13.1536 22.0583 13.1097C22.0582 13.1089 22.0582 13.108 22.0582 13.1071C22.047 12.4551 22.0651 11.8197 22.0517 11.1731C22.0507 11.1199 22.0066 11.1965 22.0035 11.1112C21.9968 10.9363 21.9992 10.7146 22.0133 10.5377C22.02 10.4514 22.0579 10.5672 22.0639 10.4803C22.0781 10.2781 22.0812 10.0613 22.0742 9.85359C22.0711 9.7652 22.026 9.89857 22.0255 9.78367C22.021 9.00099 22.0132 8.23231 22.0716 7.44138C22.0756 7.38716 22.1672 7.33958 22.1497 7.22429C22.1242 7.21561 22.0943 7.21608 22.0671 7.21229C22.0572 6.43906 22.0686 5.67119 22.0786 4.90041C22.0883 4.57359 22.0459 4.25175 21.949 3.94416C21.9362 3.90409 21.9126 3.98775 21.8874 3.9111C21.7364 3.46817 21.482 3.08678 21.1696 2.71775C21.1378 2.68166 21.2161 2.63479 21.0982 2.54841C21.0784 2.53198 20.9002 2.40538 20.8428 2.39049C20.835 2.38857 20.844 2.44319 20.787 2.40518C20.455 2.18452 20.0699 2.01447 19.6795 1.91666C19.6163 1.90093 19.6923 1.87163 19.6467 1.86018C19.5864 1.84538 19.5252 1.83421 19.462 1.82583C19.1579 1.78923 18.8368 1.77195 18.5529 1.7112C18.3197 1.66115 18.4145 1.59712 18.2966 1.51239C18.2799 1.50043 18.134 1.48383 18.1308 1.44124C18.1222 1.33412 18.2047 1.22628 18.1872 1.11124C18.1836 1.08648 17.9853 1.09238 18.1071 1.04595C18.1156 1.04288 18.2594 1.03809 18.2963 1.02189C18.3221 1.01071 18.2826 0.963688 18.334 0.951273C18.3854 0.938875 18.4363 0.980115 18.5206 0.967991C18.605 0.955608 18.5738 0.903526 18.7386 0.914668ZM0.680467 7.88832C0.639637 8.01881 0.789184 8.03807 0.753404 7.89693C0.751497 7.89009 0.682471 7.88159 0.680467 7.88832ZM11.3012 1.16009C11.1307 1.0946 11.0148 1.19251 11.135 1.24272C11.2551 1.29297 11.353 1.17998 11.3012 1.16009ZM13.0669 1.13164C12.869 1.07484 12.8332 1.28618 13.0468 1.24836C13.0593 1.24624 13.0785 1.13495 13.0669 1.13164ZM18.8798 1.55164C18.8782 1.54948 18.7735 1.53677 18.7707 1.53847C18.71 1.57997 18.9195 1.60536 18.8798 1.55164ZM14.8208 1.14698C14.7602 1.115 14.5796 1.13919 14.655 1.17866C14.7157 1.21034 14.8962 1.18666 14.8208 1.14698ZM0.864354 14.6333C0.863069 14.6362 0.895356 14.7043 0.90598 14.697C0.93925 14.6739 0.883023 14.5866 0.864354 14.6333ZM17.7933 1.36966C17.3561 1.3187 17.105 1.12067 17.582 1.18493C17.6683 1.19672 17.39 1.22284 17.4988 1.249C17.6976 1.29674 17.8424 1.20048 18.0423 1.28023C18.0783 1.2947 17.8181 1.37284 17.7925 1.36983C17.7927 1.36977 17.793 1.36972 17.7933 1.36966ZM0.500842 7.96346C0.498864 7.96607 0.496989 8.0708 0.49895 8.07331C0.546426 8.13002 0.550232 7.91905 0.500842 7.96346ZM4.51652 16.6867C4.52184 16.6915 4.7632 16.7203 4.77148 16.7172C4.90554 16.6529 4.41759 16.5946 4.51652 16.6867ZM2.50314 1.64285C2.5924 1.55202 2.72842 1.49704 2.8362 1.52662C2.72335 1.55863 2.61259 1.59908 2.50314 1.64285ZM10.4871 11.7071C10.5695 11.6364 10.6946 11.5695 10.7945 11.5258C10.8258 11.512 10.8263 11.5435 10.8486 11.535C10.8921 11.5183 10.92 11.484 10.9642 11.4693C10.9789 11.4645 10.9868 11.5097 11.0017 11.5039C11.083 11.4718 11.1443 11.418 11.2213 11.3773C11.6003 11.177 11.9576 10.9571 12.3271 10.7331C12.4489 10.6593 12.6139 10.5948 12.7269 10.4992C12.7401 10.4881 12.7111 10.4631 12.7121 10.4588C12.7289 10.3916 12.756 10.463 12.7893 10.4526C12.9214 10.4113 13.0459 10.3321 13.1442 10.2493C13.186 10.214 13.1 10.1834 13.1683 10.1872C13.173 10.1874 13.1833 10.2276 13.198 10.2227C13.2313 10.2118 13.2808 10.1703 13.3043 10.1583C13.3497 10.1354 13.3564 10.1305 13.3963 10.1043C13.4511 10.0688 13.5265 10.0419 13.5798 9.99557C13.5911 9.98559 13.5523 9.96324 13.5684 9.94432C13.5844 9.92539 13.6388 9.89314 13.6617 9.88918C13.6847 9.88522 13.6947 9.91647 13.7018 9.92038C13.7615 9.95388 13.7752 9.84307 13.7819 9.83611C13.9045 9.71133 14.0534 9.66972 14.187 9.58026C14.2516 9.5369 14.3155 9.48634 14.3787 9.43912L14.4226 9.40638L14.4999 9.40236C14.5201 9.4013 14.5401 9.40039 14.5599 9.39979L14.4395 9.43558C14.4532 9.42572 14.4665 9.41576 14.4794 9.40601C14.5555 9.34821 14.6256 9.28935 14.6589 9.19572C14.6622 9.18605 14.614 9.18012 14.6176 9.16907C14.6349 9.11408 14.6446 9.05786 14.6484 9.00039C14.6526 8.93567 14.6497 8.86982 14.639 8.8C14.6369 8.78658 14.6819 8.78652 14.6816 8.7714C14.6884 8.68207 14.6292 8.49025 14.4749 8.60386C14.4636 8.59205 14.451 8.58005 14.4378 8.5678C14.392 8.52901 14.3494 8.48701 14.3242 8.43991C14.3007 8.39605 14.3612 8.38226 14.3057 8.36827C14.2932 8.36507 14.2844 8.40672 14.2673 8.39944C14.1953 8.36876 14.1327 8.31142 14.0581 8.28615C14.0429 8.28108 14.0267 8.31286 14.0196 8.31573C13.9603 8.33819 13.9567 8.23317 13.949 8.22059C13.8901 8.1256 13.8182 8.09943 13.7401 8.04581C13.7219 8.03336 13.7171 8.08734 13.6987 8.07677C13.6037 8.02143 13.5114 7.95484 13.4337 7.87756C13.4165 7.86027 13.4573 7.83882 13.4502 7.82883C13.4188 7.78523 13.367 7.84262 13.336 7.80203C13.3294 7.79355 13.3534 7.76792 13.354 7.76372C13.3631 7.69785 13.295 7.75423 13.2877 7.75163C13.1949 7.7203 13.1937 7.61317 13.1107 7.57278C13.1008 7.56803 13.0969 7.61821 13.0703 7.6026C12.8934 7.49887 12.72 7.36849 12.5709 7.22667C12.5477 7.20467 12.5847 7.18977 12.5854 7.18529C12.5938 7.11454 12.5291 7.17364 12.5188 7.17059C12.4386 7.14471 12.4152 7.04332 12.3131 7.09694C12.0472 6.87691 11.7314 6.73428 11.4987 6.46959C11.4957 6.46631 11.5255 6.43579 11.5193 6.4294C11.4459 6.35205 11.4264 6.41728 11.3249 6.44524C11.2994 6.45223 11.309 6.34299 11.309 6.33454C11.3093 6.3035 11.3586 6.26149 11.3566 6.25414C11.3394 6.19513 11.2313 6.37076 11.1784 6.3355C11.1769 6.33411 11.205 6.30721 11.2026 6.30111C11.1954 6.28205 11.1734 6.28546 11.1672 6.26559C11.1531 6.21984 11.1978 6.12923 11.1182 6.1462C11.1081 6.1485 11.0522 6.25179 11.0081 6.21567C10.9906 6.20119 10.9062 6.14722 10.8871 6.12532C10.868 6.10346 10.905 6.08283 10.9042 6.08036C10.8691 5.99698 10.9044 5.99572 10.9139 5.91338C10.9233 5.83127 10.8346 5.9828 10.8109 5.9905C10.7873 5.99813 10.7641 5.93319 10.7607 5.91375C10.7573 5.8943 10.7847 5.88383 10.7792 5.87038C10.7419 5.78188 10.7016 5.92315 10.6642 5.93159C10.6236 5.94084 10.6084 5.91739 10.5998 5.88522C10.5938 5.84984 10.5925 5.80095 10.5699 5.78148C10.5587 5.77192 10.5556 5.80353 10.5434 5.80056C10.4964 5.78984 10.481 5.74031 10.4171 5.76142C10.4052 5.76438 10.3512 5.83212 10.3335 5.77234C10.3305 5.76364 10.3465 5.73293 10.3265 5.72321C10.2966 5.70831 10.2375 5.69963 10.2039 5.71329C10.1795 5.72322 10.2119 5.77395 10.1807 5.76028C10.1664 5.75445 10.1885 5.72042 10.1608 5.71235C10.1328 5.70366 10.0648 5.71996 10.0404 5.72964C10.0158 5.73873 10.0424 5.77273 10.0412 5.77597C10.0341 5.79431 9.99968 5.82911 9.99642 5.83093C9.9833 5.83715 9.97031 5.84344 9.9574 5.84987C9.79885 5.92638 9.62817 6.05198 9.60224 6.24949C9.6003 6.26564 9.64438 6.26441 9.64451 6.26697C9.6519 6.32141 9.54819 6.25808 9.50381 6.29412C9.59055 6.30084 9.57066 6.32193 9.57771 6.36224C9.58136 6.38151 9.61544 6.3725 9.61877 6.37443C9.63748 6.38518 9.64 6.3934 9.63511 6.40065C9.62703 6.41495 9.59826 6.4248 9.58986 6.42831C9.54034 6.44914 9.59885 6.47179 9.56575 6.48596C9.5329 6.50012 9.48419 6.46754 9.48482 6.50973C9.51583 6.52156 9.59687 6.49024 9.61 6.52227C9.65968 6.64314 9.5961 6.86876 9.58949 6.96595C9.58289 7.06294 9.58861 7.09427 9.57741 7.15078C9.55714 7.25287 9.61727 7.21546 9.64479 7.27885C9.67231 7.34242 9.52437 7.31152 9.49257 7.32065C9.46078 7.32963 9.4935 7.33942 9.47603 7.35058C9.45856 7.3617 9.43693 7.33762 9.43037 7.36378C9.42382 7.38996 9.48037 7.46152 9.51363 7.4708C9.58407 7.49041 9.65801 7.45816 9.63203 7.52742C9.63049 7.5314 9.59159 7.51848 9.58766 7.53373C9.55771 7.65487 9.55586 7.78072 9.52937 7.90171C9.52567 7.91835 9.4824 7.90347 9.47975 7.91315C9.45207 8.014 9.52504 7.97795 9.60609 8.03322C9.49823 8.02081 9.43223 8.05138 9.43159 8.12791C9.43117 8.17392 9.47829 8.166 9.51149 8.19576C9.5215 8.20469 9.48915 8.23724 9.51131 8.24314C9.58373 8.2626 9.6648 8.23193 9.63252 8.31084C9.63099 8.3143 9.59134 8.30328 9.58894 8.31524C9.57323 8.39257 9.64898 8.40182 9.65816 8.48541C9.66536 8.55093 9.61916 8.66745 9.61165 8.74205C9.49037 8.74048 9.51814 8.81094 9.60176 8.83953C9.59834 8.88794 9.60306 8.94024 9.59151 8.98703C9.58757 9.00313 9.55245 8.99255 9.54866 8.99458C9.48915 9.02573 9.57049 9.04677 9.57368 9.05722C9.60469 9.17048 9.54303 9.26276 9.60329 9.37086C9.60546 9.37469 9.6897 9.38091 9.62819 9.4098C9.62395 9.41167 9.58562 9.37597 9.58266 9.42682C9.57969 9.47768 9.53453 9.57354 9.57356 9.64415C9.58296 9.66123 9.65135 9.70445 9.59792 9.73913C9.59066 9.74375 9.5665 9.7387 9.55305 9.74537C9.51021 9.76693 9.59536 9.7787 9.52303 9.80404C9.45069 9.82939 9.39652 9.8821 9.44643 9.9533C9.44788 9.95557 9.51536 9.97243 9.5143 9.99482C9.51254 10.0306 9.49848 10.0813 9.49892 10.1186C9.49915 10.1365 9.54106 10.1251 9.54182 10.1282C9.56531 10.2483 9.52795 10.3338 9.51173 10.4626C9.50868 10.4862 9.56582 10.554 9.52064 10.5996C9.47119 10.6498 9.26545 10.5983 9.31447 10.7135C9.33407 10.7601 9.59508 10.8189 9.45985 10.9025C9.49336 11.0646 9.42415 11.2144 9.472 11.377C9.47412 11.3843 9.54697 11.4074 9.54597 11.4246C9.54436 11.4501 9.51031 11.4641 9.50807 11.4823C9.5026 11.523 9.50833 11.5618 9.51418 11.6004C9.52096 11.6326 9.52991 11.664 9.53394 11.6971C9.53764 11.724 9.50097 11.722 9.50725 11.7556C9.51445 11.7898 9.56455 11.7958 9.56008 11.8448C9.55666 11.8813 9.48696 11.9564 9.50496 12.0084C9.58649 11.9622 9.60075 11.9922 9.65426 12.0215C9.66451 12.0269 9.6833 11.9981 9.6894 11.9995C9.71425 12.0041 9.70522 12.0351 9.73122 12.0365C9.73745 12.0369 9.761 12.0153 9.76724 12.0141C9.81966 12.0021 9.80485 12.0847 9.80511 12.1007C9.8015 12.159 9.84021 12.1356 9.85091 12.1652C9.86316 12.1955 9.81616 12.193 9.83741 12.2201C9.84567 12.2303 9.85525 12.2398 9.86591 12.2487C9.91391 12.2893 9.98195 12.3133 10.0375 12.3294C10.0648 12.3371 10.0567 12.2909 10.0609 12.291C10.1152 12.2944 10.169 12.3462 10.2043 12.2631C10.2321 12.4837 10.2382 12.2455 10.3113 12.2845C10.3171 12.2875 10.3368 12.3901 10.3109 12.4075C10.2844 12.4248 10.2433 12.3935 10.2053 12.4152C10.1976 12.4208 10.1345 12.5127 10.1244 12.5169C10.0545 12.5535 10.0763 12.398 10.0759 12.3895C10.0653 12.2941 9.98342 12.3788 9.96273 12.3788C9.90349 12.3829 9.85904 12.3577 9.81593 12.3382C9.79802 12.3301 9.78003 12.3228 9.76005 12.3181C9.71599 12.3073 9.65221 12.3863 9.62322 12.3601C9.52676 12.2664 9.61121 12.1482 9.44581 12.1319C9.41094 12.1266 9.32952 12.2092 9.35403 12.0812C9.35465 12.072 9.39394 11.9776 9.33339 11.9634C9.32559 11.9614 9.29594 11.9744 9.29079 11.9692C9.25695 11.9338 9.27076 11.8964 9.24511 11.8529C9.21947 11.8092 9.1884 11.7523 9.19234 11.6934C9.19392 11.6672 9.22546 11.6338 9.24799 11.613L9.24767 11.6004C9.256 11.5951 9.263 11.5907 9.26686 11.5876C9.30938 11.5546 9.23967 11.5192 9.29115 11.4987C9.3429 11.4781 9.42148 11.5184 9.45491 11.4643C9.37085 11.4623 9.28457 11.4577 9.20003 11.4545C9.20299 11.3359 9.23017 11.2193 9.22646 11.1003C9.22591 11.0856 9.18072 11.1006 9.17897 11.0848C9.17179 11.0181 9.20401 10.9599 9.19118 10.8907C9.18107 10.8371 9.13323 10.7784 9.12117 10.7224C9.21736 10.6882 9.18471 10.6051 9.1935 10.5448C9.19653 10.5236 9.22223 10.525 9.23061 10.51C9.2616 10.4533 9.1766 10.4799 9.16322 10.4643C9.10613 10.3976 9.29853 10.3919 9.29378 10.3132C9.29359 10.3091 9.19103 10.2581 9.18465 10.2511C9.143 10.2065 9.22034 10.2437 9.22792 10.2158C9.24177 10.1649 9.26626 10.1295 9.23622 10.0697C9.22732 10.0523 9.1634 10.0105 9.21285 9.97663C9.21932 9.97218 9.25322 9.97464 9.2552 9.97105C9.2883 9.90619 9.18178 9.90448 9.14571 9.86742C9.10964 9.83034 9.18317 9.77308 9.20436 9.76143C9.25918 9.73094 9.22779 9.78479 9.23317 9.78644C9.29719 9.80583 9.28617 9.76407 9.29158 9.73216C9.39602 9.72754 9.38975 9.68292 9.29677 9.69908C9.28661 9.70092 9.29635 9.72576 9.29158 9.73216C9.18911 9.70415 9.17599 9.65511 9.27174 9.60094C9.31662 9.57559 9.36895 9.59956 9.34981 9.52254C9.34117 9.48758 9.26926 9.50109 9.24965 9.47024C9.20492 9.39976 9.272 9.30819 9.26143 9.23553C9.25759 9.20916 9.21823 9.23485 9.21425 9.21683C9.20357 9.169 9.2331 9.12682 9.21797 9.07879C9.21655 9.07444 9.17535 9.08507 9.17482 9.07013C9.17004 8.9569 9.19643 8.8583 9.19716 8.74007C9.19749 8.68295 9.17477 8.58082 9.17934 8.52164C9.18701 8.41908 9.24693 8.29291 9.23238 8.2053C9.22306 8.14815 9.18184 8.16069 9.15376 8.1362C9.09933 8.08895 9.19683 8.00532 9.21193 7.99406C9.21243 7.99371 9.22215 8.04288 9.2433 8.01665C9.28738 8.00139 9.21212 7.99461 9.21193 7.99406C9.22168 7.98666 9.23104 7.88843 9.22316 7.86893C9.21885 7.85833 9.17981 7.86426 9.1783 7.85873C9.14336 7.72738 9.13343 7.5958 9.15169 7.46258C9.15248 7.46024 9.19616 7.46377 9.19746 7.45825C9.21688 7.38113 9.16345 7.33175 9.13173 7.26814C9.10002 7.20454 9.11064 7.1541 9.18562 7.11646C9.17618 7.06847 9.20933 6.99962 9.22945 6.96001C9.24956 6.92039 9.16454 6.91486 9.16286 6.91138C9.10906 6.80266 9.15773 6.73981 9.1653 6.62701C9.16905 6.57338 9.15671 6.46701 9.14742 6.40895C9.14694 6.40603 9.14657 6.40319 9.1463 6.40041C9.14282 6.3392 9.16245 6.30159 9.15863 6.24263C9.15818 6.23402 9.11948 6.23695 9.11842 6.23417C9.08545 6.15498 9.17121 6.2058 9.18986 6.19486C9.25935 6.1565 9.29484 6.1399 9.29517 6.05371C9.29455 6.03546 9.19349 5.92987 9.2052 5.88912C9.21967 5.83874 9.25267 5.87814 9.26837 5.82707C9.2699 5.82276 9.24367 5.80849 9.26236 5.78087C9.34916 5.65249 9.47776 5.54265 9.60625 5.45276C9.6241 5.44046 9.57458 5.41717 9.60091 5.39847C9.62881 5.37894 9.6583 5.36057 9.68919 5.34378C9.79604 5.28526 9.92036 5.24833 10.0349 5.24474C10.0712 5.24389 10.0545 5.28011 10.0637 5.28837C10.1166 5.33858 10.1703 5.24871 10.1829 5.2466C10.4509 5.19575 10.6399 5.32288 10.8781 5.42937C10.8812 5.43079 10.8914 5.43098 10.9053 5.43202C10.9375 5.42604 10.9999 5.41991 10.9871 5.48379C10.986 5.48937 10.968 5.57399 11.0222 5.54407C11.0255 5.54219 11.0319 5.4967 11.0585 5.51958C11.0852 5.54245 11.1472 5.55067 11.1618 5.61509C11.1665 5.63543 11.1517 5.722 11.2249 5.69403C11.2298 5.69196 11.3682 5.61068 11.3335 5.70741C11.3278 5.7233 11.2656 5.80865 11.3406 5.7937C11.355 5.79072 11.3525 5.76075 11.3833 5.76364C11.4305 5.76797 11.4607 5.82213 11.5294 5.81153C11.5415 5.80958 11.6128 5.77118 11.608 5.83331C11.6073 5.84304 11.5801 5.86727 11.5913 5.8795C11.6445 5.93778 11.7243 5.96276 11.7754 6.02623C11.7935 6.04866 11.7502 6.08816 11.7656 6.1168C11.781 6.14544 11.8209 6.18979 11.8604 6.18486C11.8998 6.17992 11.923 6.08624 11.9644 6.10522C12.1447 6.18777 12.2763 6.33977 12.4345 6.45486C12.4579 6.47193 12.456 6.43158 12.4919 6.45481C12.6241 6.54032 12.8671 6.66612 12.9424 6.79942C13.0028 6.90621 12.8648 6.86461 12.9219 6.9298C12.9495 6.96116 13.0444 6.89773 13.0544 6.90038C13.1523 6.92525 13.1814 7.00088 13.2606 7.03658C13.2769 7.04394 13.2863 6.99875 13.2999 7.00541C13.3468 7.02783 13.3812 7.07375 13.424 7.09817C13.4433 7.10904 13.458 7.07963 13.4735 7.093C13.5107 7.12469 13.5388 7.15996 13.5612 7.21172C13.5632 7.21643 13.5164 7.23404 13.5455 7.25526C13.5925 7.28951 13.6357 7.35472 13.7087 7.36597C13.7304 7.36921 13.7725 7.30759 13.7794 7.37415C13.7808 7.38808 13.7215 7.45624 13.8059 7.41948C13.82 7.41343 13.9474 7.37299 13.9441 7.45173C13.9432 7.47247 13.9254 7.54877 13.9517 7.55246C13.9554 7.55273 13.9669 7.51219 13.9855 7.51993C14.0507 7.54779 14.1091 7.59195 14.1756 7.62131C14.1934 7.62908 14.1928 7.57876 14.2186 7.59145C14.2896 7.62629 14.3651 7.68945 14.4216 7.74284C14.4424 7.76259 14.4071 7.78031 14.4067 7.78456C14.4004 7.8535 14.4623 7.79611 14.474 7.79823C14.5467 7.81232 14.5685 7.87327 14.6265 7.89974C14.6424 7.90714 14.6539 7.86775 14.6588 7.86677C14.7075 7.85833 14.6462 7.90194 14.6608 7.92099C14.6958 7.96707 14.7455 8.00071 14.7946 8.0293C14.8029 8.03404 14.8151 8.0415 14.827 8.04908C14.8585 8.06931 14.8507 8.00763 14.8792 8.02702C15.0497 8.14231 15.1866 8.32323 15.2432 8.51397C15.2537 8.54984 15.2122 8.54223 15.2079 8.55236C15.1764 8.61925 15.2702 8.66301 15.2822 8.67989C15.3355 8.74949 15.3112 8.78852 15.3262 8.85766C15.3356 8.90328 15.3417 8.95121 15.3439 9.00039C15.3657 9.32634 15.178 9.67933 14.9579 9.8586C14.9045 9.9048 14.8488 9.94384 14.7922 9.97679L14.6639 10.0512L14.5599 10.0458C14.5396 10.0442 14.5197 10.0425 14.4999 10.0408L14.7335 9.96993C14.5701 10.06 14.4219 10.1382 14.2644 10.2514C14.2511 10.2608 14.2906 10.2904 14.2795 10.299C14.1346 10.4093 13.9758 10.4936 13.8319 10.6059C13.8201 10.6151 13.8625 10.6398 13.8443 10.6557C13.8071 10.6886 13.754 10.7212 13.7048 10.7372C13.6809 10.745 13.6869 10.6955 13.6632 10.704C13.6081 10.7238 13.5557 10.7551 13.5111 10.7934C13.4921 10.8098 13.5484 10.8264 13.5218 10.8448C13.3414 10.9708 13.166 11.0973 12.9487 11.1723C12.9338 11.1775 12.8718 11.1087 12.8546 11.1413C12.8667 11.1638 12.8834 11.1886 12.8977 11.2118C12.6395 11.402 12.3583 11.5517 12.0885 11.7261C12.0772 11.7335 12.1236 11.7608 12.1017 11.7753C11.9752 11.859 11.8601 11.9521 11.7043 11.9982C11.6888 12.0029 11.648 11.9275 11.6174 11.9634C11.6121 11.9698 11.5616 12.0173 11.5572 12.0425C11.5567 12.0462 11.5892 12.0724 11.5716 12.0856C11.4685 12.1617 11.3519 12.2287 11.2322 12.2795C11.2128 12.2876 11.2075 12.2401 11.1935 12.2456C11.0943 12.2847 11.018 12.3746 10.9138 12.3978C10.844 12.4133 10.8238 12.3386 10.7542 12.2982C10.7443 12.2925 10.7091 12.3141 10.684 12.2803C10.6207 12.1955 10.573 12.0882 10.5036 11.9991C10.4887 11.9799 10.4573 12.0323 10.4519 11.9654C10.4516 11.9609 10.4741 11.9224 10.4713 11.9004C10.4693 11.8852 10.4353 11.8565 10.4372 11.8341C10.4391 11.8117 10.4718 11.8329 10.4796 11.8028C10.4873 11.7725 10.4518 11.7377 10.4871 11.7071ZM9.31935 6.78163C9.36018 6.74494 9.21064 6.73953 9.24641 6.77921C9.24832 6.78113 9.31735 6.78352 9.31935 6.78163ZM9.34297 11.2199C9.40893 11.172 9.31194 11.1392 9.261 11.173C9.21011 11.2068 9.32298 11.2345 9.34297 11.2199ZM9.40828 11.7384C9.4481 11.6689 9.23605 11.6845 9.2923 11.7561C9.29562 11.7604 9.40611 11.7427 9.40828 11.7384ZM10.8793 12.1898C10.8778 12.1885 10.852 12.2033 10.8525 12.2054C10.8658 12.2536 10.9172 12.2239 10.8793 12.1898ZM9.72508 12.176C9.72962 12.1429 9.66862 12.1297 9.66051 12.1715C9.65492 12.2068 9.72073 12.2192 9.72508 12.176ZM10.6019 5.71589C10.6015 5.71809 10.6197 5.73006 10.6254 5.71889C10.6438 5.68253 10.6098 5.67772 10.6019 5.71589ZM10.5703 12.2999C10.4357 12.3452 10.3397 12.1799 10.4539 12.1698C10.476 12.1665 10.4259 12.2373 10.4573 12.244C10.5209 12.2539 10.5083 12.1399 10.5801 12.1682C10.596 12.1724 10.5802 12.2974 10.5702 12.3002C10.5702 12.3001 10.5702 12.3 10.5703 12.2999ZM9.49898 6.7605C9.50095 6.75977 9.50283 6.73033 9.50087 6.72962C9.45339 6.71368 9.44959 6.77299 9.49898 6.7605ZM11.587 6.47937C11.586 6.48377 11.6406 6.52501 11.6446 6.52302C11.7174 6.47828 11.6071 6.39471 11.587 6.47937ZM9.60841 8.74322C9.65618 8.77535 9.6618 8.81377 9.60182 8.83938C9.60501 8.80746 9.60547 8.77532 9.60841 8.74322Z" fill="#F8F2EA"/>
</svg>
